G04*
G04 #@! TF.GenerationSoftware,Altium Limited,Altium Designer,18.1.9 (240)*
G04*
G04 Layer_Color=255*
%FSAX24Y24*%
%MOIN*%
G70*
G01*
G75*
%ADD27C,0.0070*%
%ADD28O,0.0600X0.0800*%
%ADD29R,0.0600X0.0600*%
D27*
X036660Y031661D02*
D03*
X036577D02*
D03*
X036493D02*
D03*
X036410D02*
D03*
X036660Y030741D02*
D03*
X036577D02*
D03*
X036493D02*
D03*
X036410D02*
D03*
X019740Y031659D02*
D03*
X019823D02*
D03*
X019907D02*
D03*
X019990D02*
D03*
X019460D02*
D03*
X019377D02*
D03*
X019293D02*
D03*
X019210D02*
D03*
X019460Y030741D02*
D03*
X019377D02*
D03*
X019293D02*
D03*
X019210D02*
D03*
X019990D02*
D03*
X019907D02*
D03*
X019823D02*
D03*
X019740D02*
D03*
D28*
X006925Y003425D02*
D03*
X007925D02*
D03*
X008925D02*
D03*
X009925D02*
D03*
X010925D02*
D03*
X011925D02*
D03*
X012925D02*
D03*
X013925D02*
D03*
X014925D02*
D03*
X015925D02*
D03*
X016925D02*
D03*
X024125D02*
D03*
X025125D02*
D03*
X026125D02*
D03*
X027125D02*
D03*
X028125D02*
D03*
X029125D02*
D03*
X030125D02*
D03*
X031125D02*
D03*
X032125D02*
D03*
X033125D02*
D03*
X034125D02*
D03*
X041325D02*
D03*
X042325D02*
D03*
X043325D02*
D03*
X044325D02*
D03*
X045325D02*
D03*
X046325D02*
D03*
X047325D02*
D03*
X048325D02*
D03*
X049325D02*
D03*
X050325D02*
D03*
X051325D02*
D03*
X058525D02*
D03*
X059525D02*
D03*
X060525D02*
D03*
X061525D02*
D03*
X062525D02*
D03*
X063525D02*
D03*
X064525D02*
D03*
X065525D02*
D03*
X066525D02*
D03*
X067525D02*
D03*
X068525D02*
D03*
X006925Y018025D02*
D03*
X007925D02*
D03*
X008925D02*
D03*
X009925D02*
D03*
X010925D02*
D03*
X011925D02*
D03*
X012925D02*
D03*
X013925D02*
D03*
X014925D02*
D03*
X015925D02*
D03*
X016925D02*
D03*
X024125D02*
D03*
X025125D02*
D03*
X026125D02*
D03*
X027125D02*
D03*
X028125D02*
D03*
X029125D02*
D03*
X030125D02*
D03*
X031125D02*
D03*
X032125D02*
D03*
X033125D02*
D03*
X034125D02*
D03*
X041325D02*
D03*
X042325D02*
D03*
X043325D02*
D03*
X044325D02*
D03*
X045325D02*
D03*
X046325D02*
D03*
X047325D02*
D03*
X048325D02*
D03*
X049325D02*
D03*
X050325D02*
D03*
X051325D02*
D03*
X058525D02*
D03*
X059525D02*
D03*
X060525D02*
D03*
X061525D02*
D03*
X062525D02*
D03*
X063525D02*
D03*
X064525D02*
D03*
X065525D02*
D03*
X066525D02*
D03*
X067525D02*
D03*
X068525D02*
D03*
X006925Y032625D02*
D03*
X007925D02*
D03*
X008925D02*
D03*
X009925D02*
D03*
X010925D02*
D03*
X011925D02*
D03*
X012925D02*
D03*
X013925D02*
D03*
X014925D02*
D03*
X015925D02*
D03*
X016925D02*
D03*
X024125D02*
D03*
X025125D02*
D03*
X026125D02*
D03*
X027125D02*
D03*
X028125D02*
D03*
X029125D02*
D03*
X030125D02*
D03*
X031125D02*
D03*
X032125D02*
D03*
X033125D02*
D03*
X034125D02*
D03*
X041325D02*
D03*
X042325D02*
D03*
X043325D02*
D03*
X044325D02*
D03*
X045325D02*
D03*
X046325D02*
D03*
X047325D02*
D03*
X048325D02*
D03*
X049325D02*
D03*
X050325D02*
D03*
X051325D02*
D03*
X058525D02*
D03*
X059525D02*
D03*
X060525D02*
D03*
X061525D02*
D03*
X062525D02*
D03*
X063525D02*
D03*
X064525D02*
D03*
X065525D02*
D03*
X066525D02*
D03*
X067525D02*
D03*
X068525D02*
D03*
X006925Y047225D02*
D03*
X007925D02*
D03*
X008925D02*
D03*
X009925D02*
D03*
X010925D02*
D03*
X011925D02*
D03*
X012925D02*
D03*
X013925D02*
D03*
X014925D02*
D03*
X015925D02*
D03*
X016925D02*
D03*
X024125D02*
D03*
X025125D02*
D03*
X026125D02*
D03*
X027125D02*
D03*
X028125D02*
D03*
X029125D02*
D03*
X030125D02*
D03*
X031125D02*
D03*
X032125D02*
D03*
X033125D02*
D03*
X034125D02*
D03*
X041325D02*
D03*
X042325D02*
D03*
X043325D02*
D03*
X044325D02*
D03*
X045325D02*
D03*
X046325D02*
D03*
X047325D02*
D03*
X048325D02*
D03*
X049325D02*
D03*
X050325D02*
D03*
X051325D02*
D03*
X058525D02*
D03*
X059525D02*
D03*
X060525D02*
D03*
X061525D02*
D03*
X062525D02*
D03*
X063525D02*
D03*
X064525D02*
D03*
X065525D02*
D03*
X066525D02*
D03*
X067525D02*
D03*
X068525D02*
D03*
D29*
X005925Y003425D02*
D03*
X023125D02*
D03*
X040325D02*
D03*
X057525D02*
D03*
X005925Y018025D02*
D03*
X023125D02*
D03*
X040325D02*
D03*
X057525D02*
D03*
X005925Y032625D02*
D03*
X023125D02*
D03*
X040325D02*
D03*
X057525D02*
D03*
X005925Y047225D02*
D03*
X023125D02*
D03*
X040325D02*
D03*
X057525D02*
D03*
M02*
