G04*
G04 #@! TF.GenerationSoftware,Altium Limited,Altium Designer,18.1.9 (240)*
G04*
G04 Layer_Color=8388736*
%FSLAX24Y24*%
%MOIN*%
G70*
G01*
G75*
%ADD27C,0.0400*%
%ADD36C,0.1000*%
%ADD37R,0.1360X0.0680*%
%ADD38R,0.0780X0.0360*%
%ADD39R,0.0880X0.1080*%
%ADD40R,0.0480X0.0590*%
%ADD41R,0.0540X0.1930*%
%ADD42R,0.1080X0.1380*%
%ADD43R,0.0780X0.0580*%
%ADD44R,0.0720X0.0720*%
%ADD45R,0.0590X0.0480*%
%ADD46O,0.0680X0.0880*%
%ADD47R,0.0680X0.0680*%
%ADD48C,0.0380*%
%ADD49C,0.0430*%
D27*
X6680Y5960D02*
D03*
X23880D02*
D03*
X41080D02*
D03*
X58280D02*
D03*
X6680Y20760D02*
D03*
X23880D02*
D03*
X41080D02*
D03*
X58280D02*
D03*
X6680Y35560D02*
D03*
X23880D02*
D03*
X41080D02*
D03*
X58280D02*
D03*
X6680Y50360D02*
D03*
X23880D02*
D03*
X41080D02*
D03*
X58280D02*
D03*
D36*
X72600Y3500D02*
D03*
Y58900D02*
D03*
X1000D02*
D03*
Y3500D02*
D03*
D37*
X18125Y12275D02*
D03*
X15025D02*
D03*
X18125Y7525D02*
D03*
X15025D02*
D03*
X35325Y12275D02*
D03*
X32225D02*
D03*
X35325Y7525D02*
D03*
X32225D02*
D03*
X52525Y12275D02*
D03*
X49425D02*
D03*
X52525Y7525D02*
D03*
X49425D02*
D03*
X69725Y12275D02*
D03*
X66625D02*
D03*
X69725Y7525D02*
D03*
X66625D02*
D03*
X18125Y27075D02*
D03*
X15025D02*
D03*
X18125Y22325D02*
D03*
X15025D02*
D03*
X35325Y27075D02*
D03*
X32225D02*
D03*
X35325Y22325D02*
D03*
X32225D02*
D03*
X52525Y27075D02*
D03*
X49425D02*
D03*
X52525Y22325D02*
D03*
X49425D02*
D03*
X69725Y27075D02*
D03*
X66625D02*
D03*
X69725Y22325D02*
D03*
X66625D02*
D03*
X18125Y41875D02*
D03*
X15025D02*
D03*
X18125Y37125D02*
D03*
X15025D02*
D03*
X35325Y41875D02*
D03*
X32225D02*
D03*
X35325Y37125D02*
D03*
X32225D02*
D03*
X52525Y41875D02*
D03*
X49425D02*
D03*
X52525Y37125D02*
D03*
X49425D02*
D03*
X69725Y41875D02*
D03*
X66625D02*
D03*
X69725Y37125D02*
D03*
X66625D02*
D03*
X18125Y56675D02*
D03*
X15025D02*
D03*
X18125Y51925D02*
D03*
X15025D02*
D03*
X35325Y56675D02*
D03*
X32225D02*
D03*
X35325Y51925D02*
D03*
X32225D02*
D03*
X52525Y56675D02*
D03*
X49425D02*
D03*
X52525Y51925D02*
D03*
X49425D02*
D03*
X69725Y56675D02*
D03*
X66625D02*
D03*
X69725Y51925D02*
D03*
X66625D02*
D03*
D38*
X11875Y10025D02*
D03*
Y8525D02*
D03*
Y9025D02*
D03*
Y9525D02*
D03*
X9775Y10025D02*
D03*
Y8525D02*
D03*
Y9025D02*
D03*
Y9525D02*
D03*
X29075Y10025D02*
D03*
Y8525D02*
D03*
Y9025D02*
D03*
Y9525D02*
D03*
X26975Y10025D02*
D03*
Y8525D02*
D03*
Y9025D02*
D03*
Y9525D02*
D03*
X46275Y10025D02*
D03*
Y8525D02*
D03*
Y9025D02*
D03*
Y9525D02*
D03*
X44175Y10025D02*
D03*
Y8525D02*
D03*
Y9025D02*
D03*
Y9525D02*
D03*
X63475Y10025D02*
D03*
Y8525D02*
D03*
Y9025D02*
D03*
Y9525D02*
D03*
X61375Y10025D02*
D03*
Y8525D02*
D03*
Y9025D02*
D03*
Y9525D02*
D03*
X11875Y24825D02*
D03*
Y23325D02*
D03*
Y23825D02*
D03*
Y24325D02*
D03*
X9775Y24825D02*
D03*
Y23325D02*
D03*
Y23825D02*
D03*
Y24325D02*
D03*
X29075Y24825D02*
D03*
Y23325D02*
D03*
Y23825D02*
D03*
Y24325D02*
D03*
X26975Y24825D02*
D03*
Y23325D02*
D03*
Y23825D02*
D03*
Y24325D02*
D03*
X46275Y24825D02*
D03*
Y23325D02*
D03*
Y23825D02*
D03*
Y24325D02*
D03*
X44175Y24825D02*
D03*
Y23325D02*
D03*
Y23825D02*
D03*
Y24325D02*
D03*
X63475Y24825D02*
D03*
Y23325D02*
D03*
Y23825D02*
D03*
Y24325D02*
D03*
X61375Y24825D02*
D03*
Y23325D02*
D03*
Y23825D02*
D03*
Y24325D02*
D03*
X11875Y39625D02*
D03*
Y38125D02*
D03*
Y38625D02*
D03*
Y39125D02*
D03*
X9775Y39625D02*
D03*
Y38125D02*
D03*
Y38625D02*
D03*
Y39125D02*
D03*
X29075Y39625D02*
D03*
Y38125D02*
D03*
Y38625D02*
D03*
Y39125D02*
D03*
X26975Y39625D02*
D03*
Y38125D02*
D03*
Y38625D02*
D03*
Y39125D02*
D03*
X46275Y39625D02*
D03*
Y38125D02*
D03*
Y38625D02*
D03*
Y39125D02*
D03*
X44175Y39625D02*
D03*
Y38125D02*
D03*
Y38625D02*
D03*
Y39125D02*
D03*
X63475Y39625D02*
D03*
Y38125D02*
D03*
Y38625D02*
D03*
Y39125D02*
D03*
X61375Y39625D02*
D03*
Y38125D02*
D03*
Y38625D02*
D03*
Y39125D02*
D03*
X11875Y54425D02*
D03*
Y52925D02*
D03*
Y53425D02*
D03*
Y53925D02*
D03*
X9775Y54425D02*
D03*
Y52925D02*
D03*
Y53425D02*
D03*
Y53925D02*
D03*
X29075Y54425D02*
D03*
Y52925D02*
D03*
Y53425D02*
D03*
Y53925D02*
D03*
X26975Y54425D02*
D03*
Y52925D02*
D03*
Y53425D02*
D03*
Y53925D02*
D03*
X46275Y54425D02*
D03*
Y52925D02*
D03*
Y53425D02*
D03*
Y53925D02*
D03*
X44175Y54425D02*
D03*
Y52925D02*
D03*
Y53425D02*
D03*
Y53925D02*
D03*
X63475Y54425D02*
D03*
Y52925D02*
D03*
Y53425D02*
D03*
Y53925D02*
D03*
X61375Y54425D02*
D03*
Y52925D02*
D03*
Y53425D02*
D03*
Y53925D02*
D03*
D39*
X10835Y9275D02*
D03*
X28035D02*
D03*
X45235D02*
D03*
X62435D02*
D03*
X10835Y24075D02*
D03*
X28035D02*
D03*
X45235D02*
D03*
X62435D02*
D03*
X10835Y38875D02*
D03*
X28035D02*
D03*
X45235D02*
D03*
X62435D02*
D03*
X10835Y53675D02*
D03*
X28035D02*
D03*
X45235D02*
D03*
X62435D02*
D03*
D40*
X6195Y10525D02*
D03*
X7025D02*
D03*
X6195Y9275D02*
D03*
X7025D02*
D03*
X23395Y10525D02*
D03*
X24225D02*
D03*
X23395Y9275D02*
D03*
X24225D02*
D03*
X40595Y10525D02*
D03*
X41425D02*
D03*
X40595Y9275D02*
D03*
X41425D02*
D03*
X57795Y10525D02*
D03*
X58625D02*
D03*
X57795Y9275D02*
D03*
X58625D02*
D03*
X6195Y25325D02*
D03*
X7025D02*
D03*
X6195Y24075D02*
D03*
X7025D02*
D03*
X23395Y25325D02*
D03*
X24225D02*
D03*
X23395Y24075D02*
D03*
X24225D02*
D03*
X40595Y25325D02*
D03*
X41425D02*
D03*
X40595Y24075D02*
D03*
X41425D02*
D03*
X57795Y25325D02*
D03*
X58625D02*
D03*
X57795Y24075D02*
D03*
X58625D02*
D03*
X6195Y40125D02*
D03*
X7025D02*
D03*
X6195Y38875D02*
D03*
X7025D02*
D03*
X23395Y40125D02*
D03*
X24225D02*
D03*
X23395Y38875D02*
D03*
X24225D02*
D03*
X40595Y40125D02*
D03*
X41425D02*
D03*
X40595Y38875D02*
D03*
X41425D02*
D03*
X57795Y40125D02*
D03*
X58625D02*
D03*
X57795Y38875D02*
D03*
X58625D02*
D03*
X6195Y54925D02*
D03*
X7025D02*
D03*
X6195Y53675D02*
D03*
X7025D02*
D03*
X23395Y54925D02*
D03*
X24225D02*
D03*
X23395Y53675D02*
D03*
X24225D02*
D03*
X40595Y54925D02*
D03*
X41425D02*
D03*
X40595Y53675D02*
D03*
X41425D02*
D03*
X57795Y54925D02*
D03*
X58625D02*
D03*
X57795Y53675D02*
D03*
X58625D02*
D03*
D41*
X11475Y12275D02*
D03*
X12775D02*
D03*
X28675D02*
D03*
X29975D02*
D03*
X45875D02*
D03*
X47175D02*
D03*
X63075D02*
D03*
X64375D02*
D03*
X11475Y27075D02*
D03*
X12775D02*
D03*
X28675D02*
D03*
X29975D02*
D03*
X45875D02*
D03*
X47175D02*
D03*
X63075D02*
D03*
X64375D02*
D03*
X11475Y41875D02*
D03*
X12775D02*
D03*
X28675D02*
D03*
X29975D02*
D03*
X45875D02*
D03*
X47175D02*
D03*
X63075D02*
D03*
X64375D02*
D03*
X11475Y56675D02*
D03*
X12775D02*
D03*
X28675D02*
D03*
X29975D02*
D03*
X45875D02*
D03*
X47175D02*
D03*
X63075D02*
D03*
X64375D02*
D03*
D42*
X8525Y14525D02*
D03*
X11225D02*
D03*
X25725D02*
D03*
X28425D02*
D03*
X42925D02*
D03*
X45625D02*
D03*
X60125D02*
D03*
X62825D02*
D03*
X8525Y29325D02*
D03*
X11225D02*
D03*
X25725D02*
D03*
X28425D02*
D03*
X42925D02*
D03*
X45625D02*
D03*
X60125D02*
D03*
X62825D02*
D03*
X8525Y44125D02*
D03*
X11225D02*
D03*
X25725D02*
D03*
X28425D02*
D03*
X42925D02*
D03*
X45625D02*
D03*
X60125D02*
D03*
X62825D02*
D03*
X8525Y58925D02*
D03*
X11225D02*
D03*
X25725D02*
D03*
X28425D02*
D03*
X42925D02*
D03*
X45625D02*
D03*
X60125D02*
D03*
X62825D02*
D03*
D43*
X8275Y6525D02*
D03*
Y8025D02*
D03*
X12025Y7025D02*
D03*
Y5525D02*
D03*
X25475Y6525D02*
D03*
Y8025D02*
D03*
X29225Y7025D02*
D03*
Y5525D02*
D03*
X42675Y6525D02*
D03*
Y8025D02*
D03*
X46425Y7025D02*
D03*
Y5525D02*
D03*
X59875Y6525D02*
D03*
Y8025D02*
D03*
X63625Y7025D02*
D03*
Y5525D02*
D03*
X8275Y21325D02*
D03*
Y22825D02*
D03*
X12025Y21825D02*
D03*
Y20325D02*
D03*
X25475Y21325D02*
D03*
Y22825D02*
D03*
X29225Y21825D02*
D03*
Y20325D02*
D03*
X42675Y21325D02*
D03*
Y22825D02*
D03*
X46425Y21825D02*
D03*
Y20325D02*
D03*
X59875Y21325D02*
D03*
Y22825D02*
D03*
X63625Y21825D02*
D03*
Y20325D02*
D03*
X8275Y36125D02*
D03*
Y37625D02*
D03*
X12025Y36625D02*
D03*
Y35125D02*
D03*
X25475Y36125D02*
D03*
Y37625D02*
D03*
X29225Y36625D02*
D03*
Y35125D02*
D03*
X42675Y36125D02*
D03*
Y37625D02*
D03*
X46425Y36625D02*
D03*
Y35125D02*
D03*
X59875Y36125D02*
D03*
Y37625D02*
D03*
X63625Y36625D02*
D03*
Y35125D02*
D03*
X8275Y50925D02*
D03*
Y52425D02*
D03*
X12025Y51425D02*
D03*
Y49925D02*
D03*
X25475Y50925D02*
D03*
Y52425D02*
D03*
X29225Y51425D02*
D03*
Y49925D02*
D03*
X42675Y50925D02*
D03*
Y52425D02*
D03*
X46425Y51425D02*
D03*
Y49925D02*
D03*
X59875Y50925D02*
D03*
Y52425D02*
D03*
X63625Y51425D02*
D03*
Y49925D02*
D03*
D44*
X9365Y12275D02*
D03*
X8025D02*
D03*
X26565D02*
D03*
X25225D02*
D03*
X43765D02*
D03*
X42425D02*
D03*
X60965D02*
D03*
X59625D02*
D03*
X9365Y27075D02*
D03*
X8025D02*
D03*
X26565D02*
D03*
X25225D02*
D03*
X43765D02*
D03*
X42425D02*
D03*
X60965D02*
D03*
X59625D02*
D03*
X9365Y41875D02*
D03*
X8025D02*
D03*
X26565D02*
D03*
X25225D02*
D03*
X43765D02*
D03*
X42425D02*
D03*
X60965D02*
D03*
X59625D02*
D03*
X9365Y56675D02*
D03*
X8025D02*
D03*
X26565D02*
D03*
X25225D02*
D03*
X43765D02*
D03*
X42425D02*
D03*
X60965D02*
D03*
X59625D02*
D03*
D45*
X13275Y8695D02*
D03*
Y9525D02*
D03*
X10025Y6605D02*
D03*
Y5775D02*
D03*
X30475Y8695D02*
D03*
Y9525D02*
D03*
X27225Y6605D02*
D03*
Y5775D02*
D03*
X47675Y8695D02*
D03*
Y9525D02*
D03*
X44425Y6605D02*
D03*
Y5775D02*
D03*
X64875Y8695D02*
D03*
Y9525D02*
D03*
X61625Y6605D02*
D03*
Y5775D02*
D03*
X13275Y23495D02*
D03*
Y24325D02*
D03*
X10025Y21405D02*
D03*
Y20575D02*
D03*
X30475Y23495D02*
D03*
Y24325D02*
D03*
X27225Y21405D02*
D03*
Y20575D02*
D03*
X47675Y23495D02*
D03*
Y24325D02*
D03*
X44425Y21405D02*
D03*
Y20575D02*
D03*
X64875Y23495D02*
D03*
Y24325D02*
D03*
X61625Y21405D02*
D03*
Y20575D02*
D03*
X13275Y38295D02*
D03*
Y39125D02*
D03*
X10025Y36205D02*
D03*
Y35375D02*
D03*
X30475Y38295D02*
D03*
Y39125D02*
D03*
X27225Y36205D02*
D03*
Y35375D02*
D03*
X47675Y38295D02*
D03*
Y39125D02*
D03*
X44425Y36205D02*
D03*
Y35375D02*
D03*
X64875Y38295D02*
D03*
Y39125D02*
D03*
X61625Y36205D02*
D03*
Y35375D02*
D03*
X13275Y53095D02*
D03*
Y53925D02*
D03*
X10025Y51005D02*
D03*
Y50175D02*
D03*
X30475Y53095D02*
D03*
Y53925D02*
D03*
X27225Y51005D02*
D03*
Y50175D02*
D03*
X47675Y53095D02*
D03*
Y53925D02*
D03*
X44425Y51005D02*
D03*
Y50175D02*
D03*
X64875Y53095D02*
D03*
Y53925D02*
D03*
X61625Y51005D02*
D03*
Y50175D02*
D03*
D46*
X6925Y3425D02*
D03*
X7925D02*
D03*
X8925D02*
D03*
X9925D02*
D03*
X10925D02*
D03*
X11925D02*
D03*
X12925D02*
D03*
X13925D02*
D03*
X14925D02*
D03*
X15925D02*
D03*
X16925D02*
D03*
X24125D02*
D03*
X25125D02*
D03*
X26125D02*
D03*
X27125D02*
D03*
X28125D02*
D03*
X29125D02*
D03*
X30125D02*
D03*
X31125D02*
D03*
X32125D02*
D03*
X33125D02*
D03*
X34125D02*
D03*
X41325D02*
D03*
X42325D02*
D03*
X43325D02*
D03*
X44325D02*
D03*
X45325D02*
D03*
X46325D02*
D03*
X47325D02*
D03*
X48325D02*
D03*
X49325D02*
D03*
X50325D02*
D03*
X51325D02*
D03*
X58525D02*
D03*
X59525D02*
D03*
X60525D02*
D03*
X61525D02*
D03*
X62525D02*
D03*
X63525D02*
D03*
X64525D02*
D03*
X65525D02*
D03*
X66525D02*
D03*
X67525D02*
D03*
X68525D02*
D03*
X6925Y18225D02*
D03*
X7925D02*
D03*
X8925D02*
D03*
X9925D02*
D03*
X10925D02*
D03*
X11925D02*
D03*
X12925D02*
D03*
X13925D02*
D03*
X14925D02*
D03*
X15925D02*
D03*
X16925D02*
D03*
X24125D02*
D03*
X25125D02*
D03*
X26125D02*
D03*
X27125D02*
D03*
X28125D02*
D03*
X29125D02*
D03*
X30125D02*
D03*
X31125D02*
D03*
X32125D02*
D03*
X33125D02*
D03*
X34125D02*
D03*
X41325D02*
D03*
X42325D02*
D03*
X43325D02*
D03*
X44325D02*
D03*
X45325D02*
D03*
X46325D02*
D03*
X47325D02*
D03*
X48325D02*
D03*
X49325D02*
D03*
X50325D02*
D03*
X51325D02*
D03*
X58525D02*
D03*
X59525D02*
D03*
X60525D02*
D03*
X61525D02*
D03*
X62525D02*
D03*
X63525D02*
D03*
X64525D02*
D03*
X65525D02*
D03*
X66525D02*
D03*
X67525D02*
D03*
X68525D02*
D03*
X6925Y33025D02*
D03*
X7925D02*
D03*
X8925D02*
D03*
X9925D02*
D03*
X10925D02*
D03*
X11925D02*
D03*
X12925D02*
D03*
X13925D02*
D03*
X14925D02*
D03*
X15925D02*
D03*
X16925D02*
D03*
X24125D02*
D03*
X25125D02*
D03*
X26125D02*
D03*
X27125D02*
D03*
X28125D02*
D03*
X29125D02*
D03*
X30125D02*
D03*
X31125D02*
D03*
X32125D02*
D03*
X33125D02*
D03*
X34125D02*
D03*
X41325D02*
D03*
X42325D02*
D03*
X43325D02*
D03*
X44325D02*
D03*
X45325D02*
D03*
X46325D02*
D03*
X47325D02*
D03*
X48325D02*
D03*
X49325D02*
D03*
X50325D02*
D03*
X51325D02*
D03*
X58525D02*
D03*
X59525D02*
D03*
X60525D02*
D03*
X61525D02*
D03*
X62525D02*
D03*
X63525D02*
D03*
X64525D02*
D03*
X65525D02*
D03*
X66525D02*
D03*
X67525D02*
D03*
X68525D02*
D03*
X6925Y47825D02*
D03*
X7925D02*
D03*
X8925D02*
D03*
X9925D02*
D03*
X10925D02*
D03*
X11925D02*
D03*
X12925D02*
D03*
X13925D02*
D03*
X14925D02*
D03*
X15925D02*
D03*
X16925D02*
D03*
X24125D02*
D03*
X25125D02*
D03*
X26125D02*
D03*
X27125D02*
D03*
X28125D02*
D03*
X29125D02*
D03*
X30125D02*
D03*
X31125D02*
D03*
X32125D02*
D03*
X33125D02*
D03*
X34125D02*
D03*
X41325D02*
D03*
X42325D02*
D03*
X43325D02*
D03*
X44325D02*
D03*
X45325D02*
D03*
X46325D02*
D03*
X47325D02*
D03*
X48325D02*
D03*
X49325D02*
D03*
X50325D02*
D03*
X51325D02*
D03*
X58525D02*
D03*
X59525D02*
D03*
X60525D02*
D03*
X61525D02*
D03*
X62525D02*
D03*
X63525D02*
D03*
X64525D02*
D03*
X65525D02*
D03*
X66525D02*
D03*
X67525D02*
D03*
X68525D02*
D03*
D47*
X5925Y3425D02*
D03*
X23125D02*
D03*
X40325D02*
D03*
X57525D02*
D03*
X5925Y18225D02*
D03*
X23125D02*
D03*
X40325D02*
D03*
X57525D02*
D03*
X5925Y33025D02*
D03*
X23125D02*
D03*
X40325D02*
D03*
X57525D02*
D03*
X5925Y47825D02*
D03*
X23125D02*
D03*
X40325D02*
D03*
X57525D02*
D03*
D48*
X13690Y5290D02*
D03*
X13775Y11525D02*
D03*
X7025Y15025D02*
D03*
X30890Y5290D02*
D03*
X30975Y11525D02*
D03*
X24225Y15025D02*
D03*
X48090Y5290D02*
D03*
X48175Y11525D02*
D03*
X41425Y15025D02*
D03*
X65290Y5290D02*
D03*
X65375Y11525D02*
D03*
X58625Y15025D02*
D03*
X13690Y20090D02*
D03*
X13775Y26325D02*
D03*
X7025Y29825D02*
D03*
X30890Y20090D02*
D03*
X30975Y26325D02*
D03*
X24225Y29825D02*
D03*
X48090Y20090D02*
D03*
X48175Y26325D02*
D03*
X41425Y29825D02*
D03*
X65290Y20090D02*
D03*
X65375Y26325D02*
D03*
X58625Y29825D02*
D03*
X13690Y34890D02*
D03*
X13775Y41125D02*
D03*
X7025Y44625D02*
D03*
X30890Y34890D02*
D03*
X30975Y41125D02*
D03*
X24225Y44625D02*
D03*
X48090Y34890D02*
D03*
X48175Y41125D02*
D03*
X41425Y44625D02*
D03*
X65290Y34890D02*
D03*
X65375Y41125D02*
D03*
X58625Y44625D02*
D03*
X13690Y49690D02*
D03*
X13775Y55925D02*
D03*
X7025Y59425D02*
D03*
X30890Y49690D02*
D03*
X30975Y55925D02*
D03*
X24225Y59425D02*
D03*
X48090Y49690D02*
D03*
X48175Y55925D02*
D03*
X41425Y59425D02*
D03*
X65290Y49690D02*
D03*
X65375Y55925D02*
D03*
X58625Y59425D02*
D03*
D49*
X13040Y6150D02*
D03*
X30240D02*
D03*
X47440D02*
D03*
X64640D02*
D03*
X13040Y20950D02*
D03*
X30240D02*
D03*
X47440D02*
D03*
X64640D02*
D03*
X13040Y35750D02*
D03*
X30240D02*
D03*
X47440D02*
D03*
X64640D02*
D03*
X13040Y50550D02*
D03*
X30240D02*
D03*
X47440D02*
D03*
X64640D02*
D03*
M02*
