G04*
G04 #@! TF.GenerationSoftware,Altium Limited,Altium Designer,18.1.9 (240)*
G04*
G04 Layer_Color=8421504*
%FSLAX24Y24*%
%MOIN*%
G70*
G01*
G75*
%ADD10C,0.0500*%
%ADD11R,0.1280X0.0600*%
%ADD12R,0.0700X0.0280*%
%ADD13R,0.0800X0.1000*%
%ADD14R,0.0400X0.0510*%
%ADD15R,0.0460X0.1850*%
%ADD16R,0.1000X0.1300*%
%ADD17R,0.0700X0.0500*%
%ADD18R,0.0640X0.0640*%
%ADD19R,0.0510X0.0400*%
D10*
X72600Y3500D02*
D03*
Y58900D02*
D03*
X1000D02*
D03*
Y3500D02*
D03*
D11*
X18125Y12275D02*
D03*
X15025D02*
D03*
X18125Y7525D02*
D03*
X15025D02*
D03*
X35325Y12275D02*
D03*
X32225D02*
D03*
X35325Y7525D02*
D03*
X32225D02*
D03*
X52525Y12275D02*
D03*
X49425D02*
D03*
X52525Y7525D02*
D03*
X49425D02*
D03*
X69725Y12275D02*
D03*
X66625D02*
D03*
X69725Y7525D02*
D03*
X66625D02*
D03*
X18125Y27075D02*
D03*
X15025D02*
D03*
X18125Y22325D02*
D03*
X15025D02*
D03*
X35325Y27075D02*
D03*
X32225D02*
D03*
X35325Y22325D02*
D03*
X32225D02*
D03*
X52525Y27075D02*
D03*
X49425D02*
D03*
X52525Y22325D02*
D03*
X49425D02*
D03*
X69725Y27075D02*
D03*
X66625D02*
D03*
X69725Y22325D02*
D03*
X66625D02*
D03*
X18125Y41875D02*
D03*
X15025D02*
D03*
X18125Y37125D02*
D03*
X15025D02*
D03*
X35325Y41875D02*
D03*
X32225D02*
D03*
X35325Y37125D02*
D03*
X32225D02*
D03*
X52525Y41875D02*
D03*
X49425D02*
D03*
X52525Y37125D02*
D03*
X49425D02*
D03*
X69725Y41875D02*
D03*
X66625D02*
D03*
X69725Y37125D02*
D03*
X66625D02*
D03*
X18125Y56675D02*
D03*
X15025D02*
D03*
X18125Y51925D02*
D03*
X15025D02*
D03*
X35325Y56675D02*
D03*
X32225D02*
D03*
X35325Y51925D02*
D03*
X32225D02*
D03*
X52525Y56675D02*
D03*
X49425D02*
D03*
X52525Y51925D02*
D03*
X49425D02*
D03*
X69725Y56675D02*
D03*
X66625D02*
D03*
X69725Y51925D02*
D03*
X66625D02*
D03*
D12*
X11875Y10025D02*
D03*
Y8525D02*
D03*
Y9025D02*
D03*
Y9525D02*
D03*
X9775Y10025D02*
D03*
Y8525D02*
D03*
Y9025D02*
D03*
Y9525D02*
D03*
X29075Y10025D02*
D03*
Y8525D02*
D03*
Y9025D02*
D03*
Y9525D02*
D03*
X26975Y10025D02*
D03*
Y8525D02*
D03*
Y9025D02*
D03*
Y9525D02*
D03*
X46275Y10025D02*
D03*
Y8525D02*
D03*
Y9025D02*
D03*
Y9525D02*
D03*
X44175Y10025D02*
D03*
Y8525D02*
D03*
Y9025D02*
D03*
Y9525D02*
D03*
X63475Y10025D02*
D03*
Y8525D02*
D03*
Y9025D02*
D03*
Y9525D02*
D03*
X61375Y10025D02*
D03*
Y8525D02*
D03*
Y9025D02*
D03*
Y9525D02*
D03*
X11875Y24825D02*
D03*
Y23325D02*
D03*
Y23825D02*
D03*
Y24325D02*
D03*
X9775Y24825D02*
D03*
Y23325D02*
D03*
Y23825D02*
D03*
Y24325D02*
D03*
X29075Y24825D02*
D03*
Y23325D02*
D03*
Y23825D02*
D03*
Y24325D02*
D03*
X26975Y24825D02*
D03*
Y23325D02*
D03*
Y23825D02*
D03*
Y24325D02*
D03*
X46275Y24825D02*
D03*
Y23325D02*
D03*
Y23825D02*
D03*
Y24325D02*
D03*
X44175Y24825D02*
D03*
Y23325D02*
D03*
Y23825D02*
D03*
Y24325D02*
D03*
X63475Y24825D02*
D03*
Y23325D02*
D03*
Y23825D02*
D03*
Y24325D02*
D03*
X61375Y24825D02*
D03*
Y23325D02*
D03*
Y23825D02*
D03*
Y24325D02*
D03*
X11875Y39625D02*
D03*
Y38125D02*
D03*
Y38625D02*
D03*
Y39125D02*
D03*
X9775Y39625D02*
D03*
Y38125D02*
D03*
Y38625D02*
D03*
Y39125D02*
D03*
X29075Y39625D02*
D03*
Y38125D02*
D03*
Y38625D02*
D03*
Y39125D02*
D03*
X26975Y39625D02*
D03*
Y38125D02*
D03*
Y38625D02*
D03*
Y39125D02*
D03*
X46275Y39625D02*
D03*
Y38125D02*
D03*
Y38625D02*
D03*
Y39125D02*
D03*
X44175Y39625D02*
D03*
Y38125D02*
D03*
Y38625D02*
D03*
Y39125D02*
D03*
X63475Y39625D02*
D03*
Y38125D02*
D03*
Y38625D02*
D03*
Y39125D02*
D03*
X61375Y39625D02*
D03*
Y38125D02*
D03*
Y38625D02*
D03*
Y39125D02*
D03*
X11875Y54425D02*
D03*
Y52925D02*
D03*
Y53425D02*
D03*
Y53925D02*
D03*
X9775Y54425D02*
D03*
Y52925D02*
D03*
Y53425D02*
D03*
Y53925D02*
D03*
X29075Y54425D02*
D03*
Y52925D02*
D03*
Y53425D02*
D03*
Y53925D02*
D03*
X26975Y54425D02*
D03*
Y52925D02*
D03*
Y53425D02*
D03*
Y53925D02*
D03*
X46275Y54425D02*
D03*
Y52925D02*
D03*
Y53425D02*
D03*
Y53925D02*
D03*
X44175Y54425D02*
D03*
Y52925D02*
D03*
Y53425D02*
D03*
Y53925D02*
D03*
X63475Y54425D02*
D03*
Y52925D02*
D03*
Y53425D02*
D03*
Y53925D02*
D03*
X61375Y54425D02*
D03*
Y52925D02*
D03*
Y53425D02*
D03*
Y53925D02*
D03*
D13*
X10835Y9275D02*
D03*
X28035D02*
D03*
X45235D02*
D03*
X62435D02*
D03*
X10835Y24075D02*
D03*
X28035D02*
D03*
X45235D02*
D03*
X62435D02*
D03*
X10835Y38875D02*
D03*
X28035D02*
D03*
X45235D02*
D03*
X62435D02*
D03*
X10835Y53675D02*
D03*
X28035D02*
D03*
X45235D02*
D03*
X62435D02*
D03*
D14*
X6195Y10525D02*
D03*
X7025D02*
D03*
X6195Y9275D02*
D03*
X7025D02*
D03*
X23395Y10525D02*
D03*
X24225D02*
D03*
X23395Y9275D02*
D03*
X24225D02*
D03*
X40595Y10525D02*
D03*
X41425D02*
D03*
X40595Y9275D02*
D03*
X41425D02*
D03*
X57795Y10525D02*
D03*
X58625D02*
D03*
X57795Y9275D02*
D03*
X58625D02*
D03*
X6195Y25325D02*
D03*
X7025D02*
D03*
X6195Y24075D02*
D03*
X7025D02*
D03*
X23395Y25325D02*
D03*
X24225D02*
D03*
X23395Y24075D02*
D03*
X24225D02*
D03*
X40595Y25325D02*
D03*
X41425D02*
D03*
X40595Y24075D02*
D03*
X41425D02*
D03*
X57795Y25325D02*
D03*
X58625D02*
D03*
X57795Y24075D02*
D03*
X58625D02*
D03*
X6195Y40125D02*
D03*
X7025D02*
D03*
X6195Y38875D02*
D03*
X7025D02*
D03*
X23395Y40125D02*
D03*
X24225D02*
D03*
X23395Y38875D02*
D03*
X24225D02*
D03*
X40595Y40125D02*
D03*
X41425D02*
D03*
X40595Y38875D02*
D03*
X41425D02*
D03*
X57795Y40125D02*
D03*
X58625D02*
D03*
X57795Y38875D02*
D03*
X58625D02*
D03*
X6195Y54925D02*
D03*
X7025D02*
D03*
X6195Y53675D02*
D03*
X7025D02*
D03*
X23395Y54925D02*
D03*
X24225D02*
D03*
X23395Y53675D02*
D03*
X24225D02*
D03*
X40595Y54925D02*
D03*
X41425D02*
D03*
X40595Y53675D02*
D03*
X41425D02*
D03*
X57795Y54925D02*
D03*
X58625D02*
D03*
X57795Y53675D02*
D03*
X58625D02*
D03*
D15*
X11475Y12275D02*
D03*
X12775D02*
D03*
X28675D02*
D03*
X29975D02*
D03*
X45875D02*
D03*
X47175D02*
D03*
X63075D02*
D03*
X64375D02*
D03*
X11475Y27075D02*
D03*
X12775D02*
D03*
X28675D02*
D03*
X29975D02*
D03*
X45875D02*
D03*
X47175D02*
D03*
X63075D02*
D03*
X64375D02*
D03*
X11475Y41875D02*
D03*
X12775D02*
D03*
X28675D02*
D03*
X29975D02*
D03*
X45875D02*
D03*
X47175D02*
D03*
X63075D02*
D03*
X64375D02*
D03*
X11475Y56675D02*
D03*
X12775D02*
D03*
X28675D02*
D03*
X29975D02*
D03*
X45875D02*
D03*
X47175D02*
D03*
X63075D02*
D03*
X64375D02*
D03*
D16*
X8525Y14525D02*
D03*
X11225D02*
D03*
X25725D02*
D03*
X28425D02*
D03*
X42925D02*
D03*
X45625D02*
D03*
X60125D02*
D03*
X62825D02*
D03*
X8525Y29325D02*
D03*
X11225D02*
D03*
X25725D02*
D03*
X28425D02*
D03*
X42925D02*
D03*
X45625D02*
D03*
X60125D02*
D03*
X62825D02*
D03*
X8525Y44125D02*
D03*
X11225D02*
D03*
X25725D02*
D03*
X28425D02*
D03*
X42925D02*
D03*
X45625D02*
D03*
X60125D02*
D03*
X62825D02*
D03*
X8525Y58925D02*
D03*
X11225D02*
D03*
X25725D02*
D03*
X28425D02*
D03*
X42925D02*
D03*
X45625D02*
D03*
X60125D02*
D03*
X62825D02*
D03*
D17*
X8275Y6525D02*
D03*
Y8025D02*
D03*
X12025Y7025D02*
D03*
Y5525D02*
D03*
X25475Y6525D02*
D03*
Y8025D02*
D03*
X29225Y7025D02*
D03*
Y5525D02*
D03*
X42675Y6525D02*
D03*
Y8025D02*
D03*
X46425Y7025D02*
D03*
Y5525D02*
D03*
X59875Y6525D02*
D03*
Y8025D02*
D03*
X63625Y7025D02*
D03*
Y5525D02*
D03*
X8275Y21325D02*
D03*
Y22825D02*
D03*
X12025Y21825D02*
D03*
Y20325D02*
D03*
X25475Y21325D02*
D03*
Y22825D02*
D03*
X29225Y21825D02*
D03*
Y20325D02*
D03*
X42675Y21325D02*
D03*
Y22825D02*
D03*
X46425Y21825D02*
D03*
Y20325D02*
D03*
X59875Y21325D02*
D03*
Y22825D02*
D03*
X63625Y21825D02*
D03*
Y20325D02*
D03*
X8275Y36125D02*
D03*
Y37625D02*
D03*
X12025Y36625D02*
D03*
Y35125D02*
D03*
X25475Y36125D02*
D03*
Y37625D02*
D03*
X29225Y36625D02*
D03*
Y35125D02*
D03*
X42675Y36125D02*
D03*
Y37625D02*
D03*
X46425Y36625D02*
D03*
Y35125D02*
D03*
X59875Y36125D02*
D03*
Y37625D02*
D03*
X63625Y36625D02*
D03*
Y35125D02*
D03*
X8275Y50925D02*
D03*
Y52425D02*
D03*
X12025Y51425D02*
D03*
Y49925D02*
D03*
X25475Y50925D02*
D03*
Y52425D02*
D03*
X29225Y51425D02*
D03*
Y49925D02*
D03*
X42675Y50925D02*
D03*
Y52425D02*
D03*
X46425Y51425D02*
D03*
Y49925D02*
D03*
X59875Y50925D02*
D03*
Y52425D02*
D03*
X63625Y51425D02*
D03*
Y49925D02*
D03*
D18*
X9365Y12275D02*
D03*
X8025D02*
D03*
X26565D02*
D03*
X25225D02*
D03*
X43765D02*
D03*
X42425D02*
D03*
X60965D02*
D03*
X59625D02*
D03*
X9365Y27075D02*
D03*
X8025D02*
D03*
X26565D02*
D03*
X25225D02*
D03*
X43765D02*
D03*
X42425D02*
D03*
X60965D02*
D03*
X59625D02*
D03*
X9365Y41875D02*
D03*
X8025D02*
D03*
X26565D02*
D03*
X25225D02*
D03*
X43765D02*
D03*
X42425D02*
D03*
X60965D02*
D03*
X59625D02*
D03*
X9365Y56675D02*
D03*
X8025D02*
D03*
X26565D02*
D03*
X25225D02*
D03*
X43765D02*
D03*
X42425D02*
D03*
X60965D02*
D03*
X59625D02*
D03*
D19*
X13275Y8695D02*
D03*
Y9525D02*
D03*
X10025Y6605D02*
D03*
Y5775D02*
D03*
X30475Y8695D02*
D03*
Y9525D02*
D03*
X27225Y6605D02*
D03*
Y5775D02*
D03*
X47675Y8695D02*
D03*
Y9525D02*
D03*
X44425Y6605D02*
D03*
Y5775D02*
D03*
X64875Y8695D02*
D03*
Y9525D02*
D03*
X61625Y6605D02*
D03*
Y5775D02*
D03*
X13275Y23495D02*
D03*
Y24325D02*
D03*
X10025Y21405D02*
D03*
Y20575D02*
D03*
X30475Y23495D02*
D03*
Y24325D02*
D03*
X27225Y21405D02*
D03*
Y20575D02*
D03*
X47675Y23495D02*
D03*
Y24325D02*
D03*
X44425Y21405D02*
D03*
Y20575D02*
D03*
X64875Y23495D02*
D03*
Y24325D02*
D03*
X61625Y21405D02*
D03*
Y20575D02*
D03*
X13275Y38295D02*
D03*
Y39125D02*
D03*
X10025Y36205D02*
D03*
Y35375D02*
D03*
X30475Y38295D02*
D03*
Y39125D02*
D03*
X27225Y36205D02*
D03*
Y35375D02*
D03*
X47675Y38295D02*
D03*
Y39125D02*
D03*
X44425Y36205D02*
D03*
Y35375D02*
D03*
X64875Y38295D02*
D03*
Y39125D02*
D03*
X61625Y36205D02*
D03*
Y35375D02*
D03*
X13275Y53095D02*
D03*
Y53925D02*
D03*
X10025Y51005D02*
D03*
Y50175D02*
D03*
X30475Y53095D02*
D03*
Y53925D02*
D03*
X27225Y51005D02*
D03*
Y50175D02*
D03*
X47675Y53095D02*
D03*
Y53925D02*
D03*
X44425Y51005D02*
D03*
Y50175D02*
D03*
X64875Y53095D02*
D03*
Y53925D02*
D03*
X61625Y51005D02*
D03*
Y50175D02*
D03*
M02*
