G04*
G04 #@! TF.GenerationSoftware,Altium Limited,Altium Designer,18.1.9 (240)*
G04*
G04 Layer_Color=65535*
%FSLAX24Y24*%
%MOIN*%
G70*
G01*
G75*
%ADD24C,0.0150*%
%ADD31C,0.0080*%
%ADD32C,0.0120*%
%ADD33C,0.0250*%
%ADD34C,0.0100*%
G36*
X70425Y57175D02*
X69125D01*
Y58775D01*
X70425D01*
Y57175D01*
D02*
G37*
G36*
X53225D02*
X51925D01*
Y58775D01*
X53225D01*
Y57175D01*
D02*
G37*
G36*
X36025D02*
X34725D01*
Y58775D01*
X36025D01*
Y57175D01*
D02*
G37*
G36*
X18825D02*
X17525D01*
Y58775D01*
X18825D01*
Y57175D01*
D02*
G37*
G36*
X70425Y54575D02*
X69125D01*
Y56175D01*
X70425D01*
Y54575D01*
D02*
G37*
G36*
X53225D02*
X51925D01*
Y56175D01*
X53225D01*
Y54575D01*
D02*
G37*
G36*
X36025D02*
X34725D01*
Y56175D01*
X36025D01*
Y54575D01*
D02*
G37*
G36*
X18825D02*
X17525D01*
Y56175D01*
X18825D01*
Y54575D01*
D02*
G37*
G36*
X70425Y52425D02*
X69125D01*
Y54025D01*
X70425D01*
Y52425D01*
D02*
G37*
G36*
X53225D02*
X51925D01*
Y54025D01*
X53225D01*
Y52425D01*
D02*
G37*
G36*
X36025D02*
X34725D01*
Y54025D01*
X36025D01*
Y52425D01*
D02*
G37*
G36*
X18825D02*
X17525D01*
Y54025D01*
X18825D01*
Y52425D01*
D02*
G37*
G36*
X70425Y49825D02*
X69125D01*
Y51425D01*
X70425D01*
Y49825D01*
D02*
G37*
G36*
X53225D02*
X51925D01*
Y51425D01*
X53225D01*
Y49825D01*
D02*
G37*
G36*
X36025D02*
X34725D01*
Y51425D01*
X36025D01*
Y49825D01*
D02*
G37*
G36*
X18825D02*
X17525D01*
Y51425D01*
X18825D01*
Y49825D01*
D02*
G37*
G36*
X70425Y42375D02*
X69125D01*
Y43975D01*
X70425D01*
Y42375D01*
D02*
G37*
G36*
X53225D02*
X51925D01*
Y43975D01*
X53225D01*
Y42375D01*
D02*
G37*
G36*
X36025D02*
X34725D01*
Y43975D01*
X36025D01*
Y42375D01*
D02*
G37*
G36*
X18825D02*
X17525D01*
Y43975D01*
X18825D01*
Y42375D01*
D02*
G37*
G36*
X70425Y39775D02*
X69125D01*
Y41375D01*
X70425D01*
Y39775D01*
D02*
G37*
G36*
X53225D02*
X51925D01*
Y41375D01*
X53225D01*
Y39775D01*
D02*
G37*
G36*
X36025D02*
X34725D01*
Y41375D01*
X36025D01*
Y39775D01*
D02*
G37*
G36*
X18825D02*
X17525D01*
Y41375D01*
X18825D01*
Y39775D01*
D02*
G37*
G36*
X70425Y37625D02*
X69125D01*
Y39225D01*
X70425D01*
Y37625D01*
D02*
G37*
G36*
X53225D02*
X51925D01*
Y39225D01*
X53225D01*
Y37625D01*
D02*
G37*
G36*
X36025D02*
X34725D01*
Y39225D01*
X36025D01*
Y37625D01*
D02*
G37*
G36*
X18825D02*
X17525D01*
Y39225D01*
X18825D01*
Y37625D01*
D02*
G37*
G36*
X70425Y35025D02*
X69125D01*
Y36625D01*
X70425D01*
Y35025D01*
D02*
G37*
G36*
X53225D02*
X51925D01*
Y36625D01*
X53225D01*
Y35025D01*
D02*
G37*
G36*
X36025D02*
X34725D01*
Y36625D01*
X36025D01*
Y35025D01*
D02*
G37*
G36*
X18825D02*
X17525D01*
Y36625D01*
X18825D01*
Y35025D01*
D02*
G37*
G36*
X70425Y27575D02*
X69125D01*
Y29175D01*
X70425D01*
Y27575D01*
D02*
G37*
G36*
X53225D02*
X51925D01*
Y29175D01*
X53225D01*
Y27575D01*
D02*
G37*
G36*
X36025D02*
X34725D01*
Y29175D01*
X36025D01*
Y27575D01*
D02*
G37*
G36*
X18825D02*
X17525D01*
Y29175D01*
X18825D01*
Y27575D01*
D02*
G37*
G36*
X70425Y24975D02*
X69125D01*
Y26575D01*
X70425D01*
Y24975D01*
D02*
G37*
G36*
X53225D02*
X51925D01*
Y26575D01*
X53225D01*
Y24975D01*
D02*
G37*
G36*
X36025D02*
X34725D01*
Y26575D01*
X36025D01*
Y24975D01*
D02*
G37*
G36*
X18825D02*
X17525D01*
Y26575D01*
X18825D01*
Y24975D01*
D02*
G37*
G36*
X70425Y22825D02*
X69125D01*
Y24425D01*
X70425D01*
Y22825D01*
D02*
G37*
G36*
X53225D02*
X51925D01*
Y24425D01*
X53225D01*
Y22825D01*
D02*
G37*
G36*
X36025D02*
X34725D01*
Y24425D01*
X36025D01*
Y22825D01*
D02*
G37*
G36*
X18825D02*
X17525D01*
Y24425D01*
X18825D01*
Y22825D01*
D02*
G37*
G36*
X70425Y20225D02*
X69125D01*
Y21825D01*
X70425D01*
Y20225D01*
D02*
G37*
G36*
X53225D02*
X51925D01*
Y21825D01*
X53225D01*
Y20225D01*
D02*
G37*
G36*
X36025D02*
X34725D01*
Y21825D01*
X36025D01*
Y20225D01*
D02*
G37*
G36*
X18825D02*
X17525D01*
Y21825D01*
X18825D01*
Y20225D01*
D02*
G37*
G36*
X70425Y12775D02*
X69125D01*
Y14375D01*
X70425D01*
Y12775D01*
D02*
G37*
G36*
X53225D02*
X51925D01*
Y14375D01*
X53225D01*
Y12775D01*
D02*
G37*
G36*
X36025D02*
X34725D01*
Y14375D01*
X36025D01*
Y12775D01*
D02*
G37*
G36*
X18825D02*
X17525D01*
Y14375D01*
X18825D01*
Y12775D01*
D02*
G37*
G36*
X70425Y10175D02*
X69125D01*
Y11775D01*
X70425D01*
Y10175D01*
D02*
G37*
G36*
X53225D02*
X51925D01*
Y11775D01*
X53225D01*
Y10175D01*
D02*
G37*
G36*
X36025D02*
X34725D01*
Y11775D01*
X36025D01*
Y10175D01*
D02*
G37*
G36*
X18825D02*
X17525D01*
Y11775D01*
X18825D01*
Y10175D01*
D02*
G37*
G36*
X70425Y8025D02*
X69125D01*
Y9625D01*
X70425D01*
Y8025D01*
D02*
G37*
G36*
X53225D02*
X51925D01*
Y9625D01*
X53225D01*
Y8025D01*
D02*
G37*
G36*
X36025D02*
X34725D01*
Y9625D01*
X36025D01*
Y8025D01*
D02*
G37*
G36*
X18825D02*
X17525D01*
Y9625D01*
X18825D01*
Y8025D01*
D02*
G37*
G36*
X70425Y5425D02*
X69125D01*
Y7025D01*
X70425D01*
Y5425D01*
D02*
G37*
G36*
X53225D02*
X51925D01*
Y7025D01*
X53225D01*
Y5425D01*
D02*
G37*
G36*
X36025D02*
X34725D01*
Y7025D01*
X36025D01*
Y5425D01*
D02*
G37*
G36*
X18825D02*
X17525D01*
Y7025D01*
X18825D01*
Y5425D01*
D02*
G37*
D24*
X69150Y61350D02*
X69450Y61650D01*
X69150Y61950D02*
X69450Y61650D01*
X67350D02*
X69450D01*
X4925Y4525D02*
X17925D01*
X22125D02*
X35125D01*
X39325D02*
X52325D01*
X56525D02*
X69525D01*
X4925Y19325D02*
X17925D01*
X22125D02*
X35125D01*
X39325D02*
X52325D01*
X56525D02*
X69525D01*
X4925Y34125D02*
X17925D01*
X22125D02*
X35125D01*
X39325D02*
X52325D01*
X56525D02*
X69525D01*
X4925Y48925D02*
X17925D01*
X22125D02*
X35125D01*
X39325D02*
X52325D01*
X56525D02*
X69525D01*
D31*
X10625Y13825D02*
Y15225D01*
X10775Y11175D02*
Y13375D01*
X4480Y3204D02*
X4516Y3221D01*
X4569Y3275D01*
Y2900D01*
X27825Y13825D02*
Y15225D01*
X27975Y11175D02*
Y13375D01*
X21680Y3204D02*
X21716Y3221D01*
X21769Y3275D01*
Y2900D01*
X45025Y13825D02*
Y15225D01*
X45175Y11175D02*
Y13375D01*
X38880Y3204D02*
X38916Y3221D01*
X38969Y3275D01*
Y2900D01*
X62225Y13825D02*
Y15225D01*
X62375Y11175D02*
Y13375D01*
X56080Y3204D02*
X56116Y3221D01*
X56169Y3275D01*
Y2900D01*
X10625Y28625D02*
Y30025D01*
X10775Y25975D02*
Y28175D01*
X4480Y18004D02*
X4516Y18021D01*
X4569Y18075D01*
Y17700D01*
X27825Y28625D02*
Y30025D01*
X27975Y25975D02*
Y28175D01*
X21680Y18004D02*
X21716Y18021D01*
X21769Y18075D01*
Y17700D01*
X45025Y28625D02*
Y30025D01*
X45175Y25975D02*
Y28175D01*
X38880Y18004D02*
X38916Y18021D01*
X38969Y18075D01*
Y17700D01*
X62225Y28625D02*
Y30025D01*
X62375Y25975D02*
Y28175D01*
X56080Y18004D02*
X56116Y18021D01*
X56169Y18075D01*
Y17700D01*
X10625Y43425D02*
Y44825D01*
X10775Y40775D02*
Y42975D01*
X4480Y32804D02*
X4516Y32821D01*
X4569Y32875D01*
Y32500D01*
X27825Y43425D02*
Y44825D01*
X27975Y40775D02*
Y42975D01*
X21680Y32804D02*
X21716Y32821D01*
X21769Y32875D01*
Y32500D01*
X45025Y43425D02*
Y44825D01*
X45175Y40775D02*
Y42975D01*
X38880Y32804D02*
X38916Y32821D01*
X38969Y32875D01*
Y32500D01*
X62225Y43425D02*
Y44825D01*
X62375Y40775D02*
Y42975D01*
X56080Y32804D02*
X56116Y32821D01*
X56169Y32875D01*
Y32500D01*
X10625Y58225D02*
Y59625D01*
X10775Y55575D02*
Y57775D01*
X4480Y47604D02*
X4516Y47621D01*
X4569Y47675D01*
Y47300D01*
X27825Y58225D02*
Y59625D01*
X27975Y55575D02*
Y57775D01*
X21680Y47604D02*
X21716Y47621D01*
X21769Y47675D01*
Y47300D01*
X45025Y58225D02*
Y59625D01*
X45175Y55575D02*
Y57775D01*
X38880Y47604D02*
X38916Y47621D01*
X38969Y47675D01*
Y47300D01*
X62225Y58225D02*
Y59625D01*
X62375Y55575D02*
Y57775D01*
X56080Y47604D02*
X56116Y47621D01*
X56169Y47675D01*
Y47300D01*
D32*
X4068Y1520D02*
Y920D01*
X4096Y1520D02*
Y920D01*
X3982Y1520D02*
X4325D01*
X4411Y1491D01*
X4439Y1463D01*
X4468Y1406D01*
Y1320D01*
X4439Y1263D01*
X4411Y1234D01*
X4325Y1206D01*
X4096D01*
X4325Y1520D02*
X4382Y1491D01*
X4411Y1463D01*
X4439Y1406D01*
Y1320D01*
X4411Y1263D01*
X4382Y1234D01*
X4325Y1206D01*
X3982Y920D02*
X4182D01*
X4633Y1520D02*
X4748Y920D01*
X4662Y1520D02*
X4748Y1063D01*
X4862Y1520D02*
X4748Y920D01*
X4862Y1520D02*
X4976Y920D01*
X4891Y1520D02*
X4976Y1063D01*
X5091Y1520D02*
X4976Y920D01*
X4548Y1520D02*
X4748D01*
X5005D02*
X5176D01*
X5499D02*
X5299Y920D01*
X5499Y1520D02*
X5699Y920D01*
X5499Y1434D02*
X5670Y920D01*
X5356Y1091D02*
X5613D01*
X5242Y920D02*
X5413D01*
X5585D02*
X5756D01*
X6373Y1406D02*
X6430Y1434D01*
X6516Y1520D01*
Y920D01*
X6487Y1491D02*
Y920D01*
X6373D02*
X6630D01*
X6904Y1520D02*
X6819Y1491D01*
X6762Y1406D01*
X6733Y1263D01*
Y1177D01*
X6762Y1034D01*
X6819Y949D01*
X6904Y920D01*
X6962D01*
X7047Y949D01*
X7104Y1034D01*
X7133Y1177D01*
Y1263D01*
X7104Y1406D01*
X7047Y1491D01*
X6962Y1520D01*
X6904D01*
X6847Y1491D01*
X6819Y1463D01*
X6790Y1406D01*
X6762Y1263D01*
Y1177D01*
X6790Y1034D01*
X6819Y977D01*
X6847Y949D01*
X6904Y920D01*
X6962D02*
X7019Y949D01*
X7047Y977D01*
X7076Y1034D01*
X7104Y1177D01*
Y1263D01*
X7076Y1406D01*
X7047Y1463D01*
X7019Y1491D01*
X6962Y1520D01*
X7250Y1406D02*
X7279Y1377D01*
X7250Y1348D01*
X7221Y1377D01*
Y1406D01*
X7250Y1463D01*
X7279Y1491D01*
X7364Y1520D01*
X7479D01*
X7564Y1491D01*
X7593Y1434D01*
Y1348D01*
X7564Y1291D01*
X7479Y1263D01*
X7393D01*
X7479Y1520D02*
X7536Y1491D01*
X7564Y1434D01*
Y1348D01*
X7536Y1291D01*
X7479Y1263D01*
X7536Y1234D01*
X7593Y1177D01*
X7621Y1120D01*
Y1034D01*
X7593Y977D01*
X7564Y949D01*
X7479Y920D01*
X7364D01*
X7279Y949D01*
X7250Y977D01*
X7221Y1034D01*
Y1063D01*
X7250Y1091D01*
X7279Y1063D01*
X7250Y1034D01*
X7564Y1206D02*
X7593Y1120D01*
Y1034D01*
X7564Y977D01*
X7536Y949D01*
X7479Y920D01*
X7881Y1520D02*
X7796Y1491D01*
X7739Y1406D01*
X7710Y1263D01*
Y1177D01*
X7739Y1034D01*
X7796Y949D01*
X7881Y920D01*
X7938D01*
X8024Y949D01*
X8081Y1034D01*
X8110Y1177D01*
Y1263D01*
X8081Y1406D01*
X8024Y1491D01*
X7938Y1520D01*
X7881D01*
X7824Y1491D01*
X7796Y1463D01*
X7767Y1406D01*
X7739Y1263D01*
Y1177D01*
X7767Y1034D01*
X7796Y977D01*
X7824Y949D01*
X7881Y920D01*
X7938D02*
X7996Y949D01*
X8024Y977D01*
X8053Y1034D01*
X8081Y1177D01*
Y1263D01*
X8053Y1406D01*
X8024Y1463D01*
X7996Y1491D01*
X7938Y1520D01*
X8570Y1320D02*
X8541Y1234D01*
X8484Y1177D01*
X8398Y1149D01*
X8370D01*
X8284Y1177D01*
X8227Y1234D01*
X8198Y1320D01*
Y1348D01*
X8227Y1434D01*
X8284Y1491D01*
X8370Y1520D01*
X8427D01*
X8513Y1491D01*
X8570Y1434D01*
X8598Y1348D01*
Y1177D01*
X8570Y1063D01*
X8541Y1006D01*
X8484Y949D01*
X8398Y920D01*
X8313D01*
X8256Y949D01*
X8227Y1006D01*
Y1034D01*
X8256Y1063D01*
X8284Y1034D01*
X8256Y1006D01*
X8370Y1149D02*
X8313Y1177D01*
X8256Y1234D01*
X8227Y1320D01*
Y1348D01*
X8256Y1434D01*
X8313Y1491D01*
X8370Y1520D01*
X8427D02*
X8484Y1491D01*
X8541Y1434D01*
X8570Y1348D01*
Y1177D01*
X8541Y1063D01*
X8513Y1006D01*
X8456Y949D01*
X8398Y920D01*
X8715Y1406D02*
X8744Y1377D01*
X8715Y1348D01*
X8687Y1377D01*
Y1406D01*
X8715Y1463D01*
X8744Y1491D01*
X8830Y1520D01*
X8944D01*
X9030Y1491D01*
X9058Y1463D01*
X9087Y1406D01*
Y1348D01*
X9058Y1291D01*
X8973Y1234D01*
X8830Y1177D01*
X8773Y1149D01*
X8715Y1091D01*
X8687Y1006D01*
Y920D01*
X8944Y1520D02*
X9001Y1491D01*
X9030Y1463D01*
X9058Y1406D01*
Y1348D01*
X9030Y1291D01*
X8944Y1234D01*
X8830Y1177D01*
X8687Y977D02*
X8715Y1006D01*
X8773D01*
X8915Y949D01*
X9001D01*
X9058Y977D01*
X9087Y1006D01*
Y1063D01*
X8773Y1006D02*
X8915Y920D01*
X9030D01*
X9058Y949D01*
X9087Y1006D01*
X61461Y62040D02*
Y61340D01*
X61494Y62040D02*
Y61340D01*
X61361Y62040D02*
X61761D01*
X61860Y62007D01*
X61894Y61973D01*
X61927Y61907D01*
Y61840D01*
X61894Y61773D01*
X61860Y61740D01*
X61761Y61707D01*
Y62040D02*
X61827Y62007D01*
X61860Y61973D01*
X61894Y61907D01*
Y61840D01*
X61860Y61773D01*
X61827Y61740D01*
X61761Y61707D01*
X61494D02*
X61761D01*
X61860Y61673D01*
X61894Y61640D01*
X61927Y61573D01*
Y61473D01*
X61894Y61407D01*
X61860Y61373D01*
X61761Y61340D01*
X61361D01*
X61761Y61707D02*
X61827Y61673D01*
X61860Y61640D01*
X61894Y61573D01*
Y61473D01*
X61860Y61407D01*
X61827Y61373D01*
X61761Y61340D01*
X62254Y62040D02*
X62154Y62007D01*
X62087Y61940D01*
X62054Y61873D01*
X62020Y61740D01*
Y61640D01*
X62054Y61507D01*
X62087Y61440D01*
X62154Y61373D01*
X62254Y61340D01*
X62320D01*
X62420Y61373D01*
X62487Y61440D01*
X62520Y61507D01*
X62554Y61640D01*
Y61740D01*
X62520Y61873D01*
X62487Y61940D01*
X62420Y62007D01*
X62320Y62040D01*
X62254D01*
X62187Y62007D01*
X62120Y61940D01*
X62087Y61873D01*
X62054Y61740D01*
Y61640D01*
X62087Y61507D01*
X62120Y61440D01*
X62187Y61373D01*
X62254Y61340D01*
X62320D02*
X62387Y61373D01*
X62454Y61440D01*
X62487Y61507D01*
X62520Y61640D01*
Y61740D01*
X62487Y61873D01*
X62454Y61940D01*
X62387Y62007D01*
X62320Y62040D01*
X62950D02*
X62717Y61340D01*
X62950Y62040D02*
X63184Y61340D01*
X62950Y61940D02*
X63150Y61340D01*
X62784Y61540D02*
X63084D01*
X62650Y61340D02*
X62850D01*
X63050D02*
X63250D01*
X63440Y62040D02*
Y61340D01*
X63473Y62040D02*
Y61340D01*
X63340Y62040D02*
X63740D01*
X63840Y62007D01*
X63873Y61973D01*
X63907Y61907D01*
Y61840D01*
X63873Y61773D01*
X63840Y61740D01*
X63740Y61707D01*
X63473D01*
X63740Y62040D02*
X63807Y62007D01*
X63840Y61973D01*
X63873Y61907D01*
Y61840D01*
X63840Y61773D01*
X63807Y61740D01*
X63740Y61707D01*
X63340Y61340D02*
X63573D01*
X63640Y61707D02*
X63707Y61673D01*
X63740Y61640D01*
X63840Y61407D01*
X63873Y61373D01*
X63907D01*
X63940Y61407D01*
X63707Y61673D02*
X63740Y61607D01*
X63807Y61373D01*
X63840Y61340D01*
X63907D01*
X63940Y61407D01*
Y61440D01*
X64130Y62040D02*
Y61340D01*
X64163Y62040D02*
Y61340D01*
X64030Y62040D02*
X64363D01*
X64463Y62007D01*
X64530Y61940D01*
X64563Y61873D01*
X64597Y61773D01*
Y61607D01*
X64563Y61507D01*
X64530Y61440D01*
X64463Y61373D01*
X64363Y61340D01*
X64030D01*
X64363Y62040D02*
X64430Y62007D01*
X64497Y61940D01*
X64530Y61873D01*
X64563Y61773D01*
Y61607D01*
X64530Y61507D01*
X64497Y61440D01*
X64430Y61373D01*
X64363Y61340D01*
X65420Y62040D02*
Y61340D01*
X65453Y62040D02*
Y61340D01*
X65320Y62040D02*
X65653D01*
X65753Y62007D01*
X65820Y61940D01*
X65853Y61873D01*
X65886Y61773D01*
Y61607D01*
X65853Y61507D01*
X65820Y61440D01*
X65753Y61373D01*
X65653Y61340D01*
X65320D01*
X65653Y62040D02*
X65720Y62007D01*
X65786Y61940D01*
X65820Y61873D01*
X65853Y61773D01*
Y61607D01*
X65820Y61507D01*
X65786Y61440D01*
X65720Y61373D01*
X65653Y61340D01*
X66080Y62040D02*
Y61340D01*
X66113Y62040D02*
Y61340D01*
X65980Y62040D02*
X66213D01*
X65980Y61340D02*
X66213D01*
X66440Y62040D02*
Y61340D01*
X66473Y62040D02*
Y61340D01*
X66340Y62040D02*
X66739D01*
X66839Y62007D01*
X66873Y61973D01*
X66906Y61907D01*
Y61840D01*
X66873Y61773D01*
X66839Y61740D01*
X66739Y61707D01*
X66473D01*
X66739Y62040D02*
X66806Y62007D01*
X66839Y61973D01*
X66873Y61907D01*
Y61840D01*
X66839Y61773D01*
X66806Y61740D01*
X66739Y61707D01*
X66340Y61340D02*
X66573D01*
X66639Y61707D02*
X66706Y61673D01*
X66739Y61640D01*
X66839Y61407D01*
X66873Y61373D01*
X66906D01*
X66939Y61407D01*
X66706Y61673D02*
X66739Y61607D01*
X66806Y61373D01*
X66839Y61340D01*
X66906D01*
X66939Y61407D01*
Y61440D01*
D33*
X9905Y10480D02*
G03*
X9905Y10480I-50J0D01*
G01*
X9885Y10480D02*
G03*
X9885Y10480I-30J0D01*
G01*
X27105D02*
G03*
X27105Y10480I-50J0D01*
G01*
X27085Y10480D02*
G03*
X27085Y10480I-30J0D01*
G01*
X44305D02*
G03*
X44305Y10480I-50J0D01*
G01*
X44285Y10480D02*
G03*
X44285Y10480I-30J0D01*
G01*
X61505D02*
G03*
X61505Y10480I-50J0D01*
G01*
X61485Y10480D02*
G03*
X61485Y10480I-30J0D01*
G01*
X9905Y25280D02*
G03*
X9905Y25280I-50J0D01*
G01*
X9885Y25280D02*
G03*
X9885Y25280I-30J0D01*
G01*
X27105D02*
G03*
X27105Y25280I-50J0D01*
G01*
X27085Y25280D02*
G03*
X27085Y25280I-30J0D01*
G01*
X44305D02*
G03*
X44305Y25280I-50J0D01*
G01*
X44285Y25280D02*
G03*
X44285Y25280I-30J0D01*
G01*
X61505D02*
G03*
X61505Y25280I-50J0D01*
G01*
X61485Y25280D02*
G03*
X61485Y25280I-30J0D01*
G01*
X9905Y40080D02*
G03*
X9905Y40080I-50J0D01*
G01*
X9885Y40080D02*
G03*
X9885Y40080I-30J0D01*
G01*
X27105D02*
G03*
X27105Y40080I-50J0D01*
G01*
X27085Y40080D02*
G03*
X27085Y40080I-30J0D01*
G01*
X44305D02*
G03*
X44305Y40080I-50J0D01*
G01*
X44285Y40080D02*
G03*
X44285Y40080I-30J0D01*
G01*
X61505D02*
G03*
X61505Y40080I-50J0D01*
G01*
X61485Y40080D02*
G03*
X61485Y40080I-30J0D01*
G01*
X9905Y54880D02*
G03*
X9905Y54880I-50J0D01*
G01*
X9885Y54880D02*
G03*
X9885Y54880I-30J0D01*
G01*
X27105D02*
G03*
X27105Y54880I-50J0D01*
G01*
X27085Y54880D02*
G03*
X27085Y54880I-30J0D01*
G01*
X44305D02*
G03*
X44305Y54880I-50J0D01*
G01*
X44285Y54880D02*
G03*
X44285Y54880I-30J0D01*
G01*
X61505D02*
G03*
X61505Y54880I-50J0D01*
G01*
X61485Y54880D02*
G03*
X61485Y54880I-30J0D01*
G01*
D34*
X7525Y11775D02*
Y12775D01*
X9825Y11775D02*
Y12775D01*
X7525Y11775D02*
X9825D01*
X7525Y12775D02*
X9825D01*
X7725Y6150D02*
Y8400D01*
X8825Y6150D02*
Y8400D01*
X7725D02*
X8825D01*
X7725Y6150D02*
X8825D01*
X11825Y13825D02*
Y15225D01*
X7925Y13825D02*
Y15225D01*
X11825D01*
X7925Y13825D02*
X11825D01*
X13175Y11175D02*
Y13375D01*
X11075Y11175D02*
Y13375D01*
X13175D01*
X11075Y11175D02*
X13175D01*
X5875Y10875D02*
X7325D01*
X5875Y10175D02*
X7325D01*
X5875D02*
Y10875D01*
X7325Y10175D02*
Y10875D01*
X17925Y2600D02*
Y4525D01*
X4925Y2600D02*
Y4525D01*
Y2600D02*
X17925Y2600D01*
X14325Y6225D02*
Y8825D01*
X18825Y5425D02*
Y9625D01*
X15375D02*
X18825D01*
X14325Y8825D02*
X15375Y9625D01*
Y5425D02*
X18825D01*
X14325Y6225D02*
X15375Y5425D01*
X14325Y10975D02*
Y13575D01*
X18825Y10175D02*
Y14375D01*
X15375D02*
X18825D01*
X14325Y13575D02*
X15375Y14375D01*
Y10175D02*
X18825D01*
X14325Y10975D02*
X15375Y10175D01*
X5875Y9625D02*
X7325D01*
X5875Y8925D02*
X7325D01*
X5875D02*
Y9625D01*
X7325Y8925D02*
Y9625D01*
X10375Y5475D02*
Y6925D01*
X9675Y5475D02*
Y6925D01*
X10375D01*
X9675Y5475D02*
X10375D01*
X12925Y8375D02*
Y9825D01*
X13625Y8375D02*
Y9825D01*
X12925Y8375D02*
X13625D01*
X12925Y9825D02*
X13625D01*
X12575Y5150D02*
Y7400D01*
X11475Y5150D02*
Y7400D01*
Y5150D02*
X12575D01*
X11475Y7400D02*
X12575D01*
X14517Y5339D02*
Y5875D01*
X14784Y5607D02*
X14249D01*
X14607Y14089D02*
Y14625D01*
X14875Y14357D02*
X14339D01*
X18190Y14850D02*
X18140Y14900D01*
X18040D01*
X17990Y14850D01*
Y14650D01*
X18040Y14600D01*
X18140D01*
X18190Y14650D01*
X18490Y14900D02*
X18390Y14850D01*
X18290Y14750D01*
Y14650D01*
X18340Y14600D01*
X18440D01*
X18490Y14650D01*
Y14700D01*
X18440Y14750D01*
X18290D01*
X18125Y5125D02*
X18075Y5175D01*
X17975D01*
X17925Y5125D01*
Y4925D01*
X17975Y4875D01*
X18075D01*
X18125Y4925D01*
X18425Y5175D02*
X18225D01*
Y5025D01*
X18325Y5075D01*
X18375D01*
X18425Y5025D01*
Y4925D01*
X18375Y4875D01*
X18275D01*
X18225Y4925D01*
X4420Y4400D02*
X4320D01*
X4370D01*
Y4150D01*
X4320Y4100D01*
X4270D01*
X4220Y4150D01*
X4520Y4100D02*
X4620D01*
X4570D01*
Y4400D01*
X4520Y4350D01*
X11600Y10660D02*
Y10410D01*
X11650Y10360D01*
X11750D01*
X11800Y10410D01*
Y10660D01*
X11900Y10360D02*
X12000D01*
X11950D01*
Y10660D01*
X11900Y10610D01*
X6550Y11310D02*
X6500Y11360D01*
X6400D01*
X6350Y11310D01*
Y11110D01*
X6400Y11060D01*
X6500D01*
X6550Y11110D01*
X6650Y11310D02*
X6700Y11360D01*
X6800D01*
X6850Y11310D01*
Y11260D01*
X6800Y11210D01*
X6750D01*
X6800D01*
X6850Y11160D01*
Y11110D01*
X6800Y11060D01*
X6700D01*
X6650Y11110D01*
X12425Y13825D02*
Y13525D01*
X12625D01*
X12925D02*
X12725D01*
X12925Y13725D01*
Y13775D01*
X12875Y13825D01*
X12775D01*
X12725Y13775D01*
X10825Y15675D02*
Y15375D01*
X10975D01*
X11025Y15425D01*
Y15625D01*
X10975Y15675D01*
X10825D01*
X11125Y15375D02*
X11225D01*
X11175D01*
Y15675D01*
X11125Y15625D01*
X8025Y5675D02*
Y5975D01*
X8175D01*
X8225Y5925D01*
Y5825D01*
X8175Y5775D01*
X8025D01*
X8125D02*
X8225Y5675D01*
X8325D02*
X8425D01*
X8375D01*
Y5975D01*
X8325Y5925D01*
X11749Y4670D02*
Y4970D01*
X11899D01*
X11949Y4920D01*
Y4820D01*
X11899Y4770D01*
X11749D01*
X11849D02*
X11949Y4670D01*
X12249D02*
X12049D01*
X12249Y4870D01*
Y4920D01*
X12199Y4970D01*
X12099D01*
X12049Y4920D01*
X6975Y12775D02*
X6925Y12825D01*
X6825D01*
X6775Y12775D01*
Y12575D01*
X6825Y12525D01*
X6925D01*
X6975Y12575D01*
X7075Y12525D02*
X7175D01*
X7125D01*
Y12825D01*
X7075Y12775D01*
X13240Y8162D02*
X13190Y8212D01*
X13090D01*
X13040Y8162D01*
Y7963D01*
X13090Y7913D01*
X13190D01*
X13240Y7963D01*
X13490Y7913D02*
Y8212D01*
X13340Y8063D01*
X13540D01*
X10030Y7330D02*
X9980Y7380D01*
X9880D01*
X9830Y7330D01*
Y7130D01*
X9880Y7080D01*
X9980D01*
X10030Y7130D01*
X10130Y7380D02*
X10330D01*
Y7330D01*
X10130Y7130D01*
Y7080D01*
X6475Y8650D02*
X6425Y8700D01*
X6325D01*
X6275Y8650D01*
Y8450D01*
X6325Y8400D01*
X6425D01*
X6475Y8450D01*
X6775Y8400D02*
X6575D01*
X6775Y8600D01*
Y8650D01*
X6725Y8700D01*
X6625D01*
X6575Y8650D01*
X24725Y11775D02*
Y12775D01*
X27025Y11775D02*
Y12775D01*
X24725Y11775D02*
X27025D01*
X24725Y12775D02*
X27025D01*
X24925Y6150D02*
Y8400D01*
X26025Y6150D02*
Y8400D01*
X24925D02*
X26025D01*
X24925Y6150D02*
X26025D01*
X29025Y13825D02*
Y15225D01*
X25125Y13825D02*
Y15225D01*
X29025D01*
X25125Y13825D02*
X29025D01*
X30375Y11175D02*
Y13375D01*
X28275Y11175D02*
Y13375D01*
X30375D01*
X28275Y11175D02*
X30375D01*
X23075Y10875D02*
X24525D01*
X23075Y10175D02*
X24525D01*
X23075D02*
Y10875D01*
X24525Y10175D02*
Y10875D01*
X35125Y2600D02*
Y4525D01*
X22125Y2600D02*
Y4525D01*
Y2600D02*
X35125Y2600D01*
X31525Y6225D02*
Y8825D01*
X36025Y5425D02*
Y9625D01*
X32575D02*
X36025D01*
X31525Y8825D02*
X32575Y9625D01*
Y5425D02*
X36025D01*
X31525Y6225D02*
X32575Y5425D01*
X31525Y10975D02*
Y13575D01*
X36025Y10175D02*
Y14375D01*
X32575D02*
X36025D01*
X31525Y13575D02*
X32575Y14375D01*
Y10175D02*
X36025D01*
X31525Y10975D02*
X32575Y10175D01*
X23075Y9625D02*
X24525D01*
X23075Y8925D02*
X24525D01*
X23075D02*
Y9625D01*
X24525Y8925D02*
Y9625D01*
X27575Y5475D02*
Y6925D01*
X26875Y5475D02*
Y6925D01*
X27575D01*
X26875Y5475D02*
X27575D01*
X30125Y8375D02*
Y9825D01*
X30825Y8375D02*
Y9825D01*
X30125Y8375D02*
X30825D01*
X30125Y9825D02*
X30825D01*
X29775Y5150D02*
Y7400D01*
X28675Y5150D02*
Y7400D01*
Y5150D02*
X29775D01*
X28675Y7400D02*
X29775D01*
X31717Y5339D02*
Y5875D01*
X31984Y5607D02*
X31449D01*
X31807Y14089D02*
Y14625D01*
X32075Y14357D02*
X31539D01*
X35390Y14850D02*
X35340Y14900D01*
X35240D01*
X35190Y14850D01*
Y14650D01*
X35240Y14600D01*
X35340D01*
X35390Y14650D01*
X35690Y14900D02*
X35590Y14850D01*
X35490Y14750D01*
Y14650D01*
X35540Y14600D01*
X35640D01*
X35690Y14650D01*
Y14700D01*
X35640Y14750D01*
X35490D01*
X35325Y5125D02*
X35275Y5175D01*
X35175D01*
X35125Y5125D01*
Y4925D01*
X35175Y4875D01*
X35275D01*
X35325Y4925D01*
X35625Y5175D02*
X35425D01*
Y5025D01*
X35525Y5075D01*
X35575D01*
X35625Y5025D01*
Y4925D01*
X35575Y4875D01*
X35475D01*
X35425Y4925D01*
X21620Y4400D02*
X21520D01*
X21570D01*
Y4150D01*
X21520Y4100D01*
X21470D01*
X21420Y4150D01*
X21720Y4100D02*
X21820D01*
X21770D01*
Y4400D01*
X21720Y4350D01*
X28800Y10660D02*
Y10410D01*
X28850Y10360D01*
X28950D01*
X29000Y10410D01*
Y10660D01*
X29100Y10360D02*
X29200D01*
X29150D01*
Y10660D01*
X29100Y10610D01*
X23750Y11310D02*
X23700Y11360D01*
X23600D01*
X23550Y11310D01*
Y11110D01*
X23600Y11060D01*
X23700D01*
X23750Y11110D01*
X23850Y11310D02*
X23900Y11360D01*
X24000D01*
X24050Y11310D01*
Y11260D01*
X24000Y11210D01*
X23950D01*
X24000D01*
X24050Y11160D01*
Y11110D01*
X24000Y11060D01*
X23900D01*
X23850Y11110D01*
X29625Y13825D02*
Y13525D01*
X29825D01*
X30125D02*
X29925D01*
X30125Y13725D01*
Y13775D01*
X30075Y13825D01*
X29975D01*
X29925Y13775D01*
X28025Y15675D02*
Y15375D01*
X28175D01*
X28225Y15425D01*
Y15625D01*
X28175Y15675D01*
X28025D01*
X28325Y15375D02*
X28425D01*
X28375D01*
Y15675D01*
X28325Y15625D01*
X25225Y5675D02*
Y5975D01*
X25375D01*
X25425Y5925D01*
Y5825D01*
X25375Y5775D01*
X25225D01*
X25325D02*
X25425Y5675D01*
X25525D02*
X25625D01*
X25575D01*
Y5975D01*
X25525Y5925D01*
X28949Y4670D02*
Y4970D01*
X29099D01*
X29149Y4920D01*
Y4820D01*
X29099Y4770D01*
X28949D01*
X29049D02*
X29149Y4670D01*
X29449D02*
X29249D01*
X29449Y4870D01*
Y4920D01*
X29399Y4970D01*
X29299D01*
X29249Y4920D01*
X24175Y12775D02*
X24125Y12825D01*
X24025D01*
X23975Y12775D01*
Y12575D01*
X24025Y12525D01*
X24125D01*
X24175Y12575D01*
X24275Y12525D02*
X24375D01*
X24325D01*
Y12825D01*
X24275Y12775D01*
X30440Y8162D02*
X30390Y8212D01*
X30290D01*
X30240Y8162D01*
Y7963D01*
X30290Y7913D01*
X30390D01*
X30440Y7963D01*
X30690Y7913D02*
Y8212D01*
X30540Y8063D01*
X30740D01*
X27230Y7330D02*
X27180Y7380D01*
X27080D01*
X27030Y7330D01*
Y7130D01*
X27080Y7080D01*
X27180D01*
X27230Y7130D01*
X27330Y7380D02*
X27530D01*
Y7330D01*
X27330Y7130D01*
Y7080D01*
X23675Y8650D02*
X23625Y8700D01*
X23525D01*
X23475Y8650D01*
Y8450D01*
X23525Y8400D01*
X23625D01*
X23675Y8450D01*
X23975Y8400D02*
X23775D01*
X23975Y8600D01*
Y8650D01*
X23925Y8700D01*
X23825D01*
X23775Y8650D01*
X41925Y11775D02*
Y12775D01*
X44225Y11775D02*
Y12775D01*
X41925Y11775D02*
X44225D01*
X41925Y12775D02*
X44225D01*
X42125Y6150D02*
Y8400D01*
X43225Y6150D02*
Y8400D01*
X42125D02*
X43225D01*
X42125Y6150D02*
X43225D01*
X46225Y13825D02*
Y15225D01*
X42325Y13825D02*
Y15225D01*
X46225D01*
X42325Y13825D02*
X46225D01*
X47575Y11175D02*
Y13375D01*
X45475Y11175D02*
Y13375D01*
X47575D01*
X45475Y11175D02*
X47575D01*
X40275Y10875D02*
X41725D01*
X40275Y10175D02*
X41725D01*
X40275D02*
Y10875D01*
X41725Y10175D02*
Y10875D01*
X52325Y2600D02*
Y4525D01*
X39325Y2600D02*
Y4525D01*
Y2600D02*
X52325Y2600D01*
X48725Y6225D02*
Y8825D01*
X53225Y5425D02*
Y9625D01*
X49775D02*
X53225D01*
X48725Y8825D02*
X49775Y9625D01*
Y5425D02*
X53225D01*
X48725Y6225D02*
X49775Y5425D01*
X48725Y10975D02*
Y13575D01*
X53225Y10175D02*
Y14375D01*
X49775D02*
X53225D01*
X48725Y13575D02*
X49775Y14375D01*
Y10175D02*
X53225D01*
X48725Y10975D02*
X49775Y10175D01*
X40275Y9625D02*
X41725D01*
X40275Y8925D02*
X41725D01*
X40275D02*
Y9625D01*
X41725Y8925D02*
Y9625D01*
X44775Y5475D02*
Y6925D01*
X44075Y5475D02*
Y6925D01*
X44775D01*
X44075Y5475D02*
X44775D01*
X47325Y8375D02*
Y9825D01*
X48025Y8375D02*
Y9825D01*
X47325Y8375D02*
X48025D01*
X47325Y9825D02*
X48025D01*
X46975Y5150D02*
Y7400D01*
X45875Y5150D02*
Y7400D01*
Y5150D02*
X46975D01*
X45875Y7400D02*
X46975D01*
X48917Y5339D02*
Y5875D01*
X49184Y5607D02*
X48649D01*
X49007Y14089D02*
Y14625D01*
X49275Y14357D02*
X48739D01*
X52590Y14850D02*
X52540Y14900D01*
X52440D01*
X52390Y14850D01*
Y14650D01*
X52440Y14600D01*
X52540D01*
X52590Y14650D01*
X52890Y14900D02*
X52790Y14850D01*
X52690Y14750D01*
Y14650D01*
X52740Y14600D01*
X52840D01*
X52890Y14650D01*
Y14700D01*
X52840Y14750D01*
X52690D01*
X52525Y5125D02*
X52475Y5175D01*
X52375D01*
X52325Y5125D01*
Y4925D01*
X52375Y4875D01*
X52475D01*
X52525Y4925D01*
X52825Y5175D02*
X52625D01*
Y5025D01*
X52725Y5075D01*
X52775D01*
X52825Y5025D01*
Y4925D01*
X52775Y4875D01*
X52675D01*
X52625Y4925D01*
X38820Y4400D02*
X38720D01*
X38770D01*
Y4150D01*
X38720Y4100D01*
X38670D01*
X38620Y4150D01*
X38920Y4100D02*
X39020D01*
X38970D01*
Y4400D01*
X38920Y4350D01*
X46000Y10660D02*
Y10410D01*
X46050Y10360D01*
X46150D01*
X46200Y10410D01*
Y10660D01*
X46300Y10360D02*
X46400D01*
X46350D01*
Y10660D01*
X46300Y10610D01*
X40950Y11310D02*
X40900Y11360D01*
X40800D01*
X40750Y11310D01*
Y11110D01*
X40800Y11060D01*
X40900D01*
X40950Y11110D01*
X41050Y11310D02*
X41100Y11360D01*
X41200D01*
X41250Y11310D01*
Y11260D01*
X41200Y11210D01*
X41150D01*
X41200D01*
X41250Y11160D01*
Y11110D01*
X41200Y11060D01*
X41100D01*
X41050Y11110D01*
X46825Y13825D02*
Y13525D01*
X47025D01*
X47325D02*
X47125D01*
X47325Y13725D01*
Y13775D01*
X47275Y13825D01*
X47175D01*
X47125Y13775D01*
X45225Y15675D02*
Y15375D01*
X45375D01*
X45425Y15425D01*
Y15625D01*
X45375Y15675D01*
X45225D01*
X45525Y15375D02*
X45625D01*
X45575D01*
Y15675D01*
X45525Y15625D01*
X42425Y5675D02*
Y5975D01*
X42575D01*
X42625Y5925D01*
Y5825D01*
X42575Y5775D01*
X42425D01*
X42525D02*
X42625Y5675D01*
X42725D02*
X42825D01*
X42775D01*
Y5975D01*
X42725Y5925D01*
X46149Y4670D02*
Y4970D01*
X46299D01*
X46349Y4920D01*
Y4820D01*
X46299Y4770D01*
X46149D01*
X46249D02*
X46349Y4670D01*
X46649D02*
X46449D01*
X46649Y4870D01*
Y4920D01*
X46599Y4970D01*
X46499D01*
X46449Y4920D01*
X41375Y12775D02*
X41325Y12825D01*
X41225D01*
X41175Y12775D01*
Y12575D01*
X41225Y12525D01*
X41325D01*
X41375Y12575D01*
X41475Y12525D02*
X41575D01*
X41525D01*
Y12825D01*
X41475Y12775D01*
X47640Y8162D02*
X47590Y8212D01*
X47490D01*
X47440Y8162D01*
Y7963D01*
X47490Y7913D01*
X47590D01*
X47640Y7963D01*
X47890Y7913D02*
Y8212D01*
X47740Y8063D01*
X47940D01*
X44430Y7330D02*
X44380Y7380D01*
X44280D01*
X44230Y7330D01*
Y7130D01*
X44280Y7080D01*
X44380D01*
X44430Y7130D01*
X44530Y7380D02*
X44730D01*
Y7330D01*
X44530Y7130D01*
Y7080D01*
X40875Y8650D02*
X40825Y8700D01*
X40725D01*
X40675Y8650D01*
Y8450D01*
X40725Y8400D01*
X40825D01*
X40875Y8450D01*
X41175Y8400D02*
X40975D01*
X41175Y8600D01*
Y8650D01*
X41125Y8700D01*
X41025D01*
X40975Y8650D01*
X59125Y11775D02*
Y12775D01*
X61425Y11775D02*
Y12775D01*
X59125Y11775D02*
X61425D01*
X59125Y12775D02*
X61425D01*
X59325Y6150D02*
Y8400D01*
X60425Y6150D02*
Y8400D01*
X59325D02*
X60425D01*
X59325Y6150D02*
X60425D01*
X63425Y13825D02*
Y15225D01*
X59525Y13825D02*
Y15225D01*
X63425D01*
X59525Y13825D02*
X63425D01*
X64775Y11175D02*
Y13375D01*
X62675Y11175D02*
Y13375D01*
X64775D01*
X62675Y11175D02*
X64775D01*
X57475Y10875D02*
X58925D01*
X57475Y10175D02*
X58925D01*
X57475D02*
Y10875D01*
X58925Y10175D02*
Y10875D01*
X69525Y2600D02*
Y4525D01*
X56525Y2600D02*
Y4525D01*
Y2600D02*
X69525Y2600D01*
X65925Y6225D02*
Y8825D01*
X70425Y5425D02*
Y9625D01*
X66975D02*
X70425D01*
X65925Y8825D02*
X66975Y9625D01*
Y5425D02*
X70425D01*
X65925Y6225D02*
X66975Y5425D01*
X65925Y10975D02*
Y13575D01*
X70425Y10175D02*
Y14375D01*
X66975D02*
X70425D01*
X65925Y13575D02*
X66975Y14375D01*
Y10175D02*
X70425D01*
X65925Y10975D02*
X66975Y10175D01*
X57475Y9625D02*
X58925D01*
X57475Y8925D02*
X58925D01*
X57475D02*
Y9625D01*
X58925Y8925D02*
Y9625D01*
X61975Y5475D02*
Y6925D01*
X61275Y5475D02*
Y6925D01*
X61975D01*
X61275Y5475D02*
X61975D01*
X64525Y8375D02*
Y9825D01*
X65225Y8375D02*
Y9825D01*
X64525Y8375D02*
X65225D01*
X64525Y9825D02*
X65225D01*
X64175Y5150D02*
Y7400D01*
X63075Y5150D02*
Y7400D01*
Y5150D02*
X64175D01*
X63075Y7400D02*
X64175D01*
X66117Y5339D02*
Y5875D01*
X66384Y5607D02*
X65849D01*
X66207Y14089D02*
Y14625D01*
X66475Y14357D02*
X65939D01*
X69790Y14850D02*
X69740Y14900D01*
X69640D01*
X69590Y14850D01*
Y14650D01*
X69640Y14600D01*
X69740D01*
X69790Y14650D01*
X70090Y14900D02*
X69990Y14850D01*
X69890Y14750D01*
Y14650D01*
X69940Y14600D01*
X70040D01*
X70090Y14650D01*
Y14700D01*
X70040Y14750D01*
X69890D01*
X69725Y5125D02*
X69675Y5175D01*
X69575D01*
X69525Y5125D01*
Y4925D01*
X69575Y4875D01*
X69675D01*
X69725Y4925D01*
X70025Y5175D02*
X69825D01*
Y5025D01*
X69925Y5075D01*
X69975D01*
X70025Y5025D01*
Y4925D01*
X69975Y4875D01*
X69875D01*
X69825Y4925D01*
X56020Y4400D02*
X55920D01*
X55970D01*
Y4150D01*
X55920Y4100D01*
X55870D01*
X55820Y4150D01*
X56120Y4100D02*
X56220D01*
X56170D01*
Y4400D01*
X56120Y4350D01*
X63200Y10660D02*
Y10410D01*
X63250Y10360D01*
X63350D01*
X63400Y10410D01*
Y10660D01*
X63500Y10360D02*
X63600D01*
X63550D01*
Y10660D01*
X63500Y10610D01*
X58150Y11310D02*
X58100Y11360D01*
X58000D01*
X57950Y11310D01*
Y11110D01*
X58000Y11060D01*
X58100D01*
X58150Y11110D01*
X58250Y11310D02*
X58300Y11360D01*
X58400D01*
X58450Y11310D01*
Y11260D01*
X58400Y11210D01*
X58350D01*
X58400D01*
X58450Y11160D01*
Y11110D01*
X58400Y11060D01*
X58300D01*
X58250Y11110D01*
X64025Y13825D02*
Y13525D01*
X64225D01*
X64525D02*
X64325D01*
X64525Y13725D01*
Y13775D01*
X64475Y13825D01*
X64375D01*
X64325Y13775D01*
X62425Y15675D02*
Y15375D01*
X62575D01*
X62625Y15425D01*
Y15625D01*
X62575Y15675D01*
X62425D01*
X62725Y15375D02*
X62825D01*
X62775D01*
Y15675D01*
X62725Y15625D01*
X59625Y5675D02*
Y5975D01*
X59775D01*
X59825Y5925D01*
Y5825D01*
X59775Y5775D01*
X59625D01*
X59725D02*
X59825Y5675D01*
X59925D02*
X60025D01*
X59975D01*
Y5975D01*
X59925Y5925D01*
X63349Y4670D02*
Y4970D01*
X63499D01*
X63549Y4920D01*
Y4820D01*
X63499Y4770D01*
X63349D01*
X63449D02*
X63549Y4670D01*
X63849D02*
X63649D01*
X63849Y4870D01*
Y4920D01*
X63799Y4970D01*
X63699D01*
X63649Y4920D01*
X58575Y12775D02*
X58525Y12825D01*
X58425D01*
X58375Y12775D01*
Y12575D01*
X58425Y12525D01*
X58525D01*
X58575Y12575D01*
X58675Y12525D02*
X58775D01*
X58725D01*
Y12825D01*
X58675Y12775D01*
X64840Y8162D02*
X64790Y8212D01*
X64690D01*
X64640Y8162D01*
Y7963D01*
X64690Y7913D01*
X64790D01*
X64840Y7963D01*
X65090Y7913D02*
Y8212D01*
X64940Y8063D01*
X65140D01*
X61630Y7330D02*
X61580Y7380D01*
X61480D01*
X61430Y7330D01*
Y7130D01*
X61480Y7080D01*
X61580D01*
X61630Y7130D01*
X61730Y7380D02*
X61930D01*
Y7330D01*
X61730Y7130D01*
Y7080D01*
X58075Y8650D02*
X58025Y8700D01*
X57925D01*
X57875Y8650D01*
Y8450D01*
X57925Y8400D01*
X58025D01*
X58075Y8450D01*
X58375Y8400D02*
X58175D01*
X58375Y8600D01*
Y8650D01*
X58325Y8700D01*
X58225D01*
X58175Y8650D01*
X7525Y26575D02*
Y27575D01*
X9825Y26575D02*
Y27575D01*
X7525Y26575D02*
X9825D01*
X7525Y27575D02*
X9825D01*
X7725Y20950D02*
Y23200D01*
X8825Y20950D02*
Y23200D01*
X7725D02*
X8825D01*
X7725Y20950D02*
X8825D01*
X11825Y28625D02*
Y30025D01*
X7925Y28625D02*
Y30025D01*
X11825D01*
X7925Y28625D02*
X11825D01*
X13175Y25975D02*
Y28175D01*
X11075Y25975D02*
Y28175D01*
X13175D01*
X11075Y25975D02*
X13175D01*
X5875Y25675D02*
X7325D01*
X5875Y24975D02*
X7325D01*
X5875D02*
Y25675D01*
X7325Y24975D02*
Y25675D01*
X17925Y17400D02*
Y19325D01*
X4925Y17400D02*
Y19325D01*
Y17400D02*
X17925Y17400D01*
X14325Y21025D02*
Y23625D01*
X18825Y20225D02*
Y24425D01*
X15375D02*
X18825D01*
X14325Y23625D02*
X15375Y24425D01*
Y20225D02*
X18825D01*
X14325Y21025D02*
X15375Y20225D01*
X14325Y25775D02*
Y28375D01*
X18825Y24975D02*
Y29175D01*
X15375D02*
X18825D01*
X14325Y28375D02*
X15375Y29175D01*
Y24975D02*
X18825D01*
X14325Y25775D02*
X15375Y24975D01*
X5875Y24425D02*
X7325D01*
X5875Y23725D02*
X7325D01*
X5875D02*
Y24425D01*
X7325Y23725D02*
Y24425D01*
X10375Y20275D02*
Y21725D01*
X9675Y20275D02*
Y21725D01*
X10375D01*
X9675Y20275D02*
X10375D01*
X12925Y23175D02*
Y24625D01*
X13625Y23175D02*
Y24625D01*
X12925Y23175D02*
X13625D01*
X12925Y24625D02*
X13625D01*
X12575Y19950D02*
Y22200D01*
X11475Y19950D02*
Y22200D01*
Y19950D02*
X12575D01*
X11475Y22200D02*
X12575D01*
X14517Y20139D02*
Y20675D01*
X14784Y20407D02*
X14249D01*
X14607Y28889D02*
Y29425D01*
X14875Y29157D02*
X14339D01*
X18190Y29650D02*
X18140Y29700D01*
X18040D01*
X17990Y29650D01*
Y29450D01*
X18040Y29400D01*
X18140D01*
X18190Y29450D01*
X18490Y29700D02*
X18390Y29650D01*
X18290Y29550D01*
Y29450D01*
X18340Y29400D01*
X18440D01*
X18490Y29450D01*
Y29500D01*
X18440Y29550D01*
X18290D01*
X18125Y19925D02*
X18075Y19975D01*
X17975D01*
X17925Y19925D01*
Y19725D01*
X17975Y19675D01*
X18075D01*
X18125Y19725D01*
X18425Y19975D02*
X18225D01*
Y19825D01*
X18325Y19875D01*
X18375D01*
X18425Y19825D01*
Y19725D01*
X18375Y19675D01*
X18275D01*
X18225Y19725D01*
X4420Y19200D02*
X4320D01*
X4370D01*
Y18950D01*
X4320Y18900D01*
X4270D01*
X4220Y18950D01*
X4520Y18900D02*
X4620D01*
X4570D01*
Y19200D01*
X4520Y19150D01*
X11600Y25460D02*
Y25210D01*
X11650Y25160D01*
X11750D01*
X11800Y25210D01*
Y25460D01*
X11900Y25160D02*
X12000D01*
X11950D01*
Y25460D01*
X11900Y25410D01*
X6550Y26110D02*
X6500Y26160D01*
X6400D01*
X6350Y26110D01*
Y25910D01*
X6400Y25860D01*
X6500D01*
X6550Y25910D01*
X6650Y26110D02*
X6700Y26160D01*
X6800D01*
X6850Y26110D01*
Y26060D01*
X6800Y26010D01*
X6750D01*
X6800D01*
X6850Y25960D01*
Y25910D01*
X6800Y25860D01*
X6700D01*
X6650Y25910D01*
X12425Y28625D02*
Y28325D01*
X12625D01*
X12925D02*
X12725D01*
X12925Y28525D01*
Y28575D01*
X12875Y28625D01*
X12775D01*
X12725Y28575D01*
X10825Y30475D02*
Y30175D01*
X10975D01*
X11025Y30225D01*
Y30425D01*
X10975Y30475D01*
X10825D01*
X11125Y30175D02*
X11225D01*
X11175D01*
Y30475D01*
X11125Y30425D01*
X8025Y20475D02*
Y20775D01*
X8175D01*
X8225Y20725D01*
Y20625D01*
X8175Y20575D01*
X8025D01*
X8125D02*
X8225Y20475D01*
X8325D02*
X8425D01*
X8375D01*
Y20775D01*
X8325Y20725D01*
X11749Y19470D02*
Y19770D01*
X11899D01*
X11949Y19720D01*
Y19620D01*
X11899Y19570D01*
X11749D01*
X11849D02*
X11949Y19470D01*
X12249D02*
X12049D01*
X12249Y19670D01*
Y19720D01*
X12199Y19770D01*
X12099D01*
X12049Y19720D01*
X6975Y27575D02*
X6925Y27625D01*
X6825D01*
X6775Y27575D01*
Y27375D01*
X6825Y27325D01*
X6925D01*
X6975Y27375D01*
X7075Y27325D02*
X7175D01*
X7125D01*
Y27625D01*
X7075Y27575D01*
X13240Y22962D02*
X13190Y23012D01*
X13090D01*
X13040Y22962D01*
Y22763D01*
X13090Y22713D01*
X13190D01*
X13240Y22763D01*
X13490Y22713D02*
Y23012D01*
X13340Y22863D01*
X13540D01*
X10030Y22130D02*
X9980Y22180D01*
X9880D01*
X9830Y22130D01*
Y21930D01*
X9880Y21880D01*
X9980D01*
X10030Y21930D01*
X10130Y22180D02*
X10330D01*
Y22130D01*
X10130Y21930D01*
Y21880D01*
X6475Y23450D02*
X6425Y23500D01*
X6325D01*
X6275Y23450D01*
Y23250D01*
X6325Y23200D01*
X6425D01*
X6475Y23250D01*
X6775Y23200D02*
X6575D01*
X6775Y23400D01*
Y23450D01*
X6725Y23500D01*
X6625D01*
X6575Y23450D01*
X24725Y26575D02*
Y27575D01*
X27025Y26575D02*
Y27575D01*
X24725Y26575D02*
X27025D01*
X24725Y27575D02*
X27025D01*
X24925Y20950D02*
Y23200D01*
X26025Y20950D02*
Y23200D01*
X24925D02*
X26025D01*
X24925Y20950D02*
X26025D01*
X29025Y28625D02*
Y30025D01*
X25125Y28625D02*
Y30025D01*
X29025D01*
X25125Y28625D02*
X29025D01*
X30375Y25975D02*
Y28175D01*
X28275Y25975D02*
Y28175D01*
X30375D01*
X28275Y25975D02*
X30375D01*
X23075Y25675D02*
X24525D01*
X23075Y24975D02*
X24525D01*
X23075D02*
Y25675D01*
X24525Y24975D02*
Y25675D01*
X35125Y17400D02*
Y19325D01*
X22125Y17400D02*
Y19325D01*
Y17400D02*
X35125Y17400D01*
X31525Y21025D02*
Y23625D01*
X36025Y20225D02*
Y24425D01*
X32575D02*
X36025D01*
X31525Y23625D02*
X32575Y24425D01*
Y20225D02*
X36025D01*
X31525Y21025D02*
X32575Y20225D01*
X31525Y25775D02*
Y28375D01*
X36025Y24975D02*
Y29175D01*
X32575D02*
X36025D01*
X31525Y28375D02*
X32575Y29175D01*
Y24975D02*
X36025D01*
X31525Y25775D02*
X32575Y24975D01*
X23075Y24425D02*
X24525D01*
X23075Y23725D02*
X24525D01*
X23075D02*
Y24425D01*
X24525Y23725D02*
Y24425D01*
X27575Y20275D02*
Y21725D01*
X26875Y20275D02*
Y21725D01*
X27575D01*
X26875Y20275D02*
X27575D01*
X30125Y23175D02*
Y24625D01*
X30825Y23175D02*
Y24625D01*
X30125Y23175D02*
X30825D01*
X30125Y24625D02*
X30825D01*
X29775Y19950D02*
Y22200D01*
X28675Y19950D02*
Y22200D01*
Y19950D02*
X29775D01*
X28675Y22200D02*
X29775D01*
X31717Y20139D02*
Y20675D01*
X31984Y20407D02*
X31449D01*
X31807Y28889D02*
Y29425D01*
X32075Y29157D02*
X31539D01*
X35390Y29650D02*
X35340Y29700D01*
X35240D01*
X35190Y29650D01*
Y29450D01*
X35240Y29400D01*
X35340D01*
X35390Y29450D01*
X35690Y29700D02*
X35590Y29650D01*
X35490Y29550D01*
Y29450D01*
X35540Y29400D01*
X35640D01*
X35690Y29450D01*
Y29500D01*
X35640Y29550D01*
X35490D01*
X35325Y19925D02*
X35275Y19975D01*
X35175D01*
X35125Y19925D01*
Y19725D01*
X35175Y19675D01*
X35275D01*
X35325Y19725D01*
X35625Y19975D02*
X35425D01*
Y19825D01*
X35525Y19875D01*
X35575D01*
X35625Y19825D01*
Y19725D01*
X35575Y19675D01*
X35475D01*
X35425Y19725D01*
X21620Y19200D02*
X21520D01*
X21570D01*
Y18950D01*
X21520Y18900D01*
X21470D01*
X21420Y18950D01*
X21720Y18900D02*
X21820D01*
X21770D01*
Y19200D01*
X21720Y19150D01*
X28800Y25460D02*
Y25210D01*
X28850Y25160D01*
X28950D01*
X29000Y25210D01*
Y25460D01*
X29100Y25160D02*
X29200D01*
X29150D01*
Y25460D01*
X29100Y25410D01*
X23750Y26110D02*
X23700Y26160D01*
X23600D01*
X23550Y26110D01*
Y25910D01*
X23600Y25860D01*
X23700D01*
X23750Y25910D01*
X23850Y26110D02*
X23900Y26160D01*
X24000D01*
X24050Y26110D01*
Y26060D01*
X24000Y26010D01*
X23950D01*
X24000D01*
X24050Y25960D01*
Y25910D01*
X24000Y25860D01*
X23900D01*
X23850Y25910D01*
X29625Y28625D02*
Y28325D01*
X29825D01*
X30125D02*
X29925D01*
X30125Y28525D01*
Y28575D01*
X30075Y28625D01*
X29975D01*
X29925Y28575D01*
X28025Y30475D02*
Y30175D01*
X28175D01*
X28225Y30225D01*
Y30425D01*
X28175Y30475D01*
X28025D01*
X28325Y30175D02*
X28425D01*
X28375D01*
Y30475D01*
X28325Y30425D01*
X25225Y20475D02*
Y20775D01*
X25375D01*
X25425Y20725D01*
Y20625D01*
X25375Y20575D01*
X25225D01*
X25325D02*
X25425Y20475D01*
X25525D02*
X25625D01*
X25575D01*
Y20775D01*
X25525Y20725D01*
X28949Y19470D02*
Y19770D01*
X29099D01*
X29149Y19720D01*
Y19620D01*
X29099Y19570D01*
X28949D01*
X29049D02*
X29149Y19470D01*
X29449D02*
X29249D01*
X29449Y19670D01*
Y19720D01*
X29399Y19770D01*
X29299D01*
X29249Y19720D01*
X24175Y27575D02*
X24125Y27625D01*
X24025D01*
X23975Y27575D01*
Y27375D01*
X24025Y27325D01*
X24125D01*
X24175Y27375D01*
X24275Y27325D02*
X24375D01*
X24325D01*
Y27625D01*
X24275Y27575D01*
X30440Y22962D02*
X30390Y23012D01*
X30290D01*
X30240Y22962D01*
Y22763D01*
X30290Y22713D01*
X30390D01*
X30440Y22763D01*
X30690Y22713D02*
Y23012D01*
X30540Y22863D01*
X30740D01*
X27230Y22130D02*
X27180Y22180D01*
X27080D01*
X27030Y22130D01*
Y21930D01*
X27080Y21880D01*
X27180D01*
X27230Y21930D01*
X27330Y22180D02*
X27530D01*
Y22130D01*
X27330Y21930D01*
Y21880D01*
X23675Y23450D02*
X23625Y23500D01*
X23525D01*
X23475Y23450D01*
Y23250D01*
X23525Y23200D01*
X23625D01*
X23675Y23250D01*
X23975Y23200D02*
X23775D01*
X23975Y23400D01*
Y23450D01*
X23925Y23500D01*
X23825D01*
X23775Y23450D01*
X41925Y26575D02*
Y27575D01*
X44225Y26575D02*
Y27575D01*
X41925Y26575D02*
X44225D01*
X41925Y27575D02*
X44225D01*
X42125Y20950D02*
Y23200D01*
X43225Y20950D02*
Y23200D01*
X42125D02*
X43225D01*
X42125Y20950D02*
X43225D01*
X46225Y28625D02*
Y30025D01*
X42325Y28625D02*
Y30025D01*
X46225D01*
X42325Y28625D02*
X46225D01*
X47575Y25975D02*
Y28175D01*
X45475Y25975D02*
Y28175D01*
X47575D01*
X45475Y25975D02*
X47575D01*
X40275Y25675D02*
X41725D01*
X40275Y24975D02*
X41725D01*
X40275D02*
Y25675D01*
X41725Y24975D02*
Y25675D01*
X52325Y17400D02*
Y19325D01*
X39325Y17400D02*
Y19325D01*
Y17400D02*
X52325Y17400D01*
X48725Y21025D02*
Y23625D01*
X53225Y20225D02*
Y24425D01*
X49775D02*
X53225D01*
X48725Y23625D02*
X49775Y24425D01*
Y20225D02*
X53225D01*
X48725Y21025D02*
X49775Y20225D01*
X48725Y25775D02*
Y28375D01*
X53225Y24975D02*
Y29175D01*
X49775D02*
X53225D01*
X48725Y28375D02*
X49775Y29175D01*
Y24975D02*
X53225D01*
X48725Y25775D02*
X49775Y24975D01*
X40275Y24425D02*
X41725D01*
X40275Y23725D02*
X41725D01*
X40275D02*
Y24425D01*
X41725Y23725D02*
Y24425D01*
X44775Y20275D02*
Y21725D01*
X44075Y20275D02*
Y21725D01*
X44775D01*
X44075Y20275D02*
X44775D01*
X47325Y23175D02*
Y24625D01*
X48025Y23175D02*
Y24625D01*
X47325Y23175D02*
X48025D01*
X47325Y24625D02*
X48025D01*
X46975Y19950D02*
Y22200D01*
X45875Y19950D02*
Y22200D01*
Y19950D02*
X46975D01*
X45875Y22200D02*
X46975D01*
X48917Y20139D02*
Y20675D01*
X49184Y20407D02*
X48649D01*
X49007Y28889D02*
Y29425D01*
X49275Y29157D02*
X48739D01*
X52590Y29650D02*
X52540Y29700D01*
X52440D01*
X52390Y29650D01*
Y29450D01*
X52440Y29400D01*
X52540D01*
X52590Y29450D01*
X52890Y29700D02*
X52790Y29650D01*
X52690Y29550D01*
Y29450D01*
X52740Y29400D01*
X52840D01*
X52890Y29450D01*
Y29500D01*
X52840Y29550D01*
X52690D01*
X52525Y19925D02*
X52475Y19975D01*
X52375D01*
X52325Y19925D01*
Y19725D01*
X52375Y19675D01*
X52475D01*
X52525Y19725D01*
X52825Y19975D02*
X52625D01*
Y19825D01*
X52725Y19875D01*
X52775D01*
X52825Y19825D01*
Y19725D01*
X52775Y19675D01*
X52675D01*
X52625Y19725D01*
X38820Y19200D02*
X38720D01*
X38770D01*
Y18950D01*
X38720Y18900D01*
X38670D01*
X38620Y18950D01*
X38920Y18900D02*
X39020D01*
X38970D01*
Y19200D01*
X38920Y19150D01*
X46000Y25460D02*
Y25210D01*
X46050Y25160D01*
X46150D01*
X46200Y25210D01*
Y25460D01*
X46300Y25160D02*
X46400D01*
X46350D01*
Y25460D01*
X46300Y25410D01*
X40950Y26110D02*
X40900Y26160D01*
X40800D01*
X40750Y26110D01*
Y25910D01*
X40800Y25860D01*
X40900D01*
X40950Y25910D01*
X41050Y26110D02*
X41100Y26160D01*
X41200D01*
X41250Y26110D01*
Y26060D01*
X41200Y26010D01*
X41150D01*
X41200D01*
X41250Y25960D01*
Y25910D01*
X41200Y25860D01*
X41100D01*
X41050Y25910D01*
X46825Y28625D02*
Y28325D01*
X47025D01*
X47325D02*
X47125D01*
X47325Y28525D01*
Y28575D01*
X47275Y28625D01*
X47175D01*
X47125Y28575D01*
X45225Y30475D02*
Y30175D01*
X45375D01*
X45425Y30225D01*
Y30425D01*
X45375Y30475D01*
X45225D01*
X45525Y30175D02*
X45625D01*
X45575D01*
Y30475D01*
X45525Y30425D01*
X42425Y20475D02*
Y20775D01*
X42575D01*
X42625Y20725D01*
Y20625D01*
X42575Y20575D01*
X42425D01*
X42525D02*
X42625Y20475D01*
X42725D02*
X42825D01*
X42775D01*
Y20775D01*
X42725Y20725D01*
X46149Y19470D02*
Y19770D01*
X46299D01*
X46349Y19720D01*
Y19620D01*
X46299Y19570D01*
X46149D01*
X46249D02*
X46349Y19470D01*
X46649D02*
X46449D01*
X46649Y19670D01*
Y19720D01*
X46599Y19770D01*
X46499D01*
X46449Y19720D01*
X41375Y27575D02*
X41325Y27625D01*
X41225D01*
X41175Y27575D01*
Y27375D01*
X41225Y27325D01*
X41325D01*
X41375Y27375D01*
X41475Y27325D02*
X41575D01*
X41525D01*
Y27625D01*
X41475Y27575D01*
X47640Y22962D02*
X47590Y23012D01*
X47490D01*
X47440Y22962D01*
Y22763D01*
X47490Y22713D01*
X47590D01*
X47640Y22763D01*
X47890Y22713D02*
Y23012D01*
X47740Y22863D01*
X47940D01*
X44430Y22130D02*
X44380Y22180D01*
X44280D01*
X44230Y22130D01*
Y21930D01*
X44280Y21880D01*
X44380D01*
X44430Y21930D01*
X44530Y22180D02*
X44730D01*
Y22130D01*
X44530Y21930D01*
Y21880D01*
X40875Y23450D02*
X40825Y23500D01*
X40725D01*
X40675Y23450D01*
Y23250D01*
X40725Y23200D01*
X40825D01*
X40875Y23250D01*
X41175Y23200D02*
X40975D01*
X41175Y23400D01*
Y23450D01*
X41125Y23500D01*
X41025D01*
X40975Y23450D01*
X59125Y26575D02*
Y27575D01*
X61425Y26575D02*
Y27575D01*
X59125Y26575D02*
X61425D01*
X59125Y27575D02*
X61425D01*
X59325Y20950D02*
Y23200D01*
X60425Y20950D02*
Y23200D01*
X59325D02*
X60425D01*
X59325Y20950D02*
X60425D01*
X63425Y28625D02*
Y30025D01*
X59525Y28625D02*
Y30025D01*
X63425D01*
X59525Y28625D02*
X63425D01*
X64775Y25975D02*
Y28175D01*
X62675Y25975D02*
Y28175D01*
X64775D01*
X62675Y25975D02*
X64775D01*
X57475Y25675D02*
X58925D01*
X57475Y24975D02*
X58925D01*
X57475D02*
Y25675D01*
X58925Y24975D02*
Y25675D01*
X69525Y17400D02*
Y19325D01*
X56525Y17400D02*
Y19325D01*
Y17400D02*
X69525Y17400D01*
X65925Y21025D02*
Y23625D01*
X70425Y20225D02*
Y24425D01*
X66975D02*
X70425D01*
X65925Y23625D02*
X66975Y24425D01*
Y20225D02*
X70425D01*
X65925Y21025D02*
X66975Y20225D01*
X65925Y25775D02*
Y28375D01*
X70425Y24975D02*
Y29175D01*
X66975D02*
X70425D01*
X65925Y28375D02*
X66975Y29175D01*
Y24975D02*
X70425D01*
X65925Y25775D02*
X66975Y24975D01*
X57475Y24425D02*
X58925D01*
X57475Y23725D02*
X58925D01*
X57475D02*
Y24425D01*
X58925Y23725D02*
Y24425D01*
X61975Y20275D02*
Y21725D01*
X61275Y20275D02*
Y21725D01*
X61975D01*
X61275Y20275D02*
X61975D01*
X64525Y23175D02*
Y24625D01*
X65225Y23175D02*
Y24625D01*
X64525Y23175D02*
X65225D01*
X64525Y24625D02*
X65225D01*
X64175Y19950D02*
Y22200D01*
X63075Y19950D02*
Y22200D01*
Y19950D02*
X64175D01*
X63075Y22200D02*
X64175D01*
X66117Y20139D02*
Y20675D01*
X66384Y20407D02*
X65849D01*
X66207Y28889D02*
Y29425D01*
X66475Y29157D02*
X65939D01*
X69790Y29650D02*
X69740Y29700D01*
X69640D01*
X69590Y29650D01*
Y29450D01*
X69640Y29400D01*
X69740D01*
X69790Y29450D01*
X70090Y29700D02*
X69990Y29650D01*
X69890Y29550D01*
Y29450D01*
X69940Y29400D01*
X70040D01*
X70090Y29450D01*
Y29500D01*
X70040Y29550D01*
X69890D01*
X69725Y19925D02*
X69675Y19975D01*
X69575D01*
X69525Y19925D01*
Y19725D01*
X69575Y19675D01*
X69675D01*
X69725Y19725D01*
X70025Y19975D02*
X69825D01*
Y19825D01*
X69925Y19875D01*
X69975D01*
X70025Y19825D01*
Y19725D01*
X69975Y19675D01*
X69875D01*
X69825Y19725D01*
X56020Y19200D02*
X55920D01*
X55970D01*
Y18950D01*
X55920Y18900D01*
X55870D01*
X55820Y18950D01*
X56120Y18900D02*
X56220D01*
X56170D01*
Y19200D01*
X56120Y19150D01*
X63200Y25460D02*
Y25210D01*
X63250Y25160D01*
X63350D01*
X63400Y25210D01*
Y25460D01*
X63500Y25160D02*
X63600D01*
X63550D01*
Y25460D01*
X63500Y25410D01*
X58150Y26110D02*
X58100Y26160D01*
X58000D01*
X57950Y26110D01*
Y25910D01*
X58000Y25860D01*
X58100D01*
X58150Y25910D01*
X58250Y26110D02*
X58300Y26160D01*
X58400D01*
X58450Y26110D01*
Y26060D01*
X58400Y26010D01*
X58350D01*
X58400D01*
X58450Y25960D01*
Y25910D01*
X58400Y25860D01*
X58300D01*
X58250Y25910D01*
X64025Y28625D02*
Y28325D01*
X64225D01*
X64525D02*
X64325D01*
X64525Y28525D01*
Y28575D01*
X64475Y28625D01*
X64375D01*
X64325Y28575D01*
X62425Y30475D02*
Y30175D01*
X62575D01*
X62625Y30225D01*
Y30425D01*
X62575Y30475D01*
X62425D01*
X62725Y30175D02*
X62825D01*
X62775D01*
Y30475D01*
X62725Y30425D01*
X59625Y20475D02*
Y20775D01*
X59775D01*
X59825Y20725D01*
Y20625D01*
X59775Y20575D01*
X59625D01*
X59725D02*
X59825Y20475D01*
X59925D02*
X60025D01*
X59975D01*
Y20775D01*
X59925Y20725D01*
X63349Y19470D02*
Y19770D01*
X63499D01*
X63549Y19720D01*
Y19620D01*
X63499Y19570D01*
X63349D01*
X63449D02*
X63549Y19470D01*
X63849D02*
X63649D01*
X63849Y19670D01*
Y19720D01*
X63799Y19770D01*
X63699D01*
X63649Y19720D01*
X58575Y27575D02*
X58525Y27625D01*
X58425D01*
X58375Y27575D01*
Y27375D01*
X58425Y27325D01*
X58525D01*
X58575Y27375D01*
X58675Y27325D02*
X58775D01*
X58725D01*
Y27625D01*
X58675Y27575D01*
X64840Y22962D02*
X64790Y23012D01*
X64690D01*
X64640Y22962D01*
Y22763D01*
X64690Y22713D01*
X64790D01*
X64840Y22763D01*
X65090Y22713D02*
Y23012D01*
X64940Y22863D01*
X65140D01*
X61630Y22130D02*
X61580Y22180D01*
X61480D01*
X61430Y22130D01*
Y21930D01*
X61480Y21880D01*
X61580D01*
X61630Y21930D01*
X61730Y22180D02*
X61930D01*
Y22130D01*
X61730Y21930D01*
Y21880D01*
X58075Y23450D02*
X58025Y23500D01*
X57925D01*
X57875Y23450D01*
Y23250D01*
X57925Y23200D01*
X58025D01*
X58075Y23250D01*
X58375Y23200D02*
X58175D01*
X58375Y23400D01*
Y23450D01*
X58325Y23500D01*
X58225D01*
X58175Y23450D01*
X7525Y41375D02*
Y42375D01*
X9825Y41375D02*
Y42375D01*
X7525Y41375D02*
X9825D01*
X7525Y42375D02*
X9825D01*
X7725Y35750D02*
Y38000D01*
X8825Y35750D02*
Y38000D01*
X7725D02*
X8825D01*
X7725Y35750D02*
X8825D01*
X11825Y43425D02*
Y44825D01*
X7925Y43425D02*
Y44825D01*
X11825D01*
X7925Y43425D02*
X11825D01*
X13175Y40775D02*
Y42975D01*
X11075Y40775D02*
Y42975D01*
X13175D01*
X11075Y40775D02*
X13175D01*
X5875Y40475D02*
X7325D01*
X5875Y39775D02*
X7325D01*
X5875D02*
Y40475D01*
X7325Y39775D02*
Y40475D01*
X17925Y32200D02*
Y34125D01*
X4925Y32200D02*
Y34125D01*
Y32200D02*
X17925Y32200D01*
X14325Y35825D02*
Y38425D01*
X18825Y35025D02*
Y39225D01*
X15375D02*
X18825D01*
X14325Y38425D02*
X15375Y39225D01*
Y35025D02*
X18825D01*
X14325Y35825D02*
X15375Y35025D01*
X14325Y40575D02*
Y43175D01*
X18825Y39775D02*
Y43975D01*
X15375D02*
X18825D01*
X14325Y43175D02*
X15375Y43975D01*
Y39775D02*
X18825D01*
X14325Y40575D02*
X15375Y39775D01*
X5875Y39225D02*
X7325D01*
X5875Y38525D02*
X7325D01*
X5875D02*
Y39225D01*
X7325Y38525D02*
Y39225D01*
X10375Y35075D02*
Y36525D01*
X9675Y35075D02*
Y36525D01*
X10375D01*
X9675Y35075D02*
X10375D01*
X12925Y37975D02*
Y39425D01*
X13625Y37975D02*
Y39425D01*
X12925Y37975D02*
X13625D01*
X12925Y39425D02*
X13625D01*
X12575Y34750D02*
Y37000D01*
X11475Y34750D02*
Y37000D01*
Y34750D02*
X12575D01*
X11475Y37000D02*
X12575D01*
X14517Y34939D02*
Y35475D01*
X14784Y35207D02*
X14249D01*
X14607Y43689D02*
Y44225D01*
X14875Y43957D02*
X14339D01*
X18190Y44450D02*
X18140Y44500D01*
X18040D01*
X17990Y44450D01*
Y44250D01*
X18040Y44200D01*
X18140D01*
X18190Y44250D01*
X18490Y44500D02*
X18390Y44450D01*
X18290Y44350D01*
Y44250D01*
X18340Y44200D01*
X18440D01*
X18490Y44250D01*
Y44300D01*
X18440Y44350D01*
X18290D01*
X18125Y34725D02*
X18075Y34775D01*
X17975D01*
X17925Y34725D01*
Y34525D01*
X17975Y34475D01*
X18075D01*
X18125Y34525D01*
X18425Y34775D02*
X18225D01*
Y34625D01*
X18325Y34675D01*
X18375D01*
X18425Y34625D01*
Y34525D01*
X18375Y34475D01*
X18275D01*
X18225Y34525D01*
X4420Y34000D02*
X4320D01*
X4370D01*
Y33750D01*
X4320Y33700D01*
X4270D01*
X4220Y33750D01*
X4520Y33700D02*
X4620D01*
X4570D01*
Y34000D01*
X4520Y33950D01*
X11600Y40260D02*
Y40010D01*
X11650Y39960D01*
X11750D01*
X11800Y40010D01*
Y40260D01*
X11900Y39960D02*
X12000D01*
X11950D01*
Y40260D01*
X11900Y40210D01*
X6550Y40910D02*
X6500Y40960D01*
X6400D01*
X6350Y40910D01*
Y40710D01*
X6400Y40660D01*
X6500D01*
X6550Y40710D01*
X6650Y40910D02*
X6700Y40960D01*
X6800D01*
X6850Y40910D01*
Y40860D01*
X6800Y40810D01*
X6750D01*
X6800D01*
X6850Y40760D01*
Y40710D01*
X6800Y40660D01*
X6700D01*
X6650Y40710D01*
X12425Y43425D02*
Y43125D01*
X12625D01*
X12925D02*
X12725D01*
X12925Y43325D01*
Y43375D01*
X12875Y43425D01*
X12775D01*
X12725Y43375D01*
X10825Y45275D02*
Y44975D01*
X10975D01*
X11025Y45025D01*
Y45225D01*
X10975Y45275D01*
X10825D01*
X11125Y44975D02*
X11225D01*
X11175D01*
Y45275D01*
X11125Y45225D01*
X8025Y35275D02*
Y35575D01*
X8175D01*
X8225Y35525D01*
Y35425D01*
X8175Y35375D01*
X8025D01*
X8125D02*
X8225Y35275D01*
X8325D02*
X8425D01*
X8375D01*
Y35575D01*
X8325Y35525D01*
X11749Y34270D02*
Y34570D01*
X11899D01*
X11949Y34520D01*
Y34420D01*
X11899Y34370D01*
X11749D01*
X11849D02*
X11949Y34270D01*
X12249D02*
X12049D01*
X12249Y34470D01*
Y34520D01*
X12199Y34570D01*
X12099D01*
X12049Y34520D01*
X6975Y42375D02*
X6925Y42425D01*
X6825D01*
X6775Y42375D01*
Y42175D01*
X6825Y42125D01*
X6925D01*
X6975Y42175D01*
X7075Y42125D02*
X7175D01*
X7125D01*
Y42425D01*
X7075Y42375D01*
X13240Y37762D02*
X13190Y37812D01*
X13090D01*
X13040Y37762D01*
Y37563D01*
X13090Y37513D01*
X13190D01*
X13240Y37563D01*
X13490Y37513D02*
Y37812D01*
X13340Y37663D01*
X13540D01*
X10030Y36930D02*
X9980Y36980D01*
X9880D01*
X9830Y36930D01*
Y36730D01*
X9880Y36680D01*
X9980D01*
X10030Y36730D01*
X10130Y36980D02*
X10330D01*
Y36930D01*
X10130Y36730D01*
Y36680D01*
X6475Y38250D02*
X6425Y38300D01*
X6325D01*
X6275Y38250D01*
Y38050D01*
X6325Y38000D01*
X6425D01*
X6475Y38050D01*
X6775Y38000D02*
X6575D01*
X6775Y38200D01*
Y38250D01*
X6725Y38300D01*
X6625D01*
X6575Y38250D01*
X24725Y41375D02*
Y42375D01*
X27025Y41375D02*
Y42375D01*
X24725Y41375D02*
X27025D01*
X24725Y42375D02*
X27025D01*
X24925Y35750D02*
Y38000D01*
X26025Y35750D02*
Y38000D01*
X24925D02*
X26025D01*
X24925Y35750D02*
X26025D01*
X29025Y43425D02*
Y44825D01*
X25125Y43425D02*
Y44825D01*
X29025D01*
X25125Y43425D02*
X29025D01*
X30375Y40775D02*
Y42975D01*
X28275Y40775D02*
Y42975D01*
X30375D01*
X28275Y40775D02*
X30375D01*
X23075Y40475D02*
X24525D01*
X23075Y39775D02*
X24525D01*
X23075D02*
Y40475D01*
X24525Y39775D02*
Y40475D01*
X35125Y32200D02*
Y34125D01*
X22125Y32200D02*
Y34125D01*
Y32200D02*
X35125Y32200D01*
X31525Y35825D02*
Y38425D01*
X36025Y35025D02*
Y39225D01*
X32575D02*
X36025D01*
X31525Y38425D02*
X32575Y39225D01*
Y35025D02*
X36025D01*
X31525Y35825D02*
X32575Y35025D01*
X31525Y40575D02*
Y43175D01*
X36025Y39775D02*
Y43975D01*
X32575D02*
X36025D01*
X31525Y43175D02*
X32575Y43975D01*
Y39775D02*
X36025D01*
X31525Y40575D02*
X32575Y39775D01*
X23075Y39225D02*
X24525D01*
X23075Y38525D02*
X24525D01*
X23075D02*
Y39225D01*
X24525Y38525D02*
Y39225D01*
X27575Y35075D02*
Y36525D01*
X26875Y35075D02*
Y36525D01*
X27575D01*
X26875Y35075D02*
X27575D01*
X30125Y37975D02*
Y39425D01*
X30825Y37975D02*
Y39425D01*
X30125Y37975D02*
X30825D01*
X30125Y39425D02*
X30825D01*
X29775Y34750D02*
Y37000D01*
X28675Y34750D02*
Y37000D01*
Y34750D02*
X29775D01*
X28675Y37000D02*
X29775D01*
X31717Y34939D02*
Y35475D01*
X31984Y35207D02*
X31449D01*
X31807Y43689D02*
Y44225D01*
X32075Y43957D02*
X31539D01*
X35390Y44450D02*
X35340Y44500D01*
X35240D01*
X35190Y44450D01*
Y44250D01*
X35240Y44200D01*
X35340D01*
X35390Y44250D01*
X35690Y44500D02*
X35590Y44450D01*
X35490Y44350D01*
Y44250D01*
X35540Y44200D01*
X35640D01*
X35690Y44250D01*
Y44300D01*
X35640Y44350D01*
X35490D01*
X35325Y34725D02*
X35275Y34775D01*
X35175D01*
X35125Y34725D01*
Y34525D01*
X35175Y34475D01*
X35275D01*
X35325Y34525D01*
X35625Y34775D02*
X35425D01*
Y34625D01*
X35525Y34675D01*
X35575D01*
X35625Y34625D01*
Y34525D01*
X35575Y34475D01*
X35475D01*
X35425Y34525D01*
X21620Y34000D02*
X21520D01*
X21570D01*
Y33750D01*
X21520Y33700D01*
X21470D01*
X21420Y33750D01*
X21720Y33700D02*
X21820D01*
X21770D01*
Y34000D01*
X21720Y33950D01*
X28800Y40260D02*
Y40010D01*
X28850Y39960D01*
X28950D01*
X29000Y40010D01*
Y40260D01*
X29100Y39960D02*
X29200D01*
X29150D01*
Y40260D01*
X29100Y40210D01*
X23750Y40910D02*
X23700Y40960D01*
X23600D01*
X23550Y40910D01*
Y40710D01*
X23600Y40660D01*
X23700D01*
X23750Y40710D01*
X23850Y40910D02*
X23900Y40960D01*
X24000D01*
X24050Y40910D01*
Y40860D01*
X24000Y40810D01*
X23950D01*
X24000D01*
X24050Y40760D01*
Y40710D01*
X24000Y40660D01*
X23900D01*
X23850Y40710D01*
X29625Y43425D02*
Y43125D01*
X29825D01*
X30125D02*
X29925D01*
X30125Y43325D01*
Y43375D01*
X30075Y43425D01*
X29975D01*
X29925Y43375D01*
X28025Y45275D02*
Y44975D01*
X28175D01*
X28225Y45025D01*
Y45225D01*
X28175Y45275D01*
X28025D01*
X28325Y44975D02*
X28425D01*
X28375D01*
Y45275D01*
X28325Y45225D01*
X25225Y35275D02*
Y35575D01*
X25375D01*
X25425Y35525D01*
Y35425D01*
X25375Y35375D01*
X25225D01*
X25325D02*
X25425Y35275D01*
X25525D02*
X25625D01*
X25575D01*
Y35575D01*
X25525Y35525D01*
X28949Y34270D02*
Y34570D01*
X29099D01*
X29149Y34520D01*
Y34420D01*
X29099Y34370D01*
X28949D01*
X29049D02*
X29149Y34270D01*
X29449D02*
X29249D01*
X29449Y34470D01*
Y34520D01*
X29399Y34570D01*
X29299D01*
X29249Y34520D01*
X24175Y42375D02*
X24125Y42425D01*
X24025D01*
X23975Y42375D01*
Y42175D01*
X24025Y42125D01*
X24125D01*
X24175Y42175D01*
X24275Y42125D02*
X24375D01*
X24325D01*
Y42425D01*
X24275Y42375D01*
X30440Y37762D02*
X30390Y37812D01*
X30290D01*
X30240Y37762D01*
Y37563D01*
X30290Y37513D01*
X30390D01*
X30440Y37563D01*
X30690Y37513D02*
Y37812D01*
X30540Y37663D01*
X30740D01*
X27230Y36930D02*
X27180Y36980D01*
X27080D01*
X27030Y36930D01*
Y36730D01*
X27080Y36680D01*
X27180D01*
X27230Y36730D01*
X27330Y36980D02*
X27530D01*
Y36930D01*
X27330Y36730D01*
Y36680D01*
X23675Y38250D02*
X23625Y38300D01*
X23525D01*
X23475Y38250D01*
Y38050D01*
X23525Y38000D01*
X23625D01*
X23675Y38050D01*
X23975Y38000D02*
X23775D01*
X23975Y38200D01*
Y38250D01*
X23925Y38300D01*
X23825D01*
X23775Y38250D01*
X41925Y41375D02*
Y42375D01*
X44225Y41375D02*
Y42375D01*
X41925Y41375D02*
X44225D01*
X41925Y42375D02*
X44225D01*
X42125Y35750D02*
Y38000D01*
X43225Y35750D02*
Y38000D01*
X42125D02*
X43225D01*
X42125Y35750D02*
X43225D01*
X46225Y43425D02*
Y44825D01*
X42325Y43425D02*
Y44825D01*
X46225D01*
X42325Y43425D02*
X46225D01*
X47575Y40775D02*
Y42975D01*
X45475Y40775D02*
Y42975D01*
X47575D01*
X45475Y40775D02*
X47575D01*
X40275Y40475D02*
X41725D01*
X40275Y39775D02*
X41725D01*
X40275D02*
Y40475D01*
X41725Y39775D02*
Y40475D01*
X52325Y32200D02*
Y34125D01*
X39325Y32200D02*
Y34125D01*
Y32200D02*
X52325Y32200D01*
X48725Y35825D02*
Y38425D01*
X53225Y35025D02*
Y39225D01*
X49775D02*
X53225D01*
X48725Y38425D02*
X49775Y39225D01*
Y35025D02*
X53225D01*
X48725Y35825D02*
X49775Y35025D01*
X48725Y40575D02*
Y43175D01*
X53225Y39775D02*
Y43975D01*
X49775D02*
X53225D01*
X48725Y43175D02*
X49775Y43975D01*
Y39775D02*
X53225D01*
X48725Y40575D02*
X49775Y39775D01*
X40275Y39225D02*
X41725D01*
X40275Y38525D02*
X41725D01*
X40275D02*
Y39225D01*
X41725Y38525D02*
Y39225D01*
X44775Y35075D02*
Y36525D01*
X44075Y35075D02*
Y36525D01*
X44775D01*
X44075Y35075D02*
X44775D01*
X47325Y37975D02*
Y39425D01*
X48025Y37975D02*
Y39425D01*
X47325Y37975D02*
X48025D01*
X47325Y39425D02*
X48025D01*
X46975Y34750D02*
Y37000D01*
X45875Y34750D02*
Y37000D01*
Y34750D02*
X46975D01*
X45875Y37000D02*
X46975D01*
X48917Y34939D02*
Y35475D01*
X49184Y35207D02*
X48649D01*
X49007Y43689D02*
Y44225D01*
X49275Y43957D02*
X48739D01*
X52590Y44450D02*
X52540Y44500D01*
X52440D01*
X52390Y44450D01*
Y44250D01*
X52440Y44200D01*
X52540D01*
X52590Y44250D01*
X52890Y44500D02*
X52790Y44450D01*
X52690Y44350D01*
Y44250D01*
X52740Y44200D01*
X52840D01*
X52890Y44250D01*
Y44300D01*
X52840Y44350D01*
X52690D01*
X52525Y34725D02*
X52475Y34775D01*
X52375D01*
X52325Y34725D01*
Y34525D01*
X52375Y34475D01*
X52475D01*
X52525Y34525D01*
X52825Y34775D02*
X52625D01*
Y34625D01*
X52725Y34675D01*
X52775D01*
X52825Y34625D01*
Y34525D01*
X52775Y34475D01*
X52675D01*
X52625Y34525D01*
X38820Y34000D02*
X38720D01*
X38770D01*
Y33750D01*
X38720Y33700D01*
X38670D01*
X38620Y33750D01*
X38920Y33700D02*
X39020D01*
X38970D01*
Y34000D01*
X38920Y33950D01*
X46000Y40260D02*
Y40010D01*
X46050Y39960D01*
X46150D01*
X46200Y40010D01*
Y40260D01*
X46300Y39960D02*
X46400D01*
X46350D01*
Y40260D01*
X46300Y40210D01*
X40950Y40910D02*
X40900Y40960D01*
X40800D01*
X40750Y40910D01*
Y40710D01*
X40800Y40660D01*
X40900D01*
X40950Y40710D01*
X41050Y40910D02*
X41100Y40960D01*
X41200D01*
X41250Y40910D01*
Y40860D01*
X41200Y40810D01*
X41150D01*
X41200D01*
X41250Y40760D01*
Y40710D01*
X41200Y40660D01*
X41100D01*
X41050Y40710D01*
X46825Y43425D02*
Y43125D01*
X47025D01*
X47325D02*
X47125D01*
X47325Y43325D01*
Y43375D01*
X47275Y43425D01*
X47175D01*
X47125Y43375D01*
X45225Y45275D02*
Y44975D01*
X45375D01*
X45425Y45025D01*
Y45225D01*
X45375Y45275D01*
X45225D01*
X45525Y44975D02*
X45625D01*
X45575D01*
Y45275D01*
X45525Y45225D01*
X42425Y35275D02*
Y35575D01*
X42575D01*
X42625Y35525D01*
Y35425D01*
X42575Y35375D01*
X42425D01*
X42525D02*
X42625Y35275D01*
X42725D02*
X42825D01*
X42775D01*
Y35575D01*
X42725Y35525D01*
X46149Y34270D02*
Y34570D01*
X46299D01*
X46349Y34520D01*
Y34420D01*
X46299Y34370D01*
X46149D01*
X46249D02*
X46349Y34270D01*
X46649D02*
X46449D01*
X46649Y34470D01*
Y34520D01*
X46599Y34570D01*
X46499D01*
X46449Y34520D01*
X41375Y42375D02*
X41325Y42425D01*
X41225D01*
X41175Y42375D01*
Y42175D01*
X41225Y42125D01*
X41325D01*
X41375Y42175D01*
X41475Y42125D02*
X41575D01*
X41525D01*
Y42425D01*
X41475Y42375D01*
X47640Y37762D02*
X47590Y37812D01*
X47490D01*
X47440Y37762D01*
Y37563D01*
X47490Y37513D01*
X47590D01*
X47640Y37563D01*
X47890Y37513D02*
Y37812D01*
X47740Y37663D01*
X47940D01*
X44430Y36930D02*
X44380Y36980D01*
X44280D01*
X44230Y36930D01*
Y36730D01*
X44280Y36680D01*
X44380D01*
X44430Y36730D01*
X44530Y36980D02*
X44730D01*
Y36930D01*
X44530Y36730D01*
Y36680D01*
X40875Y38250D02*
X40825Y38300D01*
X40725D01*
X40675Y38250D01*
Y38050D01*
X40725Y38000D01*
X40825D01*
X40875Y38050D01*
X41175Y38000D02*
X40975D01*
X41175Y38200D01*
Y38250D01*
X41125Y38300D01*
X41025D01*
X40975Y38250D01*
X59125Y41375D02*
Y42375D01*
X61425Y41375D02*
Y42375D01*
X59125Y41375D02*
X61425D01*
X59125Y42375D02*
X61425D01*
X59325Y35750D02*
Y38000D01*
X60425Y35750D02*
Y38000D01*
X59325D02*
X60425D01*
X59325Y35750D02*
X60425D01*
X63425Y43425D02*
Y44825D01*
X59525Y43425D02*
Y44825D01*
X63425D01*
X59525Y43425D02*
X63425D01*
X64775Y40775D02*
Y42975D01*
X62675Y40775D02*
Y42975D01*
X64775D01*
X62675Y40775D02*
X64775D01*
X57475Y40475D02*
X58925D01*
X57475Y39775D02*
X58925D01*
X57475D02*
Y40475D01*
X58925Y39775D02*
Y40475D01*
X69525Y32200D02*
Y34125D01*
X56525Y32200D02*
Y34125D01*
Y32200D02*
X69525Y32200D01*
X65925Y35825D02*
Y38425D01*
X70425Y35025D02*
Y39225D01*
X66975D02*
X70425D01*
X65925Y38425D02*
X66975Y39225D01*
Y35025D02*
X70425D01*
X65925Y35825D02*
X66975Y35025D01*
X65925Y40575D02*
Y43175D01*
X70425Y39775D02*
Y43975D01*
X66975D02*
X70425D01*
X65925Y43175D02*
X66975Y43975D01*
Y39775D02*
X70425D01*
X65925Y40575D02*
X66975Y39775D01*
X57475Y39225D02*
X58925D01*
X57475Y38525D02*
X58925D01*
X57475D02*
Y39225D01*
X58925Y38525D02*
Y39225D01*
X61975Y35075D02*
Y36525D01*
X61275Y35075D02*
Y36525D01*
X61975D01*
X61275Y35075D02*
X61975D01*
X64525Y37975D02*
Y39425D01*
X65225Y37975D02*
Y39425D01*
X64525Y37975D02*
X65225D01*
X64525Y39425D02*
X65225D01*
X64175Y34750D02*
Y37000D01*
X63075Y34750D02*
Y37000D01*
Y34750D02*
X64175D01*
X63075Y37000D02*
X64175D01*
X66117Y34939D02*
Y35475D01*
X66384Y35207D02*
X65849D01*
X66207Y43689D02*
Y44225D01*
X66475Y43957D02*
X65939D01*
X69790Y44450D02*
X69740Y44500D01*
X69640D01*
X69590Y44450D01*
Y44250D01*
X69640Y44200D01*
X69740D01*
X69790Y44250D01*
X70090Y44500D02*
X69990Y44450D01*
X69890Y44350D01*
Y44250D01*
X69940Y44200D01*
X70040D01*
X70090Y44250D01*
Y44300D01*
X70040Y44350D01*
X69890D01*
X69725Y34725D02*
X69675Y34775D01*
X69575D01*
X69525Y34725D01*
Y34525D01*
X69575Y34475D01*
X69675D01*
X69725Y34525D01*
X70025Y34775D02*
X69825D01*
Y34625D01*
X69925Y34675D01*
X69975D01*
X70025Y34625D01*
Y34525D01*
X69975Y34475D01*
X69875D01*
X69825Y34525D01*
X56020Y34000D02*
X55920D01*
X55970D01*
Y33750D01*
X55920Y33700D01*
X55870D01*
X55820Y33750D01*
X56120Y33700D02*
X56220D01*
X56170D01*
Y34000D01*
X56120Y33950D01*
X63200Y40260D02*
Y40010D01*
X63250Y39960D01*
X63350D01*
X63400Y40010D01*
Y40260D01*
X63500Y39960D02*
X63600D01*
X63550D01*
Y40260D01*
X63500Y40210D01*
X58150Y40910D02*
X58100Y40960D01*
X58000D01*
X57950Y40910D01*
Y40710D01*
X58000Y40660D01*
X58100D01*
X58150Y40710D01*
X58250Y40910D02*
X58300Y40960D01*
X58400D01*
X58450Y40910D01*
Y40860D01*
X58400Y40810D01*
X58350D01*
X58400D01*
X58450Y40760D01*
Y40710D01*
X58400Y40660D01*
X58300D01*
X58250Y40710D01*
X64025Y43425D02*
Y43125D01*
X64225D01*
X64525D02*
X64325D01*
X64525Y43325D01*
Y43375D01*
X64475Y43425D01*
X64375D01*
X64325Y43375D01*
X62425Y45275D02*
Y44975D01*
X62575D01*
X62625Y45025D01*
Y45225D01*
X62575Y45275D01*
X62425D01*
X62725Y44975D02*
X62825D01*
X62775D01*
Y45275D01*
X62725Y45225D01*
X59625Y35275D02*
Y35575D01*
X59775D01*
X59825Y35525D01*
Y35425D01*
X59775Y35375D01*
X59625D01*
X59725D02*
X59825Y35275D01*
X59925D02*
X60025D01*
X59975D01*
Y35575D01*
X59925Y35525D01*
X63349Y34270D02*
Y34570D01*
X63499D01*
X63549Y34520D01*
Y34420D01*
X63499Y34370D01*
X63349D01*
X63449D02*
X63549Y34270D01*
X63849D02*
X63649D01*
X63849Y34470D01*
Y34520D01*
X63799Y34570D01*
X63699D01*
X63649Y34520D01*
X58575Y42375D02*
X58525Y42425D01*
X58425D01*
X58375Y42375D01*
Y42175D01*
X58425Y42125D01*
X58525D01*
X58575Y42175D01*
X58675Y42125D02*
X58775D01*
X58725D01*
Y42425D01*
X58675Y42375D01*
X64840Y37762D02*
X64790Y37812D01*
X64690D01*
X64640Y37762D01*
Y37563D01*
X64690Y37513D01*
X64790D01*
X64840Y37563D01*
X65090Y37513D02*
Y37812D01*
X64940Y37663D01*
X65140D01*
X61630Y36930D02*
X61580Y36980D01*
X61480D01*
X61430Y36930D01*
Y36730D01*
X61480Y36680D01*
X61580D01*
X61630Y36730D01*
X61730Y36980D02*
X61930D01*
Y36930D01*
X61730Y36730D01*
Y36680D01*
X58075Y38250D02*
X58025Y38300D01*
X57925D01*
X57875Y38250D01*
Y38050D01*
X57925Y38000D01*
X58025D01*
X58075Y38050D01*
X58375Y38000D02*
X58175D01*
X58375Y38200D01*
Y38250D01*
X58325Y38300D01*
X58225D01*
X58175Y38250D01*
X7525Y56175D02*
Y57175D01*
X9825Y56175D02*
Y57175D01*
X7525Y56175D02*
X9825D01*
X7525Y57175D02*
X9825D01*
X7725Y50550D02*
Y52800D01*
X8825Y50550D02*
Y52800D01*
X7725D02*
X8825D01*
X7725Y50550D02*
X8825D01*
X11825Y58225D02*
Y59625D01*
X7925Y58225D02*
Y59625D01*
X11825D01*
X7925Y58225D02*
X11825D01*
X13175Y55575D02*
Y57775D01*
X11075Y55575D02*
Y57775D01*
X13175D01*
X11075Y55575D02*
X13175D01*
X5875Y55275D02*
X7325D01*
X5875Y54575D02*
X7325D01*
X5875D02*
Y55275D01*
X7325Y54575D02*
Y55275D01*
X17925Y47000D02*
Y48925D01*
X4925Y47000D02*
Y48925D01*
Y47000D02*
X17925Y47000D01*
X14325Y50625D02*
Y53225D01*
X18825Y49825D02*
Y54025D01*
X15375D02*
X18825D01*
X14325Y53225D02*
X15375Y54025D01*
Y49825D02*
X18825D01*
X14325Y50625D02*
X15375Y49825D01*
X14325Y55375D02*
Y57975D01*
X18825Y54575D02*
Y58775D01*
X15375D02*
X18825D01*
X14325Y57975D02*
X15375Y58775D01*
Y54575D02*
X18825D01*
X14325Y55375D02*
X15375Y54575D01*
X5875Y54025D02*
X7325D01*
X5875Y53325D02*
X7325D01*
X5875D02*
Y54025D01*
X7325Y53325D02*
Y54025D01*
X10375Y49875D02*
Y51325D01*
X9675Y49875D02*
Y51325D01*
X10375D01*
X9675Y49875D02*
X10375D01*
X12925Y52775D02*
Y54225D01*
X13625Y52775D02*
Y54225D01*
X12925Y52775D02*
X13625D01*
X12925Y54225D02*
X13625D01*
X12575Y49550D02*
Y51800D01*
X11475Y49550D02*
Y51800D01*
Y49550D02*
X12575D01*
X11475Y51800D02*
X12575D01*
X14517Y49739D02*
Y50275D01*
X14784Y50007D02*
X14249D01*
X14607Y58489D02*
Y59025D01*
X14875Y58757D02*
X14339D01*
X18190Y59250D02*
X18140Y59300D01*
X18040D01*
X17990Y59250D01*
Y59050D01*
X18040Y59000D01*
X18140D01*
X18190Y59050D01*
X18490Y59300D02*
X18390Y59250D01*
X18290Y59150D01*
Y59050D01*
X18340Y59000D01*
X18440D01*
X18490Y59050D01*
Y59100D01*
X18440Y59150D01*
X18290D01*
X18125Y49525D02*
X18075Y49575D01*
X17975D01*
X17925Y49525D01*
Y49325D01*
X17975Y49275D01*
X18075D01*
X18125Y49325D01*
X18425Y49575D02*
X18225D01*
Y49425D01*
X18325Y49475D01*
X18375D01*
X18425Y49425D01*
Y49325D01*
X18375Y49275D01*
X18275D01*
X18225Y49325D01*
X4420Y48800D02*
X4320D01*
X4370D01*
Y48550D01*
X4320Y48500D01*
X4270D01*
X4220Y48550D01*
X4520Y48500D02*
X4620D01*
X4570D01*
Y48800D01*
X4520Y48750D01*
X11600Y55060D02*
Y54810D01*
X11650Y54760D01*
X11750D01*
X11800Y54810D01*
Y55060D01*
X11900Y54760D02*
X12000D01*
X11950D01*
Y55060D01*
X11900Y55010D01*
X6550Y55710D02*
X6500Y55760D01*
X6400D01*
X6350Y55710D01*
Y55510D01*
X6400Y55460D01*
X6500D01*
X6550Y55510D01*
X6650Y55710D02*
X6700Y55760D01*
X6800D01*
X6850Y55710D01*
Y55660D01*
X6800Y55610D01*
X6750D01*
X6800D01*
X6850Y55560D01*
Y55510D01*
X6800Y55460D01*
X6700D01*
X6650Y55510D01*
X12425Y58225D02*
Y57925D01*
X12625D01*
X12925D02*
X12725D01*
X12925Y58125D01*
Y58175D01*
X12875Y58225D01*
X12775D01*
X12725Y58175D01*
X10825Y60075D02*
Y59775D01*
X10975D01*
X11025Y59825D01*
Y60025D01*
X10975Y60075D01*
X10825D01*
X11125Y59775D02*
X11225D01*
X11175D01*
Y60075D01*
X11125Y60025D01*
X8025Y50075D02*
Y50375D01*
X8175D01*
X8225Y50325D01*
Y50225D01*
X8175Y50175D01*
X8025D01*
X8125D02*
X8225Y50075D01*
X8325D02*
X8425D01*
X8375D01*
Y50375D01*
X8325Y50325D01*
X11749Y49070D02*
Y49370D01*
X11899D01*
X11949Y49320D01*
Y49220D01*
X11899Y49170D01*
X11749D01*
X11849D02*
X11949Y49070D01*
X12249D02*
X12049D01*
X12249Y49270D01*
Y49320D01*
X12199Y49370D01*
X12099D01*
X12049Y49320D01*
X6975Y57175D02*
X6925Y57225D01*
X6825D01*
X6775Y57175D01*
Y56975D01*
X6825Y56925D01*
X6925D01*
X6975Y56975D01*
X7075Y56925D02*
X7175D01*
X7125D01*
Y57225D01*
X7075Y57175D01*
X13240Y52562D02*
X13190Y52612D01*
X13090D01*
X13040Y52562D01*
Y52363D01*
X13090Y52313D01*
X13190D01*
X13240Y52363D01*
X13490Y52313D02*
Y52612D01*
X13340Y52463D01*
X13540D01*
X10030Y51730D02*
X9980Y51780D01*
X9880D01*
X9830Y51730D01*
Y51530D01*
X9880Y51480D01*
X9980D01*
X10030Y51530D01*
X10130Y51780D02*
X10330D01*
Y51730D01*
X10130Y51530D01*
Y51480D01*
X6475Y53050D02*
X6425Y53100D01*
X6325D01*
X6275Y53050D01*
Y52850D01*
X6325Y52800D01*
X6425D01*
X6475Y52850D01*
X6775Y52800D02*
X6575D01*
X6775Y53000D01*
Y53050D01*
X6725Y53100D01*
X6625D01*
X6575Y53050D01*
X24725Y56175D02*
Y57175D01*
X27025Y56175D02*
Y57175D01*
X24725Y56175D02*
X27025D01*
X24725Y57175D02*
X27025D01*
X24925Y50550D02*
Y52800D01*
X26025Y50550D02*
Y52800D01*
X24925D02*
X26025D01*
X24925Y50550D02*
X26025D01*
X29025Y58225D02*
Y59625D01*
X25125Y58225D02*
Y59625D01*
X29025D01*
X25125Y58225D02*
X29025D01*
X30375Y55575D02*
Y57775D01*
X28275Y55575D02*
Y57775D01*
X30375D01*
X28275Y55575D02*
X30375D01*
X23075Y55275D02*
X24525D01*
X23075Y54575D02*
X24525D01*
X23075D02*
Y55275D01*
X24525Y54575D02*
Y55275D01*
X35125Y47000D02*
Y48925D01*
X22125Y47000D02*
Y48925D01*
Y47000D02*
X35125Y47000D01*
X31525Y50625D02*
Y53225D01*
X36025Y49825D02*
Y54025D01*
X32575D02*
X36025D01*
X31525Y53225D02*
X32575Y54025D01*
Y49825D02*
X36025D01*
X31525Y50625D02*
X32575Y49825D01*
X31525Y55375D02*
Y57975D01*
X36025Y54575D02*
Y58775D01*
X32575D02*
X36025D01*
X31525Y57975D02*
X32575Y58775D01*
Y54575D02*
X36025D01*
X31525Y55375D02*
X32575Y54575D01*
X23075Y54025D02*
X24525D01*
X23075Y53325D02*
X24525D01*
X23075D02*
Y54025D01*
X24525Y53325D02*
Y54025D01*
X27575Y49875D02*
Y51325D01*
X26875Y49875D02*
Y51325D01*
X27575D01*
X26875Y49875D02*
X27575D01*
X30125Y52775D02*
Y54225D01*
X30825Y52775D02*
Y54225D01*
X30125Y52775D02*
X30825D01*
X30125Y54225D02*
X30825D01*
X29775Y49550D02*
Y51800D01*
X28675Y49550D02*
Y51800D01*
Y49550D02*
X29775D01*
X28675Y51800D02*
X29775D01*
X31717Y49739D02*
Y50275D01*
X31984Y50007D02*
X31449D01*
X31807Y58489D02*
Y59025D01*
X32075Y58757D02*
X31539D01*
X35390Y59250D02*
X35340Y59300D01*
X35240D01*
X35190Y59250D01*
Y59050D01*
X35240Y59000D01*
X35340D01*
X35390Y59050D01*
X35690Y59300D02*
X35590Y59250D01*
X35490Y59150D01*
Y59050D01*
X35540Y59000D01*
X35640D01*
X35690Y59050D01*
Y59100D01*
X35640Y59150D01*
X35490D01*
X35325Y49525D02*
X35275Y49575D01*
X35175D01*
X35125Y49525D01*
Y49325D01*
X35175Y49275D01*
X35275D01*
X35325Y49325D01*
X35625Y49575D02*
X35425D01*
Y49425D01*
X35525Y49475D01*
X35575D01*
X35625Y49425D01*
Y49325D01*
X35575Y49275D01*
X35475D01*
X35425Y49325D01*
X21620Y48800D02*
X21520D01*
X21570D01*
Y48550D01*
X21520Y48500D01*
X21470D01*
X21420Y48550D01*
X21720Y48500D02*
X21820D01*
X21770D01*
Y48800D01*
X21720Y48750D01*
X28800Y55060D02*
Y54810D01*
X28850Y54760D01*
X28950D01*
X29000Y54810D01*
Y55060D01*
X29100Y54760D02*
X29200D01*
X29150D01*
Y55060D01*
X29100Y55010D01*
X23750Y55710D02*
X23700Y55760D01*
X23600D01*
X23550Y55710D01*
Y55510D01*
X23600Y55460D01*
X23700D01*
X23750Y55510D01*
X23850Y55710D02*
X23900Y55760D01*
X24000D01*
X24050Y55710D01*
Y55660D01*
X24000Y55610D01*
X23950D01*
X24000D01*
X24050Y55560D01*
Y55510D01*
X24000Y55460D01*
X23900D01*
X23850Y55510D01*
X29625Y58225D02*
Y57925D01*
X29825D01*
X30125D02*
X29925D01*
X30125Y58125D01*
Y58175D01*
X30075Y58225D01*
X29975D01*
X29925Y58175D01*
X28025Y60075D02*
Y59775D01*
X28175D01*
X28225Y59825D01*
Y60025D01*
X28175Y60075D01*
X28025D01*
X28325Y59775D02*
X28425D01*
X28375D01*
Y60075D01*
X28325Y60025D01*
X25225Y50075D02*
Y50375D01*
X25375D01*
X25425Y50325D01*
Y50225D01*
X25375Y50175D01*
X25225D01*
X25325D02*
X25425Y50075D01*
X25525D02*
X25625D01*
X25575D01*
Y50375D01*
X25525Y50325D01*
X28949Y49070D02*
Y49370D01*
X29099D01*
X29149Y49320D01*
Y49220D01*
X29099Y49170D01*
X28949D01*
X29049D02*
X29149Y49070D01*
X29449D02*
X29249D01*
X29449Y49270D01*
Y49320D01*
X29399Y49370D01*
X29299D01*
X29249Y49320D01*
X24175Y57175D02*
X24125Y57225D01*
X24025D01*
X23975Y57175D01*
Y56975D01*
X24025Y56925D01*
X24125D01*
X24175Y56975D01*
X24275Y56925D02*
X24375D01*
X24325D01*
Y57225D01*
X24275Y57175D01*
X30440Y52562D02*
X30390Y52612D01*
X30290D01*
X30240Y52562D01*
Y52363D01*
X30290Y52313D01*
X30390D01*
X30440Y52363D01*
X30690Y52313D02*
Y52612D01*
X30540Y52463D01*
X30740D01*
X27230Y51730D02*
X27180Y51780D01*
X27080D01*
X27030Y51730D01*
Y51530D01*
X27080Y51480D01*
X27180D01*
X27230Y51530D01*
X27330Y51780D02*
X27530D01*
Y51730D01*
X27330Y51530D01*
Y51480D01*
X23675Y53050D02*
X23625Y53100D01*
X23525D01*
X23475Y53050D01*
Y52850D01*
X23525Y52800D01*
X23625D01*
X23675Y52850D01*
X23975Y52800D02*
X23775D01*
X23975Y53000D01*
Y53050D01*
X23925Y53100D01*
X23825D01*
X23775Y53050D01*
X41925Y56175D02*
Y57175D01*
X44225Y56175D02*
Y57175D01*
X41925Y56175D02*
X44225D01*
X41925Y57175D02*
X44225D01*
X42125Y50550D02*
Y52800D01*
X43225Y50550D02*
Y52800D01*
X42125D02*
X43225D01*
X42125Y50550D02*
X43225D01*
X46225Y58225D02*
Y59625D01*
X42325Y58225D02*
Y59625D01*
X46225D01*
X42325Y58225D02*
X46225D01*
X47575Y55575D02*
Y57775D01*
X45475Y55575D02*
Y57775D01*
X47575D01*
X45475Y55575D02*
X47575D01*
X40275Y55275D02*
X41725D01*
X40275Y54575D02*
X41725D01*
X40275D02*
Y55275D01*
X41725Y54575D02*
Y55275D01*
X52325Y47000D02*
Y48925D01*
X39325Y47000D02*
Y48925D01*
Y47000D02*
X52325Y47000D01*
X48725Y50625D02*
Y53225D01*
X53225Y49825D02*
Y54025D01*
X49775D02*
X53225D01*
X48725Y53225D02*
X49775Y54025D01*
Y49825D02*
X53225D01*
X48725Y50625D02*
X49775Y49825D01*
X48725Y55375D02*
Y57975D01*
X53225Y54575D02*
Y58775D01*
X49775D02*
X53225D01*
X48725Y57975D02*
X49775Y58775D01*
Y54575D02*
X53225D01*
X48725Y55375D02*
X49775Y54575D01*
X40275Y54025D02*
X41725D01*
X40275Y53325D02*
X41725D01*
X40275D02*
Y54025D01*
X41725Y53325D02*
Y54025D01*
X44775Y49875D02*
Y51325D01*
X44075Y49875D02*
Y51325D01*
X44775D01*
X44075Y49875D02*
X44775D01*
X47325Y52775D02*
Y54225D01*
X48025Y52775D02*
Y54225D01*
X47325Y52775D02*
X48025D01*
X47325Y54225D02*
X48025D01*
X46975Y49550D02*
Y51800D01*
X45875Y49550D02*
Y51800D01*
Y49550D02*
X46975D01*
X45875Y51800D02*
X46975D01*
X48917Y49739D02*
Y50275D01*
X49184Y50007D02*
X48649D01*
X49007Y58489D02*
Y59025D01*
X49275Y58757D02*
X48739D01*
X52590Y59250D02*
X52540Y59300D01*
X52440D01*
X52390Y59250D01*
Y59050D01*
X52440Y59000D01*
X52540D01*
X52590Y59050D01*
X52890Y59300D02*
X52790Y59250D01*
X52690Y59150D01*
Y59050D01*
X52740Y59000D01*
X52840D01*
X52890Y59050D01*
Y59100D01*
X52840Y59150D01*
X52690D01*
X52525Y49525D02*
X52475Y49575D01*
X52375D01*
X52325Y49525D01*
Y49325D01*
X52375Y49275D01*
X52475D01*
X52525Y49325D01*
X52825Y49575D02*
X52625D01*
Y49425D01*
X52725Y49475D01*
X52775D01*
X52825Y49425D01*
Y49325D01*
X52775Y49275D01*
X52675D01*
X52625Y49325D01*
X38820Y48800D02*
X38720D01*
X38770D01*
Y48550D01*
X38720Y48500D01*
X38670D01*
X38620Y48550D01*
X38920Y48500D02*
X39020D01*
X38970D01*
Y48800D01*
X38920Y48750D01*
X46000Y55060D02*
Y54810D01*
X46050Y54760D01*
X46150D01*
X46200Y54810D01*
Y55060D01*
X46300Y54760D02*
X46400D01*
X46350D01*
Y55060D01*
X46300Y55010D01*
X40950Y55710D02*
X40900Y55760D01*
X40800D01*
X40750Y55710D01*
Y55510D01*
X40800Y55460D01*
X40900D01*
X40950Y55510D01*
X41050Y55710D02*
X41100Y55760D01*
X41200D01*
X41250Y55710D01*
Y55660D01*
X41200Y55610D01*
X41150D01*
X41200D01*
X41250Y55560D01*
Y55510D01*
X41200Y55460D01*
X41100D01*
X41050Y55510D01*
X46825Y58225D02*
Y57925D01*
X47025D01*
X47325D02*
X47125D01*
X47325Y58125D01*
Y58175D01*
X47275Y58225D01*
X47175D01*
X47125Y58175D01*
X45225Y60075D02*
Y59775D01*
X45375D01*
X45425Y59825D01*
Y60025D01*
X45375Y60075D01*
X45225D01*
X45525Y59775D02*
X45625D01*
X45575D01*
Y60075D01*
X45525Y60025D01*
X42425Y50075D02*
Y50375D01*
X42575D01*
X42625Y50325D01*
Y50225D01*
X42575Y50175D01*
X42425D01*
X42525D02*
X42625Y50075D01*
X42725D02*
X42825D01*
X42775D01*
Y50375D01*
X42725Y50325D01*
X46149Y49070D02*
Y49370D01*
X46299D01*
X46349Y49320D01*
Y49220D01*
X46299Y49170D01*
X46149D01*
X46249D02*
X46349Y49070D01*
X46649D02*
X46449D01*
X46649Y49270D01*
Y49320D01*
X46599Y49370D01*
X46499D01*
X46449Y49320D01*
X41375Y57175D02*
X41325Y57225D01*
X41225D01*
X41175Y57175D01*
Y56975D01*
X41225Y56925D01*
X41325D01*
X41375Y56975D01*
X41475Y56925D02*
X41575D01*
X41525D01*
Y57225D01*
X41475Y57175D01*
X47640Y52562D02*
X47590Y52612D01*
X47490D01*
X47440Y52562D01*
Y52363D01*
X47490Y52313D01*
X47590D01*
X47640Y52363D01*
X47890Y52313D02*
Y52612D01*
X47740Y52463D01*
X47940D01*
X44430Y51730D02*
X44380Y51780D01*
X44280D01*
X44230Y51730D01*
Y51530D01*
X44280Y51480D01*
X44380D01*
X44430Y51530D01*
X44530Y51780D02*
X44730D01*
Y51730D01*
X44530Y51530D01*
Y51480D01*
X40875Y53050D02*
X40825Y53100D01*
X40725D01*
X40675Y53050D01*
Y52850D01*
X40725Y52800D01*
X40825D01*
X40875Y52850D01*
X41175Y52800D02*
X40975D01*
X41175Y53000D01*
Y53050D01*
X41125Y53100D01*
X41025D01*
X40975Y53050D01*
X59125Y56175D02*
Y57175D01*
X61425Y56175D02*
Y57175D01*
X59125Y56175D02*
X61425D01*
X59125Y57175D02*
X61425D01*
X59325Y50550D02*
Y52800D01*
X60425Y50550D02*
Y52800D01*
X59325D02*
X60425D01*
X59325Y50550D02*
X60425D01*
X63425Y58225D02*
Y59625D01*
X59525Y58225D02*
Y59625D01*
X63425D01*
X59525Y58225D02*
X63425D01*
X64775Y55575D02*
Y57775D01*
X62675Y55575D02*
Y57775D01*
X64775D01*
X62675Y55575D02*
X64775D01*
X57475Y55275D02*
X58925D01*
X57475Y54575D02*
X58925D01*
X57475D02*
Y55275D01*
X58925Y54575D02*
Y55275D01*
X69525Y47000D02*
Y48925D01*
X56525Y47000D02*
Y48925D01*
Y47000D02*
X69525Y47000D01*
X65925Y50625D02*
Y53225D01*
X70425Y49825D02*
Y54025D01*
X66975D02*
X70425D01*
X65925Y53225D02*
X66975Y54025D01*
Y49825D02*
X70425D01*
X65925Y50625D02*
X66975Y49825D01*
X65925Y55375D02*
Y57975D01*
X70425Y54575D02*
Y58775D01*
X66975D02*
X70425D01*
X65925Y57975D02*
X66975Y58775D01*
Y54575D02*
X70425D01*
X65925Y55375D02*
X66975Y54575D01*
X57475Y54025D02*
X58925D01*
X57475Y53325D02*
X58925D01*
X57475D02*
Y54025D01*
X58925Y53325D02*
Y54025D01*
X61975Y49875D02*
Y51325D01*
X61275Y49875D02*
Y51325D01*
X61975D01*
X61275Y49875D02*
X61975D01*
X64525Y52775D02*
Y54225D01*
X65225Y52775D02*
Y54225D01*
X64525Y52775D02*
X65225D01*
X64525Y54225D02*
X65225D01*
X64175Y49550D02*
Y51800D01*
X63075Y49550D02*
Y51800D01*
Y49550D02*
X64175D01*
X63075Y51800D02*
X64175D01*
X66117Y49739D02*
Y50275D01*
X66384Y50007D02*
X65849D01*
X66207Y58489D02*
Y59025D01*
X66475Y58757D02*
X65939D01*
X69790Y59250D02*
X69740Y59300D01*
X69640D01*
X69590Y59250D01*
Y59050D01*
X69640Y59000D01*
X69740D01*
X69790Y59050D01*
X70090Y59300D02*
X69990Y59250D01*
X69890Y59150D01*
Y59050D01*
X69940Y59000D01*
X70040D01*
X70090Y59050D01*
Y59100D01*
X70040Y59150D01*
X69890D01*
X69725Y49525D02*
X69675Y49575D01*
X69575D01*
X69525Y49525D01*
Y49325D01*
X69575Y49275D01*
X69675D01*
X69725Y49325D01*
X70025Y49575D02*
X69825D01*
Y49425D01*
X69925Y49475D01*
X69975D01*
X70025Y49425D01*
Y49325D01*
X69975Y49275D01*
X69875D01*
X69825Y49325D01*
X56020Y48800D02*
X55920D01*
X55970D01*
Y48550D01*
X55920Y48500D01*
X55870D01*
X55820Y48550D01*
X56120Y48500D02*
X56220D01*
X56170D01*
Y48800D01*
X56120Y48750D01*
X63200Y55060D02*
Y54810D01*
X63250Y54760D01*
X63350D01*
X63400Y54810D01*
Y55060D01*
X63500Y54760D02*
X63600D01*
X63550D01*
Y55060D01*
X63500Y55010D01*
X58150Y55710D02*
X58100Y55760D01*
X58000D01*
X57950Y55710D01*
Y55510D01*
X58000Y55460D01*
X58100D01*
X58150Y55510D01*
X58250Y55710D02*
X58300Y55760D01*
X58400D01*
X58450Y55710D01*
Y55660D01*
X58400Y55610D01*
X58350D01*
X58400D01*
X58450Y55560D01*
Y55510D01*
X58400Y55460D01*
X58300D01*
X58250Y55510D01*
X64025Y58225D02*
Y57925D01*
X64225D01*
X64525D02*
X64325D01*
X64525Y58125D01*
Y58175D01*
X64475Y58225D01*
X64375D01*
X64325Y58175D01*
X62425Y60075D02*
Y59775D01*
X62575D01*
X62625Y59825D01*
Y60025D01*
X62575Y60075D01*
X62425D01*
X62725Y59775D02*
X62825D01*
X62775D01*
Y60075D01*
X62725Y60025D01*
X59625Y50075D02*
Y50375D01*
X59775D01*
X59825Y50325D01*
Y50225D01*
X59775Y50175D01*
X59625D01*
X59725D02*
X59825Y50075D01*
X59925D02*
X60025D01*
X59975D01*
Y50375D01*
X59925Y50325D01*
X63349Y49070D02*
Y49370D01*
X63499D01*
X63549Y49320D01*
Y49220D01*
X63499Y49170D01*
X63349D01*
X63449D02*
X63549Y49070D01*
X63849D02*
X63649D01*
X63849Y49270D01*
Y49320D01*
X63799Y49370D01*
X63699D01*
X63649Y49320D01*
X58575Y57175D02*
X58525Y57225D01*
X58425D01*
X58375Y57175D01*
Y56975D01*
X58425Y56925D01*
X58525D01*
X58575Y56975D01*
X58675Y56925D02*
X58775D01*
X58725D01*
Y57225D01*
X58675Y57175D01*
X64840Y52562D02*
X64790Y52612D01*
X64690D01*
X64640Y52562D01*
Y52363D01*
X64690Y52313D01*
X64790D01*
X64840Y52363D01*
X65090Y52313D02*
Y52612D01*
X64940Y52463D01*
X65140D01*
X61630Y51730D02*
X61580Y51780D01*
X61480D01*
X61430Y51730D01*
Y51530D01*
X61480Y51480D01*
X61580D01*
X61630Y51530D01*
X61730Y51780D02*
X61930D01*
Y51730D01*
X61730Y51530D01*
Y51480D01*
X58075Y53050D02*
X58025Y53100D01*
X57925D01*
X57875Y53050D01*
Y52850D01*
X57925Y52800D01*
X58025D01*
X58075Y52850D01*
X58375Y52800D02*
X58175D01*
X58375Y53000D01*
Y53050D01*
X58325Y53100D01*
X58225D01*
X58175Y53050D01*
M02*
