G04*
G04 #@! TF.GenerationSoftware,Altium Limited,Altium Designer,18.1.9 (240)*
G04*
G04 Layer_Color=16711935*
%FSLAX24Y24*%
%MOIN*%
G70*
G01*
G75*
%ADD50C,0.0010*%
%ADD51C,0.0020*%
D50*
X0Y0D02*
Y62400D01*
X73600D01*
Y0D02*
Y62400D01*
X0Y0D02*
X73600D01*
D51*
X2501Y2500D02*
Y16300D01*
Y2500D02*
X19550D01*
X2501Y16300D02*
X19550D01*
Y2500D02*
Y16300D01*
X19701Y2500D02*
Y16300D01*
Y2500D02*
X36750D01*
X19701Y16300D02*
X36750D01*
Y2500D02*
Y16300D01*
X36901Y2500D02*
Y16300D01*
Y2500D02*
X53950D01*
X36901Y16300D02*
X53950D01*
Y2500D02*
Y16300D01*
X54101Y2500D02*
Y16300D01*
Y2500D02*
X71150D01*
X54101Y16300D02*
X71150D01*
Y2500D02*
Y16300D01*
X2501Y17300D02*
Y31100D01*
Y17300D02*
X19550D01*
X2501Y31100D02*
X19550D01*
Y17300D02*
Y31100D01*
X19701Y17300D02*
Y31100D01*
Y17300D02*
X36750D01*
X19701Y31100D02*
X36750D01*
Y17300D02*
Y31100D01*
X36901Y17300D02*
Y31100D01*
Y17300D02*
X53950D01*
X36901Y31100D02*
X53950D01*
Y17300D02*
Y31100D01*
X54101Y17300D02*
Y31100D01*
Y17300D02*
X71150D01*
X54101Y31100D02*
X71150D01*
Y17300D02*
Y31100D01*
X2501Y32100D02*
Y45900D01*
Y32100D02*
X19550D01*
X2501Y45900D02*
X19550D01*
Y32100D02*
Y45900D01*
X19701Y32100D02*
Y45900D01*
Y32100D02*
X36750D01*
X19701Y45900D02*
X36750D01*
Y32100D02*
Y45900D01*
X36901Y32100D02*
Y45900D01*
Y32100D02*
X53950D01*
X36901Y45900D02*
X53950D01*
Y32100D02*
Y45900D01*
X54101Y32100D02*
Y45900D01*
Y32100D02*
X71150D01*
X54101Y45900D02*
X71150D01*
Y32100D02*
Y45900D01*
X2501Y46900D02*
Y60700D01*
Y46900D02*
X19550D01*
X2501Y60700D02*
X19550D01*
Y46900D02*
Y60700D01*
X19701Y46900D02*
Y60700D01*
Y46900D02*
X36750D01*
X19701Y60700D02*
X36750D01*
Y46900D02*
Y60700D01*
X36901Y46900D02*
Y60700D01*
Y46900D02*
X53950D01*
X36901Y60700D02*
X53950D01*
Y46900D02*
Y60700D01*
X54101Y46900D02*
Y60700D01*
Y46900D02*
X71150D01*
X54101Y60700D02*
X71150D01*
Y46900D02*
Y60700D01*
M02*
