G04*
G04 #@! TF.GenerationSoftware,Altium Limited,Altium Designer,18.1.9 (240)*
G04*
G04 Layer_Color=8388736*
%FSLAX24Y24*%
%MOIN*%
G70*
G01*
G75*
%ADD27C,0.0400*%
%ADD35C,0.0950*%
%ADD36C,0.1050*%
%ADD37R,0.0720X0.0720*%
%ADD38R,0.0780X0.0580*%
%ADD39R,0.1080X0.1380*%
%ADD40R,0.0540X0.1930*%
%ADD41R,0.0480X0.0590*%
%ADD42R,0.0780X0.0360*%
%ADD43R,0.0880X0.1080*%
%ADD44R,0.1360X0.0680*%
%ADD45R,0.0590X0.0480*%
%ADD46R,0.0680X0.0680*%
%ADD47O,0.0680X0.0880*%
%ADD48C,0.0380*%
%ADD49C,0.0430*%
D27*
X6680Y5960D02*
D03*
X23880D02*
D03*
X41080D02*
D03*
X58280D02*
D03*
X6680Y20760D02*
D03*
X23880D02*
D03*
X41080D02*
D03*
X58280D02*
D03*
X6680Y35560D02*
D03*
X23880D02*
D03*
X41080D02*
D03*
X58280D02*
D03*
X6680Y50360D02*
D03*
X23880D02*
D03*
X41080D02*
D03*
X58280D02*
D03*
D35*
X72600Y3500D02*
D03*
Y58900D02*
D03*
X1000D02*
D03*
D36*
Y3500D02*
D03*
D37*
X8025Y12275D02*
D03*
X9365D02*
D03*
X25225D02*
D03*
X26565D02*
D03*
X42425D02*
D03*
X43765D02*
D03*
X59625D02*
D03*
X60965D02*
D03*
X8025Y27075D02*
D03*
X9365D02*
D03*
X25225D02*
D03*
X26565D02*
D03*
X42425D02*
D03*
X43765D02*
D03*
X59625D02*
D03*
X60965D02*
D03*
X8025Y41875D02*
D03*
X9365D02*
D03*
X25225D02*
D03*
X26565D02*
D03*
X42425D02*
D03*
X43765D02*
D03*
X59625D02*
D03*
X60965D02*
D03*
X8025Y56675D02*
D03*
X9365D02*
D03*
X25225D02*
D03*
X26565D02*
D03*
X42425D02*
D03*
X43765D02*
D03*
X59625D02*
D03*
X60965D02*
D03*
D38*
X8275Y8025D02*
D03*
Y6525D02*
D03*
X12025Y5525D02*
D03*
Y7025D02*
D03*
X25475Y8025D02*
D03*
Y6525D02*
D03*
X29225Y5525D02*
D03*
Y7025D02*
D03*
X42675Y8025D02*
D03*
Y6525D02*
D03*
X46425Y5525D02*
D03*
Y7025D02*
D03*
X59875Y8025D02*
D03*
Y6525D02*
D03*
X63625Y5525D02*
D03*
Y7025D02*
D03*
X8275Y22825D02*
D03*
Y21325D02*
D03*
X12025Y20325D02*
D03*
Y21825D02*
D03*
X25475Y22825D02*
D03*
Y21325D02*
D03*
X29225Y20325D02*
D03*
Y21825D02*
D03*
X42675Y22825D02*
D03*
Y21325D02*
D03*
X46425Y20325D02*
D03*
Y21825D02*
D03*
X59875Y22825D02*
D03*
Y21325D02*
D03*
X63625Y20325D02*
D03*
Y21825D02*
D03*
X8275Y37625D02*
D03*
Y36125D02*
D03*
X12025Y35125D02*
D03*
Y36625D02*
D03*
X25475Y37625D02*
D03*
Y36125D02*
D03*
X29225Y35125D02*
D03*
Y36625D02*
D03*
X42675Y37625D02*
D03*
Y36125D02*
D03*
X46425Y35125D02*
D03*
Y36625D02*
D03*
X59875Y37625D02*
D03*
Y36125D02*
D03*
X63625Y35125D02*
D03*
Y36625D02*
D03*
X8275Y52425D02*
D03*
Y50925D02*
D03*
X12025Y49925D02*
D03*
Y51425D02*
D03*
X25475Y52425D02*
D03*
Y50925D02*
D03*
X29225Y49925D02*
D03*
Y51425D02*
D03*
X42675Y52425D02*
D03*
Y50925D02*
D03*
X46425Y49925D02*
D03*
Y51425D02*
D03*
X59875Y52425D02*
D03*
Y50925D02*
D03*
X63625Y49925D02*
D03*
Y51425D02*
D03*
D39*
X11225Y14525D02*
D03*
X8525D02*
D03*
X28425D02*
D03*
X25725D02*
D03*
X45625D02*
D03*
X42925D02*
D03*
X62825D02*
D03*
X60125D02*
D03*
X11225Y29325D02*
D03*
X8525D02*
D03*
X28425D02*
D03*
X25725D02*
D03*
X45625D02*
D03*
X42925D02*
D03*
X62825D02*
D03*
X60125D02*
D03*
X11225Y44125D02*
D03*
X8525D02*
D03*
X28425D02*
D03*
X25725D02*
D03*
X45625D02*
D03*
X42925D02*
D03*
X62825D02*
D03*
X60125D02*
D03*
X11225Y58925D02*
D03*
X8525D02*
D03*
X28425D02*
D03*
X25725D02*
D03*
X45625D02*
D03*
X42925D02*
D03*
X62825D02*
D03*
X60125D02*
D03*
D40*
X12775Y12275D02*
D03*
X11475D02*
D03*
X29975D02*
D03*
X28675D02*
D03*
X47175D02*
D03*
X45875D02*
D03*
X64375D02*
D03*
X63075D02*
D03*
X12775Y27075D02*
D03*
X11475D02*
D03*
X29975D02*
D03*
X28675D02*
D03*
X47175D02*
D03*
X45875D02*
D03*
X64375D02*
D03*
X63075D02*
D03*
X12775Y41875D02*
D03*
X11475D02*
D03*
X29975D02*
D03*
X28675D02*
D03*
X47175D02*
D03*
X45875D02*
D03*
X64375D02*
D03*
X63075D02*
D03*
X12775Y56675D02*
D03*
X11475D02*
D03*
X29975D02*
D03*
X28675D02*
D03*
X47175D02*
D03*
X45875D02*
D03*
X64375D02*
D03*
X63075D02*
D03*
D41*
X7025Y10525D02*
D03*
X6195D02*
D03*
X7025Y9275D02*
D03*
X6195D02*
D03*
X24225Y10525D02*
D03*
X23395D02*
D03*
X24225Y9275D02*
D03*
X23395D02*
D03*
X41425Y10525D02*
D03*
X40595D02*
D03*
X41425Y9275D02*
D03*
X40595D02*
D03*
X58625Y10525D02*
D03*
X57795D02*
D03*
X58625Y9275D02*
D03*
X57795D02*
D03*
X7025Y25325D02*
D03*
X6195D02*
D03*
X7025Y24075D02*
D03*
X6195D02*
D03*
X24225Y25325D02*
D03*
X23395D02*
D03*
X24225Y24075D02*
D03*
X23395D02*
D03*
X41425Y25325D02*
D03*
X40595D02*
D03*
X41425Y24075D02*
D03*
X40595D02*
D03*
X58625Y25325D02*
D03*
X57795D02*
D03*
X58625Y24075D02*
D03*
X57795D02*
D03*
X7025Y40125D02*
D03*
X6195D02*
D03*
X7025Y38875D02*
D03*
X6195D02*
D03*
X24225Y40125D02*
D03*
X23395D02*
D03*
X24225Y38875D02*
D03*
X23395D02*
D03*
X41425Y40125D02*
D03*
X40595D02*
D03*
X41425Y38875D02*
D03*
X40595D02*
D03*
X58625Y40125D02*
D03*
X57795D02*
D03*
X58625Y38875D02*
D03*
X57795D02*
D03*
X7025Y54925D02*
D03*
X6195D02*
D03*
X7025Y53675D02*
D03*
X6195D02*
D03*
X24225Y54925D02*
D03*
X23395D02*
D03*
X24225Y53675D02*
D03*
X23395D02*
D03*
X41425Y54925D02*
D03*
X40595D02*
D03*
X41425Y53675D02*
D03*
X40595D02*
D03*
X58625Y54925D02*
D03*
X57795D02*
D03*
X58625Y53675D02*
D03*
X57795D02*
D03*
D42*
X9775Y9525D02*
D03*
Y9025D02*
D03*
Y8525D02*
D03*
Y10025D02*
D03*
X11875Y9525D02*
D03*
Y9025D02*
D03*
Y8525D02*
D03*
Y10025D02*
D03*
X26975Y9525D02*
D03*
Y9025D02*
D03*
Y8525D02*
D03*
Y10025D02*
D03*
X29075Y9525D02*
D03*
Y9025D02*
D03*
Y8525D02*
D03*
Y10025D02*
D03*
X44175Y9525D02*
D03*
Y9025D02*
D03*
Y8525D02*
D03*
Y10025D02*
D03*
X46275Y9525D02*
D03*
Y9025D02*
D03*
Y8525D02*
D03*
Y10025D02*
D03*
X61375Y9525D02*
D03*
Y9025D02*
D03*
Y8525D02*
D03*
Y10025D02*
D03*
X63475Y9525D02*
D03*
Y9025D02*
D03*
Y8525D02*
D03*
Y10025D02*
D03*
X9775Y24325D02*
D03*
Y23825D02*
D03*
Y23325D02*
D03*
Y24825D02*
D03*
X11875Y24325D02*
D03*
Y23825D02*
D03*
Y23325D02*
D03*
Y24825D02*
D03*
X26975Y24325D02*
D03*
Y23825D02*
D03*
Y23325D02*
D03*
Y24825D02*
D03*
X29075Y24325D02*
D03*
Y23825D02*
D03*
Y23325D02*
D03*
Y24825D02*
D03*
X44175Y24325D02*
D03*
Y23825D02*
D03*
Y23325D02*
D03*
Y24825D02*
D03*
X46275Y24325D02*
D03*
Y23825D02*
D03*
Y23325D02*
D03*
Y24825D02*
D03*
X61375Y24325D02*
D03*
Y23825D02*
D03*
Y23325D02*
D03*
Y24825D02*
D03*
X63475Y24325D02*
D03*
Y23825D02*
D03*
Y23325D02*
D03*
Y24825D02*
D03*
X9775Y39125D02*
D03*
Y38625D02*
D03*
Y38125D02*
D03*
Y39625D02*
D03*
X11875Y39125D02*
D03*
Y38625D02*
D03*
Y38125D02*
D03*
Y39625D02*
D03*
X26975Y39125D02*
D03*
Y38625D02*
D03*
Y38125D02*
D03*
Y39625D02*
D03*
X29075Y39125D02*
D03*
Y38625D02*
D03*
Y38125D02*
D03*
Y39625D02*
D03*
X44175Y39125D02*
D03*
Y38625D02*
D03*
Y38125D02*
D03*
Y39625D02*
D03*
X46275Y39125D02*
D03*
Y38625D02*
D03*
Y38125D02*
D03*
Y39625D02*
D03*
X61375Y39125D02*
D03*
Y38625D02*
D03*
Y38125D02*
D03*
Y39625D02*
D03*
X63475Y39125D02*
D03*
Y38625D02*
D03*
Y38125D02*
D03*
Y39625D02*
D03*
X9775Y53925D02*
D03*
Y53425D02*
D03*
Y52925D02*
D03*
Y54425D02*
D03*
X11875Y53925D02*
D03*
Y53425D02*
D03*
Y52925D02*
D03*
Y54425D02*
D03*
X26975Y53925D02*
D03*
Y53425D02*
D03*
Y52925D02*
D03*
Y54425D02*
D03*
X29075Y53925D02*
D03*
Y53425D02*
D03*
Y52925D02*
D03*
Y54425D02*
D03*
X44175Y53925D02*
D03*
Y53425D02*
D03*
Y52925D02*
D03*
Y54425D02*
D03*
X46275Y53925D02*
D03*
Y53425D02*
D03*
Y52925D02*
D03*
Y54425D02*
D03*
X61375Y53925D02*
D03*
Y53425D02*
D03*
Y52925D02*
D03*
Y54425D02*
D03*
X63475Y53925D02*
D03*
Y53425D02*
D03*
Y52925D02*
D03*
Y54425D02*
D03*
D43*
X10835Y9275D02*
D03*
X28035D02*
D03*
X45235D02*
D03*
X62435D02*
D03*
X10835Y24075D02*
D03*
X28035D02*
D03*
X45235D02*
D03*
X62435D02*
D03*
X10835Y38875D02*
D03*
X28035D02*
D03*
X45235D02*
D03*
X62435D02*
D03*
X10835Y53675D02*
D03*
X28035D02*
D03*
X45235D02*
D03*
X62435D02*
D03*
D44*
X15025Y7525D02*
D03*
X18125D02*
D03*
X15025Y12275D02*
D03*
X18125D02*
D03*
X32225Y7525D02*
D03*
X35325D02*
D03*
X32225Y12275D02*
D03*
X35325D02*
D03*
X49425Y7525D02*
D03*
X52525D02*
D03*
X49425Y12275D02*
D03*
X52525D02*
D03*
X66625Y7525D02*
D03*
X69725D02*
D03*
X66625Y12275D02*
D03*
X69725D02*
D03*
X15025Y22325D02*
D03*
X18125D02*
D03*
X15025Y27075D02*
D03*
X18125D02*
D03*
X32225Y22325D02*
D03*
X35325D02*
D03*
X32225Y27075D02*
D03*
X35325D02*
D03*
X49425Y22325D02*
D03*
X52525D02*
D03*
X49425Y27075D02*
D03*
X52525D02*
D03*
X66625Y22325D02*
D03*
X69725D02*
D03*
X66625Y27075D02*
D03*
X69725D02*
D03*
X15025Y37125D02*
D03*
X18125D02*
D03*
X15025Y41875D02*
D03*
X18125D02*
D03*
X32225Y37125D02*
D03*
X35325D02*
D03*
X32225Y41875D02*
D03*
X35325D02*
D03*
X49425Y37125D02*
D03*
X52525D02*
D03*
X49425Y41875D02*
D03*
X52525D02*
D03*
X66625Y37125D02*
D03*
X69725D02*
D03*
X66625Y41875D02*
D03*
X69725D02*
D03*
X15025Y51925D02*
D03*
X18125D02*
D03*
X15025Y56675D02*
D03*
X18125D02*
D03*
X32225Y51925D02*
D03*
X35325D02*
D03*
X32225Y56675D02*
D03*
X35325D02*
D03*
X49425Y51925D02*
D03*
X52525D02*
D03*
X49425Y56675D02*
D03*
X52525D02*
D03*
X66625Y51925D02*
D03*
X69725D02*
D03*
X66625Y56675D02*
D03*
X69725D02*
D03*
D45*
X10025Y5775D02*
D03*
Y6605D02*
D03*
X13275Y9525D02*
D03*
Y8695D02*
D03*
X27225Y5775D02*
D03*
Y6605D02*
D03*
X30475Y9525D02*
D03*
Y8695D02*
D03*
X44425Y5775D02*
D03*
Y6605D02*
D03*
X47675Y9525D02*
D03*
Y8695D02*
D03*
X61625Y5775D02*
D03*
Y6605D02*
D03*
X64875Y9525D02*
D03*
Y8695D02*
D03*
X10025Y20575D02*
D03*
Y21405D02*
D03*
X13275Y24325D02*
D03*
Y23495D02*
D03*
X27225Y20575D02*
D03*
Y21405D02*
D03*
X30475Y24325D02*
D03*
Y23495D02*
D03*
X44425Y20575D02*
D03*
Y21405D02*
D03*
X47675Y24325D02*
D03*
Y23495D02*
D03*
X61625Y20575D02*
D03*
Y21405D02*
D03*
X64875Y24325D02*
D03*
Y23495D02*
D03*
X10025Y35375D02*
D03*
Y36205D02*
D03*
X13275Y39125D02*
D03*
Y38295D02*
D03*
X27225Y35375D02*
D03*
Y36205D02*
D03*
X30475Y39125D02*
D03*
Y38295D02*
D03*
X44425Y35375D02*
D03*
Y36205D02*
D03*
X47675Y39125D02*
D03*
Y38295D02*
D03*
X61625Y35375D02*
D03*
Y36205D02*
D03*
X64875Y39125D02*
D03*
Y38295D02*
D03*
X10025Y50175D02*
D03*
Y51005D02*
D03*
X13275Y53925D02*
D03*
Y53095D02*
D03*
X27225Y50175D02*
D03*
Y51005D02*
D03*
X30475Y53925D02*
D03*
Y53095D02*
D03*
X44425Y50175D02*
D03*
Y51005D02*
D03*
X47675Y53925D02*
D03*
Y53095D02*
D03*
X61625Y50175D02*
D03*
Y51005D02*
D03*
X64875Y53925D02*
D03*
Y53095D02*
D03*
D46*
X5925Y3425D02*
D03*
X23125D02*
D03*
X40325D02*
D03*
X57525D02*
D03*
X5925Y18225D02*
D03*
X23125D02*
D03*
X40325D02*
D03*
X57525D02*
D03*
X5925Y33025D02*
D03*
X23125D02*
D03*
X40325D02*
D03*
X57525D02*
D03*
X5925Y47825D02*
D03*
X23125D02*
D03*
X40325D02*
D03*
X57525D02*
D03*
D47*
X16925Y3425D02*
D03*
X15925D02*
D03*
X14925D02*
D03*
X13925D02*
D03*
X12925D02*
D03*
X11925D02*
D03*
X10925D02*
D03*
X9925D02*
D03*
X8925D02*
D03*
X7925D02*
D03*
X6925D02*
D03*
X34125D02*
D03*
X33125D02*
D03*
X32125D02*
D03*
X31125D02*
D03*
X30125D02*
D03*
X29125D02*
D03*
X28125D02*
D03*
X27125D02*
D03*
X26125D02*
D03*
X25125D02*
D03*
X24125D02*
D03*
X51325D02*
D03*
X50325D02*
D03*
X49325D02*
D03*
X48325D02*
D03*
X47325D02*
D03*
X46325D02*
D03*
X45325D02*
D03*
X44325D02*
D03*
X43325D02*
D03*
X42325D02*
D03*
X41325D02*
D03*
X68525D02*
D03*
X67525D02*
D03*
X66525D02*
D03*
X65525D02*
D03*
X64525D02*
D03*
X63525D02*
D03*
X62525D02*
D03*
X61525D02*
D03*
X60525D02*
D03*
X59525D02*
D03*
X58525D02*
D03*
X16925Y18225D02*
D03*
X15925D02*
D03*
X14925D02*
D03*
X13925D02*
D03*
X12925D02*
D03*
X11925D02*
D03*
X10925D02*
D03*
X9925D02*
D03*
X8925D02*
D03*
X7925D02*
D03*
X6925D02*
D03*
X34125D02*
D03*
X33125D02*
D03*
X32125D02*
D03*
X31125D02*
D03*
X30125D02*
D03*
X29125D02*
D03*
X28125D02*
D03*
X27125D02*
D03*
X26125D02*
D03*
X25125D02*
D03*
X24125D02*
D03*
X51325D02*
D03*
X50325D02*
D03*
X49325D02*
D03*
X48325D02*
D03*
X47325D02*
D03*
X46325D02*
D03*
X45325D02*
D03*
X44325D02*
D03*
X43325D02*
D03*
X42325D02*
D03*
X41325D02*
D03*
X68525D02*
D03*
X67525D02*
D03*
X66525D02*
D03*
X65525D02*
D03*
X64525D02*
D03*
X63525D02*
D03*
X62525D02*
D03*
X61525D02*
D03*
X60525D02*
D03*
X59525D02*
D03*
X58525D02*
D03*
X16925Y33025D02*
D03*
X15925D02*
D03*
X14925D02*
D03*
X13925D02*
D03*
X12925D02*
D03*
X11925D02*
D03*
X10925D02*
D03*
X9925D02*
D03*
X8925D02*
D03*
X7925D02*
D03*
X6925D02*
D03*
X34125D02*
D03*
X33125D02*
D03*
X32125D02*
D03*
X31125D02*
D03*
X30125D02*
D03*
X29125D02*
D03*
X28125D02*
D03*
X27125D02*
D03*
X26125D02*
D03*
X25125D02*
D03*
X24125D02*
D03*
X51325D02*
D03*
X50325D02*
D03*
X49325D02*
D03*
X48325D02*
D03*
X47325D02*
D03*
X46325D02*
D03*
X45325D02*
D03*
X44325D02*
D03*
X43325D02*
D03*
X42325D02*
D03*
X41325D02*
D03*
X68525D02*
D03*
X67525D02*
D03*
X66525D02*
D03*
X65525D02*
D03*
X64525D02*
D03*
X63525D02*
D03*
X62525D02*
D03*
X61525D02*
D03*
X60525D02*
D03*
X59525D02*
D03*
X58525D02*
D03*
X16925Y47825D02*
D03*
X15925D02*
D03*
X14925D02*
D03*
X13925D02*
D03*
X12925D02*
D03*
X11925D02*
D03*
X10925D02*
D03*
X9925D02*
D03*
X8925D02*
D03*
X7925D02*
D03*
X6925D02*
D03*
X34125D02*
D03*
X33125D02*
D03*
X32125D02*
D03*
X31125D02*
D03*
X30125D02*
D03*
X29125D02*
D03*
X28125D02*
D03*
X27125D02*
D03*
X26125D02*
D03*
X25125D02*
D03*
X24125D02*
D03*
X51325D02*
D03*
X50325D02*
D03*
X49325D02*
D03*
X48325D02*
D03*
X47325D02*
D03*
X46325D02*
D03*
X45325D02*
D03*
X44325D02*
D03*
X43325D02*
D03*
X42325D02*
D03*
X41325D02*
D03*
X68525D02*
D03*
X67525D02*
D03*
X66525D02*
D03*
X65525D02*
D03*
X64525D02*
D03*
X63525D02*
D03*
X62525D02*
D03*
X61525D02*
D03*
X60525D02*
D03*
X59525D02*
D03*
X58525D02*
D03*
D48*
X13690Y5290D02*
D03*
X13775Y11525D02*
D03*
X7025Y15025D02*
D03*
X30890Y5290D02*
D03*
X30975Y11525D02*
D03*
X24225Y15025D02*
D03*
X48090Y5290D02*
D03*
X48175Y11525D02*
D03*
X41425Y15025D02*
D03*
X65290Y5290D02*
D03*
X65375Y11525D02*
D03*
X58625Y15025D02*
D03*
X13690Y20090D02*
D03*
X13775Y26325D02*
D03*
X7025Y29825D02*
D03*
X30890Y20090D02*
D03*
X30975Y26325D02*
D03*
X24225Y29825D02*
D03*
X48090Y20090D02*
D03*
X48175Y26325D02*
D03*
X41425Y29825D02*
D03*
X65290Y20090D02*
D03*
X65375Y26325D02*
D03*
X58625Y29825D02*
D03*
X13690Y34890D02*
D03*
X13775Y41125D02*
D03*
X7025Y44625D02*
D03*
X30890Y34890D02*
D03*
X30975Y41125D02*
D03*
X24225Y44625D02*
D03*
X48090Y34890D02*
D03*
X48175Y41125D02*
D03*
X41425Y44625D02*
D03*
X65290Y34890D02*
D03*
X65375Y41125D02*
D03*
X58625Y44625D02*
D03*
X13690Y49690D02*
D03*
X13775Y55925D02*
D03*
X7025Y59425D02*
D03*
X30890Y49690D02*
D03*
X30975Y55925D02*
D03*
X24225Y59425D02*
D03*
X48090Y49690D02*
D03*
X48175Y55925D02*
D03*
X41425Y59425D02*
D03*
X65290Y49690D02*
D03*
X65375Y55925D02*
D03*
X58625Y59425D02*
D03*
D49*
X13040Y6150D02*
D03*
X30240D02*
D03*
X47440D02*
D03*
X64640D02*
D03*
X13040Y20950D02*
D03*
X30240D02*
D03*
X47440D02*
D03*
X64640D02*
D03*
X13040Y35750D02*
D03*
X30240D02*
D03*
X47440D02*
D03*
X64640D02*
D03*
X13040Y50550D02*
D03*
X30240D02*
D03*
X47440D02*
D03*
X64640D02*
D03*
M02*
