G04*
G04 #@! TF.GenerationSoftware,Altium Limited,Altium Designer,18.1.9 (240)*
G04*
G04 Layer_Color=8421504*
%FSLAX24Y24*%
%MOIN*%
G70*
G01*
G75*
%ADD10C,0.0450*%
%ADD11R,0.0640X0.0640*%
%ADD12R,0.0700X0.0500*%
%ADD13R,0.1000X0.1300*%
%ADD14R,0.0460X0.1850*%
%ADD15R,0.0400X0.0510*%
%ADD16R,0.0700X0.0280*%
%ADD17R,0.0800X0.1000*%
%ADD18R,0.1280X0.0600*%
%ADD19R,0.0510X0.0400*%
D10*
X72600Y3500D02*
D03*
Y58900D02*
D03*
X1000D02*
D03*
Y3500D02*
D03*
D11*
X8025Y12275D02*
D03*
X9365D02*
D03*
X25225D02*
D03*
X26565D02*
D03*
X42425D02*
D03*
X43765D02*
D03*
X59625D02*
D03*
X60965D02*
D03*
X8025Y27075D02*
D03*
X9365D02*
D03*
X25225D02*
D03*
X26565D02*
D03*
X42425D02*
D03*
X43765D02*
D03*
X59625D02*
D03*
X60965D02*
D03*
X8025Y41875D02*
D03*
X9365D02*
D03*
X25225D02*
D03*
X26565D02*
D03*
X42425D02*
D03*
X43765D02*
D03*
X59625D02*
D03*
X60965D02*
D03*
X8025Y56675D02*
D03*
X9365D02*
D03*
X25225D02*
D03*
X26565D02*
D03*
X42425D02*
D03*
X43765D02*
D03*
X59625D02*
D03*
X60965D02*
D03*
D12*
X8275Y8025D02*
D03*
Y6525D02*
D03*
X12025Y5525D02*
D03*
Y7025D02*
D03*
X25475Y8025D02*
D03*
Y6525D02*
D03*
X29225Y5525D02*
D03*
Y7025D02*
D03*
X42675Y8025D02*
D03*
Y6525D02*
D03*
X46425Y5525D02*
D03*
Y7025D02*
D03*
X59875Y8025D02*
D03*
Y6525D02*
D03*
X63625Y5525D02*
D03*
Y7025D02*
D03*
X8275Y22825D02*
D03*
Y21325D02*
D03*
X12025Y20325D02*
D03*
Y21825D02*
D03*
X25475Y22825D02*
D03*
Y21325D02*
D03*
X29225Y20325D02*
D03*
Y21825D02*
D03*
X42675Y22825D02*
D03*
Y21325D02*
D03*
X46425Y20325D02*
D03*
Y21825D02*
D03*
X59875Y22825D02*
D03*
Y21325D02*
D03*
X63625Y20325D02*
D03*
Y21825D02*
D03*
X8275Y37625D02*
D03*
Y36125D02*
D03*
X12025Y35125D02*
D03*
Y36625D02*
D03*
X25475Y37625D02*
D03*
Y36125D02*
D03*
X29225Y35125D02*
D03*
Y36625D02*
D03*
X42675Y37625D02*
D03*
Y36125D02*
D03*
X46425Y35125D02*
D03*
Y36625D02*
D03*
X59875Y37625D02*
D03*
Y36125D02*
D03*
X63625Y35125D02*
D03*
Y36625D02*
D03*
X8275Y52425D02*
D03*
Y50925D02*
D03*
X12025Y49925D02*
D03*
Y51425D02*
D03*
X25475Y52425D02*
D03*
Y50925D02*
D03*
X29225Y49925D02*
D03*
Y51425D02*
D03*
X42675Y52425D02*
D03*
Y50925D02*
D03*
X46425Y49925D02*
D03*
Y51425D02*
D03*
X59875Y52425D02*
D03*
Y50925D02*
D03*
X63625Y49925D02*
D03*
Y51425D02*
D03*
D13*
X11225Y14525D02*
D03*
X8525D02*
D03*
X28425D02*
D03*
X25725D02*
D03*
X45625D02*
D03*
X42925D02*
D03*
X62825D02*
D03*
X60125D02*
D03*
X11225Y29325D02*
D03*
X8525D02*
D03*
X28425D02*
D03*
X25725D02*
D03*
X45625D02*
D03*
X42925D02*
D03*
X62825D02*
D03*
X60125D02*
D03*
X11225Y44125D02*
D03*
X8525D02*
D03*
X28425D02*
D03*
X25725D02*
D03*
X45625D02*
D03*
X42925D02*
D03*
X62825D02*
D03*
X60125D02*
D03*
X11225Y58925D02*
D03*
X8525D02*
D03*
X28425D02*
D03*
X25725D02*
D03*
X45625D02*
D03*
X42925D02*
D03*
X62825D02*
D03*
X60125D02*
D03*
D14*
X12775Y12275D02*
D03*
X11475D02*
D03*
X29975D02*
D03*
X28675D02*
D03*
X47175D02*
D03*
X45875D02*
D03*
X64375D02*
D03*
X63075D02*
D03*
X12775Y27075D02*
D03*
X11475D02*
D03*
X29975D02*
D03*
X28675D02*
D03*
X47175D02*
D03*
X45875D02*
D03*
X64375D02*
D03*
X63075D02*
D03*
X12775Y41875D02*
D03*
X11475D02*
D03*
X29975D02*
D03*
X28675D02*
D03*
X47175D02*
D03*
X45875D02*
D03*
X64375D02*
D03*
X63075D02*
D03*
X12775Y56675D02*
D03*
X11475D02*
D03*
X29975D02*
D03*
X28675D02*
D03*
X47175D02*
D03*
X45875D02*
D03*
X64375D02*
D03*
X63075D02*
D03*
D15*
X7025Y10525D02*
D03*
X6195D02*
D03*
X7025Y9275D02*
D03*
X6195D02*
D03*
X24225Y10525D02*
D03*
X23395D02*
D03*
X24225Y9275D02*
D03*
X23395D02*
D03*
X41425Y10525D02*
D03*
X40595D02*
D03*
X41425Y9275D02*
D03*
X40595D02*
D03*
X58625Y10525D02*
D03*
X57795D02*
D03*
X58625Y9275D02*
D03*
X57795D02*
D03*
X7025Y25325D02*
D03*
X6195D02*
D03*
X7025Y24075D02*
D03*
X6195D02*
D03*
X24225Y25325D02*
D03*
X23395D02*
D03*
X24225Y24075D02*
D03*
X23395D02*
D03*
X41425Y25325D02*
D03*
X40595D02*
D03*
X41425Y24075D02*
D03*
X40595D02*
D03*
X58625Y25325D02*
D03*
X57795D02*
D03*
X58625Y24075D02*
D03*
X57795D02*
D03*
X7025Y40125D02*
D03*
X6195D02*
D03*
X7025Y38875D02*
D03*
X6195D02*
D03*
X24225Y40125D02*
D03*
X23395D02*
D03*
X24225Y38875D02*
D03*
X23395D02*
D03*
X41425Y40125D02*
D03*
X40595D02*
D03*
X41425Y38875D02*
D03*
X40595D02*
D03*
X58625Y40125D02*
D03*
X57795D02*
D03*
X58625Y38875D02*
D03*
X57795D02*
D03*
X7025Y54925D02*
D03*
X6195D02*
D03*
X7025Y53675D02*
D03*
X6195D02*
D03*
X24225Y54925D02*
D03*
X23395D02*
D03*
X24225Y53675D02*
D03*
X23395D02*
D03*
X41425Y54925D02*
D03*
X40595D02*
D03*
X41425Y53675D02*
D03*
X40595D02*
D03*
X58625Y54925D02*
D03*
X57795D02*
D03*
X58625Y53675D02*
D03*
X57795D02*
D03*
D16*
X9775Y9525D02*
D03*
Y9025D02*
D03*
Y8525D02*
D03*
Y10025D02*
D03*
X11875Y9525D02*
D03*
Y9025D02*
D03*
Y8525D02*
D03*
Y10025D02*
D03*
X26975Y9525D02*
D03*
Y9025D02*
D03*
Y8525D02*
D03*
Y10025D02*
D03*
X29075Y9525D02*
D03*
Y9025D02*
D03*
Y8525D02*
D03*
Y10025D02*
D03*
X44175Y9525D02*
D03*
Y9025D02*
D03*
Y8525D02*
D03*
Y10025D02*
D03*
X46275Y9525D02*
D03*
Y9025D02*
D03*
Y8525D02*
D03*
Y10025D02*
D03*
X61375Y9525D02*
D03*
Y9025D02*
D03*
Y8525D02*
D03*
Y10025D02*
D03*
X63475Y9525D02*
D03*
Y9025D02*
D03*
Y8525D02*
D03*
Y10025D02*
D03*
X9775Y24325D02*
D03*
Y23825D02*
D03*
Y23325D02*
D03*
Y24825D02*
D03*
X11875Y24325D02*
D03*
Y23825D02*
D03*
Y23325D02*
D03*
Y24825D02*
D03*
X26975Y24325D02*
D03*
Y23825D02*
D03*
Y23325D02*
D03*
Y24825D02*
D03*
X29075Y24325D02*
D03*
Y23825D02*
D03*
Y23325D02*
D03*
Y24825D02*
D03*
X44175Y24325D02*
D03*
Y23825D02*
D03*
Y23325D02*
D03*
Y24825D02*
D03*
X46275Y24325D02*
D03*
Y23825D02*
D03*
Y23325D02*
D03*
Y24825D02*
D03*
X61375Y24325D02*
D03*
Y23825D02*
D03*
Y23325D02*
D03*
Y24825D02*
D03*
X63475Y24325D02*
D03*
Y23825D02*
D03*
Y23325D02*
D03*
Y24825D02*
D03*
X9775Y39125D02*
D03*
Y38625D02*
D03*
Y38125D02*
D03*
Y39625D02*
D03*
X11875Y39125D02*
D03*
Y38625D02*
D03*
Y38125D02*
D03*
Y39625D02*
D03*
X26975Y39125D02*
D03*
Y38625D02*
D03*
Y38125D02*
D03*
Y39625D02*
D03*
X29075Y39125D02*
D03*
Y38625D02*
D03*
Y38125D02*
D03*
Y39625D02*
D03*
X44175Y39125D02*
D03*
Y38625D02*
D03*
Y38125D02*
D03*
Y39625D02*
D03*
X46275Y39125D02*
D03*
Y38625D02*
D03*
Y38125D02*
D03*
Y39625D02*
D03*
X61375Y39125D02*
D03*
Y38625D02*
D03*
Y38125D02*
D03*
Y39625D02*
D03*
X63475Y39125D02*
D03*
Y38625D02*
D03*
Y38125D02*
D03*
Y39625D02*
D03*
X9775Y53925D02*
D03*
Y53425D02*
D03*
Y52925D02*
D03*
Y54425D02*
D03*
X11875Y53925D02*
D03*
Y53425D02*
D03*
Y52925D02*
D03*
Y54425D02*
D03*
X26975Y53925D02*
D03*
Y53425D02*
D03*
Y52925D02*
D03*
Y54425D02*
D03*
X29075Y53925D02*
D03*
Y53425D02*
D03*
Y52925D02*
D03*
Y54425D02*
D03*
X44175Y53925D02*
D03*
Y53425D02*
D03*
Y52925D02*
D03*
Y54425D02*
D03*
X46275Y53925D02*
D03*
Y53425D02*
D03*
Y52925D02*
D03*
Y54425D02*
D03*
X61375Y53925D02*
D03*
Y53425D02*
D03*
Y52925D02*
D03*
Y54425D02*
D03*
X63475Y53925D02*
D03*
Y53425D02*
D03*
Y52925D02*
D03*
Y54425D02*
D03*
D17*
X10835Y9275D02*
D03*
X28035D02*
D03*
X45235D02*
D03*
X62435D02*
D03*
X10835Y24075D02*
D03*
X28035D02*
D03*
X45235D02*
D03*
X62435D02*
D03*
X10835Y38875D02*
D03*
X28035D02*
D03*
X45235D02*
D03*
X62435D02*
D03*
X10835Y53675D02*
D03*
X28035D02*
D03*
X45235D02*
D03*
X62435D02*
D03*
D18*
X15025Y7525D02*
D03*
X18125D02*
D03*
X15025Y12275D02*
D03*
X18125D02*
D03*
X32225Y7525D02*
D03*
X35325D02*
D03*
X32225Y12275D02*
D03*
X35325D02*
D03*
X49425Y7525D02*
D03*
X52525D02*
D03*
X49425Y12275D02*
D03*
X52525D02*
D03*
X66625Y7525D02*
D03*
X69725D02*
D03*
X66625Y12275D02*
D03*
X69725D02*
D03*
X15025Y22325D02*
D03*
X18125D02*
D03*
X15025Y27075D02*
D03*
X18125D02*
D03*
X32225Y22325D02*
D03*
X35325D02*
D03*
X32225Y27075D02*
D03*
X35325D02*
D03*
X49425Y22325D02*
D03*
X52525D02*
D03*
X49425Y27075D02*
D03*
X52525D02*
D03*
X66625Y22325D02*
D03*
X69725D02*
D03*
X66625Y27075D02*
D03*
X69725D02*
D03*
X15025Y37125D02*
D03*
X18125D02*
D03*
X15025Y41875D02*
D03*
X18125D02*
D03*
X32225Y37125D02*
D03*
X35325D02*
D03*
X32225Y41875D02*
D03*
X35325D02*
D03*
X49425Y37125D02*
D03*
X52525D02*
D03*
X49425Y41875D02*
D03*
X52525D02*
D03*
X66625Y37125D02*
D03*
X69725D02*
D03*
X66625Y41875D02*
D03*
X69725D02*
D03*
X15025Y51925D02*
D03*
X18125D02*
D03*
X15025Y56675D02*
D03*
X18125D02*
D03*
X32225Y51925D02*
D03*
X35325D02*
D03*
X32225Y56675D02*
D03*
X35325D02*
D03*
X49425Y51925D02*
D03*
X52525D02*
D03*
X49425Y56675D02*
D03*
X52525D02*
D03*
X66625Y51925D02*
D03*
X69725D02*
D03*
X66625Y56675D02*
D03*
X69725D02*
D03*
D19*
X10025Y5775D02*
D03*
Y6605D02*
D03*
X13275Y9525D02*
D03*
Y8695D02*
D03*
X27225Y5775D02*
D03*
Y6605D02*
D03*
X30475Y9525D02*
D03*
Y8695D02*
D03*
X44425Y5775D02*
D03*
Y6605D02*
D03*
X47675Y9525D02*
D03*
Y8695D02*
D03*
X61625Y5775D02*
D03*
Y6605D02*
D03*
X64875Y9525D02*
D03*
Y8695D02*
D03*
X10025Y20575D02*
D03*
Y21405D02*
D03*
X13275Y24325D02*
D03*
Y23495D02*
D03*
X27225Y20575D02*
D03*
Y21405D02*
D03*
X30475Y24325D02*
D03*
Y23495D02*
D03*
X44425Y20575D02*
D03*
Y21405D02*
D03*
X47675Y24325D02*
D03*
Y23495D02*
D03*
X61625Y20575D02*
D03*
Y21405D02*
D03*
X64875Y24325D02*
D03*
Y23495D02*
D03*
X10025Y35375D02*
D03*
Y36205D02*
D03*
X13275Y39125D02*
D03*
Y38295D02*
D03*
X27225Y35375D02*
D03*
Y36205D02*
D03*
X30475Y39125D02*
D03*
Y38295D02*
D03*
X44425Y35375D02*
D03*
Y36205D02*
D03*
X47675Y39125D02*
D03*
Y38295D02*
D03*
X61625Y35375D02*
D03*
Y36205D02*
D03*
X64875Y39125D02*
D03*
Y38295D02*
D03*
X10025Y50175D02*
D03*
Y51005D02*
D03*
X13275Y53925D02*
D03*
Y53095D02*
D03*
X27225Y50175D02*
D03*
Y51005D02*
D03*
X30475Y53925D02*
D03*
Y53095D02*
D03*
X44425Y50175D02*
D03*
Y51005D02*
D03*
X47675Y53925D02*
D03*
Y53095D02*
D03*
X61625Y50175D02*
D03*
Y51005D02*
D03*
X64875Y53925D02*
D03*
Y53095D02*
D03*
M02*
