M48
;Layer_Color=9474304
;FILE_FORMAT=2:4
INCH
;TYPE=PLATED
T1F00S00C0.0050
T2F00S00C0.0050
T3F00S00C0.0150
T4F00S00C0.0150
T5F00S00C0.0170
T6F00S00C0.0200
T7F00S00C0.0380
%
T01
X010625Y008425
X027825
X045025
X062225
Y009200
Y009625
Y023225
Y024000
Y024425
X045025
Y024000
Y023225
Y009625
Y009200
X027825
Y009625
Y023225
Y024000
Y024425
X010625
Y024000
Y023225
Y009625
Y009200
Y038025
Y038800
Y039225
X027825
Y038800
Y038025
X045025
Y038800
Y039225
X062225
Y038800
Y038025
Y052825
Y053600
Y054025
X045025
Y053600
Y052825
X027825
Y053600
Y054025
X010625
Y053600
Y052825
T02
X010625Y008225
Y009000
X010775
X010925
X011075
Y008425
X010925
X010775
Y008225
X010925
X011075
X027825
X027975
X028125
X028275
Y008425
X028125
X027975
Y009000
X027825
X028125
X028275
X045025
X045175
X045325
X045475
Y008425
X045325
X045175
Y008225
X045025
X045325
X045475
X062225
X062375
X062525
X062675
Y008425
X062525
X062375
Y009000
X062225
X062525
X062675
Y009200
X062525
X062375
Y009425
X062525
X062675
Y009625
X062525
X062375
X062225Y009425
X062175Y010075
X062325
X062525
X062675
Y010275
X062525
X062325
X062175
X062225Y023025
X062375
X062525
X062675
Y023225
X062525
X062375
Y023800
X062225
X062525
X062675
Y024000
X062525
X062375
Y024225
X062525
X062675
Y024425
X062525
X062375
X062225Y024225
X045475
X045325
X045175
X045025
X045175Y024425
X045325
X045475
Y024000
X045325
X045175
Y023800
X045025
X045325
X045475
Y023225
X045325
X045175
Y023025
X045025
X045325
X045475
Y010275
X045325
Y010075
X045475
X045125
X044975
Y010275
X045125
X045175Y009625
X045325
X045475
Y009425
X045325
X045175
X045025
X045175Y009200
X045325
X045475
X028275
X028125
X027975
Y009425
X028125
X028275
Y009625
X028125
X027975
X027825Y009425
X027775Y010075
X027925
X028125
X028275
Y010275
X028125
X027925
X027775
X027825Y023025
X027975
X028125
X028275
Y023225
X028125
X027975
Y023800
X027825
X028125
X028275
Y024000
X028125
X027975
Y024225
X028125
X028275
Y024425
X028125
X027975
X027825Y024225
X011075
X010925
X010775
Y024425
X010925
X011075
Y024000
X010925
X010775
Y023800
X010925
X011075
Y023225
X010925
X010775
Y023025
X010925
X011075
Y010275
X010925
Y010075
X011075
Y009625
X010925
X010775
Y009425
X010925
X011075
Y009200
X010925
X010775
X010625Y009425
X010575Y010075
X010725
Y010275
X010575
X010625Y023025
Y023800
Y024225
X010575Y024875
X010725
Y025075
X010575
X010625Y037825
Y038600
Y039025
X010575Y039675
X010725
Y039875
X010575
X010925
X011075
Y039675
X010925
Y039225
X010775
Y039025
X010925
X011075
Y039225
Y038800
X010925
X010775
Y038600
X010925
X011075
Y038025
X010925
X010775
Y037825
X010925
X011075
Y025075
X010925
Y024875
X011075
X027775
X027925
X028125
X028275
Y025075
X028125
X027925
X027775
X027825Y037825
X027975
X028125
X028275
Y038025
X028125
X027975
Y038600
X027825
X028125
X028275
Y038800
X028125
X027975
Y039025
X028125
X028275
Y039225
X028125
X027975
X027825Y039025
X027775Y039675
X027925
X028125
X028275
Y039875
X028125
X027925
X027775
X044975
X045125
Y039675
X044975
X045325
X045475
Y039875
X045325
Y039225
X045175
Y039025
X045325
X045475
Y039225
Y038800
X045325
X045175
Y038600
X045025
X045325
X045475
Y038025
X045325
X045175
Y037825
X045025
X045325
X045475
X045025Y039025
X044975Y025075
X045125
Y024875
X044975
X045325
X045475
Y025075
X045325
X062175
X062325
Y024875
X062175
X062525
X062675
Y025075
X062525
Y037825
X062675
Y038025
X062525
X062375
Y037825
X062225
Y038600
X062375
X062525
X062675
Y038800
X062525
X062375
Y039025
X062525
X062675
Y039225
X062525
X062375
X062225Y039025
X062175Y039675
X062325
X062525
X062675
Y039875
X062525
X062325
X062175
X062225Y052625
X062375
X062525
X062675
Y052825
X062525
X062375
Y053400
X062225
X062525
X062675
Y053600
X062525
X062375
Y053825
X062525
X062675
Y054025
X062525
X062375
X062225Y053825
X062175Y054475
X062325
X062525
X062675
Y054675
X062525
X062325
X062175
X045475
X045325
Y054475
X045475
X045125
X044975
Y054675
X045125
X045175Y054025
X045325
X045475
Y053825
X045325
X045175
X045025
X045175Y053600
X045325
X045475
Y053400
X045325
X045175
X045025
X045175Y052825
X045325
X045475
Y052625
X045325
X045175
X045025
X028275
X028125
X027975
X027825
X027975Y052825
X028125
X028275
Y053400
X028125
X027975
X027825
X027975Y053600
X028125
X028275
Y053825
X028125
X027975
X027825
X027975Y054025
X028125
X028275
Y054475
X028125
X027925
X027775
Y054675
X027925
X028125
X028275
X011075
X010925
Y054475
X011075
Y054025
X010925
X010775
Y053825
X010925
X011075
Y053600
X010925
X010775
Y053400
X010925
X011075
Y052825
X010925
X010775
Y052625
X010925
X011075
X010625
Y053400
Y053825
X010575Y054475
X010725
Y054675
X010575
T03
X010825Y007025
X028025
X045225
X062425
Y021825
X045225
X028025
X010825
Y036625
X028025
X045225
X062425
Y051425
X045225
X028025
X010825
T04
X005025Y007275
X014775Y006525
X015275
Y008525
X014775
X017525
X018525
Y006525
X017525
X013690Y005290
X022225Y007275
X031975Y006525
X032475
Y008525
X031975
X034725
X035725
Y006525
X034725
X030890Y005290
X039425Y007275
X049175Y006525
X049675
Y008525
X049175
X051925
X052925
Y006525
X051925
X048090Y005290
X056625Y007275
X066375Y006525
X066875
Y008525
X066375
X069125
X070125
Y006525
X069125
X065290Y005290
X065375Y011525
Y012025
Y012525
Y013025
X066375Y013275
X066875
Y011275
X066375
X069125
X070125
Y013275
X069125
Y021325
X070125
Y023325
X069125
X066875
X066375
Y021325
X066875
X065290Y020090
X058625Y015025
Y014025
X056190Y014070
X056625Y010525
Y009275
X052925Y011275
X051925
Y013275
X052925
X049675
X049175
X048175Y013025
Y012525
Y012025
Y011525
X049175Y011275
X049675
Y021325
X049175
Y023325
X049675
X051925
X052925
Y021325
X051925
X048090Y020090
X056625Y022075
Y024075
X039425
Y022075
X035725Y021325
X034725
Y023325
X035725
X032475
X031975
Y021325
X032475
X030890Y020090
X030975Y013025
Y012525
Y012025
Y011525
X031975Y011275
X032475
Y013275
X031975
X034725
X035725
Y011275
X034725
X039425Y010525
Y009275
X038990Y014070
X041425Y014025
Y015025
X024225
Y014025
X021790Y014070
X022225Y010525
Y009275
X018525Y011275
X017525
Y013275
X018525
X015275
X014775
X013775Y013025
Y012525
Y012025
Y011525
X014775Y011275
X015275
Y021325
X014775
Y023325
X015275
X017525
X018525
Y021325
X017525
X013690Y020090
X022225Y022075
Y024075
X005025
Y022075
X004590Y014070
X007025Y014025
Y015025
X005025Y010525
Y009275
Y025325
X004590Y028870
X007025Y028825
Y029825
X005025Y036875
Y038875
Y040125
X014775Y038125
X015275
Y036125
X014775
X013690Y034890
X017525Y036125
X018525
Y038125
X017525
X022225Y038875
Y040125
Y036875
X021790Y028870
X024225Y028825
Y029825
X022225Y025325
X018525Y026075
X017525
Y028075
X018525
X015275
X014775
X013775Y027825
Y027325
Y026825
Y026325
X014775Y026075
X015275
X030975Y026325
Y026825
Y027325
Y027825
X031975Y028075
X032475
Y026075
X031975
X034725
X035725
Y028075
X034725
X038990Y028870
X041425Y028825
Y029825
X039425Y025325
Y036875
Y038875
Y040125
X035725Y038125
X034725
Y036125
X035725
X032475
X031975
Y038125
X032475
X030890Y034890
X048090
X049175Y036125
X049675
Y038125
X049175
X051925
X052925
Y036125
X051925
X056625Y036875
Y038875
Y040125
X056190Y028870
X056625Y025325
X052925Y026075
X051925
Y028075
X052925
X049675
X049175
X048175Y027825
Y027325
Y026825
Y026325
X049175Y026075
X049675
X058625Y028825
Y029825
X065375Y027825
Y027325
Y026825
Y026325
X066375Y026075
X066875
Y028075
X066375
X069125
X070125
Y026075
X069125
Y036125
X070125
Y038125
X069125
X066875
X066375
Y036125
X066875
X065290Y034890
X065375Y041125
Y041625
Y042125
Y042625
X066375Y042875
X066875
Y040875
X066375
X069125
X070125
Y042875
X069125
Y050925
X070125
Y052925
X069125
X066875
X066375
Y050925
X066875
X065290Y049690
X065375Y055925
X066375Y055675
X066875
X069125
X070125
X058625Y044625
Y043625
X056190Y043670
X052925Y042875
X051925
Y040875
X052925
X049675
X049175
X048175Y041125
Y041625
Y042125
Y042625
X049175Y042875
X049675
Y050925
X049175
Y052925
X049675
X051925
X052925
Y050925
X051925
Y055675
X052925
X049675
X049175
X048175Y055925
X048090Y049690
X056625Y051675
Y053675
Y054925
X039425
Y053675
Y051675
X035725Y050925
X034725
Y052925
X035725
Y055675
X034725
X032475
X031975
X030975Y055925
X031975Y052925
X032475
Y050925
X031975
X030890Y049690
X030975Y042625
Y042125
Y041625
Y041125
X031975Y040875
X032475
Y042875
X031975
X034725
X035725
Y040875
X034725
X038990Y043670
X041425Y043625
Y044625
X024225
Y043625
X021790Y043670
X018525Y042875
X017525
Y040875
X018525
X015275
X014775
X013775Y041125
Y041625
Y042125
Y042625
X014775Y042875
X015275
Y050925
X014775
Y052925
X015275
X017525
X018525
Y050925
X017525
Y055675
X018525
X015275
X014775
X013775Y055925
X013690Y049690
X022225Y051675
Y053675
Y054925
X005025
Y053675
Y051675
X004590Y043670
X007025Y043625
Y044625
Y058425
Y059425
X004590Y058470
X013775Y057425
Y056925
Y056425
X014775Y057675
X015275
X017525
X018525
X021790Y058470
X024225Y058425
Y059425
X030975Y057425
Y056925
Y056425
X031975Y057675
X032475
X034725
X035725
X038990Y058470
X041425Y058425
Y059425
X048175Y057425
Y056925
Y056425
X049175Y057675
X049675
X051925
X052925
X056190Y058470
X058625Y058425
Y059425
X065375Y057425
Y056925
Y056425
X066375Y057675
X066875
X069125
X070125
T05
X013040Y006150
X030240
X047440
X064640
Y020950
X047440
X030240
X013040
Y035750
X030240
X047440
X064640
Y050550
X047440
X030240
X013040
T06
X006680Y005960
X023880
X041080
X058280
Y020760
X041080
X023880
X006680
Y035560
X023880
X041080
X058280
Y050360
X041080
X023880
X006680
T07
X005925Y003425
X006925
X007925
X008925
X009925
X010925
X011925
X012925
X013925
X014925
X015925
X016925
X023125
X024125
X025125
X026125
X027125
X028125
X029125
X030125
X031125
X032125
X033125
X034125
X040325
X041325
X042325
X043325
X044325
X045325
X046325
X047325
X048325
X049325
X050325
X051325
X057525
X058525
X059525
X060525
X061525
X062525
X063525
X064525
X065525
X066525
X067525
X068525
Y018225
X067525
X066525
X065525
X064525
X063525
X062525
X061525
X060525
X059525
X058525
X057525
X051325
X050325
X049325
X048325
X047325
X046325
X045325
X044325
X043325
X042325
X041325
X040325
X034125
X033125
X032125
X031125
X030125
X029125
X028125
X027125
X026125
X025125
X024125
X023125
X016925
X015925
X014925
X013925
X012925
X011925
X010925
X009925
X008925
X007925
X006925
X005925
Y033025
X006925
X007925
X008925
X009925
X010925
X011925
X012925
X013925
X014925
X015925
X016925
X023125
X024125
X025125
X026125
X027125
X028125
X029125
X030125
X031125
X032125
X033125
X034125
X040325
X041325
X042325
X043325
X044325
X045325
X046325
X047325
X048325
X049325
X050325
X051325
X057525
X058525
X059525
X060525
X061525
X062525
X063525
X064525
X065525
X066525
X067525
X068525
Y047825
X067525
X066525
X065525
X064525
X063525
X062525
X061525
X060525
X059525
X058525
X057525
X051325
X050325
X049325
X048325
X047325
X046325
X045325
X044325
X043325
X042325
X041325
X040325
X034125
X033125
X032125
X031125
X030125
X029125
X028125
X027125
X026125
X025125
X024125
X023125
X016925
X015925
X014925
X013925
X012925
X011925
X010925
X009925
X008925
X007925
X006925
X005925
M30
