G04*
G04 #@! TF.GenerationSoftware,Altium Limited,Altium Designer,18.1.9 (240)*
G04*
G04 Layer_Color=16711935*
%FSLAX24Y24*%
%MOIN*%
G70*
G01*
G75*
%ADD27C,0.0400*%
%ADD46O,0.0680X0.0880*%
%ADD47R,0.0680X0.0680*%
%ADD48C,0.0380*%
%ADD49C,0.0430*%
D27*
X6680Y5960D02*
D03*
X23880D02*
D03*
X41080D02*
D03*
X58280D02*
D03*
X6680Y20760D02*
D03*
X23880D02*
D03*
X41080D02*
D03*
X58280D02*
D03*
X6680Y35560D02*
D03*
X23880D02*
D03*
X41080D02*
D03*
X58280D02*
D03*
X6680Y50360D02*
D03*
X23880D02*
D03*
X41080D02*
D03*
X58280D02*
D03*
D46*
X6925Y3425D02*
D03*
X7925D02*
D03*
X8925D02*
D03*
X9925D02*
D03*
X10925D02*
D03*
X11925D02*
D03*
X12925D02*
D03*
X13925D02*
D03*
X14925D02*
D03*
X15925D02*
D03*
X16925D02*
D03*
X24125D02*
D03*
X25125D02*
D03*
X26125D02*
D03*
X27125D02*
D03*
X28125D02*
D03*
X29125D02*
D03*
X30125D02*
D03*
X31125D02*
D03*
X32125D02*
D03*
X33125D02*
D03*
X34125D02*
D03*
X41325D02*
D03*
X42325D02*
D03*
X43325D02*
D03*
X44325D02*
D03*
X45325D02*
D03*
X46325D02*
D03*
X47325D02*
D03*
X48325D02*
D03*
X49325D02*
D03*
X50325D02*
D03*
X51325D02*
D03*
X58525D02*
D03*
X59525D02*
D03*
X60525D02*
D03*
X61525D02*
D03*
X62525D02*
D03*
X63525D02*
D03*
X64525D02*
D03*
X65525D02*
D03*
X66525D02*
D03*
X67525D02*
D03*
X68525D02*
D03*
X6925Y18225D02*
D03*
X7925D02*
D03*
X8925D02*
D03*
X9925D02*
D03*
X10925D02*
D03*
X11925D02*
D03*
X12925D02*
D03*
X13925D02*
D03*
X14925D02*
D03*
X15925D02*
D03*
X16925D02*
D03*
X24125D02*
D03*
X25125D02*
D03*
X26125D02*
D03*
X27125D02*
D03*
X28125D02*
D03*
X29125D02*
D03*
X30125D02*
D03*
X31125D02*
D03*
X32125D02*
D03*
X33125D02*
D03*
X34125D02*
D03*
X41325D02*
D03*
X42325D02*
D03*
X43325D02*
D03*
X44325D02*
D03*
X45325D02*
D03*
X46325D02*
D03*
X47325D02*
D03*
X48325D02*
D03*
X49325D02*
D03*
X50325D02*
D03*
X51325D02*
D03*
X58525D02*
D03*
X59525D02*
D03*
X60525D02*
D03*
X61525D02*
D03*
X62525D02*
D03*
X63525D02*
D03*
X64525D02*
D03*
X65525D02*
D03*
X66525D02*
D03*
X67525D02*
D03*
X68525D02*
D03*
X6925Y33025D02*
D03*
X7925D02*
D03*
X8925D02*
D03*
X9925D02*
D03*
X10925D02*
D03*
X11925D02*
D03*
X12925D02*
D03*
X13925D02*
D03*
X14925D02*
D03*
X15925D02*
D03*
X16925D02*
D03*
X24125D02*
D03*
X25125D02*
D03*
X26125D02*
D03*
X27125D02*
D03*
X28125D02*
D03*
X29125D02*
D03*
X30125D02*
D03*
X31125D02*
D03*
X32125D02*
D03*
X33125D02*
D03*
X34125D02*
D03*
X41325D02*
D03*
X42325D02*
D03*
X43325D02*
D03*
X44325D02*
D03*
X45325D02*
D03*
X46325D02*
D03*
X47325D02*
D03*
X48325D02*
D03*
X49325D02*
D03*
X50325D02*
D03*
X51325D02*
D03*
X58525D02*
D03*
X59525D02*
D03*
X60525D02*
D03*
X61525D02*
D03*
X62525D02*
D03*
X63525D02*
D03*
X64525D02*
D03*
X65525D02*
D03*
X66525D02*
D03*
X67525D02*
D03*
X68525D02*
D03*
X6925Y47825D02*
D03*
X7925D02*
D03*
X8925D02*
D03*
X9925D02*
D03*
X10925D02*
D03*
X11925D02*
D03*
X12925D02*
D03*
X13925D02*
D03*
X14925D02*
D03*
X15925D02*
D03*
X16925D02*
D03*
X24125D02*
D03*
X25125D02*
D03*
X26125D02*
D03*
X27125D02*
D03*
X28125D02*
D03*
X29125D02*
D03*
X30125D02*
D03*
X31125D02*
D03*
X32125D02*
D03*
X33125D02*
D03*
X34125D02*
D03*
X41325D02*
D03*
X42325D02*
D03*
X43325D02*
D03*
X44325D02*
D03*
X45325D02*
D03*
X46325D02*
D03*
X47325D02*
D03*
X48325D02*
D03*
X49325D02*
D03*
X50325D02*
D03*
X51325D02*
D03*
X58525D02*
D03*
X59525D02*
D03*
X60525D02*
D03*
X61525D02*
D03*
X62525D02*
D03*
X63525D02*
D03*
X64525D02*
D03*
X65525D02*
D03*
X66525D02*
D03*
X67525D02*
D03*
X68525D02*
D03*
D47*
X5925Y3425D02*
D03*
X23125D02*
D03*
X40325D02*
D03*
X57525D02*
D03*
X5925Y18225D02*
D03*
X23125D02*
D03*
X40325D02*
D03*
X57525D02*
D03*
X5925Y33025D02*
D03*
X23125D02*
D03*
X40325D02*
D03*
X57525D02*
D03*
X5925Y47825D02*
D03*
X23125D02*
D03*
X40325D02*
D03*
X57525D02*
D03*
D48*
X13690Y5290D02*
D03*
X13775Y11525D02*
D03*
X7025Y15025D02*
D03*
X30890Y5290D02*
D03*
X30975Y11525D02*
D03*
X24225Y15025D02*
D03*
X48090Y5290D02*
D03*
X48175Y11525D02*
D03*
X41425Y15025D02*
D03*
X65290Y5290D02*
D03*
X65375Y11525D02*
D03*
X58625Y15025D02*
D03*
X13690Y20090D02*
D03*
X13775Y26325D02*
D03*
X7025Y29825D02*
D03*
X30890Y20090D02*
D03*
X30975Y26325D02*
D03*
X24225Y29825D02*
D03*
X48090Y20090D02*
D03*
X48175Y26325D02*
D03*
X41425Y29825D02*
D03*
X65290Y20090D02*
D03*
X65375Y26325D02*
D03*
X58625Y29825D02*
D03*
X13690Y34890D02*
D03*
X13775Y41125D02*
D03*
X7025Y44625D02*
D03*
X30890Y34890D02*
D03*
X30975Y41125D02*
D03*
X24225Y44625D02*
D03*
X48090Y34890D02*
D03*
X48175Y41125D02*
D03*
X41425Y44625D02*
D03*
X65290Y34890D02*
D03*
X65375Y41125D02*
D03*
X58625Y44625D02*
D03*
X13690Y49690D02*
D03*
X13775Y55925D02*
D03*
X7025Y59425D02*
D03*
X30890Y49690D02*
D03*
X30975Y55925D02*
D03*
X24225Y59425D02*
D03*
X48090Y49690D02*
D03*
X48175Y55925D02*
D03*
X41425Y59425D02*
D03*
X65290Y49690D02*
D03*
X65375Y55925D02*
D03*
X58625Y59425D02*
D03*
D49*
X13040Y6150D02*
D03*
X30240D02*
D03*
X47440D02*
D03*
X64640D02*
D03*
X13040Y20950D02*
D03*
X30240D02*
D03*
X47440D02*
D03*
X64640D02*
D03*
X13040Y35750D02*
D03*
X30240D02*
D03*
X47440D02*
D03*
X64640D02*
D03*
X13040Y50550D02*
D03*
X30240D02*
D03*
X47440D02*
D03*
X64640D02*
D03*
M02*
