G04*
G04 #@! TF.GenerationSoftware,Altium Limited,Altium Designer,18.1.9 (240)*
G04*
G04 Layer_Physical_Order=2*
G04 Layer_Color=36540*
%FSLAX24Y24*%
%MOIN*%
G70*
G01*
G75*
%ADD26O,0.0600X0.0800*%
%ADD28C,0.0300*%
%ADD30C,0.0100*%
G36*
X70625Y59925D02*
Y47675D01*
X70375Y47425D01*
X68799D01*
X68787Y47475D01*
X68839Y47543D01*
X68876Y47631D01*
X68888Y47725D01*
Y47925D01*
X68876Y48019D01*
X68839Y48107D01*
X68782Y48182D01*
X68707Y48239D01*
X68619Y48276D01*
X68525Y48288D01*
X68431Y48276D01*
X68343Y48239D01*
X68268Y48182D01*
X68211Y48107D01*
X68174Y48019D01*
X68162Y47925D01*
Y47725D01*
X68174Y47631D01*
X68211Y47543D01*
X68263Y47475D01*
X68251Y47425D01*
X67799D01*
X67787Y47475D01*
X67839Y47543D01*
X67876Y47631D01*
X67888Y47725D01*
Y47925D01*
X67876Y48019D01*
X67839Y48107D01*
X67782Y48182D01*
X67707Y48239D01*
X67619Y48276D01*
X67525Y48288D01*
X67431Y48276D01*
X67343Y48239D01*
X67268Y48182D01*
X67211Y48107D01*
X67174Y48019D01*
X67162Y47925D01*
Y47725D01*
X67174Y47631D01*
X67211Y47543D01*
X67263Y47475D01*
X67251Y47425D01*
X66799D01*
X66787Y47475D01*
X66839Y47543D01*
X66876Y47631D01*
X66888Y47725D01*
Y47925D01*
X66876Y48019D01*
X66839Y48107D01*
X66782Y48182D01*
X66707Y48239D01*
X66619Y48276D01*
X66525Y48288D01*
X66431Y48276D01*
X66343Y48239D01*
X66268Y48182D01*
X66211Y48107D01*
X66174Y48019D01*
X66162Y47925D01*
Y47725D01*
X66174Y47631D01*
X66211Y47543D01*
X66263Y47475D01*
X66251Y47425D01*
X65799D01*
X65787Y47475D01*
X65839Y47543D01*
X65876Y47631D01*
X65888Y47725D01*
Y47925D01*
X65876Y48019D01*
X65839Y48107D01*
X65782Y48182D01*
X65707Y48239D01*
X65619Y48276D01*
X65525Y48288D01*
X65431Y48276D01*
X65343Y48239D01*
X65268Y48182D01*
X65211Y48107D01*
X65174Y48019D01*
X65162Y47925D01*
Y47725D01*
X65174Y47631D01*
X65211Y47543D01*
X65263Y47475D01*
X65251Y47425D01*
X64862D01*
X64837Y47475D01*
X64874Y47523D01*
X64915Y47621D01*
X64928Y47725D01*
Y47775D01*
X64525D01*
X64122D01*
Y47725D01*
X64135Y47621D01*
X64176Y47523D01*
X64213Y47475D01*
X64188Y47425D01*
X63862D01*
X63837Y47475D01*
X63874Y47523D01*
X63915Y47621D01*
X63928Y47725D01*
Y47775D01*
X63525D01*
X63122D01*
Y47725D01*
X63135Y47621D01*
X63176Y47523D01*
X63213Y47475D01*
X63188Y47425D01*
X62862D01*
X62837Y47475D01*
X62874Y47523D01*
X62915Y47621D01*
X62928Y47725D01*
Y47775D01*
X62525D01*
X62122D01*
Y47725D01*
X62135Y47621D01*
X62176Y47523D01*
X62213Y47475D01*
X62188Y47425D01*
X61862D01*
X61837Y47475D01*
X61874Y47523D01*
X61915Y47621D01*
X61928Y47725D01*
Y47775D01*
X61525D01*
X61122D01*
Y47725D01*
X61135Y47621D01*
X61176Y47523D01*
X61213Y47475D01*
X61188Y47425D01*
X60799D01*
X60787Y47475D01*
X60839Y47543D01*
X60876Y47631D01*
X60888Y47725D01*
Y47925D01*
X60876Y48019D01*
X60839Y48107D01*
X60782Y48182D01*
X60707Y48239D01*
X60619Y48276D01*
X60525Y48288D01*
X60431Y48276D01*
X60343Y48239D01*
X60268Y48182D01*
X60211Y48107D01*
X60174Y48019D01*
X60162Y47925D01*
Y47725D01*
X60174Y47631D01*
X60211Y47543D01*
X60263Y47475D01*
X60251Y47425D01*
X59799D01*
X59787Y47475D01*
X59839Y47543D01*
X59876Y47631D01*
X59888Y47725D01*
Y47925D01*
X59876Y48019D01*
X59839Y48107D01*
X59782Y48182D01*
X59707Y48239D01*
X59619Y48276D01*
X59525Y48288D01*
X59431Y48276D01*
X59343Y48239D01*
X59268Y48182D01*
X59211Y48107D01*
X59174Y48019D01*
X59162Y47925D01*
Y47725D01*
X59174Y47631D01*
X59211Y47543D01*
X59263Y47475D01*
X59251Y47425D01*
X58799D01*
X58787Y47475D01*
X58839Y47543D01*
X58876Y47631D01*
X58888Y47725D01*
Y47925D01*
X58876Y48019D01*
X58839Y48107D01*
X58782Y48182D01*
X58707Y48239D01*
X58619Y48276D01*
X58525Y48288D01*
X58431Y48276D01*
X58343Y48239D01*
X58268Y48182D01*
X58211Y48107D01*
X58174Y48019D01*
X58162Y47925D01*
Y47725D01*
X58174Y47631D01*
X58211Y47543D01*
X58263Y47475D01*
X58251Y47425D01*
X57909D01*
X57885Y47465D01*
X57885Y47475D01*
Y48185D01*
X57165D01*
Y47475D01*
X57165Y47465D01*
X57141Y47425D01*
X54875D01*
X54625Y47675D01*
Y59925D01*
X54875Y60175D01*
X70375D01*
X70625Y59925D01*
D02*
G37*
G36*
X53425D02*
Y47675D01*
X53175Y47425D01*
X51599D01*
X51587Y47475D01*
X51639Y47543D01*
X51676Y47631D01*
X51688Y47725D01*
Y47925D01*
X51676Y48019D01*
X51639Y48107D01*
X51582Y48182D01*
X51507Y48239D01*
X51419Y48276D01*
X51325Y48288D01*
X51231Y48276D01*
X51143Y48239D01*
X51068Y48182D01*
X51011Y48107D01*
X50974Y48019D01*
X50962Y47925D01*
Y47725D01*
X50974Y47631D01*
X51011Y47543D01*
X51063Y47475D01*
X51051Y47425D01*
X50599D01*
X50587Y47475D01*
X50639Y47543D01*
X50676Y47631D01*
X50688Y47725D01*
Y47925D01*
X50676Y48019D01*
X50639Y48107D01*
X50582Y48182D01*
X50507Y48239D01*
X50419Y48276D01*
X50325Y48288D01*
X50231Y48276D01*
X50143Y48239D01*
X50068Y48182D01*
X50011Y48107D01*
X49974Y48019D01*
X49962Y47925D01*
Y47725D01*
X49974Y47631D01*
X50011Y47543D01*
X50063Y47475D01*
X50051Y47425D01*
X49599D01*
X49587Y47475D01*
X49639Y47543D01*
X49676Y47631D01*
X49688Y47725D01*
Y47925D01*
X49676Y48019D01*
X49639Y48107D01*
X49582Y48182D01*
X49507Y48239D01*
X49419Y48276D01*
X49325Y48288D01*
X49231Y48276D01*
X49143Y48239D01*
X49068Y48182D01*
X49011Y48107D01*
X48974Y48019D01*
X48962Y47925D01*
Y47725D01*
X48974Y47631D01*
X49011Y47543D01*
X49063Y47475D01*
X49051Y47425D01*
X48599D01*
X48587Y47475D01*
X48639Y47543D01*
X48676Y47631D01*
X48688Y47725D01*
Y47925D01*
X48676Y48019D01*
X48639Y48107D01*
X48582Y48182D01*
X48507Y48239D01*
X48419Y48276D01*
X48325Y48288D01*
X48231Y48276D01*
X48143Y48239D01*
X48068Y48182D01*
X48011Y48107D01*
X47974Y48019D01*
X47962Y47925D01*
Y47725D01*
X47974Y47631D01*
X48011Y47543D01*
X48063Y47475D01*
X48051Y47425D01*
X47662D01*
X47637Y47475D01*
X47674Y47523D01*
X47715Y47621D01*
X47728Y47725D01*
Y47775D01*
X47325D01*
X46922D01*
Y47725D01*
X46935Y47621D01*
X46976Y47523D01*
X47013Y47475D01*
X46988Y47425D01*
X46662D01*
X46637Y47475D01*
X46674Y47523D01*
X46715Y47621D01*
X46728Y47725D01*
Y47775D01*
X46325D01*
X45922D01*
Y47725D01*
X45935Y47621D01*
X45976Y47523D01*
X46013Y47475D01*
X45988Y47425D01*
X45662D01*
X45637Y47475D01*
X45674Y47523D01*
X45715Y47621D01*
X45728Y47725D01*
Y47775D01*
X45325D01*
X44922D01*
Y47725D01*
X44935Y47621D01*
X44976Y47523D01*
X45013Y47475D01*
X44988Y47425D01*
X44662D01*
X44637Y47475D01*
X44674Y47523D01*
X44715Y47621D01*
X44728Y47725D01*
Y47775D01*
X44325D01*
X43922D01*
Y47725D01*
X43935Y47621D01*
X43976Y47523D01*
X44013Y47475D01*
X43988Y47425D01*
X43599D01*
X43587Y47475D01*
X43639Y47543D01*
X43676Y47631D01*
X43688Y47725D01*
Y47925D01*
X43676Y48019D01*
X43639Y48107D01*
X43582Y48182D01*
X43507Y48239D01*
X43419Y48276D01*
X43325Y48288D01*
X43231Y48276D01*
X43143Y48239D01*
X43068Y48182D01*
X43011Y48107D01*
X42974Y48019D01*
X42962Y47925D01*
Y47725D01*
X42974Y47631D01*
X43011Y47543D01*
X43063Y47475D01*
X43051Y47425D01*
X42599D01*
X42587Y47475D01*
X42639Y47543D01*
X42676Y47631D01*
X42688Y47725D01*
Y47925D01*
X42676Y48019D01*
X42639Y48107D01*
X42582Y48182D01*
X42507Y48239D01*
X42419Y48276D01*
X42325Y48288D01*
X42231Y48276D01*
X42143Y48239D01*
X42068Y48182D01*
X42011Y48107D01*
X41974Y48019D01*
X41962Y47925D01*
Y47725D01*
X41974Y47631D01*
X42011Y47543D01*
X42063Y47475D01*
X42051Y47425D01*
X41599D01*
X41587Y47475D01*
X41639Y47543D01*
X41676Y47631D01*
X41688Y47725D01*
Y47925D01*
X41676Y48019D01*
X41639Y48107D01*
X41582Y48182D01*
X41507Y48239D01*
X41419Y48276D01*
X41325Y48288D01*
X41231Y48276D01*
X41143Y48239D01*
X41068Y48182D01*
X41011Y48107D01*
X40974Y48019D01*
X40962Y47925D01*
Y47725D01*
X40974Y47631D01*
X41011Y47543D01*
X41063Y47475D01*
X41051Y47425D01*
X40709D01*
X40685Y47465D01*
X40685Y47475D01*
Y48185D01*
X39965D01*
Y47475D01*
X39965Y47465D01*
X39941Y47425D01*
X37675D01*
X37425Y47675D01*
Y59925D01*
X37675Y60175D01*
X53175D01*
X53425Y59925D01*
D02*
G37*
G36*
X36225D02*
Y47675D01*
X35975Y47425D01*
X34399D01*
X34387Y47475D01*
X34439Y47543D01*
X34476Y47631D01*
X34488Y47725D01*
Y47925D01*
X34476Y48019D01*
X34439Y48107D01*
X34382Y48182D01*
X34307Y48239D01*
X34219Y48276D01*
X34125Y48288D01*
X34031Y48276D01*
X33943Y48239D01*
X33868Y48182D01*
X33811Y48107D01*
X33774Y48019D01*
X33762Y47925D01*
Y47725D01*
X33774Y47631D01*
X33811Y47543D01*
X33863Y47475D01*
X33851Y47425D01*
X33399D01*
X33387Y47475D01*
X33439Y47543D01*
X33476Y47631D01*
X33488Y47725D01*
Y47925D01*
X33476Y48019D01*
X33439Y48107D01*
X33382Y48182D01*
X33307Y48239D01*
X33219Y48276D01*
X33125Y48288D01*
X33031Y48276D01*
X32943Y48239D01*
X32868Y48182D01*
X32811Y48107D01*
X32774Y48019D01*
X32762Y47925D01*
Y47725D01*
X32774Y47631D01*
X32811Y47543D01*
X32863Y47475D01*
X32851Y47425D01*
X32399D01*
X32387Y47475D01*
X32439Y47543D01*
X32476Y47631D01*
X32488Y47725D01*
Y47925D01*
X32476Y48019D01*
X32439Y48107D01*
X32382Y48182D01*
X32307Y48239D01*
X32219Y48276D01*
X32125Y48288D01*
X32031Y48276D01*
X31943Y48239D01*
X31868Y48182D01*
X31811Y48107D01*
X31774Y48019D01*
X31762Y47925D01*
Y47725D01*
X31774Y47631D01*
X31811Y47543D01*
X31863Y47475D01*
X31851Y47425D01*
X31399D01*
X31387Y47475D01*
X31439Y47543D01*
X31476Y47631D01*
X31488Y47725D01*
Y47925D01*
X31476Y48019D01*
X31439Y48107D01*
X31382Y48182D01*
X31307Y48239D01*
X31219Y48276D01*
X31125Y48288D01*
X31031Y48276D01*
X30943Y48239D01*
X30868Y48182D01*
X30811Y48107D01*
X30774Y48019D01*
X30762Y47925D01*
Y47725D01*
X30774Y47631D01*
X30811Y47543D01*
X30863Y47475D01*
X30851Y47425D01*
X30462D01*
X30437Y47475D01*
X30474Y47523D01*
X30515Y47621D01*
X30528Y47725D01*
Y47775D01*
X30125D01*
X29722D01*
Y47725D01*
X29735Y47621D01*
X29776Y47523D01*
X29813Y47475D01*
X29788Y47425D01*
X29462D01*
X29437Y47475D01*
X29474Y47523D01*
X29515Y47621D01*
X29528Y47725D01*
Y47775D01*
X29125D01*
X28722D01*
Y47725D01*
X28735Y47621D01*
X28776Y47523D01*
X28813Y47475D01*
X28788Y47425D01*
X28462D01*
X28437Y47475D01*
X28474Y47523D01*
X28515Y47621D01*
X28528Y47725D01*
Y47775D01*
X28125D01*
X27722D01*
Y47725D01*
X27735Y47621D01*
X27776Y47523D01*
X27813Y47475D01*
X27788Y47425D01*
X27462D01*
X27437Y47475D01*
X27474Y47523D01*
X27515Y47621D01*
X27528Y47725D01*
Y47775D01*
X27125D01*
X26722D01*
Y47725D01*
X26735Y47621D01*
X26776Y47523D01*
X26813Y47475D01*
X26788Y47425D01*
X26399D01*
X26387Y47475D01*
X26439Y47543D01*
X26476Y47631D01*
X26488Y47725D01*
Y47925D01*
X26476Y48019D01*
X26439Y48107D01*
X26382Y48182D01*
X26307Y48239D01*
X26219Y48276D01*
X26125Y48288D01*
X26031Y48276D01*
X25943Y48239D01*
X25868Y48182D01*
X25811Y48107D01*
X25774Y48019D01*
X25762Y47925D01*
Y47725D01*
X25774Y47631D01*
X25811Y47543D01*
X25863Y47475D01*
X25851Y47425D01*
X25399D01*
X25387Y47475D01*
X25439Y47543D01*
X25476Y47631D01*
X25488Y47725D01*
Y47925D01*
X25476Y48019D01*
X25439Y48107D01*
X25382Y48182D01*
X25307Y48239D01*
X25219Y48276D01*
X25125Y48288D01*
X25031Y48276D01*
X24943Y48239D01*
X24868Y48182D01*
X24811Y48107D01*
X24774Y48019D01*
X24762Y47925D01*
Y47725D01*
X24774Y47631D01*
X24811Y47543D01*
X24863Y47475D01*
X24851Y47425D01*
X24399D01*
X24387Y47475D01*
X24439Y47543D01*
X24476Y47631D01*
X24488Y47725D01*
Y47925D01*
X24476Y48019D01*
X24439Y48107D01*
X24382Y48182D01*
X24307Y48239D01*
X24219Y48276D01*
X24125Y48288D01*
X24031Y48276D01*
X23943Y48239D01*
X23868Y48182D01*
X23811Y48107D01*
X23774Y48019D01*
X23762Y47925D01*
Y47725D01*
X23774Y47631D01*
X23811Y47543D01*
X23863Y47475D01*
X23851Y47425D01*
X23509D01*
X23485Y47465D01*
X23485Y47475D01*
Y48185D01*
X22765D01*
Y47475D01*
X22765Y47465D01*
X22741Y47425D01*
X20475D01*
X20225Y47675D01*
Y59925D01*
X20475Y60175D01*
X35975D01*
X36225Y59925D01*
D02*
G37*
G36*
X19025D02*
Y47675D01*
X18775Y47425D01*
X17199D01*
X17187Y47475D01*
X17239Y47543D01*
X17276Y47631D01*
X17288Y47725D01*
Y47925D01*
X17276Y48019D01*
X17239Y48107D01*
X17182Y48182D01*
X17107Y48239D01*
X17019Y48276D01*
X16925Y48288D01*
X16831Y48276D01*
X16743Y48239D01*
X16668Y48182D01*
X16611Y48107D01*
X16574Y48019D01*
X16562Y47925D01*
Y47725D01*
X16574Y47631D01*
X16611Y47543D01*
X16663Y47475D01*
X16651Y47425D01*
X16199D01*
X16187Y47475D01*
X16239Y47543D01*
X16276Y47631D01*
X16288Y47725D01*
Y47925D01*
X16276Y48019D01*
X16239Y48107D01*
X16182Y48182D01*
X16107Y48239D01*
X16019Y48276D01*
X15925Y48288D01*
X15831Y48276D01*
X15743Y48239D01*
X15668Y48182D01*
X15611Y48107D01*
X15574Y48019D01*
X15562Y47925D01*
Y47725D01*
X15574Y47631D01*
X15611Y47543D01*
X15663Y47475D01*
X15651Y47425D01*
X15199D01*
X15187Y47475D01*
X15239Y47543D01*
X15276Y47631D01*
X15288Y47725D01*
Y47925D01*
X15276Y48019D01*
X15239Y48107D01*
X15182Y48182D01*
X15107Y48239D01*
X15019Y48276D01*
X14925Y48288D01*
X14831Y48276D01*
X14743Y48239D01*
X14668Y48182D01*
X14611Y48107D01*
X14574Y48019D01*
X14562Y47925D01*
Y47725D01*
X14574Y47631D01*
X14611Y47543D01*
X14663Y47475D01*
X14651Y47425D01*
X14199D01*
X14187Y47475D01*
X14239Y47543D01*
X14276Y47631D01*
X14288Y47725D01*
Y47925D01*
X14276Y48019D01*
X14239Y48107D01*
X14182Y48182D01*
X14107Y48239D01*
X14019Y48276D01*
X13925Y48288D01*
X13831Y48276D01*
X13743Y48239D01*
X13668Y48182D01*
X13611Y48107D01*
X13574Y48019D01*
X13562Y47925D01*
Y47725D01*
X13574Y47631D01*
X13611Y47543D01*
X13663Y47475D01*
X13651Y47425D01*
X13262D01*
X13237Y47475D01*
X13274Y47523D01*
X13315Y47621D01*
X13328Y47725D01*
Y47775D01*
X12925D01*
X12522D01*
Y47725D01*
X12535Y47621D01*
X12576Y47523D01*
X12613Y47475D01*
X12588Y47425D01*
X12262D01*
X12237Y47475D01*
X12274Y47523D01*
X12315Y47621D01*
X12328Y47725D01*
Y47775D01*
X11925D01*
X11522D01*
Y47725D01*
X11535Y47621D01*
X11576Y47523D01*
X11613Y47475D01*
X11588Y47425D01*
X11262D01*
X11237Y47475D01*
X11274Y47523D01*
X11315Y47621D01*
X11328Y47725D01*
Y47775D01*
X10925D01*
X10522D01*
Y47725D01*
X10535Y47621D01*
X10576Y47523D01*
X10613Y47475D01*
X10588Y47425D01*
X10262D01*
X10237Y47475D01*
X10274Y47523D01*
X10315Y47621D01*
X10328Y47725D01*
Y47775D01*
X9925D01*
X9522D01*
Y47725D01*
X9535Y47621D01*
X9576Y47523D01*
X9613Y47475D01*
X9588Y47425D01*
X9199D01*
X9187Y47475D01*
X9239Y47543D01*
X9276Y47631D01*
X9288Y47725D01*
Y47925D01*
X9276Y48019D01*
X9239Y48107D01*
X9182Y48182D01*
X9107Y48239D01*
X9019Y48276D01*
X8925Y48288D01*
X8831Y48276D01*
X8743Y48239D01*
X8668Y48182D01*
X8611Y48107D01*
X8574Y48019D01*
X8562Y47925D01*
Y47725D01*
X8574Y47631D01*
X8611Y47543D01*
X8663Y47475D01*
X8651Y47425D01*
X8199D01*
X8187Y47475D01*
X8239Y47543D01*
X8276Y47631D01*
X8288Y47725D01*
Y47925D01*
X8276Y48019D01*
X8239Y48107D01*
X8182Y48182D01*
X8107Y48239D01*
X8019Y48276D01*
X7925Y48288D01*
X7831Y48276D01*
X7743Y48239D01*
X7668Y48182D01*
X7611Y48107D01*
X7574Y48019D01*
X7562Y47925D01*
Y47725D01*
X7574Y47631D01*
X7611Y47543D01*
X7663Y47475D01*
X7651Y47425D01*
X7199D01*
X7187Y47475D01*
X7239Y47543D01*
X7276Y47631D01*
X7288Y47725D01*
Y47925D01*
X7276Y48019D01*
X7239Y48107D01*
X7182Y48182D01*
X7107Y48239D01*
X7019Y48276D01*
X6925Y48288D01*
X6831Y48276D01*
X6743Y48239D01*
X6668Y48182D01*
X6611Y48107D01*
X6574Y48019D01*
X6562Y47925D01*
Y47725D01*
X6574Y47631D01*
X6611Y47543D01*
X6663Y47475D01*
X6651Y47425D01*
X6309D01*
X6285Y47465D01*
X6285Y47475D01*
Y48185D01*
X5565D01*
Y47475D01*
X5565Y47465D01*
X5541Y47425D01*
X3275D01*
X3025Y47675D01*
Y59925D01*
X3275Y60175D01*
X18775D01*
X19025Y59925D01*
D02*
G37*
G36*
X70625Y45125D02*
Y32875D01*
X70375Y32625D01*
X68799D01*
X68787Y32675D01*
X68839Y32743D01*
X68876Y32831D01*
X68888Y32925D01*
Y33125D01*
X68876Y33219D01*
X68839Y33307D01*
X68782Y33382D01*
X68707Y33439D01*
X68619Y33476D01*
X68525Y33488D01*
X68431Y33476D01*
X68343Y33439D01*
X68268Y33382D01*
X68211Y33307D01*
X68174Y33219D01*
X68162Y33125D01*
Y32925D01*
X68174Y32831D01*
X68211Y32743D01*
X68263Y32675D01*
X68251Y32625D01*
X67799D01*
X67787Y32675D01*
X67839Y32743D01*
X67876Y32831D01*
X67888Y32925D01*
Y33125D01*
X67876Y33219D01*
X67839Y33307D01*
X67782Y33382D01*
X67707Y33439D01*
X67619Y33476D01*
X67525Y33488D01*
X67431Y33476D01*
X67343Y33439D01*
X67268Y33382D01*
X67211Y33307D01*
X67174Y33219D01*
X67162Y33125D01*
Y32925D01*
X67174Y32831D01*
X67211Y32743D01*
X67263Y32675D01*
X67251Y32625D01*
X66799D01*
X66787Y32675D01*
X66839Y32743D01*
X66876Y32831D01*
X66888Y32925D01*
Y33125D01*
X66876Y33219D01*
X66839Y33307D01*
X66782Y33382D01*
X66707Y33439D01*
X66619Y33476D01*
X66525Y33488D01*
X66431Y33476D01*
X66343Y33439D01*
X66268Y33382D01*
X66211Y33307D01*
X66174Y33219D01*
X66162Y33125D01*
Y32925D01*
X66174Y32831D01*
X66211Y32743D01*
X66263Y32675D01*
X66251Y32625D01*
X65799D01*
X65787Y32675D01*
X65839Y32743D01*
X65876Y32831D01*
X65888Y32925D01*
Y33125D01*
X65876Y33219D01*
X65839Y33307D01*
X65782Y33382D01*
X65707Y33439D01*
X65619Y33476D01*
X65525Y33488D01*
X65431Y33476D01*
X65343Y33439D01*
X65268Y33382D01*
X65211Y33307D01*
X65174Y33219D01*
X65162Y33125D01*
Y32925D01*
X65174Y32831D01*
X65211Y32743D01*
X65263Y32675D01*
X65251Y32625D01*
X64862D01*
X64837Y32675D01*
X64874Y32723D01*
X64915Y32821D01*
X64928Y32925D01*
Y32975D01*
X64525D01*
X64122D01*
Y32925D01*
X64135Y32821D01*
X64176Y32723D01*
X64213Y32675D01*
X64188Y32625D01*
X63862D01*
X63837Y32675D01*
X63874Y32723D01*
X63915Y32821D01*
X63928Y32925D01*
Y32975D01*
X63525D01*
X63122D01*
Y32925D01*
X63135Y32821D01*
X63176Y32723D01*
X63213Y32675D01*
X63188Y32625D01*
X62862D01*
X62837Y32675D01*
X62874Y32723D01*
X62915Y32821D01*
X62928Y32925D01*
Y32975D01*
X62525D01*
X62122D01*
Y32925D01*
X62135Y32821D01*
X62176Y32723D01*
X62213Y32675D01*
X62188Y32625D01*
X61862D01*
X61837Y32675D01*
X61874Y32723D01*
X61915Y32821D01*
X61928Y32925D01*
Y32975D01*
X61525D01*
X61122D01*
Y32925D01*
X61135Y32821D01*
X61176Y32723D01*
X61213Y32675D01*
X61188Y32625D01*
X60799D01*
X60787Y32675D01*
X60839Y32743D01*
X60876Y32831D01*
X60888Y32925D01*
Y33125D01*
X60876Y33219D01*
X60839Y33307D01*
X60782Y33382D01*
X60707Y33439D01*
X60619Y33476D01*
X60525Y33488D01*
X60431Y33476D01*
X60343Y33439D01*
X60268Y33382D01*
X60211Y33307D01*
X60174Y33219D01*
X60162Y33125D01*
Y32925D01*
X60174Y32831D01*
X60211Y32743D01*
X60263Y32675D01*
X60251Y32625D01*
X59799D01*
X59787Y32675D01*
X59839Y32743D01*
X59876Y32831D01*
X59888Y32925D01*
Y33125D01*
X59876Y33219D01*
X59839Y33307D01*
X59782Y33382D01*
X59707Y33439D01*
X59619Y33476D01*
X59525Y33488D01*
X59431Y33476D01*
X59343Y33439D01*
X59268Y33382D01*
X59211Y33307D01*
X59174Y33219D01*
X59162Y33125D01*
Y32925D01*
X59174Y32831D01*
X59211Y32743D01*
X59263Y32675D01*
X59251Y32625D01*
X58799D01*
X58787Y32675D01*
X58839Y32743D01*
X58876Y32831D01*
X58888Y32925D01*
Y33125D01*
X58876Y33219D01*
X58839Y33307D01*
X58782Y33382D01*
X58707Y33439D01*
X58619Y33476D01*
X58525Y33488D01*
X58431Y33476D01*
X58343Y33439D01*
X58268Y33382D01*
X58211Y33307D01*
X58174Y33219D01*
X58162Y33125D01*
Y32925D01*
X58174Y32831D01*
X58211Y32743D01*
X58263Y32675D01*
X58251Y32625D01*
X57909D01*
X57885Y32665D01*
X57885Y32675D01*
Y33385D01*
X57165D01*
Y32675D01*
X57165Y32665D01*
X57141Y32625D01*
X54875D01*
X54625Y32875D01*
Y45125D01*
X54875Y45375D01*
X70375D01*
X70625Y45125D01*
D02*
G37*
G36*
X53425D02*
Y32875D01*
X53175Y32625D01*
X51599D01*
X51587Y32675D01*
X51639Y32743D01*
X51676Y32831D01*
X51688Y32925D01*
Y33125D01*
X51676Y33219D01*
X51639Y33307D01*
X51582Y33382D01*
X51507Y33439D01*
X51419Y33476D01*
X51325Y33488D01*
X51231Y33476D01*
X51143Y33439D01*
X51068Y33382D01*
X51011Y33307D01*
X50974Y33219D01*
X50962Y33125D01*
Y32925D01*
X50974Y32831D01*
X51011Y32743D01*
X51063Y32675D01*
X51051Y32625D01*
X50599D01*
X50587Y32675D01*
X50639Y32743D01*
X50676Y32831D01*
X50688Y32925D01*
Y33125D01*
X50676Y33219D01*
X50639Y33307D01*
X50582Y33382D01*
X50507Y33439D01*
X50419Y33476D01*
X50325Y33488D01*
X50231Y33476D01*
X50143Y33439D01*
X50068Y33382D01*
X50011Y33307D01*
X49974Y33219D01*
X49962Y33125D01*
Y32925D01*
X49974Y32831D01*
X50011Y32743D01*
X50063Y32675D01*
X50051Y32625D01*
X49599D01*
X49587Y32675D01*
X49639Y32743D01*
X49676Y32831D01*
X49688Y32925D01*
Y33125D01*
X49676Y33219D01*
X49639Y33307D01*
X49582Y33382D01*
X49507Y33439D01*
X49419Y33476D01*
X49325Y33488D01*
X49231Y33476D01*
X49143Y33439D01*
X49068Y33382D01*
X49011Y33307D01*
X48974Y33219D01*
X48962Y33125D01*
Y32925D01*
X48974Y32831D01*
X49011Y32743D01*
X49063Y32675D01*
X49051Y32625D01*
X48599D01*
X48587Y32675D01*
X48639Y32743D01*
X48676Y32831D01*
X48688Y32925D01*
Y33125D01*
X48676Y33219D01*
X48639Y33307D01*
X48582Y33382D01*
X48507Y33439D01*
X48419Y33476D01*
X48325Y33488D01*
X48231Y33476D01*
X48143Y33439D01*
X48068Y33382D01*
X48011Y33307D01*
X47974Y33219D01*
X47962Y33125D01*
Y32925D01*
X47974Y32831D01*
X48011Y32743D01*
X48063Y32675D01*
X48051Y32625D01*
X47662D01*
X47637Y32675D01*
X47674Y32723D01*
X47715Y32821D01*
X47728Y32925D01*
Y32975D01*
X47325D01*
X46922D01*
Y32925D01*
X46935Y32821D01*
X46976Y32723D01*
X47013Y32675D01*
X46988Y32625D01*
X46662D01*
X46637Y32675D01*
X46674Y32723D01*
X46715Y32821D01*
X46728Y32925D01*
Y32975D01*
X46325D01*
X45922D01*
Y32925D01*
X45935Y32821D01*
X45976Y32723D01*
X46013Y32675D01*
X45988Y32625D01*
X45662D01*
X45637Y32675D01*
X45674Y32723D01*
X45715Y32821D01*
X45728Y32925D01*
Y32975D01*
X45325D01*
X44922D01*
Y32925D01*
X44935Y32821D01*
X44976Y32723D01*
X45013Y32675D01*
X44988Y32625D01*
X44662D01*
X44637Y32675D01*
X44674Y32723D01*
X44715Y32821D01*
X44728Y32925D01*
Y32975D01*
X44325D01*
X43922D01*
Y32925D01*
X43935Y32821D01*
X43976Y32723D01*
X44013Y32675D01*
X43988Y32625D01*
X43599D01*
X43587Y32675D01*
X43639Y32743D01*
X43676Y32831D01*
X43688Y32925D01*
Y33125D01*
X43676Y33219D01*
X43639Y33307D01*
X43582Y33382D01*
X43507Y33439D01*
X43419Y33476D01*
X43325Y33488D01*
X43231Y33476D01*
X43143Y33439D01*
X43068Y33382D01*
X43011Y33307D01*
X42974Y33219D01*
X42962Y33125D01*
Y32925D01*
X42974Y32831D01*
X43011Y32743D01*
X43063Y32675D01*
X43051Y32625D01*
X42599D01*
X42587Y32675D01*
X42639Y32743D01*
X42676Y32831D01*
X42688Y32925D01*
Y33125D01*
X42676Y33219D01*
X42639Y33307D01*
X42582Y33382D01*
X42507Y33439D01*
X42419Y33476D01*
X42325Y33488D01*
X42231Y33476D01*
X42143Y33439D01*
X42068Y33382D01*
X42011Y33307D01*
X41974Y33219D01*
X41962Y33125D01*
Y32925D01*
X41974Y32831D01*
X42011Y32743D01*
X42063Y32675D01*
X42051Y32625D01*
X41599D01*
X41587Y32675D01*
X41639Y32743D01*
X41676Y32831D01*
X41688Y32925D01*
Y33125D01*
X41676Y33219D01*
X41639Y33307D01*
X41582Y33382D01*
X41507Y33439D01*
X41419Y33476D01*
X41325Y33488D01*
X41231Y33476D01*
X41143Y33439D01*
X41068Y33382D01*
X41011Y33307D01*
X40974Y33219D01*
X40962Y33125D01*
Y32925D01*
X40974Y32831D01*
X41011Y32743D01*
X41063Y32675D01*
X41051Y32625D01*
X40709D01*
X40685Y32665D01*
X40685Y32675D01*
Y33385D01*
X39965D01*
Y32675D01*
X39965Y32665D01*
X39941Y32625D01*
X37675D01*
X37425Y32875D01*
Y45125D01*
X37675Y45375D01*
X53175D01*
X53425Y45125D01*
D02*
G37*
G36*
X36225D02*
Y32875D01*
X35975Y32625D01*
X34399D01*
X34387Y32675D01*
X34439Y32743D01*
X34476Y32831D01*
X34488Y32925D01*
Y33125D01*
X34476Y33219D01*
X34439Y33307D01*
X34382Y33382D01*
X34307Y33439D01*
X34219Y33476D01*
X34125Y33488D01*
X34031Y33476D01*
X33943Y33439D01*
X33868Y33382D01*
X33811Y33307D01*
X33774Y33219D01*
X33762Y33125D01*
Y32925D01*
X33774Y32831D01*
X33811Y32743D01*
X33863Y32675D01*
X33851Y32625D01*
X33399D01*
X33387Y32675D01*
X33439Y32743D01*
X33476Y32831D01*
X33488Y32925D01*
Y33125D01*
X33476Y33219D01*
X33439Y33307D01*
X33382Y33382D01*
X33307Y33439D01*
X33219Y33476D01*
X33125Y33488D01*
X33031Y33476D01*
X32943Y33439D01*
X32868Y33382D01*
X32811Y33307D01*
X32774Y33219D01*
X32762Y33125D01*
Y32925D01*
X32774Y32831D01*
X32811Y32743D01*
X32863Y32675D01*
X32851Y32625D01*
X32399D01*
X32387Y32675D01*
X32439Y32743D01*
X32476Y32831D01*
X32488Y32925D01*
Y33125D01*
X32476Y33219D01*
X32439Y33307D01*
X32382Y33382D01*
X32307Y33439D01*
X32219Y33476D01*
X32125Y33488D01*
X32031Y33476D01*
X31943Y33439D01*
X31868Y33382D01*
X31811Y33307D01*
X31774Y33219D01*
X31762Y33125D01*
Y32925D01*
X31774Y32831D01*
X31811Y32743D01*
X31863Y32675D01*
X31851Y32625D01*
X31399D01*
X31387Y32675D01*
X31439Y32743D01*
X31476Y32831D01*
X31488Y32925D01*
Y33125D01*
X31476Y33219D01*
X31439Y33307D01*
X31382Y33382D01*
X31307Y33439D01*
X31219Y33476D01*
X31125Y33488D01*
X31031Y33476D01*
X30943Y33439D01*
X30868Y33382D01*
X30811Y33307D01*
X30774Y33219D01*
X30762Y33125D01*
Y32925D01*
X30774Y32831D01*
X30811Y32743D01*
X30863Y32675D01*
X30851Y32625D01*
X30462D01*
X30437Y32675D01*
X30474Y32723D01*
X30515Y32821D01*
X30528Y32925D01*
Y32975D01*
X30125D01*
X29722D01*
Y32925D01*
X29735Y32821D01*
X29776Y32723D01*
X29813Y32675D01*
X29788Y32625D01*
X29462D01*
X29437Y32675D01*
X29474Y32723D01*
X29515Y32821D01*
X29528Y32925D01*
Y32975D01*
X29125D01*
X28722D01*
Y32925D01*
X28735Y32821D01*
X28776Y32723D01*
X28813Y32675D01*
X28788Y32625D01*
X28462D01*
X28437Y32675D01*
X28474Y32723D01*
X28515Y32821D01*
X28528Y32925D01*
Y32975D01*
X28125D01*
X27722D01*
Y32925D01*
X27735Y32821D01*
X27776Y32723D01*
X27813Y32675D01*
X27788Y32625D01*
X27462D01*
X27437Y32675D01*
X27474Y32723D01*
X27515Y32821D01*
X27528Y32925D01*
Y32975D01*
X27125D01*
X26722D01*
Y32925D01*
X26735Y32821D01*
X26776Y32723D01*
X26813Y32675D01*
X26788Y32625D01*
X26399D01*
X26387Y32675D01*
X26439Y32743D01*
X26476Y32831D01*
X26488Y32925D01*
Y33125D01*
X26476Y33219D01*
X26439Y33307D01*
X26382Y33382D01*
X26307Y33439D01*
X26219Y33476D01*
X26125Y33488D01*
X26031Y33476D01*
X25943Y33439D01*
X25868Y33382D01*
X25811Y33307D01*
X25774Y33219D01*
X25762Y33125D01*
Y32925D01*
X25774Y32831D01*
X25811Y32743D01*
X25863Y32675D01*
X25851Y32625D01*
X25399D01*
X25387Y32675D01*
X25439Y32743D01*
X25476Y32831D01*
X25488Y32925D01*
Y33125D01*
X25476Y33219D01*
X25439Y33307D01*
X25382Y33382D01*
X25307Y33439D01*
X25219Y33476D01*
X25125Y33488D01*
X25031Y33476D01*
X24943Y33439D01*
X24868Y33382D01*
X24811Y33307D01*
X24774Y33219D01*
X24762Y33125D01*
Y32925D01*
X24774Y32831D01*
X24811Y32743D01*
X24863Y32675D01*
X24851Y32625D01*
X24399D01*
X24387Y32675D01*
X24439Y32743D01*
X24476Y32831D01*
X24488Y32925D01*
Y33125D01*
X24476Y33219D01*
X24439Y33307D01*
X24382Y33382D01*
X24307Y33439D01*
X24219Y33476D01*
X24125Y33488D01*
X24031Y33476D01*
X23943Y33439D01*
X23868Y33382D01*
X23811Y33307D01*
X23774Y33219D01*
X23762Y33125D01*
Y32925D01*
X23774Y32831D01*
X23811Y32743D01*
X23863Y32675D01*
X23851Y32625D01*
X23509D01*
X23485Y32665D01*
X23485Y32675D01*
Y33385D01*
X22765D01*
Y32675D01*
X22765Y32665D01*
X22741Y32625D01*
X20475D01*
X20225Y32875D01*
Y45125D01*
X20475Y45375D01*
X35975D01*
X36225Y45125D01*
D02*
G37*
G36*
X19025D02*
Y32875D01*
X18775Y32625D01*
X17199D01*
X17187Y32675D01*
X17239Y32743D01*
X17276Y32831D01*
X17288Y32925D01*
Y33125D01*
X17276Y33219D01*
X17239Y33307D01*
X17182Y33382D01*
X17107Y33439D01*
X17019Y33476D01*
X16925Y33488D01*
X16831Y33476D01*
X16743Y33439D01*
X16668Y33382D01*
X16611Y33307D01*
X16574Y33219D01*
X16562Y33125D01*
Y32925D01*
X16574Y32831D01*
X16611Y32743D01*
X16663Y32675D01*
X16651Y32625D01*
X16199D01*
X16187Y32675D01*
X16239Y32743D01*
X16276Y32831D01*
X16288Y32925D01*
Y33125D01*
X16276Y33219D01*
X16239Y33307D01*
X16182Y33382D01*
X16107Y33439D01*
X16019Y33476D01*
X15925Y33488D01*
X15831Y33476D01*
X15743Y33439D01*
X15668Y33382D01*
X15611Y33307D01*
X15574Y33219D01*
X15562Y33125D01*
Y32925D01*
X15574Y32831D01*
X15611Y32743D01*
X15663Y32675D01*
X15651Y32625D01*
X15199D01*
X15187Y32675D01*
X15239Y32743D01*
X15276Y32831D01*
X15288Y32925D01*
Y33125D01*
X15276Y33219D01*
X15239Y33307D01*
X15182Y33382D01*
X15107Y33439D01*
X15019Y33476D01*
X14925Y33488D01*
X14831Y33476D01*
X14743Y33439D01*
X14668Y33382D01*
X14611Y33307D01*
X14574Y33219D01*
X14562Y33125D01*
Y32925D01*
X14574Y32831D01*
X14611Y32743D01*
X14663Y32675D01*
X14651Y32625D01*
X14199D01*
X14187Y32675D01*
X14239Y32743D01*
X14276Y32831D01*
X14288Y32925D01*
Y33125D01*
X14276Y33219D01*
X14239Y33307D01*
X14182Y33382D01*
X14107Y33439D01*
X14019Y33476D01*
X13925Y33488D01*
X13831Y33476D01*
X13743Y33439D01*
X13668Y33382D01*
X13611Y33307D01*
X13574Y33219D01*
X13562Y33125D01*
Y32925D01*
X13574Y32831D01*
X13611Y32743D01*
X13663Y32675D01*
X13651Y32625D01*
X13262D01*
X13237Y32675D01*
X13274Y32723D01*
X13315Y32821D01*
X13328Y32925D01*
Y32975D01*
X12925D01*
X12522D01*
Y32925D01*
X12535Y32821D01*
X12576Y32723D01*
X12613Y32675D01*
X12588Y32625D01*
X12262D01*
X12237Y32675D01*
X12274Y32723D01*
X12315Y32821D01*
X12328Y32925D01*
Y32975D01*
X11925D01*
X11522D01*
Y32925D01*
X11535Y32821D01*
X11576Y32723D01*
X11613Y32675D01*
X11588Y32625D01*
X11262D01*
X11237Y32675D01*
X11274Y32723D01*
X11315Y32821D01*
X11328Y32925D01*
Y32975D01*
X10925D01*
X10522D01*
Y32925D01*
X10535Y32821D01*
X10576Y32723D01*
X10613Y32675D01*
X10588Y32625D01*
X10262D01*
X10237Y32675D01*
X10274Y32723D01*
X10315Y32821D01*
X10328Y32925D01*
Y32975D01*
X9925D01*
X9522D01*
Y32925D01*
X9535Y32821D01*
X9576Y32723D01*
X9613Y32675D01*
X9588Y32625D01*
X9199D01*
X9187Y32675D01*
X9239Y32743D01*
X9276Y32831D01*
X9288Y32925D01*
Y33125D01*
X9276Y33219D01*
X9239Y33307D01*
X9182Y33382D01*
X9107Y33439D01*
X9019Y33476D01*
X8925Y33488D01*
X8831Y33476D01*
X8743Y33439D01*
X8668Y33382D01*
X8611Y33307D01*
X8574Y33219D01*
X8562Y33125D01*
Y32925D01*
X8574Y32831D01*
X8611Y32743D01*
X8663Y32675D01*
X8651Y32625D01*
X8199D01*
X8187Y32675D01*
X8239Y32743D01*
X8276Y32831D01*
X8288Y32925D01*
Y33125D01*
X8276Y33219D01*
X8239Y33307D01*
X8182Y33382D01*
X8107Y33439D01*
X8019Y33476D01*
X7925Y33488D01*
X7831Y33476D01*
X7743Y33439D01*
X7668Y33382D01*
X7611Y33307D01*
X7574Y33219D01*
X7562Y33125D01*
Y32925D01*
X7574Y32831D01*
X7611Y32743D01*
X7663Y32675D01*
X7651Y32625D01*
X7199D01*
X7187Y32675D01*
X7239Y32743D01*
X7276Y32831D01*
X7288Y32925D01*
Y33125D01*
X7276Y33219D01*
X7239Y33307D01*
X7182Y33382D01*
X7107Y33439D01*
X7019Y33476D01*
X6925Y33488D01*
X6831Y33476D01*
X6743Y33439D01*
X6668Y33382D01*
X6611Y33307D01*
X6574Y33219D01*
X6562Y33125D01*
Y32925D01*
X6574Y32831D01*
X6611Y32743D01*
X6663Y32675D01*
X6651Y32625D01*
X6309D01*
X6285Y32665D01*
X6285Y32675D01*
Y33385D01*
X5565D01*
Y32675D01*
X5565Y32665D01*
X5541Y32625D01*
X3275D01*
X3025Y32875D01*
Y45125D01*
X3275Y45375D01*
X18775D01*
X19025Y45125D01*
D02*
G37*
G36*
X70625Y30325D02*
Y18075D01*
X70375Y17825D01*
X68799D01*
X68787Y17875D01*
X68839Y17943D01*
X68876Y18031D01*
X68888Y18125D01*
Y18325D01*
X68876Y18419D01*
X68839Y18507D01*
X68782Y18582D01*
X68707Y18639D01*
X68619Y18676D01*
X68525Y18688D01*
X68431Y18676D01*
X68343Y18639D01*
X68268Y18582D01*
X68211Y18507D01*
X68174Y18419D01*
X68162Y18325D01*
Y18125D01*
X68174Y18031D01*
X68211Y17943D01*
X68263Y17875D01*
X68251Y17825D01*
X67799D01*
X67787Y17875D01*
X67839Y17943D01*
X67876Y18031D01*
X67888Y18125D01*
Y18325D01*
X67876Y18419D01*
X67839Y18507D01*
X67782Y18582D01*
X67707Y18639D01*
X67619Y18676D01*
X67525Y18688D01*
X67431Y18676D01*
X67343Y18639D01*
X67268Y18582D01*
X67211Y18507D01*
X67174Y18419D01*
X67162Y18325D01*
Y18125D01*
X67174Y18031D01*
X67211Y17943D01*
X67263Y17875D01*
X67251Y17825D01*
X66799D01*
X66787Y17875D01*
X66839Y17943D01*
X66876Y18031D01*
X66888Y18125D01*
Y18325D01*
X66876Y18419D01*
X66839Y18507D01*
X66782Y18582D01*
X66707Y18639D01*
X66619Y18676D01*
X66525Y18688D01*
X66431Y18676D01*
X66343Y18639D01*
X66268Y18582D01*
X66211Y18507D01*
X66174Y18419D01*
X66162Y18325D01*
Y18125D01*
X66174Y18031D01*
X66211Y17943D01*
X66263Y17875D01*
X66251Y17825D01*
X65799D01*
X65787Y17875D01*
X65839Y17943D01*
X65876Y18031D01*
X65888Y18125D01*
Y18325D01*
X65876Y18419D01*
X65839Y18507D01*
X65782Y18582D01*
X65707Y18639D01*
X65619Y18676D01*
X65525Y18688D01*
X65431Y18676D01*
X65343Y18639D01*
X65268Y18582D01*
X65211Y18507D01*
X65174Y18419D01*
X65162Y18325D01*
Y18125D01*
X65174Y18031D01*
X65211Y17943D01*
X65263Y17875D01*
X65251Y17825D01*
X64862D01*
X64837Y17875D01*
X64874Y17923D01*
X64915Y18021D01*
X64928Y18125D01*
Y18175D01*
X64525D01*
X64122D01*
Y18125D01*
X64135Y18021D01*
X64176Y17923D01*
X64213Y17875D01*
X64188Y17825D01*
X63862D01*
X63837Y17875D01*
X63874Y17923D01*
X63915Y18021D01*
X63928Y18125D01*
Y18175D01*
X63525D01*
X63122D01*
Y18125D01*
X63135Y18021D01*
X63176Y17923D01*
X63213Y17875D01*
X63188Y17825D01*
X62862D01*
X62837Y17875D01*
X62874Y17923D01*
X62915Y18021D01*
X62928Y18125D01*
Y18175D01*
X62525D01*
X62122D01*
Y18125D01*
X62135Y18021D01*
X62176Y17923D01*
X62213Y17875D01*
X62188Y17825D01*
X61862D01*
X61837Y17875D01*
X61874Y17923D01*
X61915Y18021D01*
X61928Y18125D01*
Y18175D01*
X61525D01*
X61122D01*
Y18125D01*
X61135Y18021D01*
X61176Y17923D01*
X61213Y17875D01*
X61188Y17825D01*
X60799D01*
X60787Y17875D01*
X60839Y17943D01*
X60876Y18031D01*
X60888Y18125D01*
Y18325D01*
X60876Y18419D01*
X60839Y18507D01*
X60782Y18582D01*
X60707Y18639D01*
X60619Y18676D01*
X60525Y18688D01*
X60431Y18676D01*
X60343Y18639D01*
X60268Y18582D01*
X60211Y18507D01*
X60174Y18419D01*
X60162Y18325D01*
Y18125D01*
X60174Y18031D01*
X60211Y17943D01*
X60263Y17875D01*
X60251Y17825D01*
X59799D01*
X59787Y17875D01*
X59839Y17943D01*
X59876Y18031D01*
X59888Y18125D01*
Y18325D01*
X59876Y18419D01*
X59839Y18507D01*
X59782Y18582D01*
X59707Y18639D01*
X59619Y18676D01*
X59525Y18688D01*
X59431Y18676D01*
X59343Y18639D01*
X59268Y18582D01*
X59211Y18507D01*
X59174Y18419D01*
X59162Y18325D01*
Y18125D01*
X59174Y18031D01*
X59211Y17943D01*
X59263Y17875D01*
X59251Y17825D01*
X58799D01*
X58787Y17875D01*
X58839Y17943D01*
X58876Y18031D01*
X58888Y18125D01*
Y18325D01*
X58876Y18419D01*
X58839Y18507D01*
X58782Y18582D01*
X58707Y18639D01*
X58619Y18676D01*
X58525Y18688D01*
X58431Y18676D01*
X58343Y18639D01*
X58268Y18582D01*
X58211Y18507D01*
X58174Y18419D01*
X58162Y18325D01*
Y18125D01*
X58174Y18031D01*
X58211Y17943D01*
X58263Y17875D01*
X58251Y17825D01*
X57909D01*
X57885Y17865D01*
X57885Y17875D01*
Y18585D01*
X57165D01*
Y17875D01*
X57165Y17865D01*
X57141Y17825D01*
X54875D01*
X54625Y18075D01*
Y30325D01*
X54875Y30575D01*
X70375D01*
X70625Y30325D01*
D02*
G37*
G36*
X53425D02*
Y18075D01*
X53175Y17825D01*
X51599D01*
X51587Y17875D01*
X51639Y17943D01*
X51676Y18031D01*
X51688Y18125D01*
Y18325D01*
X51676Y18419D01*
X51639Y18507D01*
X51582Y18582D01*
X51507Y18639D01*
X51419Y18676D01*
X51325Y18688D01*
X51231Y18676D01*
X51143Y18639D01*
X51068Y18582D01*
X51011Y18507D01*
X50974Y18419D01*
X50962Y18325D01*
Y18125D01*
X50974Y18031D01*
X51011Y17943D01*
X51063Y17875D01*
X51051Y17825D01*
X50599D01*
X50587Y17875D01*
X50639Y17943D01*
X50676Y18031D01*
X50688Y18125D01*
Y18325D01*
X50676Y18419D01*
X50639Y18507D01*
X50582Y18582D01*
X50507Y18639D01*
X50419Y18676D01*
X50325Y18688D01*
X50231Y18676D01*
X50143Y18639D01*
X50068Y18582D01*
X50011Y18507D01*
X49974Y18419D01*
X49962Y18325D01*
Y18125D01*
X49974Y18031D01*
X50011Y17943D01*
X50063Y17875D01*
X50051Y17825D01*
X49599D01*
X49587Y17875D01*
X49639Y17943D01*
X49676Y18031D01*
X49688Y18125D01*
Y18325D01*
X49676Y18419D01*
X49639Y18507D01*
X49582Y18582D01*
X49507Y18639D01*
X49419Y18676D01*
X49325Y18688D01*
X49231Y18676D01*
X49143Y18639D01*
X49068Y18582D01*
X49011Y18507D01*
X48974Y18419D01*
X48962Y18325D01*
Y18125D01*
X48974Y18031D01*
X49011Y17943D01*
X49063Y17875D01*
X49051Y17825D01*
X48599D01*
X48587Y17875D01*
X48639Y17943D01*
X48676Y18031D01*
X48688Y18125D01*
Y18325D01*
X48676Y18419D01*
X48639Y18507D01*
X48582Y18582D01*
X48507Y18639D01*
X48419Y18676D01*
X48325Y18688D01*
X48231Y18676D01*
X48143Y18639D01*
X48068Y18582D01*
X48011Y18507D01*
X47974Y18419D01*
X47962Y18325D01*
Y18125D01*
X47974Y18031D01*
X48011Y17943D01*
X48063Y17875D01*
X48051Y17825D01*
X47662D01*
X47637Y17875D01*
X47674Y17923D01*
X47715Y18021D01*
X47728Y18125D01*
Y18175D01*
X47325D01*
X46922D01*
Y18125D01*
X46935Y18021D01*
X46976Y17923D01*
X47013Y17875D01*
X46988Y17825D01*
X46662D01*
X46637Y17875D01*
X46674Y17923D01*
X46715Y18021D01*
X46728Y18125D01*
Y18175D01*
X46325D01*
X45922D01*
Y18125D01*
X45935Y18021D01*
X45976Y17923D01*
X46013Y17875D01*
X45988Y17825D01*
X45662D01*
X45637Y17875D01*
X45674Y17923D01*
X45715Y18021D01*
X45728Y18125D01*
Y18175D01*
X45325D01*
X44922D01*
Y18125D01*
X44935Y18021D01*
X44976Y17923D01*
X45013Y17875D01*
X44988Y17825D01*
X44662D01*
X44637Y17875D01*
X44674Y17923D01*
X44715Y18021D01*
X44728Y18125D01*
Y18175D01*
X44325D01*
X43922D01*
Y18125D01*
X43935Y18021D01*
X43976Y17923D01*
X44013Y17875D01*
X43988Y17825D01*
X43599D01*
X43587Y17875D01*
X43639Y17943D01*
X43676Y18031D01*
X43688Y18125D01*
Y18325D01*
X43676Y18419D01*
X43639Y18507D01*
X43582Y18582D01*
X43507Y18639D01*
X43419Y18676D01*
X43325Y18688D01*
X43231Y18676D01*
X43143Y18639D01*
X43068Y18582D01*
X43011Y18507D01*
X42974Y18419D01*
X42962Y18325D01*
Y18125D01*
X42974Y18031D01*
X43011Y17943D01*
X43063Y17875D01*
X43051Y17825D01*
X42599D01*
X42587Y17875D01*
X42639Y17943D01*
X42676Y18031D01*
X42688Y18125D01*
Y18325D01*
X42676Y18419D01*
X42639Y18507D01*
X42582Y18582D01*
X42507Y18639D01*
X42419Y18676D01*
X42325Y18688D01*
X42231Y18676D01*
X42143Y18639D01*
X42068Y18582D01*
X42011Y18507D01*
X41974Y18419D01*
X41962Y18325D01*
Y18125D01*
X41974Y18031D01*
X42011Y17943D01*
X42063Y17875D01*
X42051Y17825D01*
X41599D01*
X41587Y17875D01*
X41639Y17943D01*
X41676Y18031D01*
X41688Y18125D01*
Y18325D01*
X41676Y18419D01*
X41639Y18507D01*
X41582Y18582D01*
X41507Y18639D01*
X41419Y18676D01*
X41325Y18688D01*
X41231Y18676D01*
X41143Y18639D01*
X41068Y18582D01*
X41011Y18507D01*
X40974Y18419D01*
X40962Y18325D01*
Y18125D01*
X40974Y18031D01*
X41011Y17943D01*
X41063Y17875D01*
X41051Y17825D01*
X40709D01*
X40685Y17865D01*
X40685Y17875D01*
Y18585D01*
X39965D01*
Y17875D01*
X39965Y17865D01*
X39941Y17825D01*
X37675D01*
X37425Y18075D01*
Y30325D01*
X37675Y30575D01*
X53175D01*
X53425Y30325D01*
D02*
G37*
G36*
X36225D02*
Y18075D01*
X35975Y17825D01*
X34399D01*
X34387Y17875D01*
X34439Y17943D01*
X34476Y18031D01*
X34488Y18125D01*
Y18325D01*
X34476Y18419D01*
X34439Y18507D01*
X34382Y18582D01*
X34307Y18639D01*
X34219Y18676D01*
X34125Y18688D01*
X34031Y18676D01*
X33943Y18639D01*
X33868Y18582D01*
X33811Y18507D01*
X33774Y18419D01*
X33762Y18325D01*
Y18125D01*
X33774Y18031D01*
X33811Y17943D01*
X33863Y17875D01*
X33851Y17825D01*
X33399D01*
X33387Y17875D01*
X33439Y17943D01*
X33476Y18031D01*
X33488Y18125D01*
Y18325D01*
X33476Y18419D01*
X33439Y18507D01*
X33382Y18582D01*
X33307Y18639D01*
X33219Y18676D01*
X33125Y18688D01*
X33031Y18676D01*
X32943Y18639D01*
X32868Y18582D01*
X32811Y18507D01*
X32774Y18419D01*
X32762Y18325D01*
Y18125D01*
X32774Y18031D01*
X32811Y17943D01*
X32863Y17875D01*
X32851Y17825D01*
X32399D01*
X32387Y17875D01*
X32439Y17943D01*
X32476Y18031D01*
X32488Y18125D01*
Y18325D01*
X32476Y18419D01*
X32439Y18507D01*
X32382Y18582D01*
X32307Y18639D01*
X32219Y18676D01*
X32125Y18688D01*
X32031Y18676D01*
X31943Y18639D01*
X31868Y18582D01*
X31811Y18507D01*
X31774Y18419D01*
X31762Y18325D01*
Y18125D01*
X31774Y18031D01*
X31811Y17943D01*
X31863Y17875D01*
X31851Y17825D01*
X31399D01*
X31387Y17875D01*
X31439Y17943D01*
X31476Y18031D01*
X31488Y18125D01*
Y18325D01*
X31476Y18419D01*
X31439Y18507D01*
X31382Y18582D01*
X31307Y18639D01*
X31219Y18676D01*
X31125Y18688D01*
X31031Y18676D01*
X30943Y18639D01*
X30868Y18582D01*
X30811Y18507D01*
X30774Y18419D01*
X30762Y18325D01*
Y18125D01*
X30774Y18031D01*
X30811Y17943D01*
X30863Y17875D01*
X30851Y17825D01*
X30462D01*
X30437Y17875D01*
X30474Y17923D01*
X30515Y18021D01*
X30528Y18125D01*
Y18175D01*
X30125D01*
X29722D01*
Y18125D01*
X29735Y18021D01*
X29776Y17923D01*
X29813Y17875D01*
X29788Y17825D01*
X29462D01*
X29437Y17875D01*
X29474Y17923D01*
X29515Y18021D01*
X29528Y18125D01*
Y18175D01*
X29125D01*
X28722D01*
Y18125D01*
X28735Y18021D01*
X28776Y17923D01*
X28813Y17875D01*
X28788Y17825D01*
X28462D01*
X28437Y17875D01*
X28474Y17923D01*
X28515Y18021D01*
X28528Y18125D01*
Y18175D01*
X28125D01*
X27722D01*
Y18125D01*
X27735Y18021D01*
X27776Y17923D01*
X27813Y17875D01*
X27788Y17825D01*
X27462D01*
X27437Y17875D01*
X27474Y17923D01*
X27515Y18021D01*
X27528Y18125D01*
Y18175D01*
X27125D01*
X26722D01*
Y18125D01*
X26735Y18021D01*
X26776Y17923D01*
X26813Y17875D01*
X26788Y17825D01*
X26399D01*
X26387Y17875D01*
X26439Y17943D01*
X26476Y18031D01*
X26488Y18125D01*
Y18325D01*
X26476Y18419D01*
X26439Y18507D01*
X26382Y18582D01*
X26307Y18639D01*
X26219Y18676D01*
X26125Y18688D01*
X26031Y18676D01*
X25943Y18639D01*
X25868Y18582D01*
X25811Y18507D01*
X25774Y18419D01*
X25762Y18325D01*
Y18125D01*
X25774Y18031D01*
X25811Y17943D01*
X25863Y17875D01*
X25851Y17825D01*
X25399D01*
X25387Y17875D01*
X25439Y17943D01*
X25476Y18031D01*
X25488Y18125D01*
Y18325D01*
X25476Y18419D01*
X25439Y18507D01*
X25382Y18582D01*
X25307Y18639D01*
X25219Y18676D01*
X25125Y18688D01*
X25031Y18676D01*
X24943Y18639D01*
X24868Y18582D01*
X24811Y18507D01*
X24774Y18419D01*
X24762Y18325D01*
Y18125D01*
X24774Y18031D01*
X24811Y17943D01*
X24863Y17875D01*
X24851Y17825D01*
X24399D01*
X24387Y17875D01*
X24439Y17943D01*
X24476Y18031D01*
X24488Y18125D01*
Y18325D01*
X24476Y18419D01*
X24439Y18507D01*
X24382Y18582D01*
X24307Y18639D01*
X24219Y18676D01*
X24125Y18688D01*
X24031Y18676D01*
X23943Y18639D01*
X23868Y18582D01*
X23811Y18507D01*
X23774Y18419D01*
X23762Y18325D01*
Y18125D01*
X23774Y18031D01*
X23811Y17943D01*
X23863Y17875D01*
X23851Y17825D01*
X23509D01*
X23485Y17865D01*
X23485Y17875D01*
Y18585D01*
X22765D01*
Y17875D01*
X22765Y17865D01*
X22741Y17825D01*
X20475D01*
X20225Y18075D01*
Y30325D01*
X20475Y30575D01*
X35975D01*
X36225Y30325D01*
D02*
G37*
G36*
X19025D02*
Y18075D01*
X18775Y17825D01*
X17199D01*
X17187Y17875D01*
X17239Y17943D01*
X17276Y18031D01*
X17288Y18125D01*
Y18325D01*
X17276Y18419D01*
X17239Y18507D01*
X17182Y18582D01*
X17107Y18639D01*
X17019Y18676D01*
X16925Y18688D01*
X16831Y18676D01*
X16743Y18639D01*
X16668Y18582D01*
X16611Y18507D01*
X16574Y18419D01*
X16562Y18325D01*
Y18125D01*
X16574Y18031D01*
X16611Y17943D01*
X16663Y17875D01*
X16651Y17825D01*
X16199D01*
X16187Y17875D01*
X16239Y17943D01*
X16276Y18031D01*
X16288Y18125D01*
Y18325D01*
X16276Y18419D01*
X16239Y18507D01*
X16182Y18582D01*
X16107Y18639D01*
X16019Y18676D01*
X15925Y18688D01*
X15831Y18676D01*
X15743Y18639D01*
X15668Y18582D01*
X15611Y18507D01*
X15574Y18419D01*
X15562Y18325D01*
Y18125D01*
X15574Y18031D01*
X15611Y17943D01*
X15663Y17875D01*
X15651Y17825D01*
X15199D01*
X15187Y17875D01*
X15239Y17943D01*
X15276Y18031D01*
X15288Y18125D01*
Y18325D01*
X15276Y18419D01*
X15239Y18507D01*
X15182Y18582D01*
X15107Y18639D01*
X15019Y18676D01*
X14925Y18688D01*
X14831Y18676D01*
X14743Y18639D01*
X14668Y18582D01*
X14611Y18507D01*
X14574Y18419D01*
X14562Y18325D01*
Y18125D01*
X14574Y18031D01*
X14611Y17943D01*
X14663Y17875D01*
X14651Y17825D01*
X14199D01*
X14187Y17875D01*
X14239Y17943D01*
X14276Y18031D01*
X14288Y18125D01*
Y18325D01*
X14276Y18419D01*
X14239Y18507D01*
X14182Y18582D01*
X14107Y18639D01*
X14019Y18676D01*
X13925Y18688D01*
X13831Y18676D01*
X13743Y18639D01*
X13668Y18582D01*
X13611Y18507D01*
X13574Y18419D01*
X13562Y18325D01*
Y18125D01*
X13574Y18031D01*
X13611Y17943D01*
X13663Y17875D01*
X13651Y17825D01*
X13262D01*
X13237Y17875D01*
X13274Y17923D01*
X13315Y18021D01*
X13328Y18125D01*
Y18175D01*
X12925D01*
X12522D01*
Y18125D01*
X12535Y18021D01*
X12576Y17923D01*
X12613Y17875D01*
X12588Y17825D01*
X12262D01*
X12237Y17875D01*
X12274Y17923D01*
X12315Y18021D01*
X12328Y18125D01*
Y18175D01*
X11925D01*
X11522D01*
Y18125D01*
X11535Y18021D01*
X11576Y17923D01*
X11613Y17875D01*
X11588Y17825D01*
X11262D01*
X11237Y17875D01*
X11274Y17923D01*
X11315Y18021D01*
X11328Y18125D01*
Y18175D01*
X10925D01*
X10522D01*
Y18125D01*
X10535Y18021D01*
X10576Y17923D01*
X10613Y17875D01*
X10588Y17825D01*
X10262D01*
X10237Y17875D01*
X10274Y17923D01*
X10315Y18021D01*
X10328Y18125D01*
Y18175D01*
X9925D01*
X9522D01*
Y18125D01*
X9535Y18021D01*
X9576Y17923D01*
X9613Y17875D01*
X9588Y17825D01*
X9199D01*
X9187Y17875D01*
X9239Y17943D01*
X9276Y18031D01*
X9288Y18125D01*
Y18325D01*
X9276Y18419D01*
X9239Y18507D01*
X9182Y18582D01*
X9107Y18639D01*
X9019Y18676D01*
X8925Y18688D01*
X8831Y18676D01*
X8743Y18639D01*
X8668Y18582D01*
X8611Y18507D01*
X8574Y18419D01*
X8562Y18325D01*
Y18125D01*
X8574Y18031D01*
X8611Y17943D01*
X8663Y17875D01*
X8651Y17825D01*
X8199D01*
X8187Y17875D01*
X8239Y17943D01*
X8276Y18031D01*
X8288Y18125D01*
Y18325D01*
X8276Y18419D01*
X8239Y18507D01*
X8182Y18582D01*
X8107Y18639D01*
X8019Y18676D01*
X7925Y18688D01*
X7831Y18676D01*
X7743Y18639D01*
X7668Y18582D01*
X7611Y18507D01*
X7574Y18419D01*
X7562Y18325D01*
Y18125D01*
X7574Y18031D01*
X7611Y17943D01*
X7663Y17875D01*
X7651Y17825D01*
X7199D01*
X7187Y17875D01*
X7239Y17943D01*
X7276Y18031D01*
X7288Y18125D01*
Y18325D01*
X7276Y18419D01*
X7239Y18507D01*
X7182Y18582D01*
X7107Y18639D01*
X7019Y18676D01*
X6925Y18688D01*
X6831Y18676D01*
X6743Y18639D01*
X6668Y18582D01*
X6611Y18507D01*
X6574Y18419D01*
X6562Y18325D01*
Y18125D01*
X6574Y18031D01*
X6611Y17943D01*
X6663Y17875D01*
X6651Y17825D01*
X6309D01*
X6285Y17865D01*
X6285Y17875D01*
Y18585D01*
X5565D01*
Y17875D01*
X5565Y17865D01*
X5541Y17825D01*
X3275D01*
X3025Y18075D01*
Y30325D01*
X3275Y30575D01*
X18775D01*
X19025Y30325D01*
D02*
G37*
G36*
X70625Y15525D02*
Y3275D01*
X70375Y3025D01*
X68799D01*
X68787Y3075D01*
X68839Y3143D01*
X68876Y3231D01*
X68888Y3325D01*
Y3525D01*
X68876Y3619D01*
X68839Y3707D01*
X68782Y3782D01*
X68707Y3839D01*
X68619Y3876D01*
X68525Y3888D01*
X68431Y3876D01*
X68343Y3839D01*
X68268Y3782D01*
X68211Y3707D01*
X68174Y3619D01*
X68162Y3525D01*
Y3325D01*
X68174Y3231D01*
X68211Y3143D01*
X68263Y3075D01*
X68251Y3025D01*
X67799D01*
X67787Y3075D01*
X67839Y3143D01*
X67876Y3231D01*
X67888Y3325D01*
Y3525D01*
X67876Y3619D01*
X67839Y3707D01*
X67782Y3782D01*
X67707Y3839D01*
X67619Y3876D01*
X67525Y3888D01*
X67431Y3876D01*
X67343Y3839D01*
X67268Y3782D01*
X67211Y3707D01*
X67174Y3619D01*
X67162Y3525D01*
Y3325D01*
X67174Y3231D01*
X67211Y3143D01*
X67263Y3075D01*
X67251Y3025D01*
X66799D01*
X66787Y3075D01*
X66839Y3143D01*
X66876Y3231D01*
X66888Y3325D01*
Y3525D01*
X66876Y3619D01*
X66839Y3707D01*
X66782Y3782D01*
X66707Y3839D01*
X66619Y3876D01*
X66525Y3888D01*
X66431Y3876D01*
X66343Y3839D01*
X66268Y3782D01*
X66211Y3707D01*
X66174Y3619D01*
X66162Y3525D01*
Y3325D01*
X66174Y3231D01*
X66211Y3143D01*
X66263Y3075D01*
X66251Y3025D01*
X65799D01*
X65787Y3075D01*
X65839Y3143D01*
X65876Y3231D01*
X65888Y3325D01*
Y3525D01*
X65876Y3619D01*
X65839Y3707D01*
X65782Y3782D01*
X65707Y3839D01*
X65619Y3876D01*
X65525Y3888D01*
X65431Y3876D01*
X65343Y3839D01*
X65268Y3782D01*
X65211Y3707D01*
X65174Y3619D01*
X65162Y3525D01*
Y3325D01*
X65174Y3231D01*
X65211Y3143D01*
X65263Y3075D01*
X65251Y3025D01*
X64862D01*
X64837Y3075D01*
X64874Y3123D01*
X64915Y3221D01*
X64928Y3325D01*
Y3375D01*
X64525D01*
X64122D01*
Y3325D01*
X64135Y3221D01*
X64176Y3123D01*
X64213Y3075D01*
X64188Y3025D01*
X63862D01*
X63837Y3075D01*
X63874Y3123D01*
X63915Y3221D01*
X63928Y3325D01*
Y3375D01*
X63525D01*
X63122D01*
Y3325D01*
X63135Y3221D01*
X63176Y3123D01*
X63213Y3075D01*
X63188Y3025D01*
X62862D01*
X62837Y3075D01*
X62874Y3123D01*
X62915Y3221D01*
X62928Y3325D01*
Y3375D01*
X62525D01*
X62122D01*
Y3325D01*
X62135Y3221D01*
X62176Y3123D01*
X62213Y3075D01*
X62188Y3025D01*
X61862D01*
X61837Y3075D01*
X61874Y3123D01*
X61915Y3221D01*
X61928Y3325D01*
Y3375D01*
X61525D01*
X61122D01*
Y3325D01*
X61135Y3221D01*
X61176Y3123D01*
X61213Y3075D01*
X61188Y3025D01*
X60799D01*
X60787Y3075D01*
X60839Y3143D01*
X60876Y3231D01*
X60888Y3325D01*
Y3525D01*
X60876Y3619D01*
X60839Y3707D01*
X60782Y3782D01*
X60707Y3839D01*
X60619Y3876D01*
X60525Y3888D01*
X60431Y3876D01*
X60343Y3839D01*
X60268Y3782D01*
X60211Y3707D01*
X60174Y3619D01*
X60162Y3525D01*
Y3325D01*
X60174Y3231D01*
X60211Y3143D01*
X60263Y3075D01*
X60251Y3025D01*
X59799D01*
X59787Y3075D01*
X59839Y3143D01*
X59876Y3231D01*
X59888Y3325D01*
Y3525D01*
X59876Y3619D01*
X59839Y3707D01*
X59782Y3782D01*
X59707Y3839D01*
X59619Y3876D01*
X59525Y3888D01*
X59431Y3876D01*
X59343Y3839D01*
X59268Y3782D01*
X59211Y3707D01*
X59174Y3619D01*
X59162Y3525D01*
Y3325D01*
X59174Y3231D01*
X59211Y3143D01*
X59263Y3075D01*
X59251Y3025D01*
X58799D01*
X58787Y3075D01*
X58839Y3143D01*
X58876Y3231D01*
X58888Y3325D01*
Y3525D01*
X58876Y3619D01*
X58839Y3707D01*
X58782Y3782D01*
X58707Y3839D01*
X58619Y3876D01*
X58525Y3888D01*
X58431Y3876D01*
X58343Y3839D01*
X58268Y3782D01*
X58211Y3707D01*
X58174Y3619D01*
X58162Y3525D01*
Y3325D01*
X58174Y3231D01*
X58211Y3143D01*
X58263Y3075D01*
X58251Y3025D01*
X57909D01*
X57885Y3065D01*
X57885Y3075D01*
Y3785D01*
X57165D01*
Y3075D01*
X57165Y3065D01*
X57141Y3025D01*
X54875D01*
X54625Y3275D01*
Y15525D01*
X54875Y15775D01*
X70375D01*
X70625Y15525D01*
D02*
G37*
G36*
X53425D02*
Y3275D01*
X53175Y3025D01*
X51599D01*
X51587Y3075D01*
X51639Y3143D01*
X51676Y3231D01*
X51688Y3325D01*
Y3525D01*
X51676Y3619D01*
X51639Y3707D01*
X51582Y3782D01*
X51507Y3839D01*
X51419Y3876D01*
X51325Y3888D01*
X51231Y3876D01*
X51143Y3839D01*
X51068Y3782D01*
X51011Y3707D01*
X50974Y3619D01*
X50962Y3525D01*
Y3325D01*
X50974Y3231D01*
X51011Y3143D01*
X51063Y3075D01*
X51051Y3025D01*
X50599D01*
X50587Y3075D01*
X50639Y3143D01*
X50676Y3231D01*
X50688Y3325D01*
Y3525D01*
X50676Y3619D01*
X50639Y3707D01*
X50582Y3782D01*
X50507Y3839D01*
X50419Y3876D01*
X50325Y3888D01*
X50231Y3876D01*
X50143Y3839D01*
X50068Y3782D01*
X50011Y3707D01*
X49974Y3619D01*
X49962Y3525D01*
Y3325D01*
X49974Y3231D01*
X50011Y3143D01*
X50063Y3075D01*
X50051Y3025D01*
X49599D01*
X49587Y3075D01*
X49639Y3143D01*
X49676Y3231D01*
X49688Y3325D01*
Y3525D01*
X49676Y3619D01*
X49639Y3707D01*
X49582Y3782D01*
X49507Y3839D01*
X49419Y3876D01*
X49325Y3888D01*
X49231Y3876D01*
X49143Y3839D01*
X49068Y3782D01*
X49011Y3707D01*
X48974Y3619D01*
X48962Y3525D01*
Y3325D01*
X48974Y3231D01*
X49011Y3143D01*
X49063Y3075D01*
X49051Y3025D01*
X48599D01*
X48587Y3075D01*
X48639Y3143D01*
X48676Y3231D01*
X48688Y3325D01*
Y3525D01*
X48676Y3619D01*
X48639Y3707D01*
X48582Y3782D01*
X48507Y3839D01*
X48419Y3876D01*
X48325Y3888D01*
X48231Y3876D01*
X48143Y3839D01*
X48068Y3782D01*
X48011Y3707D01*
X47974Y3619D01*
X47962Y3525D01*
Y3325D01*
X47974Y3231D01*
X48011Y3143D01*
X48063Y3075D01*
X48051Y3025D01*
X47662D01*
X47637Y3075D01*
X47674Y3123D01*
X47715Y3221D01*
X47728Y3325D01*
Y3375D01*
X47325D01*
X46922D01*
Y3325D01*
X46935Y3221D01*
X46976Y3123D01*
X47013Y3075D01*
X46988Y3025D01*
X46662D01*
X46637Y3075D01*
X46674Y3123D01*
X46715Y3221D01*
X46728Y3325D01*
Y3375D01*
X46325D01*
X45922D01*
Y3325D01*
X45935Y3221D01*
X45976Y3123D01*
X46013Y3075D01*
X45988Y3025D01*
X45662D01*
X45637Y3075D01*
X45674Y3123D01*
X45715Y3221D01*
X45728Y3325D01*
Y3375D01*
X45325D01*
X44922D01*
Y3325D01*
X44935Y3221D01*
X44976Y3123D01*
X45013Y3075D01*
X44988Y3025D01*
X44662D01*
X44637Y3075D01*
X44674Y3123D01*
X44715Y3221D01*
X44728Y3325D01*
Y3375D01*
X44325D01*
X43922D01*
Y3325D01*
X43935Y3221D01*
X43976Y3123D01*
X44013Y3075D01*
X43988Y3025D01*
X43599D01*
X43587Y3075D01*
X43639Y3143D01*
X43676Y3231D01*
X43688Y3325D01*
Y3525D01*
X43676Y3619D01*
X43639Y3707D01*
X43582Y3782D01*
X43507Y3839D01*
X43419Y3876D01*
X43325Y3888D01*
X43231Y3876D01*
X43143Y3839D01*
X43068Y3782D01*
X43011Y3707D01*
X42974Y3619D01*
X42962Y3525D01*
Y3325D01*
X42974Y3231D01*
X43011Y3143D01*
X43063Y3075D01*
X43051Y3025D01*
X42599D01*
X42587Y3075D01*
X42639Y3143D01*
X42676Y3231D01*
X42688Y3325D01*
Y3525D01*
X42676Y3619D01*
X42639Y3707D01*
X42582Y3782D01*
X42507Y3839D01*
X42419Y3876D01*
X42325Y3888D01*
X42231Y3876D01*
X42143Y3839D01*
X42068Y3782D01*
X42011Y3707D01*
X41974Y3619D01*
X41962Y3525D01*
Y3325D01*
X41974Y3231D01*
X42011Y3143D01*
X42063Y3075D01*
X42051Y3025D01*
X41599D01*
X41587Y3075D01*
X41639Y3143D01*
X41676Y3231D01*
X41688Y3325D01*
Y3525D01*
X41676Y3619D01*
X41639Y3707D01*
X41582Y3782D01*
X41507Y3839D01*
X41419Y3876D01*
X41325Y3888D01*
X41231Y3876D01*
X41143Y3839D01*
X41068Y3782D01*
X41011Y3707D01*
X40974Y3619D01*
X40962Y3525D01*
Y3325D01*
X40974Y3231D01*
X41011Y3143D01*
X41063Y3075D01*
X41051Y3025D01*
X40709D01*
X40685Y3065D01*
X40685Y3075D01*
Y3785D01*
X39965D01*
Y3075D01*
X39965Y3065D01*
X39941Y3025D01*
X37675D01*
X37425Y3275D01*
Y15525D01*
X37675Y15775D01*
X53175D01*
X53425Y15525D01*
D02*
G37*
G36*
X36225D02*
Y3275D01*
X35975Y3025D01*
X34399D01*
X34387Y3075D01*
X34439Y3143D01*
X34476Y3231D01*
X34488Y3325D01*
Y3525D01*
X34476Y3619D01*
X34439Y3707D01*
X34382Y3782D01*
X34307Y3839D01*
X34219Y3876D01*
X34125Y3888D01*
X34031Y3876D01*
X33943Y3839D01*
X33868Y3782D01*
X33811Y3707D01*
X33774Y3619D01*
X33762Y3525D01*
Y3325D01*
X33774Y3231D01*
X33811Y3143D01*
X33863Y3075D01*
X33851Y3025D01*
X33399D01*
X33387Y3075D01*
X33439Y3143D01*
X33476Y3231D01*
X33488Y3325D01*
Y3525D01*
X33476Y3619D01*
X33439Y3707D01*
X33382Y3782D01*
X33307Y3839D01*
X33219Y3876D01*
X33125Y3888D01*
X33031Y3876D01*
X32943Y3839D01*
X32868Y3782D01*
X32811Y3707D01*
X32774Y3619D01*
X32762Y3525D01*
Y3325D01*
X32774Y3231D01*
X32811Y3143D01*
X32863Y3075D01*
X32851Y3025D01*
X32399D01*
X32387Y3075D01*
X32439Y3143D01*
X32476Y3231D01*
X32488Y3325D01*
Y3525D01*
X32476Y3619D01*
X32439Y3707D01*
X32382Y3782D01*
X32307Y3839D01*
X32219Y3876D01*
X32125Y3888D01*
X32031Y3876D01*
X31943Y3839D01*
X31868Y3782D01*
X31811Y3707D01*
X31774Y3619D01*
X31762Y3525D01*
Y3325D01*
X31774Y3231D01*
X31811Y3143D01*
X31863Y3075D01*
X31851Y3025D01*
X31399D01*
X31387Y3075D01*
X31439Y3143D01*
X31476Y3231D01*
X31488Y3325D01*
Y3525D01*
X31476Y3619D01*
X31439Y3707D01*
X31382Y3782D01*
X31307Y3839D01*
X31219Y3876D01*
X31125Y3888D01*
X31031Y3876D01*
X30943Y3839D01*
X30868Y3782D01*
X30811Y3707D01*
X30774Y3619D01*
X30762Y3525D01*
Y3325D01*
X30774Y3231D01*
X30811Y3143D01*
X30863Y3075D01*
X30851Y3025D01*
X30462D01*
X30437Y3075D01*
X30474Y3123D01*
X30515Y3221D01*
X30528Y3325D01*
Y3375D01*
X30125D01*
X29722D01*
Y3325D01*
X29735Y3221D01*
X29776Y3123D01*
X29813Y3075D01*
X29788Y3025D01*
X29462D01*
X29437Y3075D01*
X29474Y3123D01*
X29515Y3221D01*
X29528Y3325D01*
Y3375D01*
X29125D01*
X28722D01*
Y3325D01*
X28735Y3221D01*
X28776Y3123D01*
X28813Y3075D01*
X28788Y3025D01*
X28462D01*
X28437Y3075D01*
X28474Y3123D01*
X28515Y3221D01*
X28528Y3325D01*
Y3375D01*
X28125D01*
X27722D01*
Y3325D01*
X27735Y3221D01*
X27776Y3123D01*
X27813Y3075D01*
X27788Y3025D01*
X27462D01*
X27437Y3075D01*
X27474Y3123D01*
X27515Y3221D01*
X27528Y3325D01*
Y3375D01*
X27125D01*
X26722D01*
Y3325D01*
X26735Y3221D01*
X26776Y3123D01*
X26813Y3075D01*
X26788Y3025D01*
X26399D01*
X26387Y3075D01*
X26439Y3143D01*
X26476Y3231D01*
X26488Y3325D01*
Y3525D01*
X26476Y3619D01*
X26439Y3707D01*
X26382Y3782D01*
X26307Y3839D01*
X26219Y3876D01*
X26125Y3888D01*
X26031Y3876D01*
X25943Y3839D01*
X25868Y3782D01*
X25811Y3707D01*
X25774Y3619D01*
X25762Y3525D01*
Y3325D01*
X25774Y3231D01*
X25811Y3143D01*
X25863Y3075D01*
X25851Y3025D01*
X25399D01*
X25387Y3075D01*
X25439Y3143D01*
X25476Y3231D01*
X25488Y3325D01*
Y3525D01*
X25476Y3619D01*
X25439Y3707D01*
X25382Y3782D01*
X25307Y3839D01*
X25219Y3876D01*
X25125Y3888D01*
X25031Y3876D01*
X24943Y3839D01*
X24868Y3782D01*
X24811Y3707D01*
X24774Y3619D01*
X24762Y3525D01*
Y3325D01*
X24774Y3231D01*
X24811Y3143D01*
X24863Y3075D01*
X24851Y3025D01*
X24399D01*
X24387Y3075D01*
X24439Y3143D01*
X24476Y3231D01*
X24488Y3325D01*
Y3525D01*
X24476Y3619D01*
X24439Y3707D01*
X24382Y3782D01*
X24307Y3839D01*
X24219Y3876D01*
X24125Y3888D01*
X24031Y3876D01*
X23943Y3839D01*
X23868Y3782D01*
X23811Y3707D01*
X23774Y3619D01*
X23762Y3525D01*
Y3325D01*
X23774Y3231D01*
X23811Y3143D01*
X23863Y3075D01*
X23851Y3025D01*
X23509D01*
X23485Y3065D01*
X23485Y3075D01*
Y3785D01*
X22765D01*
Y3075D01*
X22765Y3065D01*
X22741Y3025D01*
X20475D01*
X20225Y3275D01*
Y15525D01*
X20475Y15775D01*
X35975D01*
X36225Y15525D01*
D02*
G37*
G36*
X19025D02*
Y3275D01*
X18775Y3025D01*
X17199D01*
X17187Y3075D01*
X17239Y3143D01*
X17276Y3231D01*
X17288Y3325D01*
Y3525D01*
X17276Y3619D01*
X17239Y3707D01*
X17182Y3782D01*
X17107Y3839D01*
X17019Y3876D01*
X16925Y3888D01*
X16831Y3876D01*
X16743Y3839D01*
X16668Y3782D01*
X16611Y3707D01*
X16574Y3619D01*
X16562Y3525D01*
Y3325D01*
X16574Y3231D01*
X16611Y3143D01*
X16663Y3075D01*
X16651Y3025D01*
X16199D01*
X16187Y3075D01*
X16239Y3143D01*
X16276Y3231D01*
X16288Y3325D01*
Y3525D01*
X16276Y3619D01*
X16239Y3707D01*
X16182Y3782D01*
X16107Y3839D01*
X16019Y3876D01*
X15925Y3888D01*
X15831Y3876D01*
X15743Y3839D01*
X15668Y3782D01*
X15611Y3707D01*
X15574Y3619D01*
X15562Y3525D01*
Y3325D01*
X15574Y3231D01*
X15611Y3143D01*
X15663Y3075D01*
X15651Y3025D01*
X15199D01*
X15187Y3075D01*
X15239Y3143D01*
X15276Y3231D01*
X15288Y3325D01*
Y3525D01*
X15276Y3619D01*
X15239Y3707D01*
X15182Y3782D01*
X15107Y3839D01*
X15019Y3876D01*
X14925Y3888D01*
X14831Y3876D01*
X14743Y3839D01*
X14668Y3782D01*
X14611Y3707D01*
X14574Y3619D01*
X14562Y3525D01*
Y3325D01*
X14574Y3231D01*
X14611Y3143D01*
X14663Y3075D01*
X14651Y3025D01*
X14199D01*
X14187Y3075D01*
X14239Y3143D01*
X14276Y3231D01*
X14288Y3325D01*
Y3525D01*
X14276Y3619D01*
X14239Y3707D01*
X14182Y3782D01*
X14107Y3839D01*
X14019Y3876D01*
X13925Y3888D01*
X13831Y3876D01*
X13743Y3839D01*
X13668Y3782D01*
X13611Y3707D01*
X13574Y3619D01*
X13562Y3525D01*
Y3325D01*
X13574Y3231D01*
X13611Y3143D01*
X13663Y3075D01*
X13651Y3025D01*
X13262D01*
X13237Y3075D01*
X13274Y3123D01*
X13315Y3221D01*
X13328Y3325D01*
Y3375D01*
X12925D01*
X12522D01*
Y3325D01*
X12535Y3221D01*
X12576Y3123D01*
X12613Y3075D01*
X12588Y3025D01*
X12262D01*
X12237Y3075D01*
X12274Y3123D01*
X12315Y3221D01*
X12328Y3325D01*
Y3375D01*
X11925D01*
X11522D01*
Y3325D01*
X11535Y3221D01*
X11576Y3123D01*
X11613Y3075D01*
X11588Y3025D01*
X11262D01*
X11237Y3075D01*
X11274Y3123D01*
X11315Y3221D01*
X11328Y3325D01*
Y3375D01*
X10925D01*
X10522D01*
Y3325D01*
X10535Y3221D01*
X10576Y3123D01*
X10613Y3075D01*
X10588Y3025D01*
X10262D01*
X10237Y3075D01*
X10274Y3123D01*
X10315Y3221D01*
X10328Y3325D01*
Y3375D01*
X9925D01*
X9522D01*
Y3325D01*
X9535Y3221D01*
X9576Y3123D01*
X9613Y3075D01*
X9588Y3025D01*
X9199D01*
X9187Y3075D01*
X9239Y3143D01*
X9276Y3231D01*
X9288Y3325D01*
Y3525D01*
X9276Y3619D01*
X9239Y3707D01*
X9182Y3782D01*
X9107Y3839D01*
X9019Y3876D01*
X8925Y3888D01*
X8831Y3876D01*
X8743Y3839D01*
X8668Y3782D01*
X8611Y3707D01*
X8574Y3619D01*
X8562Y3525D01*
Y3325D01*
X8574Y3231D01*
X8611Y3143D01*
X8663Y3075D01*
X8651Y3025D01*
X8199D01*
X8187Y3075D01*
X8239Y3143D01*
X8276Y3231D01*
X8288Y3325D01*
Y3525D01*
X8276Y3619D01*
X8239Y3707D01*
X8182Y3782D01*
X8107Y3839D01*
X8019Y3876D01*
X7925Y3888D01*
X7831Y3876D01*
X7743Y3839D01*
X7668Y3782D01*
X7611Y3707D01*
X7574Y3619D01*
X7562Y3525D01*
Y3325D01*
X7574Y3231D01*
X7611Y3143D01*
X7663Y3075D01*
X7651Y3025D01*
X7199D01*
X7187Y3075D01*
X7239Y3143D01*
X7276Y3231D01*
X7288Y3325D01*
Y3525D01*
X7276Y3619D01*
X7239Y3707D01*
X7182Y3782D01*
X7107Y3839D01*
X7019Y3876D01*
X6925Y3888D01*
X6831Y3876D01*
X6743Y3839D01*
X6668Y3782D01*
X6611Y3707D01*
X6574Y3619D01*
X6562Y3525D01*
Y3325D01*
X6574Y3231D01*
X6611Y3143D01*
X6663Y3075D01*
X6651Y3025D01*
X6309D01*
X6285Y3065D01*
X6285Y3075D01*
Y3785D01*
X5565D01*
Y3075D01*
X5565Y3065D01*
X5541Y3025D01*
X3275D01*
X3025Y3275D01*
Y15525D01*
X3275Y15775D01*
X18775D01*
X19025Y15525D01*
D02*
G37*
%LPC*%
G36*
X66875Y57889D02*
X66793Y57873D01*
X66724Y57826D01*
X66677Y57757D01*
X66661Y57675D01*
X66677Y57593D01*
X66724Y57524D01*
X66793Y57477D01*
X66875Y57461D01*
X66957Y57477D01*
X67026Y57524D01*
X67073Y57593D01*
X67089Y57675D01*
X67073Y57757D01*
X67026Y57826D01*
X66957Y57873D01*
X66875Y57889D01*
D02*
G37*
G36*
X66375D02*
X66293Y57873D01*
X66224Y57826D01*
X66177Y57757D01*
X66161Y57675D01*
X66177Y57593D01*
X66224Y57524D01*
X66293Y57477D01*
X66375Y57461D01*
X66457Y57477D01*
X66526Y57524D01*
X66573Y57593D01*
X66589Y57675D01*
X66573Y57757D01*
X66526Y57826D01*
X66457Y57873D01*
X66375Y57889D01*
D02*
G37*
G36*
X65375Y57639D02*
X65293Y57623D01*
X65224Y57576D01*
X65177Y57507D01*
X65161Y57425D01*
X65177Y57343D01*
X65224Y57274D01*
X65293Y57227D01*
X65375Y57211D01*
X65457Y57227D01*
X65526Y57274D01*
X65573Y57343D01*
X65589Y57425D01*
X65573Y57507D01*
X65526Y57576D01*
X65457Y57623D01*
X65375Y57639D01*
D02*
G37*
G36*
Y57139D02*
X65293Y57123D01*
X65224Y57076D01*
X65177Y57007D01*
X65161Y56925D01*
X65177Y56843D01*
X65224Y56774D01*
X65293Y56727D01*
X65375Y56711D01*
X65457Y56727D01*
X65526Y56774D01*
X65573Y56843D01*
X65589Y56925D01*
X65573Y57007D01*
X65526Y57076D01*
X65457Y57123D01*
X65375Y57139D01*
D02*
G37*
G36*
Y56639D02*
X65293Y56623D01*
X65224Y56576D01*
X65177Y56507D01*
X65161Y56425D01*
X65177Y56343D01*
X65224Y56274D01*
X65293Y56227D01*
X65375Y56211D01*
X65457Y56227D01*
X65526Y56274D01*
X65573Y56343D01*
X65589Y56425D01*
X65573Y56507D01*
X65526Y56576D01*
X65457Y56623D01*
X65375Y56639D01*
D02*
G37*
G36*
Y56139D02*
X65293Y56123D01*
X65224Y56076D01*
X65177Y56007D01*
X65161Y55925D01*
X65177Y55843D01*
X65224Y55774D01*
X65293Y55727D01*
X65375Y55711D01*
X65457Y55727D01*
X65526Y55774D01*
X65573Y55843D01*
X65589Y55925D01*
X65573Y56007D01*
X65526Y56076D01*
X65457Y56123D01*
X65375Y56139D01*
D02*
G37*
G36*
X66875Y55889D02*
X66793Y55873D01*
X66724Y55826D01*
X66677Y55757D01*
X66661Y55675D01*
X66677Y55593D01*
X66724Y55524D01*
X66793Y55477D01*
X66875Y55461D01*
X66957Y55477D01*
X67026Y55524D01*
X67073Y55593D01*
X67089Y55675D01*
X67073Y55757D01*
X67026Y55826D01*
X66957Y55873D01*
X66875Y55889D01*
D02*
G37*
G36*
X66375D02*
X66293Y55873D01*
X66224Y55826D01*
X66177Y55757D01*
X66161Y55675D01*
X66177Y55593D01*
X66224Y55524D01*
X66293Y55477D01*
X66375Y55461D01*
X66457Y55477D01*
X66526Y55524D01*
X66573Y55593D01*
X66589Y55675D01*
X66573Y55757D01*
X66526Y55826D01*
X66457Y55873D01*
X66375Y55889D01*
D02*
G37*
G36*
X66875Y53139D02*
X66793Y53123D01*
X66724Y53076D01*
X66677Y53007D01*
X66661Y52925D01*
X66677Y52843D01*
X66724Y52774D01*
X66793Y52727D01*
X66875Y52711D01*
X66957Y52727D01*
X67026Y52774D01*
X67073Y52843D01*
X67089Y52925D01*
X67073Y53007D01*
X67026Y53076D01*
X66957Y53123D01*
X66875Y53139D01*
D02*
G37*
G36*
X66375D02*
X66293Y53123D01*
X66224Y53076D01*
X66177Y53007D01*
X66161Y52925D01*
X66177Y52843D01*
X66224Y52774D01*
X66293Y52727D01*
X66375Y52711D01*
X66457Y52727D01*
X66526Y52774D01*
X66573Y52843D01*
X66589Y52925D01*
X66573Y53007D01*
X66526Y53076D01*
X66457Y53123D01*
X66375Y53139D01*
D02*
G37*
G36*
X62425Y51639D02*
X62343Y51623D01*
X62274Y51576D01*
X62227Y51507D01*
X62211Y51425D01*
X62227Y51343D01*
X62274Y51274D01*
X62343Y51227D01*
X62425Y51211D01*
X62507Y51227D01*
X62576Y51274D01*
X62623Y51343D01*
X62639Y51425D01*
X62623Y51507D01*
X62576Y51576D01*
X62507Y51623D01*
X62425Y51639D01*
D02*
G37*
G36*
X66875Y51139D02*
X66793Y51123D01*
X66724Y51076D01*
X66677Y51007D01*
X66661Y50925D01*
X66677Y50843D01*
X66724Y50774D01*
X66793Y50727D01*
X66875Y50711D01*
X66957Y50727D01*
X67026Y50774D01*
X67073Y50843D01*
X67089Y50925D01*
X67073Y51007D01*
X67026Y51076D01*
X66957Y51123D01*
X66875Y51139D01*
D02*
G37*
G36*
X66375D02*
X66293Y51123D01*
X66224Y51076D01*
X66177Y51007D01*
X66161Y50925D01*
X66177Y50843D01*
X66224Y50774D01*
X66293Y50727D01*
X66375Y50711D01*
X66457Y50727D01*
X66526Y50774D01*
X66573Y50843D01*
X66589Y50925D01*
X66573Y51007D01*
X66526Y51076D01*
X66457Y51123D01*
X66375Y51139D01*
D02*
G37*
G36*
X64640Y50790D02*
X64548Y50771D01*
X64471Y50719D01*
X64419Y50642D01*
X64400Y50550D01*
X64419Y50458D01*
X64471Y50381D01*
X64548Y50329D01*
X64640Y50310D01*
X64732Y50329D01*
X64809Y50381D01*
X64861Y50458D01*
X64880Y50550D01*
X64861Y50642D01*
X64809Y50719D01*
X64732Y50771D01*
X64640Y50790D01*
D02*
G37*
G36*
X58280Y50622D02*
X58212Y50613D01*
X58149Y50587D01*
X58095Y50545D01*
X58053Y50491D01*
X58027Y50428D01*
X58018Y50360D01*
X58027Y50292D01*
X58053Y50229D01*
X58095Y50175D01*
X58149Y50133D01*
X58212Y50107D01*
X58280Y50098D01*
X58348Y50107D01*
X58411Y50133D01*
X58465Y50175D01*
X58507Y50229D01*
X58533Y50292D01*
X58542Y50360D01*
X58533Y50428D01*
X58507Y50491D01*
X58465Y50545D01*
X58411Y50587D01*
X58348Y50613D01*
X58280Y50622D01*
D02*
G37*
G36*
X64575Y48322D02*
Y47875D01*
X64928D01*
Y47925D01*
X64915Y48029D01*
X64874Y48127D01*
X64810Y48210D01*
X64727Y48274D01*
X64629Y48315D01*
X64575Y48322D01*
D02*
G37*
G36*
X63575D02*
Y47875D01*
X63928D01*
Y47925D01*
X63915Y48029D01*
X63874Y48127D01*
X63810Y48210D01*
X63727Y48274D01*
X63629Y48315D01*
X63575Y48322D01*
D02*
G37*
G36*
X62575D02*
Y47875D01*
X62928D01*
Y47925D01*
X62915Y48029D01*
X62874Y48127D01*
X62810Y48210D01*
X62727Y48274D01*
X62629Y48315D01*
X62575Y48322D01*
D02*
G37*
G36*
X61575D02*
Y47875D01*
X61928D01*
Y47925D01*
X61915Y48029D01*
X61874Y48127D01*
X61810Y48210D01*
X61727Y48274D01*
X61629Y48315D01*
X61575Y48322D01*
D02*
G37*
G36*
X64475D02*
X64421Y48315D01*
X64323Y48274D01*
X64240Y48210D01*
X64176Y48127D01*
X64135Y48029D01*
X64122Y47925D01*
Y47875D01*
X64475D01*
Y48322D01*
D02*
G37*
G36*
X63475D02*
X63421Y48315D01*
X63323Y48274D01*
X63240Y48210D01*
X63176Y48127D01*
X63135Y48029D01*
X63122Y47925D01*
Y47875D01*
X63475D01*
Y48322D01*
D02*
G37*
G36*
X62475D02*
X62421Y48315D01*
X62323Y48274D01*
X62240Y48210D01*
X62176Y48127D01*
X62135Y48029D01*
X62122Y47925D01*
Y47875D01*
X62475D01*
Y48322D01*
D02*
G37*
G36*
X61475D02*
X61421Y48315D01*
X61323Y48274D01*
X61240Y48210D01*
X61176Y48127D01*
X61135Y48029D01*
X61122Y47925D01*
Y47875D01*
X61475D01*
Y48322D01*
D02*
G37*
G36*
X49675Y57889D02*
X49593Y57873D01*
X49524Y57826D01*
X49477Y57757D01*
X49461Y57675D01*
X49477Y57593D01*
X49524Y57524D01*
X49593Y57477D01*
X49675Y57461D01*
X49757Y57477D01*
X49826Y57524D01*
X49873Y57593D01*
X49889Y57675D01*
X49873Y57757D01*
X49826Y57826D01*
X49757Y57873D01*
X49675Y57889D01*
D02*
G37*
G36*
X49175D02*
X49093Y57873D01*
X49024Y57826D01*
X48977Y57757D01*
X48961Y57675D01*
X48977Y57593D01*
X49024Y57524D01*
X49093Y57477D01*
X49175Y57461D01*
X49257Y57477D01*
X49326Y57524D01*
X49373Y57593D01*
X49389Y57675D01*
X49373Y57757D01*
X49326Y57826D01*
X49257Y57873D01*
X49175Y57889D01*
D02*
G37*
G36*
X48175Y57639D02*
X48093Y57623D01*
X48024Y57576D01*
X47977Y57507D01*
X47961Y57425D01*
X47977Y57343D01*
X48024Y57274D01*
X48093Y57227D01*
X48175Y57211D01*
X48257Y57227D01*
X48326Y57274D01*
X48373Y57343D01*
X48389Y57425D01*
X48373Y57507D01*
X48326Y57576D01*
X48257Y57623D01*
X48175Y57639D01*
D02*
G37*
G36*
Y57139D02*
X48093Y57123D01*
X48024Y57076D01*
X47977Y57007D01*
X47961Y56925D01*
X47977Y56843D01*
X48024Y56774D01*
X48093Y56727D01*
X48175Y56711D01*
X48257Y56727D01*
X48326Y56774D01*
X48373Y56843D01*
X48389Y56925D01*
X48373Y57007D01*
X48326Y57076D01*
X48257Y57123D01*
X48175Y57139D01*
D02*
G37*
G36*
Y56639D02*
X48093Y56623D01*
X48024Y56576D01*
X47977Y56507D01*
X47961Y56425D01*
X47977Y56343D01*
X48024Y56274D01*
X48093Y56227D01*
X48175Y56211D01*
X48257Y56227D01*
X48326Y56274D01*
X48373Y56343D01*
X48389Y56425D01*
X48373Y56507D01*
X48326Y56576D01*
X48257Y56623D01*
X48175Y56639D01*
D02*
G37*
G36*
Y56139D02*
X48093Y56123D01*
X48024Y56076D01*
X47977Y56007D01*
X47961Y55925D01*
X47977Y55843D01*
X48024Y55774D01*
X48093Y55727D01*
X48175Y55711D01*
X48257Y55727D01*
X48326Y55774D01*
X48373Y55843D01*
X48389Y55925D01*
X48373Y56007D01*
X48326Y56076D01*
X48257Y56123D01*
X48175Y56139D01*
D02*
G37*
G36*
X49675Y55889D02*
X49593Y55873D01*
X49524Y55826D01*
X49477Y55757D01*
X49461Y55675D01*
X49477Y55593D01*
X49524Y55524D01*
X49593Y55477D01*
X49675Y55461D01*
X49757Y55477D01*
X49826Y55524D01*
X49873Y55593D01*
X49889Y55675D01*
X49873Y55757D01*
X49826Y55826D01*
X49757Y55873D01*
X49675Y55889D01*
D02*
G37*
G36*
X49175D02*
X49093Y55873D01*
X49024Y55826D01*
X48977Y55757D01*
X48961Y55675D01*
X48977Y55593D01*
X49024Y55524D01*
X49093Y55477D01*
X49175Y55461D01*
X49257Y55477D01*
X49326Y55524D01*
X49373Y55593D01*
X49389Y55675D01*
X49373Y55757D01*
X49326Y55826D01*
X49257Y55873D01*
X49175Y55889D01*
D02*
G37*
G36*
X49675Y53139D02*
X49593Y53123D01*
X49524Y53076D01*
X49477Y53007D01*
X49461Y52925D01*
X49477Y52843D01*
X49524Y52774D01*
X49593Y52727D01*
X49675Y52711D01*
X49757Y52727D01*
X49826Y52774D01*
X49873Y52843D01*
X49889Y52925D01*
X49873Y53007D01*
X49826Y53076D01*
X49757Y53123D01*
X49675Y53139D01*
D02*
G37*
G36*
X49175D02*
X49093Y53123D01*
X49024Y53076D01*
X48977Y53007D01*
X48961Y52925D01*
X48977Y52843D01*
X49024Y52774D01*
X49093Y52727D01*
X49175Y52711D01*
X49257Y52727D01*
X49326Y52774D01*
X49373Y52843D01*
X49389Y52925D01*
X49373Y53007D01*
X49326Y53076D01*
X49257Y53123D01*
X49175Y53139D01*
D02*
G37*
G36*
X45225Y51639D02*
X45143Y51623D01*
X45074Y51576D01*
X45027Y51507D01*
X45011Y51425D01*
X45027Y51343D01*
X45074Y51274D01*
X45143Y51227D01*
X45225Y51211D01*
X45307Y51227D01*
X45376Y51274D01*
X45423Y51343D01*
X45439Y51425D01*
X45423Y51507D01*
X45376Y51576D01*
X45307Y51623D01*
X45225Y51639D01*
D02*
G37*
G36*
X49675Y51139D02*
X49593Y51123D01*
X49524Y51076D01*
X49477Y51007D01*
X49461Y50925D01*
X49477Y50843D01*
X49524Y50774D01*
X49593Y50727D01*
X49675Y50711D01*
X49757Y50727D01*
X49826Y50774D01*
X49873Y50843D01*
X49889Y50925D01*
X49873Y51007D01*
X49826Y51076D01*
X49757Y51123D01*
X49675Y51139D01*
D02*
G37*
G36*
X49175D02*
X49093Y51123D01*
X49024Y51076D01*
X48977Y51007D01*
X48961Y50925D01*
X48977Y50843D01*
X49024Y50774D01*
X49093Y50727D01*
X49175Y50711D01*
X49257Y50727D01*
X49326Y50774D01*
X49373Y50843D01*
X49389Y50925D01*
X49373Y51007D01*
X49326Y51076D01*
X49257Y51123D01*
X49175Y51139D01*
D02*
G37*
G36*
X47440Y50790D02*
X47348Y50771D01*
X47271Y50719D01*
X47219Y50642D01*
X47200Y50550D01*
X47219Y50458D01*
X47271Y50381D01*
X47348Y50329D01*
X47440Y50310D01*
X47532Y50329D01*
X47609Y50381D01*
X47661Y50458D01*
X47680Y50550D01*
X47661Y50642D01*
X47609Y50719D01*
X47532Y50771D01*
X47440Y50790D01*
D02*
G37*
G36*
X41080Y50622D02*
X41012Y50613D01*
X40949Y50587D01*
X40895Y50545D01*
X40853Y50491D01*
X40827Y50428D01*
X40818Y50360D01*
X40827Y50292D01*
X40853Y50229D01*
X40895Y50175D01*
X40949Y50133D01*
X41012Y50107D01*
X41080Y50098D01*
X41148Y50107D01*
X41211Y50133D01*
X41265Y50175D01*
X41307Y50229D01*
X41333Y50292D01*
X41342Y50360D01*
X41333Y50428D01*
X41307Y50491D01*
X41265Y50545D01*
X41211Y50587D01*
X41148Y50613D01*
X41080Y50622D01*
D02*
G37*
G36*
X47375Y48322D02*
Y47875D01*
X47728D01*
Y47925D01*
X47715Y48029D01*
X47674Y48127D01*
X47610Y48210D01*
X47527Y48274D01*
X47429Y48315D01*
X47375Y48322D01*
D02*
G37*
G36*
X46375D02*
Y47875D01*
X46728D01*
Y47925D01*
X46715Y48029D01*
X46674Y48127D01*
X46610Y48210D01*
X46527Y48274D01*
X46429Y48315D01*
X46375Y48322D01*
D02*
G37*
G36*
X45375D02*
Y47875D01*
X45728D01*
Y47925D01*
X45715Y48029D01*
X45674Y48127D01*
X45610Y48210D01*
X45527Y48274D01*
X45429Y48315D01*
X45375Y48322D01*
D02*
G37*
G36*
X44375D02*
Y47875D01*
X44728D01*
Y47925D01*
X44715Y48029D01*
X44674Y48127D01*
X44610Y48210D01*
X44527Y48274D01*
X44429Y48315D01*
X44375Y48322D01*
D02*
G37*
G36*
X47275D02*
X47221Y48315D01*
X47123Y48274D01*
X47040Y48210D01*
X46976Y48127D01*
X46935Y48029D01*
X46922Y47925D01*
Y47875D01*
X47275D01*
Y48322D01*
D02*
G37*
G36*
X46275D02*
X46221Y48315D01*
X46123Y48274D01*
X46040Y48210D01*
X45976Y48127D01*
X45935Y48029D01*
X45922Y47925D01*
Y47875D01*
X46275D01*
Y48322D01*
D02*
G37*
G36*
X45275D02*
X45221Y48315D01*
X45123Y48274D01*
X45040Y48210D01*
X44976Y48127D01*
X44935Y48029D01*
X44922Y47925D01*
Y47875D01*
X45275D01*
Y48322D01*
D02*
G37*
G36*
X44275D02*
X44221Y48315D01*
X44123Y48274D01*
X44040Y48210D01*
X43976Y48127D01*
X43935Y48029D01*
X43922Y47925D01*
Y47875D01*
X44275D01*
Y48322D01*
D02*
G37*
G36*
X32475Y57889D02*
X32393Y57873D01*
X32324Y57826D01*
X32277Y57757D01*
X32261Y57675D01*
X32277Y57593D01*
X32324Y57524D01*
X32393Y57477D01*
X32475Y57461D01*
X32557Y57477D01*
X32626Y57524D01*
X32673Y57593D01*
X32689Y57675D01*
X32673Y57757D01*
X32626Y57826D01*
X32557Y57873D01*
X32475Y57889D01*
D02*
G37*
G36*
X31975D02*
X31893Y57873D01*
X31824Y57826D01*
X31777Y57757D01*
X31761Y57675D01*
X31777Y57593D01*
X31824Y57524D01*
X31893Y57477D01*
X31975Y57461D01*
X32057Y57477D01*
X32126Y57524D01*
X32173Y57593D01*
X32189Y57675D01*
X32173Y57757D01*
X32126Y57826D01*
X32057Y57873D01*
X31975Y57889D01*
D02*
G37*
G36*
X30975Y57639D02*
X30893Y57623D01*
X30824Y57576D01*
X30777Y57507D01*
X30761Y57425D01*
X30777Y57343D01*
X30824Y57274D01*
X30893Y57227D01*
X30975Y57211D01*
X31057Y57227D01*
X31126Y57274D01*
X31173Y57343D01*
X31189Y57425D01*
X31173Y57507D01*
X31126Y57576D01*
X31057Y57623D01*
X30975Y57639D01*
D02*
G37*
G36*
Y57139D02*
X30893Y57123D01*
X30824Y57076D01*
X30777Y57007D01*
X30761Y56925D01*
X30777Y56843D01*
X30824Y56774D01*
X30893Y56727D01*
X30975Y56711D01*
X31057Y56727D01*
X31126Y56774D01*
X31173Y56843D01*
X31189Y56925D01*
X31173Y57007D01*
X31126Y57076D01*
X31057Y57123D01*
X30975Y57139D01*
D02*
G37*
G36*
Y56639D02*
X30893Y56623D01*
X30824Y56576D01*
X30777Y56507D01*
X30761Y56425D01*
X30777Y56343D01*
X30824Y56274D01*
X30893Y56227D01*
X30975Y56211D01*
X31057Y56227D01*
X31126Y56274D01*
X31173Y56343D01*
X31189Y56425D01*
X31173Y56507D01*
X31126Y56576D01*
X31057Y56623D01*
X30975Y56639D01*
D02*
G37*
G36*
Y56139D02*
X30893Y56123D01*
X30824Y56076D01*
X30777Y56007D01*
X30761Y55925D01*
X30777Y55843D01*
X30824Y55774D01*
X30893Y55727D01*
X30975Y55711D01*
X31057Y55727D01*
X31126Y55774D01*
X31173Y55843D01*
X31189Y55925D01*
X31173Y56007D01*
X31126Y56076D01*
X31057Y56123D01*
X30975Y56139D01*
D02*
G37*
G36*
X32475Y55889D02*
X32393Y55873D01*
X32324Y55826D01*
X32277Y55757D01*
X32261Y55675D01*
X32277Y55593D01*
X32324Y55524D01*
X32393Y55477D01*
X32475Y55461D01*
X32557Y55477D01*
X32626Y55524D01*
X32673Y55593D01*
X32689Y55675D01*
X32673Y55757D01*
X32626Y55826D01*
X32557Y55873D01*
X32475Y55889D01*
D02*
G37*
G36*
X31975D02*
X31893Y55873D01*
X31824Y55826D01*
X31777Y55757D01*
X31761Y55675D01*
X31777Y55593D01*
X31824Y55524D01*
X31893Y55477D01*
X31975Y55461D01*
X32057Y55477D01*
X32126Y55524D01*
X32173Y55593D01*
X32189Y55675D01*
X32173Y55757D01*
X32126Y55826D01*
X32057Y55873D01*
X31975Y55889D01*
D02*
G37*
G36*
X32475Y53139D02*
X32393Y53123D01*
X32324Y53076D01*
X32277Y53007D01*
X32261Y52925D01*
X32277Y52843D01*
X32324Y52774D01*
X32393Y52727D01*
X32475Y52711D01*
X32557Y52727D01*
X32626Y52774D01*
X32673Y52843D01*
X32689Y52925D01*
X32673Y53007D01*
X32626Y53076D01*
X32557Y53123D01*
X32475Y53139D01*
D02*
G37*
G36*
X31975D02*
X31893Y53123D01*
X31824Y53076D01*
X31777Y53007D01*
X31761Y52925D01*
X31777Y52843D01*
X31824Y52774D01*
X31893Y52727D01*
X31975Y52711D01*
X32057Y52727D01*
X32126Y52774D01*
X32173Y52843D01*
X32189Y52925D01*
X32173Y53007D01*
X32126Y53076D01*
X32057Y53123D01*
X31975Y53139D01*
D02*
G37*
G36*
X28025Y51639D02*
X27943Y51623D01*
X27874Y51576D01*
X27827Y51507D01*
X27811Y51425D01*
X27827Y51343D01*
X27874Y51274D01*
X27943Y51227D01*
X28025Y51211D01*
X28107Y51227D01*
X28176Y51274D01*
X28223Y51343D01*
X28239Y51425D01*
X28223Y51507D01*
X28176Y51576D01*
X28107Y51623D01*
X28025Y51639D01*
D02*
G37*
G36*
X32475Y51139D02*
X32393Y51123D01*
X32324Y51076D01*
X32277Y51007D01*
X32261Y50925D01*
X32277Y50843D01*
X32324Y50774D01*
X32393Y50727D01*
X32475Y50711D01*
X32557Y50727D01*
X32626Y50774D01*
X32673Y50843D01*
X32689Y50925D01*
X32673Y51007D01*
X32626Y51076D01*
X32557Y51123D01*
X32475Y51139D01*
D02*
G37*
G36*
X31975D02*
X31893Y51123D01*
X31824Y51076D01*
X31777Y51007D01*
X31761Y50925D01*
X31777Y50843D01*
X31824Y50774D01*
X31893Y50727D01*
X31975Y50711D01*
X32057Y50727D01*
X32126Y50774D01*
X32173Y50843D01*
X32189Y50925D01*
X32173Y51007D01*
X32126Y51076D01*
X32057Y51123D01*
X31975Y51139D01*
D02*
G37*
G36*
X30240Y50790D02*
X30148Y50771D01*
X30071Y50719D01*
X30019Y50642D01*
X30000Y50550D01*
X30019Y50458D01*
X30071Y50381D01*
X30148Y50329D01*
X30240Y50310D01*
X30332Y50329D01*
X30409Y50381D01*
X30461Y50458D01*
X30480Y50550D01*
X30461Y50642D01*
X30409Y50719D01*
X30332Y50771D01*
X30240Y50790D01*
D02*
G37*
G36*
X23880Y50622D02*
X23812Y50613D01*
X23749Y50587D01*
X23695Y50545D01*
X23653Y50491D01*
X23627Y50428D01*
X23618Y50360D01*
X23627Y50292D01*
X23653Y50229D01*
X23695Y50175D01*
X23749Y50133D01*
X23812Y50107D01*
X23880Y50098D01*
X23948Y50107D01*
X24011Y50133D01*
X24065Y50175D01*
X24107Y50229D01*
X24133Y50292D01*
X24142Y50360D01*
X24133Y50428D01*
X24107Y50491D01*
X24065Y50545D01*
X24011Y50587D01*
X23948Y50613D01*
X23880Y50622D01*
D02*
G37*
G36*
X30175Y48322D02*
Y47875D01*
X30528D01*
Y47925D01*
X30515Y48029D01*
X30474Y48127D01*
X30410Y48210D01*
X30327Y48274D01*
X30229Y48315D01*
X30175Y48322D01*
D02*
G37*
G36*
X29175D02*
Y47875D01*
X29528D01*
Y47925D01*
X29515Y48029D01*
X29474Y48127D01*
X29410Y48210D01*
X29327Y48274D01*
X29229Y48315D01*
X29175Y48322D01*
D02*
G37*
G36*
X28175D02*
Y47875D01*
X28528D01*
Y47925D01*
X28515Y48029D01*
X28474Y48127D01*
X28410Y48210D01*
X28327Y48274D01*
X28229Y48315D01*
X28175Y48322D01*
D02*
G37*
G36*
X27175D02*
Y47875D01*
X27528D01*
Y47925D01*
X27515Y48029D01*
X27474Y48127D01*
X27410Y48210D01*
X27327Y48274D01*
X27229Y48315D01*
X27175Y48322D01*
D02*
G37*
G36*
X30075D02*
X30021Y48315D01*
X29923Y48274D01*
X29840Y48210D01*
X29776Y48127D01*
X29735Y48029D01*
X29722Y47925D01*
Y47875D01*
X30075D01*
Y48322D01*
D02*
G37*
G36*
X29075D02*
X29021Y48315D01*
X28923Y48274D01*
X28840Y48210D01*
X28776Y48127D01*
X28735Y48029D01*
X28722Y47925D01*
Y47875D01*
X29075D01*
Y48322D01*
D02*
G37*
G36*
X28075D02*
X28021Y48315D01*
X27923Y48274D01*
X27840Y48210D01*
X27776Y48127D01*
X27735Y48029D01*
X27722Y47925D01*
Y47875D01*
X28075D01*
Y48322D01*
D02*
G37*
G36*
X27075D02*
X27021Y48315D01*
X26923Y48274D01*
X26840Y48210D01*
X26776Y48127D01*
X26735Y48029D01*
X26722Y47925D01*
Y47875D01*
X27075D01*
Y48322D01*
D02*
G37*
G36*
X15275Y57889D02*
X15193Y57873D01*
X15124Y57826D01*
X15077Y57757D01*
X15061Y57675D01*
X15077Y57593D01*
X15124Y57524D01*
X15193Y57477D01*
X15275Y57461D01*
X15357Y57477D01*
X15426Y57524D01*
X15473Y57593D01*
X15489Y57675D01*
X15473Y57757D01*
X15426Y57826D01*
X15357Y57873D01*
X15275Y57889D01*
D02*
G37*
G36*
X14775D02*
X14693Y57873D01*
X14624Y57826D01*
X14577Y57757D01*
X14561Y57675D01*
X14577Y57593D01*
X14624Y57524D01*
X14693Y57477D01*
X14775Y57461D01*
X14857Y57477D01*
X14926Y57524D01*
X14973Y57593D01*
X14989Y57675D01*
X14973Y57757D01*
X14926Y57826D01*
X14857Y57873D01*
X14775Y57889D01*
D02*
G37*
G36*
X13775Y57639D02*
X13693Y57623D01*
X13624Y57576D01*
X13577Y57507D01*
X13561Y57425D01*
X13577Y57343D01*
X13624Y57274D01*
X13693Y57227D01*
X13775Y57211D01*
X13857Y57227D01*
X13926Y57274D01*
X13973Y57343D01*
X13989Y57425D01*
X13973Y57507D01*
X13926Y57576D01*
X13857Y57623D01*
X13775Y57639D01*
D02*
G37*
G36*
Y57139D02*
X13693Y57123D01*
X13624Y57076D01*
X13577Y57007D01*
X13561Y56925D01*
X13577Y56843D01*
X13624Y56774D01*
X13693Y56727D01*
X13775Y56711D01*
X13857Y56727D01*
X13926Y56774D01*
X13973Y56843D01*
X13989Y56925D01*
X13973Y57007D01*
X13926Y57076D01*
X13857Y57123D01*
X13775Y57139D01*
D02*
G37*
G36*
Y56639D02*
X13693Y56623D01*
X13624Y56576D01*
X13577Y56507D01*
X13561Y56425D01*
X13577Y56343D01*
X13624Y56274D01*
X13693Y56227D01*
X13775Y56211D01*
X13857Y56227D01*
X13926Y56274D01*
X13973Y56343D01*
X13989Y56425D01*
X13973Y56507D01*
X13926Y56576D01*
X13857Y56623D01*
X13775Y56639D01*
D02*
G37*
G36*
Y56139D02*
X13693Y56123D01*
X13624Y56076D01*
X13577Y56007D01*
X13561Y55925D01*
X13577Y55843D01*
X13624Y55774D01*
X13693Y55727D01*
X13775Y55711D01*
X13857Y55727D01*
X13926Y55774D01*
X13973Y55843D01*
X13989Y55925D01*
X13973Y56007D01*
X13926Y56076D01*
X13857Y56123D01*
X13775Y56139D01*
D02*
G37*
G36*
X15275Y55889D02*
X15193Y55873D01*
X15124Y55826D01*
X15077Y55757D01*
X15061Y55675D01*
X15077Y55593D01*
X15124Y55524D01*
X15193Y55477D01*
X15275Y55461D01*
X15357Y55477D01*
X15426Y55524D01*
X15473Y55593D01*
X15489Y55675D01*
X15473Y55757D01*
X15426Y55826D01*
X15357Y55873D01*
X15275Y55889D01*
D02*
G37*
G36*
X14775D02*
X14693Y55873D01*
X14624Y55826D01*
X14577Y55757D01*
X14561Y55675D01*
X14577Y55593D01*
X14624Y55524D01*
X14693Y55477D01*
X14775Y55461D01*
X14857Y55477D01*
X14926Y55524D01*
X14973Y55593D01*
X14989Y55675D01*
X14973Y55757D01*
X14926Y55826D01*
X14857Y55873D01*
X14775Y55889D01*
D02*
G37*
G36*
X15275Y53139D02*
X15193Y53123D01*
X15124Y53076D01*
X15077Y53007D01*
X15061Y52925D01*
X15077Y52843D01*
X15124Y52774D01*
X15193Y52727D01*
X15275Y52711D01*
X15357Y52727D01*
X15426Y52774D01*
X15473Y52843D01*
X15489Y52925D01*
X15473Y53007D01*
X15426Y53076D01*
X15357Y53123D01*
X15275Y53139D01*
D02*
G37*
G36*
X14775D02*
X14693Y53123D01*
X14624Y53076D01*
X14577Y53007D01*
X14561Y52925D01*
X14577Y52843D01*
X14624Y52774D01*
X14693Y52727D01*
X14775Y52711D01*
X14857Y52727D01*
X14926Y52774D01*
X14973Y52843D01*
X14989Y52925D01*
X14973Y53007D01*
X14926Y53076D01*
X14857Y53123D01*
X14775Y53139D01*
D02*
G37*
G36*
X10825Y51639D02*
X10743Y51623D01*
X10674Y51576D01*
X10627Y51507D01*
X10611Y51425D01*
X10627Y51343D01*
X10674Y51274D01*
X10743Y51227D01*
X10825Y51211D01*
X10907Y51227D01*
X10976Y51274D01*
X11023Y51343D01*
X11039Y51425D01*
X11023Y51507D01*
X10976Y51576D01*
X10907Y51623D01*
X10825Y51639D01*
D02*
G37*
G36*
X15275Y51139D02*
X15193Y51123D01*
X15124Y51076D01*
X15077Y51007D01*
X15061Y50925D01*
X15077Y50843D01*
X15124Y50774D01*
X15193Y50727D01*
X15275Y50711D01*
X15357Y50727D01*
X15426Y50774D01*
X15473Y50843D01*
X15489Y50925D01*
X15473Y51007D01*
X15426Y51076D01*
X15357Y51123D01*
X15275Y51139D01*
D02*
G37*
G36*
X14775D02*
X14693Y51123D01*
X14624Y51076D01*
X14577Y51007D01*
X14561Y50925D01*
X14577Y50843D01*
X14624Y50774D01*
X14693Y50727D01*
X14775Y50711D01*
X14857Y50727D01*
X14926Y50774D01*
X14973Y50843D01*
X14989Y50925D01*
X14973Y51007D01*
X14926Y51076D01*
X14857Y51123D01*
X14775Y51139D01*
D02*
G37*
G36*
X13040Y50790D02*
X12948Y50771D01*
X12871Y50719D01*
X12819Y50642D01*
X12800Y50550D01*
X12819Y50458D01*
X12871Y50381D01*
X12948Y50329D01*
X13040Y50310D01*
X13132Y50329D01*
X13209Y50381D01*
X13261Y50458D01*
X13280Y50550D01*
X13261Y50642D01*
X13209Y50719D01*
X13132Y50771D01*
X13040Y50790D01*
D02*
G37*
G36*
X6680Y50622D02*
X6612Y50613D01*
X6549Y50587D01*
X6495Y50545D01*
X6453Y50491D01*
X6427Y50428D01*
X6418Y50360D01*
X6427Y50292D01*
X6453Y50229D01*
X6495Y50175D01*
X6549Y50133D01*
X6612Y50107D01*
X6680Y50098D01*
X6748Y50107D01*
X6811Y50133D01*
X6865Y50175D01*
X6907Y50229D01*
X6933Y50292D01*
X6942Y50360D01*
X6933Y50428D01*
X6907Y50491D01*
X6865Y50545D01*
X6811Y50587D01*
X6748Y50613D01*
X6680Y50622D01*
D02*
G37*
G36*
X12975Y48322D02*
Y47875D01*
X13328D01*
Y47925D01*
X13315Y48029D01*
X13274Y48127D01*
X13210Y48210D01*
X13127Y48274D01*
X13029Y48315D01*
X12975Y48322D01*
D02*
G37*
G36*
X11975D02*
Y47875D01*
X12328D01*
Y47925D01*
X12315Y48029D01*
X12274Y48127D01*
X12210Y48210D01*
X12127Y48274D01*
X12029Y48315D01*
X11975Y48322D01*
D02*
G37*
G36*
X10975D02*
Y47875D01*
X11328D01*
Y47925D01*
X11315Y48029D01*
X11274Y48127D01*
X11210Y48210D01*
X11127Y48274D01*
X11029Y48315D01*
X10975Y48322D01*
D02*
G37*
G36*
X9975D02*
Y47875D01*
X10328D01*
Y47925D01*
X10315Y48029D01*
X10274Y48127D01*
X10210Y48210D01*
X10127Y48274D01*
X10029Y48315D01*
X9975Y48322D01*
D02*
G37*
G36*
X12875D02*
X12821Y48315D01*
X12723Y48274D01*
X12640Y48210D01*
X12576Y48127D01*
X12535Y48029D01*
X12522Y47925D01*
Y47875D01*
X12875D01*
Y48322D01*
D02*
G37*
G36*
X11875D02*
X11821Y48315D01*
X11723Y48274D01*
X11640Y48210D01*
X11576Y48127D01*
X11535Y48029D01*
X11522Y47925D01*
Y47875D01*
X11875D01*
Y48322D01*
D02*
G37*
G36*
X10875D02*
X10821Y48315D01*
X10723Y48274D01*
X10640Y48210D01*
X10576Y48127D01*
X10535Y48029D01*
X10522Y47925D01*
Y47875D01*
X10875D01*
Y48322D01*
D02*
G37*
G36*
X9875D02*
X9821Y48315D01*
X9723Y48274D01*
X9640Y48210D01*
X9576Y48127D01*
X9535Y48029D01*
X9522Y47925D01*
Y47875D01*
X9875D01*
Y48322D01*
D02*
G37*
G36*
X66875Y43089D02*
X66793Y43073D01*
X66724Y43026D01*
X66677Y42957D01*
X66661Y42875D01*
X66677Y42793D01*
X66724Y42724D01*
X66793Y42677D01*
X66875Y42661D01*
X66957Y42677D01*
X67026Y42724D01*
X67073Y42793D01*
X67089Y42875D01*
X67073Y42957D01*
X67026Y43026D01*
X66957Y43073D01*
X66875Y43089D01*
D02*
G37*
G36*
X66375D02*
X66293Y43073D01*
X66224Y43026D01*
X66177Y42957D01*
X66161Y42875D01*
X66177Y42793D01*
X66224Y42724D01*
X66293Y42677D01*
X66375Y42661D01*
X66457Y42677D01*
X66526Y42724D01*
X66573Y42793D01*
X66589Y42875D01*
X66573Y42957D01*
X66526Y43026D01*
X66457Y43073D01*
X66375Y43089D01*
D02*
G37*
G36*
X65375Y42839D02*
X65293Y42823D01*
X65224Y42776D01*
X65177Y42707D01*
X65161Y42625D01*
X65177Y42543D01*
X65224Y42474D01*
X65293Y42427D01*
X65375Y42411D01*
X65457Y42427D01*
X65526Y42474D01*
X65573Y42543D01*
X65589Y42625D01*
X65573Y42707D01*
X65526Y42776D01*
X65457Y42823D01*
X65375Y42839D01*
D02*
G37*
G36*
Y42339D02*
X65293Y42323D01*
X65224Y42276D01*
X65177Y42207D01*
X65161Y42125D01*
X65177Y42043D01*
X65224Y41974D01*
X65293Y41927D01*
X65375Y41911D01*
X65457Y41927D01*
X65526Y41974D01*
X65573Y42043D01*
X65589Y42125D01*
X65573Y42207D01*
X65526Y42276D01*
X65457Y42323D01*
X65375Y42339D01*
D02*
G37*
G36*
Y41839D02*
X65293Y41823D01*
X65224Y41776D01*
X65177Y41707D01*
X65161Y41625D01*
X65177Y41543D01*
X65224Y41474D01*
X65293Y41427D01*
X65375Y41411D01*
X65457Y41427D01*
X65526Y41474D01*
X65573Y41543D01*
X65589Y41625D01*
X65573Y41707D01*
X65526Y41776D01*
X65457Y41823D01*
X65375Y41839D01*
D02*
G37*
G36*
Y41339D02*
X65293Y41323D01*
X65224Y41276D01*
X65177Y41207D01*
X65161Y41125D01*
X65177Y41043D01*
X65224Y40974D01*
X65293Y40927D01*
X65375Y40911D01*
X65457Y40927D01*
X65526Y40974D01*
X65573Y41043D01*
X65589Y41125D01*
X65573Y41207D01*
X65526Y41276D01*
X65457Y41323D01*
X65375Y41339D01*
D02*
G37*
G36*
X66875Y41089D02*
X66793Y41073D01*
X66724Y41026D01*
X66677Y40957D01*
X66661Y40875D01*
X66677Y40793D01*
X66724Y40724D01*
X66793Y40677D01*
X66875Y40661D01*
X66957Y40677D01*
X67026Y40724D01*
X67073Y40793D01*
X67089Y40875D01*
X67073Y40957D01*
X67026Y41026D01*
X66957Y41073D01*
X66875Y41089D01*
D02*
G37*
G36*
X66375D02*
X66293Y41073D01*
X66224Y41026D01*
X66177Y40957D01*
X66161Y40875D01*
X66177Y40793D01*
X66224Y40724D01*
X66293Y40677D01*
X66375Y40661D01*
X66457Y40677D01*
X66526Y40724D01*
X66573Y40793D01*
X66589Y40875D01*
X66573Y40957D01*
X66526Y41026D01*
X66457Y41073D01*
X66375Y41089D01*
D02*
G37*
G36*
X66875Y38339D02*
X66793Y38323D01*
X66724Y38276D01*
X66677Y38207D01*
X66661Y38125D01*
X66677Y38043D01*
X66724Y37974D01*
X66793Y37927D01*
X66875Y37911D01*
X66957Y37927D01*
X67026Y37974D01*
X67073Y38043D01*
X67089Y38125D01*
X67073Y38207D01*
X67026Y38276D01*
X66957Y38323D01*
X66875Y38339D01*
D02*
G37*
G36*
X66375D02*
X66293Y38323D01*
X66224Y38276D01*
X66177Y38207D01*
X66161Y38125D01*
X66177Y38043D01*
X66224Y37974D01*
X66293Y37927D01*
X66375Y37911D01*
X66457Y37927D01*
X66526Y37974D01*
X66573Y38043D01*
X66589Y38125D01*
X66573Y38207D01*
X66526Y38276D01*
X66457Y38323D01*
X66375Y38339D01*
D02*
G37*
G36*
X62425Y36839D02*
X62343Y36823D01*
X62274Y36776D01*
X62227Y36707D01*
X62211Y36625D01*
X62227Y36543D01*
X62274Y36474D01*
X62343Y36427D01*
X62425Y36411D01*
X62507Y36427D01*
X62576Y36474D01*
X62623Y36543D01*
X62639Y36625D01*
X62623Y36707D01*
X62576Y36776D01*
X62507Y36823D01*
X62425Y36839D01*
D02*
G37*
G36*
X66875Y36339D02*
X66793Y36323D01*
X66724Y36276D01*
X66677Y36207D01*
X66661Y36125D01*
X66677Y36043D01*
X66724Y35974D01*
X66793Y35927D01*
X66875Y35911D01*
X66957Y35927D01*
X67026Y35974D01*
X67073Y36043D01*
X67089Y36125D01*
X67073Y36207D01*
X67026Y36276D01*
X66957Y36323D01*
X66875Y36339D01*
D02*
G37*
G36*
X66375D02*
X66293Y36323D01*
X66224Y36276D01*
X66177Y36207D01*
X66161Y36125D01*
X66177Y36043D01*
X66224Y35974D01*
X66293Y35927D01*
X66375Y35911D01*
X66457Y35927D01*
X66526Y35974D01*
X66573Y36043D01*
X66589Y36125D01*
X66573Y36207D01*
X66526Y36276D01*
X66457Y36323D01*
X66375Y36339D01*
D02*
G37*
G36*
X64640Y35990D02*
X64548Y35971D01*
X64471Y35919D01*
X64419Y35842D01*
X64400Y35750D01*
X64419Y35658D01*
X64471Y35581D01*
X64548Y35529D01*
X64640Y35510D01*
X64732Y35529D01*
X64809Y35581D01*
X64861Y35658D01*
X64880Y35750D01*
X64861Y35842D01*
X64809Y35919D01*
X64732Y35971D01*
X64640Y35990D01*
D02*
G37*
G36*
X58280Y35822D02*
X58212Y35813D01*
X58149Y35787D01*
X58095Y35745D01*
X58053Y35691D01*
X58027Y35628D01*
X58018Y35560D01*
X58027Y35492D01*
X58053Y35429D01*
X58095Y35375D01*
X58149Y35333D01*
X58212Y35307D01*
X58280Y35298D01*
X58348Y35307D01*
X58411Y35333D01*
X58465Y35375D01*
X58507Y35429D01*
X58533Y35492D01*
X58542Y35560D01*
X58533Y35628D01*
X58507Y35691D01*
X58465Y35745D01*
X58411Y35787D01*
X58348Y35813D01*
X58280Y35822D01*
D02*
G37*
G36*
X64575Y33522D02*
Y33075D01*
X64928D01*
Y33125D01*
X64915Y33229D01*
X64874Y33327D01*
X64810Y33410D01*
X64727Y33474D01*
X64629Y33515D01*
X64575Y33522D01*
D02*
G37*
G36*
X63575D02*
Y33075D01*
X63928D01*
Y33125D01*
X63915Y33229D01*
X63874Y33327D01*
X63810Y33410D01*
X63727Y33474D01*
X63629Y33515D01*
X63575Y33522D01*
D02*
G37*
G36*
X62575D02*
Y33075D01*
X62928D01*
Y33125D01*
X62915Y33229D01*
X62874Y33327D01*
X62810Y33410D01*
X62727Y33474D01*
X62629Y33515D01*
X62575Y33522D01*
D02*
G37*
G36*
X61575D02*
Y33075D01*
X61928D01*
Y33125D01*
X61915Y33229D01*
X61874Y33327D01*
X61810Y33410D01*
X61727Y33474D01*
X61629Y33515D01*
X61575Y33522D01*
D02*
G37*
G36*
X64475D02*
X64421Y33515D01*
X64323Y33474D01*
X64240Y33410D01*
X64176Y33327D01*
X64135Y33229D01*
X64122Y33125D01*
Y33075D01*
X64475D01*
Y33522D01*
D02*
G37*
G36*
X63475D02*
X63421Y33515D01*
X63323Y33474D01*
X63240Y33410D01*
X63176Y33327D01*
X63135Y33229D01*
X63122Y33125D01*
Y33075D01*
X63475D01*
Y33522D01*
D02*
G37*
G36*
X62475D02*
X62421Y33515D01*
X62323Y33474D01*
X62240Y33410D01*
X62176Y33327D01*
X62135Y33229D01*
X62122Y33125D01*
Y33075D01*
X62475D01*
Y33522D01*
D02*
G37*
G36*
X61475D02*
X61421Y33515D01*
X61323Y33474D01*
X61240Y33410D01*
X61176Y33327D01*
X61135Y33229D01*
X61122Y33125D01*
Y33075D01*
X61475D01*
Y33522D01*
D02*
G37*
G36*
X49675Y43089D02*
X49593Y43073D01*
X49524Y43026D01*
X49477Y42957D01*
X49461Y42875D01*
X49477Y42793D01*
X49524Y42724D01*
X49593Y42677D01*
X49675Y42661D01*
X49757Y42677D01*
X49826Y42724D01*
X49873Y42793D01*
X49889Y42875D01*
X49873Y42957D01*
X49826Y43026D01*
X49757Y43073D01*
X49675Y43089D01*
D02*
G37*
G36*
X49175D02*
X49093Y43073D01*
X49024Y43026D01*
X48977Y42957D01*
X48961Y42875D01*
X48977Y42793D01*
X49024Y42724D01*
X49093Y42677D01*
X49175Y42661D01*
X49257Y42677D01*
X49326Y42724D01*
X49373Y42793D01*
X49389Y42875D01*
X49373Y42957D01*
X49326Y43026D01*
X49257Y43073D01*
X49175Y43089D01*
D02*
G37*
G36*
X48175Y42839D02*
X48093Y42823D01*
X48024Y42776D01*
X47977Y42707D01*
X47961Y42625D01*
X47977Y42543D01*
X48024Y42474D01*
X48093Y42427D01*
X48175Y42411D01*
X48257Y42427D01*
X48326Y42474D01*
X48373Y42543D01*
X48389Y42625D01*
X48373Y42707D01*
X48326Y42776D01*
X48257Y42823D01*
X48175Y42839D01*
D02*
G37*
G36*
Y42339D02*
X48093Y42323D01*
X48024Y42276D01*
X47977Y42207D01*
X47961Y42125D01*
X47977Y42043D01*
X48024Y41974D01*
X48093Y41927D01*
X48175Y41911D01*
X48257Y41927D01*
X48326Y41974D01*
X48373Y42043D01*
X48389Y42125D01*
X48373Y42207D01*
X48326Y42276D01*
X48257Y42323D01*
X48175Y42339D01*
D02*
G37*
G36*
Y41839D02*
X48093Y41823D01*
X48024Y41776D01*
X47977Y41707D01*
X47961Y41625D01*
X47977Y41543D01*
X48024Y41474D01*
X48093Y41427D01*
X48175Y41411D01*
X48257Y41427D01*
X48326Y41474D01*
X48373Y41543D01*
X48389Y41625D01*
X48373Y41707D01*
X48326Y41776D01*
X48257Y41823D01*
X48175Y41839D01*
D02*
G37*
G36*
Y41339D02*
X48093Y41323D01*
X48024Y41276D01*
X47977Y41207D01*
X47961Y41125D01*
X47977Y41043D01*
X48024Y40974D01*
X48093Y40927D01*
X48175Y40911D01*
X48257Y40927D01*
X48326Y40974D01*
X48373Y41043D01*
X48389Y41125D01*
X48373Y41207D01*
X48326Y41276D01*
X48257Y41323D01*
X48175Y41339D01*
D02*
G37*
G36*
X49675Y41089D02*
X49593Y41073D01*
X49524Y41026D01*
X49477Y40957D01*
X49461Y40875D01*
X49477Y40793D01*
X49524Y40724D01*
X49593Y40677D01*
X49675Y40661D01*
X49757Y40677D01*
X49826Y40724D01*
X49873Y40793D01*
X49889Y40875D01*
X49873Y40957D01*
X49826Y41026D01*
X49757Y41073D01*
X49675Y41089D01*
D02*
G37*
G36*
X49175D02*
X49093Y41073D01*
X49024Y41026D01*
X48977Y40957D01*
X48961Y40875D01*
X48977Y40793D01*
X49024Y40724D01*
X49093Y40677D01*
X49175Y40661D01*
X49257Y40677D01*
X49326Y40724D01*
X49373Y40793D01*
X49389Y40875D01*
X49373Y40957D01*
X49326Y41026D01*
X49257Y41073D01*
X49175Y41089D01*
D02*
G37*
G36*
X49675Y38339D02*
X49593Y38323D01*
X49524Y38276D01*
X49477Y38207D01*
X49461Y38125D01*
X49477Y38043D01*
X49524Y37974D01*
X49593Y37927D01*
X49675Y37911D01*
X49757Y37927D01*
X49826Y37974D01*
X49873Y38043D01*
X49889Y38125D01*
X49873Y38207D01*
X49826Y38276D01*
X49757Y38323D01*
X49675Y38339D01*
D02*
G37*
G36*
X49175D02*
X49093Y38323D01*
X49024Y38276D01*
X48977Y38207D01*
X48961Y38125D01*
X48977Y38043D01*
X49024Y37974D01*
X49093Y37927D01*
X49175Y37911D01*
X49257Y37927D01*
X49326Y37974D01*
X49373Y38043D01*
X49389Y38125D01*
X49373Y38207D01*
X49326Y38276D01*
X49257Y38323D01*
X49175Y38339D01*
D02*
G37*
G36*
X45225Y36839D02*
X45143Y36823D01*
X45074Y36776D01*
X45027Y36707D01*
X45011Y36625D01*
X45027Y36543D01*
X45074Y36474D01*
X45143Y36427D01*
X45225Y36411D01*
X45307Y36427D01*
X45376Y36474D01*
X45423Y36543D01*
X45439Y36625D01*
X45423Y36707D01*
X45376Y36776D01*
X45307Y36823D01*
X45225Y36839D01*
D02*
G37*
G36*
X49675Y36339D02*
X49593Y36323D01*
X49524Y36276D01*
X49477Y36207D01*
X49461Y36125D01*
X49477Y36043D01*
X49524Y35974D01*
X49593Y35927D01*
X49675Y35911D01*
X49757Y35927D01*
X49826Y35974D01*
X49873Y36043D01*
X49889Y36125D01*
X49873Y36207D01*
X49826Y36276D01*
X49757Y36323D01*
X49675Y36339D01*
D02*
G37*
G36*
X49175D02*
X49093Y36323D01*
X49024Y36276D01*
X48977Y36207D01*
X48961Y36125D01*
X48977Y36043D01*
X49024Y35974D01*
X49093Y35927D01*
X49175Y35911D01*
X49257Y35927D01*
X49326Y35974D01*
X49373Y36043D01*
X49389Y36125D01*
X49373Y36207D01*
X49326Y36276D01*
X49257Y36323D01*
X49175Y36339D01*
D02*
G37*
G36*
X47440Y35990D02*
X47348Y35971D01*
X47271Y35919D01*
X47219Y35842D01*
X47200Y35750D01*
X47219Y35658D01*
X47271Y35581D01*
X47348Y35529D01*
X47440Y35510D01*
X47532Y35529D01*
X47609Y35581D01*
X47661Y35658D01*
X47680Y35750D01*
X47661Y35842D01*
X47609Y35919D01*
X47532Y35971D01*
X47440Y35990D01*
D02*
G37*
G36*
X41080Y35822D02*
X41012Y35813D01*
X40949Y35787D01*
X40895Y35745D01*
X40853Y35691D01*
X40827Y35628D01*
X40818Y35560D01*
X40827Y35492D01*
X40853Y35429D01*
X40895Y35375D01*
X40949Y35333D01*
X41012Y35307D01*
X41080Y35298D01*
X41148Y35307D01*
X41211Y35333D01*
X41265Y35375D01*
X41307Y35429D01*
X41333Y35492D01*
X41342Y35560D01*
X41333Y35628D01*
X41307Y35691D01*
X41265Y35745D01*
X41211Y35787D01*
X41148Y35813D01*
X41080Y35822D01*
D02*
G37*
G36*
X47375Y33522D02*
Y33075D01*
X47728D01*
Y33125D01*
X47715Y33229D01*
X47674Y33327D01*
X47610Y33410D01*
X47527Y33474D01*
X47429Y33515D01*
X47375Y33522D01*
D02*
G37*
G36*
X46375D02*
Y33075D01*
X46728D01*
Y33125D01*
X46715Y33229D01*
X46674Y33327D01*
X46610Y33410D01*
X46527Y33474D01*
X46429Y33515D01*
X46375Y33522D01*
D02*
G37*
G36*
X45375D02*
Y33075D01*
X45728D01*
Y33125D01*
X45715Y33229D01*
X45674Y33327D01*
X45610Y33410D01*
X45527Y33474D01*
X45429Y33515D01*
X45375Y33522D01*
D02*
G37*
G36*
X44375D02*
Y33075D01*
X44728D01*
Y33125D01*
X44715Y33229D01*
X44674Y33327D01*
X44610Y33410D01*
X44527Y33474D01*
X44429Y33515D01*
X44375Y33522D01*
D02*
G37*
G36*
X47275D02*
X47221Y33515D01*
X47123Y33474D01*
X47040Y33410D01*
X46976Y33327D01*
X46935Y33229D01*
X46922Y33125D01*
Y33075D01*
X47275D01*
Y33522D01*
D02*
G37*
G36*
X46275D02*
X46221Y33515D01*
X46123Y33474D01*
X46040Y33410D01*
X45976Y33327D01*
X45935Y33229D01*
X45922Y33125D01*
Y33075D01*
X46275D01*
Y33522D01*
D02*
G37*
G36*
X45275D02*
X45221Y33515D01*
X45123Y33474D01*
X45040Y33410D01*
X44976Y33327D01*
X44935Y33229D01*
X44922Y33125D01*
Y33075D01*
X45275D01*
Y33522D01*
D02*
G37*
G36*
X44275D02*
X44221Y33515D01*
X44123Y33474D01*
X44040Y33410D01*
X43976Y33327D01*
X43935Y33229D01*
X43922Y33125D01*
Y33075D01*
X44275D01*
Y33522D01*
D02*
G37*
G36*
X32475Y43089D02*
X32393Y43073D01*
X32324Y43026D01*
X32277Y42957D01*
X32261Y42875D01*
X32277Y42793D01*
X32324Y42724D01*
X32393Y42677D01*
X32475Y42661D01*
X32557Y42677D01*
X32626Y42724D01*
X32673Y42793D01*
X32689Y42875D01*
X32673Y42957D01*
X32626Y43026D01*
X32557Y43073D01*
X32475Y43089D01*
D02*
G37*
G36*
X31975D02*
X31893Y43073D01*
X31824Y43026D01*
X31777Y42957D01*
X31761Y42875D01*
X31777Y42793D01*
X31824Y42724D01*
X31893Y42677D01*
X31975Y42661D01*
X32057Y42677D01*
X32126Y42724D01*
X32173Y42793D01*
X32189Y42875D01*
X32173Y42957D01*
X32126Y43026D01*
X32057Y43073D01*
X31975Y43089D01*
D02*
G37*
G36*
X30975Y42839D02*
X30893Y42823D01*
X30824Y42776D01*
X30777Y42707D01*
X30761Y42625D01*
X30777Y42543D01*
X30824Y42474D01*
X30893Y42427D01*
X30975Y42411D01*
X31057Y42427D01*
X31126Y42474D01*
X31173Y42543D01*
X31189Y42625D01*
X31173Y42707D01*
X31126Y42776D01*
X31057Y42823D01*
X30975Y42839D01*
D02*
G37*
G36*
Y42339D02*
X30893Y42323D01*
X30824Y42276D01*
X30777Y42207D01*
X30761Y42125D01*
X30777Y42043D01*
X30824Y41974D01*
X30893Y41927D01*
X30975Y41911D01*
X31057Y41927D01*
X31126Y41974D01*
X31173Y42043D01*
X31189Y42125D01*
X31173Y42207D01*
X31126Y42276D01*
X31057Y42323D01*
X30975Y42339D01*
D02*
G37*
G36*
Y41839D02*
X30893Y41823D01*
X30824Y41776D01*
X30777Y41707D01*
X30761Y41625D01*
X30777Y41543D01*
X30824Y41474D01*
X30893Y41427D01*
X30975Y41411D01*
X31057Y41427D01*
X31126Y41474D01*
X31173Y41543D01*
X31189Y41625D01*
X31173Y41707D01*
X31126Y41776D01*
X31057Y41823D01*
X30975Y41839D01*
D02*
G37*
G36*
Y41339D02*
X30893Y41323D01*
X30824Y41276D01*
X30777Y41207D01*
X30761Y41125D01*
X30777Y41043D01*
X30824Y40974D01*
X30893Y40927D01*
X30975Y40911D01*
X31057Y40927D01*
X31126Y40974D01*
X31173Y41043D01*
X31189Y41125D01*
X31173Y41207D01*
X31126Y41276D01*
X31057Y41323D01*
X30975Y41339D01*
D02*
G37*
G36*
X32475Y41089D02*
X32393Y41073D01*
X32324Y41026D01*
X32277Y40957D01*
X32261Y40875D01*
X32277Y40793D01*
X32324Y40724D01*
X32393Y40677D01*
X32475Y40661D01*
X32557Y40677D01*
X32626Y40724D01*
X32673Y40793D01*
X32689Y40875D01*
X32673Y40957D01*
X32626Y41026D01*
X32557Y41073D01*
X32475Y41089D01*
D02*
G37*
G36*
X31975D02*
X31893Y41073D01*
X31824Y41026D01*
X31777Y40957D01*
X31761Y40875D01*
X31777Y40793D01*
X31824Y40724D01*
X31893Y40677D01*
X31975Y40661D01*
X32057Y40677D01*
X32126Y40724D01*
X32173Y40793D01*
X32189Y40875D01*
X32173Y40957D01*
X32126Y41026D01*
X32057Y41073D01*
X31975Y41089D01*
D02*
G37*
G36*
X32475Y38339D02*
X32393Y38323D01*
X32324Y38276D01*
X32277Y38207D01*
X32261Y38125D01*
X32277Y38043D01*
X32324Y37974D01*
X32393Y37927D01*
X32475Y37911D01*
X32557Y37927D01*
X32626Y37974D01*
X32673Y38043D01*
X32689Y38125D01*
X32673Y38207D01*
X32626Y38276D01*
X32557Y38323D01*
X32475Y38339D01*
D02*
G37*
G36*
X31975D02*
X31893Y38323D01*
X31824Y38276D01*
X31777Y38207D01*
X31761Y38125D01*
X31777Y38043D01*
X31824Y37974D01*
X31893Y37927D01*
X31975Y37911D01*
X32057Y37927D01*
X32126Y37974D01*
X32173Y38043D01*
X32189Y38125D01*
X32173Y38207D01*
X32126Y38276D01*
X32057Y38323D01*
X31975Y38339D01*
D02*
G37*
G36*
X28025Y36839D02*
X27943Y36823D01*
X27874Y36776D01*
X27827Y36707D01*
X27811Y36625D01*
X27827Y36543D01*
X27874Y36474D01*
X27943Y36427D01*
X28025Y36411D01*
X28107Y36427D01*
X28176Y36474D01*
X28223Y36543D01*
X28239Y36625D01*
X28223Y36707D01*
X28176Y36776D01*
X28107Y36823D01*
X28025Y36839D01*
D02*
G37*
G36*
X32475Y36339D02*
X32393Y36323D01*
X32324Y36276D01*
X32277Y36207D01*
X32261Y36125D01*
X32277Y36043D01*
X32324Y35974D01*
X32393Y35927D01*
X32475Y35911D01*
X32557Y35927D01*
X32626Y35974D01*
X32673Y36043D01*
X32689Y36125D01*
X32673Y36207D01*
X32626Y36276D01*
X32557Y36323D01*
X32475Y36339D01*
D02*
G37*
G36*
X31975D02*
X31893Y36323D01*
X31824Y36276D01*
X31777Y36207D01*
X31761Y36125D01*
X31777Y36043D01*
X31824Y35974D01*
X31893Y35927D01*
X31975Y35911D01*
X32057Y35927D01*
X32126Y35974D01*
X32173Y36043D01*
X32189Y36125D01*
X32173Y36207D01*
X32126Y36276D01*
X32057Y36323D01*
X31975Y36339D01*
D02*
G37*
G36*
X30240Y35990D02*
X30148Y35971D01*
X30071Y35919D01*
X30019Y35842D01*
X30000Y35750D01*
X30019Y35658D01*
X30071Y35581D01*
X30148Y35529D01*
X30240Y35510D01*
X30332Y35529D01*
X30409Y35581D01*
X30461Y35658D01*
X30480Y35750D01*
X30461Y35842D01*
X30409Y35919D01*
X30332Y35971D01*
X30240Y35990D01*
D02*
G37*
G36*
X23880Y35822D02*
X23812Y35813D01*
X23749Y35787D01*
X23695Y35745D01*
X23653Y35691D01*
X23627Y35628D01*
X23618Y35560D01*
X23627Y35492D01*
X23653Y35429D01*
X23695Y35375D01*
X23749Y35333D01*
X23812Y35307D01*
X23880Y35298D01*
X23948Y35307D01*
X24011Y35333D01*
X24065Y35375D01*
X24107Y35429D01*
X24133Y35492D01*
X24142Y35560D01*
X24133Y35628D01*
X24107Y35691D01*
X24065Y35745D01*
X24011Y35787D01*
X23948Y35813D01*
X23880Y35822D01*
D02*
G37*
G36*
X30175Y33522D02*
Y33075D01*
X30528D01*
Y33125D01*
X30515Y33229D01*
X30474Y33327D01*
X30410Y33410D01*
X30327Y33474D01*
X30229Y33515D01*
X30175Y33522D01*
D02*
G37*
G36*
X29175D02*
Y33075D01*
X29528D01*
Y33125D01*
X29515Y33229D01*
X29474Y33327D01*
X29410Y33410D01*
X29327Y33474D01*
X29229Y33515D01*
X29175Y33522D01*
D02*
G37*
G36*
X28175D02*
Y33075D01*
X28528D01*
Y33125D01*
X28515Y33229D01*
X28474Y33327D01*
X28410Y33410D01*
X28327Y33474D01*
X28229Y33515D01*
X28175Y33522D01*
D02*
G37*
G36*
X27175D02*
Y33075D01*
X27528D01*
Y33125D01*
X27515Y33229D01*
X27474Y33327D01*
X27410Y33410D01*
X27327Y33474D01*
X27229Y33515D01*
X27175Y33522D01*
D02*
G37*
G36*
X30075D02*
X30021Y33515D01*
X29923Y33474D01*
X29840Y33410D01*
X29776Y33327D01*
X29735Y33229D01*
X29722Y33125D01*
Y33075D01*
X30075D01*
Y33522D01*
D02*
G37*
G36*
X29075D02*
X29021Y33515D01*
X28923Y33474D01*
X28840Y33410D01*
X28776Y33327D01*
X28735Y33229D01*
X28722Y33125D01*
Y33075D01*
X29075D01*
Y33522D01*
D02*
G37*
G36*
X28075D02*
X28021Y33515D01*
X27923Y33474D01*
X27840Y33410D01*
X27776Y33327D01*
X27735Y33229D01*
X27722Y33125D01*
Y33075D01*
X28075D01*
Y33522D01*
D02*
G37*
G36*
X27075D02*
X27021Y33515D01*
X26923Y33474D01*
X26840Y33410D01*
X26776Y33327D01*
X26735Y33229D01*
X26722Y33125D01*
Y33075D01*
X27075D01*
Y33522D01*
D02*
G37*
G36*
X15275Y43089D02*
X15193Y43073D01*
X15124Y43026D01*
X15077Y42957D01*
X15061Y42875D01*
X15077Y42793D01*
X15124Y42724D01*
X15193Y42677D01*
X15275Y42661D01*
X15357Y42677D01*
X15426Y42724D01*
X15473Y42793D01*
X15489Y42875D01*
X15473Y42957D01*
X15426Y43026D01*
X15357Y43073D01*
X15275Y43089D01*
D02*
G37*
G36*
X14775D02*
X14693Y43073D01*
X14624Y43026D01*
X14577Y42957D01*
X14561Y42875D01*
X14577Y42793D01*
X14624Y42724D01*
X14693Y42677D01*
X14775Y42661D01*
X14857Y42677D01*
X14926Y42724D01*
X14973Y42793D01*
X14989Y42875D01*
X14973Y42957D01*
X14926Y43026D01*
X14857Y43073D01*
X14775Y43089D01*
D02*
G37*
G36*
X13775Y42839D02*
X13693Y42823D01*
X13624Y42776D01*
X13577Y42707D01*
X13561Y42625D01*
X13577Y42543D01*
X13624Y42474D01*
X13693Y42427D01*
X13775Y42411D01*
X13857Y42427D01*
X13926Y42474D01*
X13973Y42543D01*
X13989Y42625D01*
X13973Y42707D01*
X13926Y42776D01*
X13857Y42823D01*
X13775Y42839D01*
D02*
G37*
G36*
Y42339D02*
X13693Y42323D01*
X13624Y42276D01*
X13577Y42207D01*
X13561Y42125D01*
X13577Y42043D01*
X13624Y41974D01*
X13693Y41927D01*
X13775Y41911D01*
X13857Y41927D01*
X13926Y41974D01*
X13973Y42043D01*
X13989Y42125D01*
X13973Y42207D01*
X13926Y42276D01*
X13857Y42323D01*
X13775Y42339D01*
D02*
G37*
G36*
Y41839D02*
X13693Y41823D01*
X13624Y41776D01*
X13577Y41707D01*
X13561Y41625D01*
X13577Y41543D01*
X13624Y41474D01*
X13693Y41427D01*
X13775Y41411D01*
X13857Y41427D01*
X13926Y41474D01*
X13973Y41543D01*
X13989Y41625D01*
X13973Y41707D01*
X13926Y41776D01*
X13857Y41823D01*
X13775Y41839D01*
D02*
G37*
G36*
Y41339D02*
X13693Y41323D01*
X13624Y41276D01*
X13577Y41207D01*
X13561Y41125D01*
X13577Y41043D01*
X13624Y40974D01*
X13693Y40927D01*
X13775Y40911D01*
X13857Y40927D01*
X13926Y40974D01*
X13973Y41043D01*
X13989Y41125D01*
X13973Y41207D01*
X13926Y41276D01*
X13857Y41323D01*
X13775Y41339D01*
D02*
G37*
G36*
X15275Y41089D02*
X15193Y41073D01*
X15124Y41026D01*
X15077Y40957D01*
X15061Y40875D01*
X15077Y40793D01*
X15124Y40724D01*
X15193Y40677D01*
X15275Y40661D01*
X15357Y40677D01*
X15426Y40724D01*
X15473Y40793D01*
X15489Y40875D01*
X15473Y40957D01*
X15426Y41026D01*
X15357Y41073D01*
X15275Y41089D01*
D02*
G37*
G36*
X14775D02*
X14693Y41073D01*
X14624Y41026D01*
X14577Y40957D01*
X14561Y40875D01*
X14577Y40793D01*
X14624Y40724D01*
X14693Y40677D01*
X14775Y40661D01*
X14857Y40677D01*
X14926Y40724D01*
X14973Y40793D01*
X14989Y40875D01*
X14973Y40957D01*
X14926Y41026D01*
X14857Y41073D01*
X14775Y41089D01*
D02*
G37*
G36*
X15275Y38339D02*
X15193Y38323D01*
X15124Y38276D01*
X15077Y38207D01*
X15061Y38125D01*
X15077Y38043D01*
X15124Y37974D01*
X15193Y37927D01*
X15275Y37911D01*
X15357Y37927D01*
X15426Y37974D01*
X15473Y38043D01*
X15489Y38125D01*
X15473Y38207D01*
X15426Y38276D01*
X15357Y38323D01*
X15275Y38339D01*
D02*
G37*
G36*
X14775D02*
X14693Y38323D01*
X14624Y38276D01*
X14577Y38207D01*
X14561Y38125D01*
X14577Y38043D01*
X14624Y37974D01*
X14693Y37927D01*
X14775Y37911D01*
X14857Y37927D01*
X14926Y37974D01*
X14973Y38043D01*
X14989Y38125D01*
X14973Y38207D01*
X14926Y38276D01*
X14857Y38323D01*
X14775Y38339D01*
D02*
G37*
G36*
X10825Y36839D02*
X10743Y36823D01*
X10674Y36776D01*
X10627Y36707D01*
X10611Y36625D01*
X10627Y36543D01*
X10674Y36474D01*
X10743Y36427D01*
X10825Y36411D01*
X10907Y36427D01*
X10976Y36474D01*
X11023Y36543D01*
X11039Y36625D01*
X11023Y36707D01*
X10976Y36776D01*
X10907Y36823D01*
X10825Y36839D01*
D02*
G37*
G36*
X15275Y36339D02*
X15193Y36323D01*
X15124Y36276D01*
X15077Y36207D01*
X15061Y36125D01*
X15077Y36043D01*
X15124Y35974D01*
X15193Y35927D01*
X15275Y35911D01*
X15357Y35927D01*
X15426Y35974D01*
X15473Y36043D01*
X15489Y36125D01*
X15473Y36207D01*
X15426Y36276D01*
X15357Y36323D01*
X15275Y36339D01*
D02*
G37*
G36*
X14775D02*
X14693Y36323D01*
X14624Y36276D01*
X14577Y36207D01*
X14561Y36125D01*
X14577Y36043D01*
X14624Y35974D01*
X14693Y35927D01*
X14775Y35911D01*
X14857Y35927D01*
X14926Y35974D01*
X14973Y36043D01*
X14989Y36125D01*
X14973Y36207D01*
X14926Y36276D01*
X14857Y36323D01*
X14775Y36339D01*
D02*
G37*
G36*
X13040Y35990D02*
X12948Y35971D01*
X12871Y35919D01*
X12819Y35842D01*
X12800Y35750D01*
X12819Y35658D01*
X12871Y35581D01*
X12948Y35529D01*
X13040Y35510D01*
X13132Y35529D01*
X13209Y35581D01*
X13261Y35658D01*
X13280Y35750D01*
X13261Y35842D01*
X13209Y35919D01*
X13132Y35971D01*
X13040Y35990D01*
D02*
G37*
G36*
X6680Y35822D02*
X6612Y35813D01*
X6549Y35787D01*
X6495Y35745D01*
X6453Y35691D01*
X6427Y35628D01*
X6418Y35560D01*
X6427Y35492D01*
X6453Y35429D01*
X6495Y35375D01*
X6549Y35333D01*
X6612Y35307D01*
X6680Y35298D01*
X6748Y35307D01*
X6811Y35333D01*
X6865Y35375D01*
X6907Y35429D01*
X6933Y35492D01*
X6942Y35560D01*
X6933Y35628D01*
X6907Y35691D01*
X6865Y35745D01*
X6811Y35787D01*
X6748Y35813D01*
X6680Y35822D01*
D02*
G37*
G36*
X12975Y33522D02*
Y33075D01*
X13328D01*
Y33125D01*
X13315Y33229D01*
X13274Y33327D01*
X13210Y33410D01*
X13127Y33474D01*
X13029Y33515D01*
X12975Y33522D01*
D02*
G37*
G36*
X11975D02*
Y33075D01*
X12328D01*
Y33125D01*
X12315Y33229D01*
X12274Y33327D01*
X12210Y33410D01*
X12127Y33474D01*
X12029Y33515D01*
X11975Y33522D01*
D02*
G37*
G36*
X10975D02*
Y33075D01*
X11328D01*
Y33125D01*
X11315Y33229D01*
X11274Y33327D01*
X11210Y33410D01*
X11127Y33474D01*
X11029Y33515D01*
X10975Y33522D01*
D02*
G37*
G36*
X9975D02*
Y33075D01*
X10328D01*
Y33125D01*
X10315Y33229D01*
X10274Y33327D01*
X10210Y33410D01*
X10127Y33474D01*
X10029Y33515D01*
X9975Y33522D01*
D02*
G37*
G36*
X12875D02*
X12821Y33515D01*
X12723Y33474D01*
X12640Y33410D01*
X12576Y33327D01*
X12535Y33229D01*
X12522Y33125D01*
Y33075D01*
X12875D01*
Y33522D01*
D02*
G37*
G36*
X11875D02*
X11821Y33515D01*
X11723Y33474D01*
X11640Y33410D01*
X11576Y33327D01*
X11535Y33229D01*
X11522Y33125D01*
Y33075D01*
X11875D01*
Y33522D01*
D02*
G37*
G36*
X10875D02*
X10821Y33515D01*
X10723Y33474D01*
X10640Y33410D01*
X10576Y33327D01*
X10535Y33229D01*
X10522Y33125D01*
Y33075D01*
X10875D01*
Y33522D01*
D02*
G37*
G36*
X9875D02*
X9821Y33515D01*
X9723Y33474D01*
X9640Y33410D01*
X9576Y33327D01*
X9535Y33229D01*
X9522Y33125D01*
Y33075D01*
X9875D01*
Y33522D01*
D02*
G37*
G36*
X66875Y28289D02*
X66793Y28273D01*
X66724Y28226D01*
X66677Y28157D01*
X66661Y28075D01*
X66677Y27993D01*
X66724Y27924D01*
X66793Y27877D01*
X66875Y27861D01*
X66957Y27877D01*
X67026Y27924D01*
X67073Y27993D01*
X67089Y28075D01*
X67073Y28157D01*
X67026Y28226D01*
X66957Y28273D01*
X66875Y28289D01*
D02*
G37*
G36*
X66375D02*
X66293Y28273D01*
X66224Y28226D01*
X66177Y28157D01*
X66161Y28075D01*
X66177Y27993D01*
X66224Y27924D01*
X66293Y27877D01*
X66375Y27861D01*
X66457Y27877D01*
X66526Y27924D01*
X66573Y27993D01*
X66589Y28075D01*
X66573Y28157D01*
X66526Y28226D01*
X66457Y28273D01*
X66375Y28289D01*
D02*
G37*
G36*
X65375Y28039D02*
X65293Y28023D01*
X65224Y27976D01*
X65177Y27907D01*
X65161Y27825D01*
X65177Y27743D01*
X65224Y27674D01*
X65293Y27627D01*
X65375Y27611D01*
X65457Y27627D01*
X65526Y27674D01*
X65573Y27743D01*
X65589Y27825D01*
X65573Y27907D01*
X65526Y27976D01*
X65457Y28023D01*
X65375Y28039D01*
D02*
G37*
G36*
Y27539D02*
X65293Y27523D01*
X65224Y27476D01*
X65177Y27407D01*
X65161Y27325D01*
X65177Y27243D01*
X65224Y27174D01*
X65293Y27127D01*
X65375Y27111D01*
X65457Y27127D01*
X65526Y27174D01*
X65573Y27243D01*
X65589Y27325D01*
X65573Y27407D01*
X65526Y27476D01*
X65457Y27523D01*
X65375Y27539D01*
D02*
G37*
G36*
Y27039D02*
X65293Y27023D01*
X65224Y26976D01*
X65177Y26907D01*
X65161Y26825D01*
X65177Y26743D01*
X65224Y26674D01*
X65293Y26627D01*
X65375Y26611D01*
X65457Y26627D01*
X65526Y26674D01*
X65573Y26743D01*
X65589Y26825D01*
X65573Y26907D01*
X65526Y26976D01*
X65457Y27023D01*
X65375Y27039D01*
D02*
G37*
G36*
Y26539D02*
X65293Y26523D01*
X65224Y26476D01*
X65177Y26407D01*
X65161Y26325D01*
X65177Y26243D01*
X65224Y26174D01*
X65293Y26127D01*
X65375Y26111D01*
X65457Y26127D01*
X65526Y26174D01*
X65573Y26243D01*
X65589Y26325D01*
X65573Y26407D01*
X65526Y26476D01*
X65457Y26523D01*
X65375Y26539D01*
D02*
G37*
G36*
X66875Y26289D02*
X66793Y26273D01*
X66724Y26226D01*
X66677Y26157D01*
X66661Y26075D01*
X66677Y25993D01*
X66724Y25924D01*
X66793Y25877D01*
X66875Y25861D01*
X66957Y25877D01*
X67026Y25924D01*
X67073Y25993D01*
X67089Y26075D01*
X67073Y26157D01*
X67026Y26226D01*
X66957Y26273D01*
X66875Y26289D01*
D02*
G37*
G36*
X66375D02*
X66293Y26273D01*
X66224Y26226D01*
X66177Y26157D01*
X66161Y26075D01*
X66177Y25993D01*
X66224Y25924D01*
X66293Y25877D01*
X66375Y25861D01*
X66457Y25877D01*
X66526Y25924D01*
X66573Y25993D01*
X66589Y26075D01*
X66573Y26157D01*
X66526Y26226D01*
X66457Y26273D01*
X66375Y26289D01*
D02*
G37*
G36*
X66875Y23539D02*
X66793Y23523D01*
X66724Y23476D01*
X66677Y23407D01*
X66661Y23325D01*
X66677Y23243D01*
X66724Y23174D01*
X66793Y23127D01*
X66875Y23111D01*
X66957Y23127D01*
X67026Y23174D01*
X67073Y23243D01*
X67089Y23325D01*
X67073Y23407D01*
X67026Y23476D01*
X66957Y23523D01*
X66875Y23539D01*
D02*
G37*
G36*
X66375D02*
X66293Y23523D01*
X66224Y23476D01*
X66177Y23407D01*
X66161Y23325D01*
X66177Y23243D01*
X66224Y23174D01*
X66293Y23127D01*
X66375Y23111D01*
X66457Y23127D01*
X66526Y23174D01*
X66573Y23243D01*
X66589Y23325D01*
X66573Y23407D01*
X66526Y23476D01*
X66457Y23523D01*
X66375Y23539D01*
D02*
G37*
G36*
X62425Y22039D02*
X62343Y22023D01*
X62274Y21976D01*
X62227Y21907D01*
X62211Y21825D01*
X62227Y21743D01*
X62274Y21674D01*
X62343Y21627D01*
X62425Y21611D01*
X62507Y21627D01*
X62576Y21674D01*
X62623Y21743D01*
X62639Y21825D01*
X62623Y21907D01*
X62576Y21976D01*
X62507Y22023D01*
X62425Y22039D01*
D02*
G37*
G36*
X66875Y21539D02*
X66793Y21523D01*
X66724Y21476D01*
X66677Y21407D01*
X66661Y21325D01*
X66677Y21243D01*
X66724Y21174D01*
X66793Y21127D01*
X66875Y21111D01*
X66957Y21127D01*
X67026Y21174D01*
X67073Y21243D01*
X67089Y21325D01*
X67073Y21407D01*
X67026Y21476D01*
X66957Y21523D01*
X66875Y21539D01*
D02*
G37*
G36*
X66375D02*
X66293Y21523D01*
X66224Y21476D01*
X66177Y21407D01*
X66161Y21325D01*
X66177Y21243D01*
X66224Y21174D01*
X66293Y21127D01*
X66375Y21111D01*
X66457Y21127D01*
X66526Y21174D01*
X66573Y21243D01*
X66589Y21325D01*
X66573Y21407D01*
X66526Y21476D01*
X66457Y21523D01*
X66375Y21539D01*
D02*
G37*
G36*
X64640Y21190D02*
X64548Y21171D01*
X64471Y21119D01*
X64419Y21042D01*
X64400Y20950D01*
X64419Y20858D01*
X64471Y20781D01*
X64548Y20729D01*
X64640Y20710D01*
X64732Y20729D01*
X64809Y20781D01*
X64861Y20858D01*
X64880Y20950D01*
X64861Y21042D01*
X64809Y21119D01*
X64732Y21171D01*
X64640Y21190D01*
D02*
G37*
G36*
X58280Y21022D02*
X58212Y21013D01*
X58149Y20987D01*
X58095Y20945D01*
X58053Y20891D01*
X58027Y20828D01*
X58018Y20760D01*
X58027Y20692D01*
X58053Y20629D01*
X58095Y20575D01*
X58149Y20533D01*
X58212Y20507D01*
X58280Y20498D01*
X58348Y20507D01*
X58411Y20533D01*
X58465Y20575D01*
X58507Y20629D01*
X58533Y20692D01*
X58542Y20760D01*
X58533Y20828D01*
X58507Y20891D01*
X58465Y20945D01*
X58411Y20987D01*
X58348Y21013D01*
X58280Y21022D01*
D02*
G37*
G36*
X64575Y18722D02*
Y18275D01*
X64928D01*
Y18325D01*
X64915Y18429D01*
X64874Y18527D01*
X64810Y18610D01*
X64727Y18674D01*
X64629Y18715D01*
X64575Y18722D01*
D02*
G37*
G36*
X63575D02*
Y18275D01*
X63928D01*
Y18325D01*
X63915Y18429D01*
X63874Y18527D01*
X63810Y18610D01*
X63727Y18674D01*
X63629Y18715D01*
X63575Y18722D01*
D02*
G37*
G36*
X62575D02*
Y18275D01*
X62928D01*
Y18325D01*
X62915Y18429D01*
X62874Y18527D01*
X62810Y18610D01*
X62727Y18674D01*
X62629Y18715D01*
X62575Y18722D01*
D02*
G37*
G36*
X61575D02*
Y18275D01*
X61928D01*
Y18325D01*
X61915Y18429D01*
X61874Y18527D01*
X61810Y18610D01*
X61727Y18674D01*
X61629Y18715D01*
X61575Y18722D01*
D02*
G37*
G36*
X64475D02*
X64421Y18715D01*
X64323Y18674D01*
X64240Y18610D01*
X64176Y18527D01*
X64135Y18429D01*
X64122Y18325D01*
Y18275D01*
X64475D01*
Y18722D01*
D02*
G37*
G36*
X63475D02*
X63421Y18715D01*
X63323Y18674D01*
X63240Y18610D01*
X63176Y18527D01*
X63135Y18429D01*
X63122Y18325D01*
Y18275D01*
X63475D01*
Y18722D01*
D02*
G37*
G36*
X62475D02*
X62421Y18715D01*
X62323Y18674D01*
X62240Y18610D01*
X62176Y18527D01*
X62135Y18429D01*
X62122Y18325D01*
Y18275D01*
X62475D01*
Y18722D01*
D02*
G37*
G36*
X61475D02*
X61421Y18715D01*
X61323Y18674D01*
X61240Y18610D01*
X61176Y18527D01*
X61135Y18429D01*
X61122Y18325D01*
Y18275D01*
X61475D01*
Y18722D01*
D02*
G37*
G36*
X49675Y28289D02*
X49593Y28273D01*
X49524Y28226D01*
X49477Y28157D01*
X49461Y28075D01*
X49477Y27993D01*
X49524Y27924D01*
X49593Y27877D01*
X49675Y27861D01*
X49757Y27877D01*
X49826Y27924D01*
X49873Y27993D01*
X49889Y28075D01*
X49873Y28157D01*
X49826Y28226D01*
X49757Y28273D01*
X49675Y28289D01*
D02*
G37*
G36*
X49175D02*
X49093Y28273D01*
X49024Y28226D01*
X48977Y28157D01*
X48961Y28075D01*
X48977Y27993D01*
X49024Y27924D01*
X49093Y27877D01*
X49175Y27861D01*
X49257Y27877D01*
X49326Y27924D01*
X49373Y27993D01*
X49389Y28075D01*
X49373Y28157D01*
X49326Y28226D01*
X49257Y28273D01*
X49175Y28289D01*
D02*
G37*
G36*
X48175Y28039D02*
X48093Y28023D01*
X48024Y27976D01*
X47977Y27907D01*
X47961Y27825D01*
X47977Y27743D01*
X48024Y27674D01*
X48093Y27627D01*
X48175Y27611D01*
X48257Y27627D01*
X48326Y27674D01*
X48373Y27743D01*
X48389Y27825D01*
X48373Y27907D01*
X48326Y27976D01*
X48257Y28023D01*
X48175Y28039D01*
D02*
G37*
G36*
Y27539D02*
X48093Y27523D01*
X48024Y27476D01*
X47977Y27407D01*
X47961Y27325D01*
X47977Y27243D01*
X48024Y27174D01*
X48093Y27127D01*
X48175Y27111D01*
X48257Y27127D01*
X48326Y27174D01*
X48373Y27243D01*
X48389Y27325D01*
X48373Y27407D01*
X48326Y27476D01*
X48257Y27523D01*
X48175Y27539D01*
D02*
G37*
G36*
Y27039D02*
X48093Y27023D01*
X48024Y26976D01*
X47977Y26907D01*
X47961Y26825D01*
X47977Y26743D01*
X48024Y26674D01*
X48093Y26627D01*
X48175Y26611D01*
X48257Y26627D01*
X48326Y26674D01*
X48373Y26743D01*
X48389Y26825D01*
X48373Y26907D01*
X48326Y26976D01*
X48257Y27023D01*
X48175Y27039D01*
D02*
G37*
G36*
Y26539D02*
X48093Y26523D01*
X48024Y26476D01*
X47977Y26407D01*
X47961Y26325D01*
X47977Y26243D01*
X48024Y26174D01*
X48093Y26127D01*
X48175Y26111D01*
X48257Y26127D01*
X48326Y26174D01*
X48373Y26243D01*
X48389Y26325D01*
X48373Y26407D01*
X48326Y26476D01*
X48257Y26523D01*
X48175Y26539D01*
D02*
G37*
G36*
X49675Y26289D02*
X49593Y26273D01*
X49524Y26226D01*
X49477Y26157D01*
X49461Y26075D01*
X49477Y25993D01*
X49524Y25924D01*
X49593Y25877D01*
X49675Y25861D01*
X49757Y25877D01*
X49826Y25924D01*
X49873Y25993D01*
X49889Y26075D01*
X49873Y26157D01*
X49826Y26226D01*
X49757Y26273D01*
X49675Y26289D01*
D02*
G37*
G36*
X49175D02*
X49093Y26273D01*
X49024Y26226D01*
X48977Y26157D01*
X48961Y26075D01*
X48977Y25993D01*
X49024Y25924D01*
X49093Y25877D01*
X49175Y25861D01*
X49257Y25877D01*
X49326Y25924D01*
X49373Y25993D01*
X49389Y26075D01*
X49373Y26157D01*
X49326Y26226D01*
X49257Y26273D01*
X49175Y26289D01*
D02*
G37*
G36*
X49675Y23539D02*
X49593Y23523D01*
X49524Y23476D01*
X49477Y23407D01*
X49461Y23325D01*
X49477Y23243D01*
X49524Y23174D01*
X49593Y23127D01*
X49675Y23111D01*
X49757Y23127D01*
X49826Y23174D01*
X49873Y23243D01*
X49889Y23325D01*
X49873Y23407D01*
X49826Y23476D01*
X49757Y23523D01*
X49675Y23539D01*
D02*
G37*
G36*
X49175D02*
X49093Y23523D01*
X49024Y23476D01*
X48977Y23407D01*
X48961Y23325D01*
X48977Y23243D01*
X49024Y23174D01*
X49093Y23127D01*
X49175Y23111D01*
X49257Y23127D01*
X49326Y23174D01*
X49373Y23243D01*
X49389Y23325D01*
X49373Y23407D01*
X49326Y23476D01*
X49257Y23523D01*
X49175Y23539D01*
D02*
G37*
G36*
X45225Y22039D02*
X45143Y22023D01*
X45074Y21976D01*
X45027Y21907D01*
X45011Y21825D01*
X45027Y21743D01*
X45074Y21674D01*
X45143Y21627D01*
X45225Y21611D01*
X45307Y21627D01*
X45376Y21674D01*
X45423Y21743D01*
X45439Y21825D01*
X45423Y21907D01*
X45376Y21976D01*
X45307Y22023D01*
X45225Y22039D01*
D02*
G37*
G36*
X49675Y21539D02*
X49593Y21523D01*
X49524Y21476D01*
X49477Y21407D01*
X49461Y21325D01*
X49477Y21243D01*
X49524Y21174D01*
X49593Y21127D01*
X49675Y21111D01*
X49757Y21127D01*
X49826Y21174D01*
X49873Y21243D01*
X49889Y21325D01*
X49873Y21407D01*
X49826Y21476D01*
X49757Y21523D01*
X49675Y21539D01*
D02*
G37*
G36*
X49175D02*
X49093Y21523D01*
X49024Y21476D01*
X48977Y21407D01*
X48961Y21325D01*
X48977Y21243D01*
X49024Y21174D01*
X49093Y21127D01*
X49175Y21111D01*
X49257Y21127D01*
X49326Y21174D01*
X49373Y21243D01*
X49389Y21325D01*
X49373Y21407D01*
X49326Y21476D01*
X49257Y21523D01*
X49175Y21539D01*
D02*
G37*
G36*
X47440Y21190D02*
X47348Y21171D01*
X47271Y21119D01*
X47219Y21042D01*
X47200Y20950D01*
X47219Y20858D01*
X47271Y20781D01*
X47348Y20729D01*
X47440Y20710D01*
X47532Y20729D01*
X47609Y20781D01*
X47661Y20858D01*
X47680Y20950D01*
X47661Y21042D01*
X47609Y21119D01*
X47532Y21171D01*
X47440Y21190D01*
D02*
G37*
G36*
X41080Y21022D02*
X41012Y21013D01*
X40949Y20987D01*
X40895Y20945D01*
X40853Y20891D01*
X40827Y20828D01*
X40818Y20760D01*
X40827Y20692D01*
X40853Y20629D01*
X40895Y20575D01*
X40949Y20533D01*
X41012Y20507D01*
X41080Y20498D01*
X41148Y20507D01*
X41211Y20533D01*
X41265Y20575D01*
X41307Y20629D01*
X41333Y20692D01*
X41342Y20760D01*
X41333Y20828D01*
X41307Y20891D01*
X41265Y20945D01*
X41211Y20987D01*
X41148Y21013D01*
X41080Y21022D01*
D02*
G37*
G36*
X47375Y18722D02*
Y18275D01*
X47728D01*
Y18325D01*
X47715Y18429D01*
X47674Y18527D01*
X47610Y18610D01*
X47527Y18674D01*
X47429Y18715D01*
X47375Y18722D01*
D02*
G37*
G36*
X46375D02*
Y18275D01*
X46728D01*
Y18325D01*
X46715Y18429D01*
X46674Y18527D01*
X46610Y18610D01*
X46527Y18674D01*
X46429Y18715D01*
X46375Y18722D01*
D02*
G37*
G36*
X45375D02*
Y18275D01*
X45728D01*
Y18325D01*
X45715Y18429D01*
X45674Y18527D01*
X45610Y18610D01*
X45527Y18674D01*
X45429Y18715D01*
X45375Y18722D01*
D02*
G37*
G36*
X44375D02*
Y18275D01*
X44728D01*
Y18325D01*
X44715Y18429D01*
X44674Y18527D01*
X44610Y18610D01*
X44527Y18674D01*
X44429Y18715D01*
X44375Y18722D01*
D02*
G37*
G36*
X47275D02*
X47221Y18715D01*
X47123Y18674D01*
X47040Y18610D01*
X46976Y18527D01*
X46935Y18429D01*
X46922Y18325D01*
Y18275D01*
X47275D01*
Y18722D01*
D02*
G37*
G36*
X46275D02*
X46221Y18715D01*
X46123Y18674D01*
X46040Y18610D01*
X45976Y18527D01*
X45935Y18429D01*
X45922Y18325D01*
Y18275D01*
X46275D01*
Y18722D01*
D02*
G37*
G36*
X45275D02*
X45221Y18715D01*
X45123Y18674D01*
X45040Y18610D01*
X44976Y18527D01*
X44935Y18429D01*
X44922Y18325D01*
Y18275D01*
X45275D01*
Y18722D01*
D02*
G37*
G36*
X44275D02*
X44221Y18715D01*
X44123Y18674D01*
X44040Y18610D01*
X43976Y18527D01*
X43935Y18429D01*
X43922Y18325D01*
Y18275D01*
X44275D01*
Y18722D01*
D02*
G37*
G36*
X32475Y28289D02*
X32393Y28273D01*
X32324Y28226D01*
X32277Y28157D01*
X32261Y28075D01*
X32277Y27993D01*
X32324Y27924D01*
X32393Y27877D01*
X32475Y27861D01*
X32557Y27877D01*
X32626Y27924D01*
X32673Y27993D01*
X32689Y28075D01*
X32673Y28157D01*
X32626Y28226D01*
X32557Y28273D01*
X32475Y28289D01*
D02*
G37*
G36*
X31975D02*
X31893Y28273D01*
X31824Y28226D01*
X31777Y28157D01*
X31761Y28075D01*
X31777Y27993D01*
X31824Y27924D01*
X31893Y27877D01*
X31975Y27861D01*
X32057Y27877D01*
X32126Y27924D01*
X32173Y27993D01*
X32189Y28075D01*
X32173Y28157D01*
X32126Y28226D01*
X32057Y28273D01*
X31975Y28289D01*
D02*
G37*
G36*
X30975Y28039D02*
X30893Y28023D01*
X30824Y27976D01*
X30777Y27907D01*
X30761Y27825D01*
X30777Y27743D01*
X30824Y27674D01*
X30893Y27627D01*
X30975Y27611D01*
X31057Y27627D01*
X31126Y27674D01*
X31173Y27743D01*
X31189Y27825D01*
X31173Y27907D01*
X31126Y27976D01*
X31057Y28023D01*
X30975Y28039D01*
D02*
G37*
G36*
Y27539D02*
X30893Y27523D01*
X30824Y27476D01*
X30777Y27407D01*
X30761Y27325D01*
X30777Y27243D01*
X30824Y27174D01*
X30893Y27127D01*
X30975Y27111D01*
X31057Y27127D01*
X31126Y27174D01*
X31173Y27243D01*
X31189Y27325D01*
X31173Y27407D01*
X31126Y27476D01*
X31057Y27523D01*
X30975Y27539D01*
D02*
G37*
G36*
Y27039D02*
X30893Y27023D01*
X30824Y26976D01*
X30777Y26907D01*
X30761Y26825D01*
X30777Y26743D01*
X30824Y26674D01*
X30893Y26627D01*
X30975Y26611D01*
X31057Y26627D01*
X31126Y26674D01*
X31173Y26743D01*
X31189Y26825D01*
X31173Y26907D01*
X31126Y26976D01*
X31057Y27023D01*
X30975Y27039D01*
D02*
G37*
G36*
Y26539D02*
X30893Y26523D01*
X30824Y26476D01*
X30777Y26407D01*
X30761Y26325D01*
X30777Y26243D01*
X30824Y26174D01*
X30893Y26127D01*
X30975Y26111D01*
X31057Y26127D01*
X31126Y26174D01*
X31173Y26243D01*
X31189Y26325D01*
X31173Y26407D01*
X31126Y26476D01*
X31057Y26523D01*
X30975Y26539D01*
D02*
G37*
G36*
X32475Y26289D02*
X32393Y26273D01*
X32324Y26226D01*
X32277Y26157D01*
X32261Y26075D01*
X32277Y25993D01*
X32324Y25924D01*
X32393Y25877D01*
X32475Y25861D01*
X32557Y25877D01*
X32626Y25924D01*
X32673Y25993D01*
X32689Y26075D01*
X32673Y26157D01*
X32626Y26226D01*
X32557Y26273D01*
X32475Y26289D01*
D02*
G37*
G36*
X31975D02*
X31893Y26273D01*
X31824Y26226D01*
X31777Y26157D01*
X31761Y26075D01*
X31777Y25993D01*
X31824Y25924D01*
X31893Y25877D01*
X31975Y25861D01*
X32057Y25877D01*
X32126Y25924D01*
X32173Y25993D01*
X32189Y26075D01*
X32173Y26157D01*
X32126Y26226D01*
X32057Y26273D01*
X31975Y26289D01*
D02*
G37*
G36*
X32475Y23539D02*
X32393Y23523D01*
X32324Y23476D01*
X32277Y23407D01*
X32261Y23325D01*
X32277Y23243D01*
X32324Y23174D01*
X32393Y23127D01*
X32475Y23111D01*
X32557Y23127D01*
X32626Y23174D01*
X32673Y23243D01*
X32689Y23325D01*
X32673Y23407D01*
X32626Y23476D01*
X32557Y23523D01*
X32475Y23539D01*
D02*
G37*
G36*
X31975D02*
X31893Y23523D01*
X31824Y23476D01*
X31777Y23407D01*
X31761Y23325D01*
X31777Y23243D01*
X31824Y23174D01*
X31893Y23127D01*
X31975Y23111D01*
X32057Y23127D01*
X32126Y23174D01*
X32173Y23243D01*
X32189Y23325D01*
X32173Y23407D01*
X32126Y23476D01*
X32057Y23523D01*
X31975Y23539D01*
D02*
G37*
G36*
X28025Y22039D02*
X27943Y22023D01*
X27874Y21976D01*
X27827Y21907D01*
X27811Y21825D01*
X27827Y21743D01*
X27874Y21674D01*
X27943Y21627D01*
X28025Y21611D01*
X28107Y21627D01*
X28176Y21674D01*
X28223Y21743D01*
X28239Y21825D01*
X28223Y21907D01*
X28176Y21976D01*
X28107Y22023D01*
X28025Y22039D01*
D02*
G37*
G36*
X32475Y21539D02*
X32393Y21523D01*
X32324Y21476D01*
X32277Y21407D01*
X32261Y21325D01*
X32277Y21243D01*
X32324Y21174D01*
X32393Y21127D01*
X32475Y21111D01*
X32557Y21127D01*
X32626Y21174D01*
X32673Y21243D01*
X32689Y21325D01*
X32673Y21407D01*
X32626Y21476D01*
X32557Y21523D01*
X32475Y21539D01*
D02*
G37*
G36*
X31975D02*
X31893Y21523D01*
X31824Y21476D01*
X31777Y21407D01*
X31761Y21325D01*
X31777Y21243D01*
X31824Y21174D01*
X31893Y21127D01*
X31975Y21111D01*
X32057Y21127D01*
X32126Y21174D01*
X32173Y21243D01*
X32189Y21325D01*
X32173Y21407D01*
X32126Y21476D01*
X32057Y21523D01*
X31975Y21539D01*
D02*
G37*
G36*
X30240Y21190D02*
X30148Y21171D01*
X30071Y21119D01*
X30019Y21042D01*
X30000Y20950D01*
X30019Y20858D01*
X30071Y20781D01*
X30148Y20729D01*
X30240Y20710D01*
X30332Y20729D01*
X30409Y20781D01*
X30461Y20858D01*
X30480Y20950D01*
X30461Y21042D01*
X30409Y21119D01*
X30332Y21171D01*
X30240Y21190D01*
D02*
G37*
G36*
X23880Y21022D02*
X23812Y21013D01*
X23749Y20987D01*
X23695Y20945D01*
X23653Y20891D01*
X23627Y20828D01*
X23618Y20760D01*
X23627Y20692D01*
X23653Y20629D01*
X23695Y20575D01*
X23749Y20533D01*
X23812Y20507D01*
X23880Y20498D01*
X23948Y20507D01*
X24011Y20533D01*
X24065Y20575D01*
X24107Y20629D01*
X24133Y20692D01*
X24142Y20760D01*
X24133Y20828D01*
X24107Y20891D01*
X24065Y20945D01*
X24011Y20987D01*
X23948Y21013D01*
X23880Y21022D01*
D02*
G37*
G36*
X30175Y18722D02*
Y18275D01*
X30528D01*
Y18325D01*
X30515Y18429D01*
X30474Y18527D01*
X30410Y18610D01*
X30327Y18674D01*
X30229Y18715D01*
X30175Y18722D01*
D02*
G37*
G36*
X29175D02*
Y18275D01*
X29528D01*
Y18325D01*
X29515Y18429D01*
X29474Y18527D01*
X29410Y18610D01*
X29327Y18674D01*
X29229Y18715D01*
X29175Y18722D01*
D02*
G37*
G36*
X28175D02*
Y18275D01*
X28528D01*
Y18325D01*
X28515Y18429D01*
X28474Y18527D01*
X28410Y18610D01*
X28327Y18674D01*
X28229Y18715D01*
X28175Y18722D01*
D02*
G37*
G36*
X27175D02*
Y18275D01*
X27528D01*
Y18325D01*
X27515Y18429D01*
X27474Y18527D01*
X27410Y18610D01*
X27327Y18674D01*
X27229Y18715D01*
X27175Y18722D01*
D02*
G37*
G36*
X30075D02*
X30021Y18715D01*
X29923Y18674D01*
X29840Y18610D01*
X29776Y18527D01*
X29735Y18429D01*
X29722Y18325D01*
Y18275D01*
X30075D01*
Y18722D01*
D02*
G37*
G36*
X29075D02*
X29021Y18715D01*
X28923Y18674D01*
X28840Y18610D01*
X28776Y18527D01*
X28735Y18429D01*
X28722Y18325D01*
Y18275D01*
X29075D01*
Y18722D01*
D02*
G37*
G36*
X28075D02*
X28021Y18715D01*
X27923Y18674D01*
X27840Y18610D01*
X27776Y18527D01*
X27735Y18429D01*
X27722Y18325D01*
Y18275D01*
X28075D01*
Y18722D01*
D02*
G37*
G36*
X27075D02*
X27021Y18715D01*
X26923Y18674D01*
X26840Y18610D01*
X26776Y18527D01*
X26735Y18429D01*
X26722Y18325D01*
Y18275D01*
X27075D01*
Y18722D01*
D02*
G37*
G36*
X15275Y28289D02*
X15193Y28273D01*
X15124Y28226D01*
X15077Y28157D01*
X15061Y28075D01*
X15077Y27993D01*
X15124Y27924D01*
X15193Y27877D01*
X15275Y27861D01*
X15357Y27877D01*
X15426Y27924D01*
X15473Y27993D01*
X15489Y28075D01*
X15473Y28157D01*
X15426Y28226D01*
X15357Y28273D01*
X15275Y28289D01*
D02*
G37*
G36*
X14775D02*
X14693Y28273D01*
X14624Y28226D01*
X14577Y28157D01*
X14561Y28075D01*
X14577Y27993D01*
X14624Y27924D01*
X14693Y27877D01*
X14775Y27861D01*
X14857Y27877D01*
X14926Y27924D01*
X14973Y27993D01*
X14989Y28075D01*
X14973Y28157D01*
X14926Y28226D01*
X14857Y28273D01*
X14775Y28289D01*
D02*
G37*
G36*
X13775Y28039D02*
X13693Y28023D01*
X13624Y27976D01*
X13577Y27907D01*
X13561Y27825D01*
X13577Y27743D01*
X13624Y27674D01*
X13693Y27627D01*
X13775Y27611D01*
X13857Y27627D01*
X13926Y27674D01*
X13973Y27743D01*
X13989Y27825D01*
X13973Y27907D01*
X13926Y27976D01*
X13857Y28023D01*
X13775Y28039D01*
D02*
G37*
G36*
Y27539D02*
X13693Y27523D01*
X13624Y27476D01*
X13577Y27407D01*
X13561Y27325D01*
X13577Y27243D01*
X13624Y27174D01*
X13693Y27127D01*
X13775Y27111D01*
X13857Y27127D01*
X13926Y27174D01*
X13973Y27243D01*
X13989Y27325D01*
X13973Y27407D01*
X13926Y27476D01*
X13857Y27523D01*
X13775Y27539D01*
D02*
G37*
G36*
Y27039D02*
X13693Y27023D01*
X13624Y26976D01*
X13577Y26907D01*
X13561Y26825D01*
X13577Y26743D01*
X13624Y26674D01*
X13693Y26627D01*
X13775Y26611D01*
X13857Y26627D01*
X13926Y26674D01*
X13973Y26743D01*
X13989Y26825D01*
X13973Y26907D01*
X13926Y26976D01*
X13857Y27023D01*
X13775Y27039D01*
D02*
G37*
G36*
Y26539D02*
X13693Y26523D01*
X13624Y26476D01*
X13577Y26407D01*
X13561Y26325D01*
X13577Y26243D01*
X13624Y26174D01*
X13693Y26127D01*
X13775Y26111D01*
X13857Y26127D01*
X13926Y26174D01*
X13973Y26243D01*
X13989Y26325D01*
X13973Y26407D01*
X13926Y26476D01*
X13857Y26523D01*
X13775Y26539D01*
D02*
G37*
G36*
X15275Y26289D02*
X15193Y26273D01*
X15124Y26226D01*
X15077Y26157D01*
X15061Y26075D01*
X15077Y25993D01*
X15124Y25924D01*
X15193Y25877D01*
X15275Y25861D01*
X15357Y25877D01*
X15426Y25924D01*
X15473Y25993D01*
X15489Y26075D01*
X15473Y26157D01*
X15426Y26226D01*
X15357Y26273D01*
X15275Y26289D01*
D02*
G37*
G36*
X14775D02*
X14693Y26273D01*
X14624Y26226D01*
X14577Y26157D01*
X14561Y26075D01*
X14577Y25993D01*
X14624Y25924D01*
X14693Y25877D01*
X14775Y25861D01*
X14857Y25877D01*
X14926Y25924D01*
X14973Y25993D01*
X14989Y26075D01*
X14973Y26157D01*
X14926Y26226D01*
X14857Y26273D01*
X14775Y26289D01*
D02*
G37*
G36*
X15275Y23539D02*
X15193Y23523D01*
X15124Y23476D01*
X15077Y23407D01*
X15061Y23325D01*
X15077Y23243D01*
X15124Y23174D01*
X15193Y23127D01*
X15275Y23111D01*
X15357Y23127D01*
X15426Y23174D01*
X15473Y23243D01*
X15489Y23325D01*
X15473Y23407D01*
X15426Y23476D01*
X15357Y23523D01*
X15275Y23539D01*
D02*
G37*
G36*
X14775D02*
X14693Y23523D01*
X14624Y23476D01*
X14577Y23407D01*
X14561Y23325D01*
X14577Y23243D01*
X14624Y23174D01*
X14693Y23127D01*
X14775Y23111D01*
X14857Y23127D01*
X14926Y23174D01*
X14973Y23243D01*
X14989Y23325D01*
X14973Y23407D01*
X14926Y23476D01*
X14857Y23523D01*
X14775Y23539D01*
D02*
G37*
G36*
X10825Y22039D02*
X10743Y22023D01*
X10674Y21976D01*
X10627Y21907D01*
X10611Y21825D01*
X10627Y21743D01*
X10674Y21674D01*
X10743Y21627D01*
X10825Y21611D01*
X10907Y21627D01*
X10976Y21674D01*
X11023Y21743D01*
X11039Y21825D01*
X11023Y21907D01*
X10976Y21976D01*
X10907Y22023D01*
X10825Y22039D01*
D02*
G37*
G36*
X15275Y21539D02*
X15193Y21523D01*
X15124Y21476D01*
X15077Y21407D01*
X15061Y21325D01*
X15077Y21243D01*
X15124Y21174D01*
X15193Y21127D01*
X15275Y21111D01*
X15357Y21127D01*
X15426Y21174D01*
X15473Y21243D01*
X15489Y21325D01*
X15473Y21407D01*
X15426Y21476D01*
X15357Y21523D01*
X15275Y21539D01*
D02*
G37*
G36*
X14775D02*
X14693Y21523D01*
X14624Y21476D01*
X14577Y21407D01*
X14561Y21325D01*
X14577Y21243D01*
X14624Y21174D01*
X14693Y21127D01*
X14775Y21111D01*
X14857Y21127D01*
X14926Y21174D01*
X14973Y21243D01*
X14989Y21325D01*
X14973Y21407D01*
X14926Y21476D01*
X14857Y21523D01*
X14775Y21539D01*
D02*
G37*
G36*
X13040Y21190D02*
X12948Y21171D01*
X12871Y21119D01*
X12819Y21042D01*
X12800Y20950D01*
X12819Y20858D01*
X12871Y20781D01*
X12948Y20729D01*
X13040Y20710D01*
X13132Y20729D01*
X13209Y20781D01*
X13261Y20858D01*
X13280Y20950D01*
X13261Y21042D01*
X13209Y21119D01*
X13132Y21171D01*
X13040Y21190D01*
D02*
G37*
G36*
X6680Y21022D02*
X6612Y21013D01*
X6549Y20987D01*
X6495Y20945D01*
X6453Y20891D01*
X6427Y20828D01*
X6418Y20760D01*
X6427Y20692D01*
X6453Y20629D01*
X6495Y20575D01*
X6549Y20533D01*
X6612Y20507D01*
X6680Y20498D01*
X6748Y20507D01*
X6811Y20533D01*
X6865Y20575D01*
X6907Y20629D01*
X6933Y20692D01*
X6942Y20760D01*
X6933Y20828D01*
X6907Y20891D01*
X6865Y20945D01*
X6811Y20987D01*
X6748Y21013D01*
X6680Y21022D01*
D02*
G37*
G36*
X12975Y18722D02*
Y18275D01*
X13328D01*
Y18325D01*
X13315Y18429D01*
X13274Y18527D01*
X13210Y18610D01*
X13127Y18674D01*
X13029Y18715D01*
X12975Y18722D01*
D02*
G37*
G36*
X11975D02*
Y18275D01*
X12328D01*
Y18325D01*
X12315Y18429D01*
X12274Y18527D01*
X12210Y18610D01*
X12127Y18674D01*
X12029Y18715D01*
X11975Y18722D01*
D02*
G37*
G36*
X10975D02*
Y18275D01*
X11328D01*
Y18325D01*
X11315Y18429D01*
X11274Y18527D01*
X11210Y18610D01*
X11127Y18674D01*
X11029Y18715D01*
X10975Y18722D01*
D02*
G37*
G36*
X9975D02*
Y18275D01*
X10328D01*
Y18325D01*
X10315Y18429D01*
X10274Y18527D01*
X10210Y18610D01*
X10127Y18674D01*
X10029Y18715D01*
X9975Y18722D01*
D02*
G37*
G36*
X12875D02*
X12821Y18715D01*
X12723Y18674D01*
X12640Y18610D01*
X12576Y18527D01*
X12535Y18429D01*
X12522Y18325D01*
Y18275D01*
X12875D01*
Y18722D01*
D02*
G37*
G36*
X11875D02*
X11821Y18715D01*
X11723Y18674D01*
X11640Y18610D01*
X11576Y18527D01*
X11535Y18429D01*
X11522Y18325D01*
Y18275D01*
X11875D01*
Y18722D01*
D02*
G37*
G36*
X10875D02*
X10821Y18715D01*
X10723Y18674D01*
X10640Y18610D01*
X10576Y18527D01*
X10535Y18429D01*
X10522Y18325D01*
Y18275D01*
X10875D01*
Y18722D01*
D02*
G37*
G36*
X9875D02*
X9821Y18715D01*
X9723Y18674D01*
X9640Y18610D01*
X9576Y18527D01*
X9535Y18429D01*
X9522Y18325D01*
Y18275D01*
X9875D01*
Y18722D01*
D02*
G37*
G36*
X66875Y13489D02*
X66793Y13473D01*
X66724Y13426D01*
X66677Y13357D01*
X66661Y13275D01*
X66677Y13193D01*
X66724Y13124D01*
X66793Y13077D01*
X66875Y13061D01*
X66957Y13077D01*
X67026Y13124D01*
X67073Y13193D01*
X67089Y13275D01*
X67073Y13357D01*
X67026Y13426D01*
X66957Y13473D01*
X66875Y13489D01*
D02*
G37*
G36*
X66375D02*
X66293Y13473D01*
X66224Y13426D01*
X66177Y13357D01*
X66161Y13275D01*
X66177Y13193D01*
X66224Y13124D01*
X66293Y13077D01*
X66375Y13061D01*
X66457Y13077D01*
X66526Y13124D01*
X66573Y13193D01*
X66589Y13275D01*
X66573Y13357D01*
X66526Y13426D01*
X66457Y13473D01*
X66375Y13489D01*
D02*
G37*
G36*
X65375Y13239D02*
X65293Y13223D01*
X65224Y13176D01*
X65177Y13107D01*
X65161Y13025D01*
X65177Y12943D01*
X65224Y12874D01*
X65293Y12827D01*
X65375Y12811D01*
X65457Y12827D01*
X65526Y12874D01*
X65573Y12943D01*
X65589Y13025D01*
X65573Y13107D01*
X65526Y13176D01*
X65457Y13223D01*
X65375Y13239D01*
D02*
G37*
G36*
Y12739D02*
X65293Y12723D01*
X65224Y12676D01*
X65177Y12607D01*
X65161Y12525D01*
X65177Y12443D01*
X65224Y12374D01*
X65293Y12327D01*
X65375Y12311D01*
X65457Y12327D01*
X65526Y12374D01*
X65573Y12443D01*
X65589Y12525D01*
X65573Y12607D01*
X65526Y12676D01*
X65457Y12723D01*
X65375Y12739D01*
D02*
G37*
G36*
Y12239D02*
X65293Y12223D01*
X65224Y12176D01*
X65177Y12107D01*
X65161Y12025D01*
X65177Y11943D01*
X65224Y11874D01*
X65293Y11827D01*
X65375Y11811D01*
X65457Y11827D01*
X65526Y11874D01*
X65573Y11943D01*
X65589Y12025D01*
X65573Y12107D01*
X65526Y12176D01*
X65457Y12223D01*
X65375Y12239D01*
D02*
G37*
G36*
Y11739D02*
X65293Y11723D01*
X65224Y11676D01*
X65177Y11607D01*
X65161Y11525D01*
X65177Y11443D01*
X65224Y11374D01*
X65293Y11327D01*
X65375Y11311D01*
X65457Y11327D01*
X65526Y11374D01*
X65573Y11443D01*
X65589Y11525D01*
X65573Y11607D01*
X65526Y11676D01*
X65457Y11723D01*
X65375Y11739D01*
D02*
G37*
G36*
X66875Y11489D02*
X66793Y11473D01*
X66724Y11426D01*
X66677Y11357D01*
X66661Y11275D01*
X66677Y11193D01*
X66724Y11124D01*
X66793Y11077D01*
X66875Y11061D01*
X66957Y11077D01*
X67026Y11124D01*
X67073Y11193D01*
X67089Y11275D01*
X67073Y11357D01*
X67026Y11426D01*
X66957Y11473D01*
X66875Y11489D01*
D02*
G37*
G36*
X66375D02*
X66293Y11473D01*
X66224Y11426D01*
X66177Y11357D01*
X66161Y11275D01*
X66177Y11193D01*
X66224Y11124D01*
X66293Y11077D01*
X66375Y11061D01*
X66457Y11077D01*
X66526Y11124D01*
X66573Y11193D01*
X66589Y11275D01*
X66573Y11357D01*
X66526Y11426D01*
X66457Y11473D01*
X66375Y11489D01*
D02*
G37*
G36*
X66875Y8739D02*
X66793Y8723D01*
X66724Y8676D01*
X66677Y8607D01*
X66661Y8525D01*
X66677Y8443D01*
X66724Y8374D01*
X66793Y8327D01*
X66875Y8311D01*
X66957Y8327D01*
X67026Y8374D01*
X67073Y8443D01*
X67089Y8525D01*
X67073Y8607D01*
X67026Y8676D01*
X66957Y8723D01*
X66875Y8739D01*
D02*
G37*
G36*
X66375D02*
X66293Y8723D01*
X66224Y8676D01*
X66177Y8607D01*
X66161Y8525D01*
X66177Y8443D01*
X66224Y8374D01*
X66293Y8327D01*
X66375Y8311D01*
X66457Y8327D01*
X66526Y8374D01*
X66573Y8443D01*
X66589Y8525D01*
X66573Y8607D01*
X66526Y8676D01*
X66457Y8723D01*
X66375Y8739D01*
D02*
G37*
G36*
X62425Y7239D02*
X62343Y7223D01*
X62274Y7176D01*
X62227Y7107D01*
X62211Y7025D01*
X62227Y6943D01*
X62274Y6874D01*
X62343Y6827D01*
X62425Y6811D01*
X62507Y6827D01*
X62576Y6874D01*
X62623Y6943D01*
X62639Y7025D01*
X62623Y7107D01*
X62576Y7176D01*
X62507Y7223D01*
X62425Y7239D01*
D02*
G37*
G36*
X66875Y6739D02*
X66793Y6723D01*
X66724Y6676D01*
X66677Y6607D01*
X66661Y6525D01*
X66677Y6443D01*
X66724Y6374D01*
X66793Y6327D01*
X66875Y6311D01*
X66957Y6327D01*
X67026Y6374D01*
X67073Y6443D01*
X67089Y6525D01*
X67073Y6607D01*
X67026Y6676D01*
X66957Y6723D01*
X66875Y6739D01*
D02*
G37*
G36*
X66375D02*
X66293Y6723D01*
X66224Y6676D01*
X66177Y6607D01*
X66161Y6525D01*
X66177Y6443D01*
X66224Y6374D01*
X66293Y6327D01*
X66375Y6311D01*
X66457Y6327D01*
X66526Y6374D01*
X66573Y6443D01*
X66589Y6525D01*
X66573Y6607D01*
X66526Y6676D01*
X66457Y6723D01*
X66375Y6739D01*
D02*
G37*
G36*
X64640Y6390D02*
X64548Y6371D01*
X64471Y6319D01*
X64419Y6242D01*
X64400Y6150D01*
X64419Y6058D01*
X64471Y5981D01*
X64548Y5929D01*
X64640Y5910D01*
X64732Y5929D01*
X64809Y5981D01*
X64861Y6058D01*
X64880Y6150D01*
X64861Y6242D01*
X64809Y6319D01*
X64732Y6371D01*
X64640Y6390D01*
D02*
G37*
G36*
X58280Y6222D02*
X58212Y6213D01*
X58149Y6187D01*
X58095Y6145D01*
X58053Y6091D01*
X58027Y6028D01*
X58018Y5960D01*
X58027Y5892D01*
X58053Y5829D01*
X58095Y5775D01*
X58149Y5733D01*
X58212Y5707D01*
X58280Y5698D01*
X58348Y5707D01*
X58411Y5733D01*
X58465Y5775D01*
X58507Y5829D01*
X58533Y5892D01*
X58542Y5960D01*
X58533Y6028D01*
X58507Y6091D01*
X58465Y6145D01*
X58411Y6187D01*
X58348Y6213D01*
X58280Y6222D01*
D02*
G37*
G36*
X64575Y3922D02*
Y3475D01*
X64928D01*
Y3525D01*
X64915Y3629D01*
X64874Y3727D01*
X64810Y3810D01*
X64727Y3874D01*
X64629Y3915D01*
X64575Y3922D01*
D02*
G37*
G36*
X63575D02*
Y3475D01*
X63928D01*
Y3525D01*
X63915Y3629D01*
X63874Y3727D01*
X63810Y3810D01*
X63727Y3874D01*
X63629Y3915D01*
X63575Y3922D01*
D02*
G37*
G36*
X62575D02*
Y3475D01*
X62928D01*
Y3525D01*
X62915Y3629D01*
X62874Y3727D01*
X62810Y3810D01*
X62727Y3874D01*
X62629Y3915D01*
X62575Y3922D01*
D02*
G37*
G36*
X61575D02*
Y3475D01*
X61928D01*
Y3525D01*
X61915Y3629D01*
X61874Y3727D01*
X61810Y3810D01*
X61727Y3874D01*
X61629Y3915D01*
X61575Y3922D01*
D02*
G37*
G36*
X64475D02*
X64421Y3915D01*
X64323Y3874D01*
X64240Y3810D01*
X64176Y3727D01*
X64135Y3629D01*
X64122Y3525D01*
Y3475D01*
X64475D01*
Y3922D01*
D02*
G37*
G36*
X63475D02*
X63421Y3915D01*
X63323Y3874D01*
X63240Y3810D01*
X63176Y3727D01*
X63135Y3629D01*
X63122Y3525D01*
Y3475D01*
X63475D01*
Y3922D01*
D02*
G37*
G36*
X62475D02*
X62421Y3915D01*
X62323Y3874D01*
X62240Y3810D01*
X62176Y3727D01*
X62135Y3629D01*
X62122Y3525D01*
Y3475D01*
X62475D01*
Y3922D01*
D02*
G37*
G36*
X61475D02*
X61421Y3915D01*
X61323Y3874D01*
X61240Y3810D01*
X61176Y3727D01*
X61135Y3629D01*
X61122Y3525D01*
Y3475D01*
X61475D01*
Y3922D01*
D02*
G37*
G36*
X49675Y13489D02*
X49593Y13473D01*
X49524Y13426D01*
X49477Y13357D01*
X49461Y13275D01*
X49477Y13193D01*
X49524Y13124D01*
X49593Y13077D01*
X49675Y13061D01*
X49757Y13077D01*
X49826Y13124D01*
X49873Y13193D01*
X49889Y13275D01*
X49873Y13357D01*
X49826Y13426D01*
X49757Y13473D01*
X49675Y13489D01*
D02*
G37*
G36*
X49175D02*
X49093Y13473D01*
X49024Y13426D01*
X48977Y13357D01*
X48961Y13275D01*
X48977Y13193D01*
X49024Y13124D01*
X49093Y13077D01*
X49175Y13061D01*
X49257Y13077D01*
X49326Y13124D01*
X49373Y13193D01*
X49389Y13275D01*
X49373Y13357D01*
X49326Y13426D01*
X49257Y13473D01*
X49175Y13489D01*
D02*
G37*
G36*
X48175Y13239D02*
X48093Y13223D01*
X48024Y13176D01*
X47977Y13107D01*
X47961Y13025D01*
X47977Y12943D01*
X48024Y12874D01*
X48093Y12827D01*
X48175Y12811D01*
X48257Y12827D01*
X48326Y12874D01*
X48373Y12943D01*
X48389Y13025D01*
X48373Y13107D01*
X48326Y13176D01*
X48257Y13223D01*
X48175Y13239D01*
D02*
G37*
G36*
Y12739D02*
X48093Y12723D01*
X48024Y12676D01*
X47977Y12607D01*
X47961Y12525D01*
X47977Y12443D01*
X48024Y12374D01*
X48093Y12327D01*
X48175Y12311D01*
X48257Y12327D01*
X48326Y12374D01*
X48373Y12443D01*
X48389Y12525D01*
X48373Y12607D01*
X48326Y12676D01*
X48257Y12723D01*
X48175Y12739D01*
D02*
G37*
G36*
Y12239D02*
X48093Y12223D01*
X48024Y12176D01*
X47977Y12107D01*
X47961Y12025D01*
X47977Y11943D01*
X48024Y11874D01*
X48093Y11827D01*
X48175Y11811D01*
X48257Y11827D01*
X48326Y11874D01*
X48373Y11943D01*
X48389Y12025D01*
X48373Y12107D01*
X48326Y12176D01*
X48257Y12223D01*
X48175Y12239D01*
D02*
G37*
G36*
Y11739D02*
X48093Y11723D01*
X48024Y11676D01*
X47977Y11607D01*
X47961Y11525D01*
X47977Y11443D01*
X48024Y11374D01*
X48093Y11327D01*
X48175Y11311D01*
X48257Y11327D01*
X48326Y11374D01*
X48373Y11443D01*
X48389Y11525D01*
X48373Y11607D01*
X48326Y11676D01*
X48257Y11723D01*
X48175Y11739D01*
D02*
G37*
G36*
X49675Y11489D02*
X49593Y11473D01*
X49524Y11426D01*
X49477Y11357D01*
X49461Y11275D01*
X49477Y11193D01*
X49524Y11124D01*
X49593Y11077D01*
X49675Y11061D01*
X49757Y11077D01*
X49826Y11124D01*
X49873Y11193D01*
X49889Y11275D01*
X49873Y11357D01*
X49826Y11426D01*
X49757Y11473D01*
X49675Y11489D01*
D02*
G37*
G36*
X49175D02*
X49093Y11473D01*
X49024Y11426D01*
X48977Y11357D01*
X48961Y11275D01*
X48977Y11193D01*
X49024Y11124D01*
X49093Y11077D01*
X49175Y11061D01*
X49257Y11077D01*
X49326Y11124D01*
X49373Y11193D01*
X49389Y11275D01*
X49373Y11357D01*
X49326Y11426D01*
X49257Y11473D01*
X49175Y11489D01*
D02*
G37*
G36*
X49675Y8739D02*
X49593Y8723D01*
X49524Y8676D01*
X49477Y8607D01*
X49461Y8525D01*
X49477Y8443D01*
X49524Y8374D01*
X49593Y8327D01*
X49675Y8311D01*
X49757Y8327D01*
X49826Y8374D01*
X49873Y8443D01*
X49889Y8525D01*
X49873Y8607D01*
X49826Y8676D01*
X49757Y8723D01*
X49675Y8739D01*
D02*
G37*
G36*
X49175D02*
X49093Y8723D01*
X49024Y8676D01*
X48977Y8607D01*
X48961Y8525D01*
X48977Y8443D01*
X49024Y8374D01*
X49093Y8327D01*
X49175Y8311D01*
X49257Y8327D01*
X49326Y8374D01*
X49373Y8443D01*
X49389Y8525D01*
X49373Y8607D01*
X49326Y8676D01*
X49257Y8723D01*
X49175Y8739D01*
D02*
G37*
G36*
X45225Y7239D02*
X45143Y7223D01*
X45074Y7176D01*
X45027Y7107D01*
X45011Y7025D01*
X45027Y6943D01*
X45074Y6874D01*
X45143Y6827D01*
X45225Y6811D01*
X45307Y6827D01*
X45376Y6874D01*
X45423Y6943D01*
X45439Y7025D01*
X45423Y7107D01*
X45376Y7176D01*
X45307Y7223D01*
X45225Y7239D01*
D02*
G37*
G36*
X49675Y6739D02*
X49593Y6723D01*
X49524Y6676D01*
X49477Y6607D01*
X49461Y6525D01*
X49477Y6443D01*
X49524Y6374D01*
X49593Y6327D01*
X49675Y6311D01*
X49757Y6327D01*
X49826Y6374D01*
X49873Y6443D01*
X49889Y6525D01*
X49873Y6607D01*
X49826Y6676D01*
X49757Y6723D01*
X49675Y6739D01*
D02*
G37*
G36*
X49175D02*
X49093Y6723D01*
X49024Y6676D01*
X48977Y6607D01*
X48961Y6525D01*
X48977Y6443D01*
X49024Y6374D01*
X49093Y6327D01*
X49175Y6311D01*
X49257Y6327D01*
X49326Y6374D01*
X49373Y6443D01*
X49389Y6525D01*
X49373Y6607D01*
X49326Y6676D01*
X49257Y6723D01*
X49175Y6739D01*
D02*
G37*
G36*
X47440Y6390D02*
X47348Y6371D01*
X47271Y6319D01*
X47219Y6242D01*
X47200Y6150D01*
X47219Y6058D01*
X47271Y5981D01*
X47348Y5929D01*
X47440Y5910D01*
X47532Y5929D01*
X47609Y5981D01*
X47661Y6058D01*
X47680Y6150D01*
X47661Y6242D01*
X47609Y6319D01*
X47532Y6371D01*
X47440Y6390D01*
D02*
G37*
G36*
X41080Y6222D02*
X41012Y6213D01*
X40949Y6187D01*
X40895Y6145D01*
X40853Y6091D01*
X40827Y6028D01*
X40818Y5960D01*
X40827Y5892D01*
X40853Y5829D01*
X40895Y5775D01*
X40949Y5733D01*
X41012Y5707D01*
X41080Y5698D01*
X41148Y5707D01*
X41211Y5733D01*
X41265Y5775D01*
X41307Y5829D01*
X41333Y5892D01*
X41342Y5960D01*
X41333Y6028D01*
X41307Y6091D01*
X41265Y6145D01*
X41211Y6187D01*
X41148Y6213D01*
X41080Y6222D01*
D02*
G37*
G36*
X47375Y3922D02*
Y3475D01*
X47728D01*
Y3525D01*
X47715Y3629D01*
X47674Y3727D01*
X47610Y3810D01*
X47527Y3874D01*
X47429Y3915D01*
X47375Y3922D01*
D02*
G37*
G36*
X46375D02*
Y3475D01*
X46728D01*
Y3525D01*
X46715Y3629D01*
X46674Y3727D01*
X46610Y3810D01*
X46527Y3874D01*
X46429Y3915D01*
X46375Y3922D01*
D02*
G37*
G36*
X45375D02*
Y3475D01*
X45728D01*
Y3525D01*
X45715Y3629D01*
X45674Y3727D01*
X45610Y3810D01*
X45527Y3874D01*
X45429Y3915D01*
X45375Y3922D01*
D02*
G37*
G36*
X44375D02*
Y3475D01*
X44728D01*
Y3525D01*
X44715Y3629D01*
X44674Y3727D01*
X44610Y3810D01*
X44527Y3874D01*
X44429Y3915D01*
X44375Y3922D01*
D02*
G37*
G36*
X47275D02*
X47221Y3915D01*
X47123Y3874D01*
X47040Y3810D01*
X46976Y3727D01*
X46935Y3629D01*
X46922Y3525D01*
Y3475D01*
X47275D01*
Y3922D01*
D02*
G37*
G36*
X46275D02*
X46221Y3915D01*
X46123Y3874D01*
X46040Y3810D01*
X45976Y3727D01*
X45935Y3629D01*
X45922Y3525D01*
Y3475D01*
X46275D01*
Y3922D01*
D02*
G37*
G36*
X45275D02*
X45221Y3915D01*
X45123Y3874D01*
X45040Y3810D01*
X44976Y3727D01*
X44935Y3629D01*
X44922Y3525D01*
Y3475D01*
X45275D01*
Y3922D01*
D02*
G37*
G36*
X44275D02*
X44221Y3915D01*
X44123Y3874D01*
X44040Y3810D01*
X43976Y3727D01*
X43935Y3629D01*
X43922Y3525D01*
Y3475D01*
X44275D01*
Y3922D01*
D02*
G37*
G36*
X32475Y13489D02*
X32393Y13473D01*
X32324Y13426D01*
X32277Y13357D01*
X32261Y13275D01*
X32277Y13193D01*
X32324Y13124D01*
X32393Y13077D01*
X32475Y13061D01*
X32557Y13077D01*
X32626Y13124D01*
X32673Y13193D01*
X32689Y13275D01*
X32673Y13357D01*
X32626Y13426D01*
X32557Y13473D01*
X32475Y13489D01*
D02*
G37*
G36*
X31975D02*
X31893Y13473D01*
X31824Y13426D01*
X31777Y13357D01*
X31761Y13275D01*
X31777Y13193D01*
X31824Y13124D01*
X31893Y13077D01*
X31975Y13061D01*
X32057Y13077D01*
X32126Y13124D01*
X32173Y13193D01*
X32189Y13275D01*
X32173Y13357D01*
X32126Y13426D01*
X32057Y13473D01*
X31975Y13489D01*
D02*
G37*
G36*
X30975Y13239D02*
X30893Y13223D01*
X30824Y13176D01*
X30777Y13107D01*
X30761Y13025D01*
X30777Y12943D01*
X30824Y12874D01*
X30893Y12827D01*
X30975Y12811D01*
X31057Y12827D01*
X31126Y12874D01*
X31173Y12943D01*
X31189Y13025D01*
X31173Y13107D01*
X31126Y13176D01*
X31057Y13223D01*
X30975Y13239D01*
D02*
G37*
G36*
Y12739D02*
X30893Y12723D01*
X30824Y12676D01*
X30777Y12607D01*
X30761Y12525D01*
X30777Y12443D01*
X30824Y12374D01*
X30893Y12327D01*
X30975Y12311D01*
X31057Y12327D01*
X31126Y12374D01*
X31173Y12443D01*
X31189Y12525D01*
X31173Y12607D01*
X31126Y12676D01*
X31057Y12723D01*
X30975Y12739D01*
D02*
G37*
G36*
Y12239D02*
X30893Y12223D01*
X30824Y12176D01*
X30777Y12107D01*
X30761Y12025D01*
X30777Y11943D01*
X30824Y11874D01*
X30893Y11827D01*
X30975Y11811D01*
X31057Y11827D01*
X31126Y11874D01*
X31173Y11943D01*
X31189Y12025D01*
X31173Y12107D01*
X31126Y12176D01*
X31057Y12223D01*
X30975Y12239D01*
D02*
G37*
G36*
Y11739D02*
X30893Y11723D01*
X30824Y11676D01*
X30777Y11607D01*
X30761Y11525D01*
X30777Y11443D01*
X30824Y11374D01*
X30893Y11327D01*
X30975Y11311D01*
X31057Y11327D01*
X31126Y11374D01*
X31173Y11443D01*
X31189Y11525D01*
X31173Y11607D01*
X31126Y11676D01*
X31057Y11723D01*
X30975Y11739D01*
D02*
G37*
G36*
X32475Y11489D02*
X32393Y11473D01*
X32324Y11426D01*
X32277Y11357D01*
X32261Y11275D01*
X32277Y11193D01*
X32324Y11124D01*
X32393Y11077D01*
X32475Y11061D01*
X32557Y11077D01*
X32626Y11124D01*
X32673Y11193D01*
X32689Y11275D01*
X32673Y11357D01*
X32626Y11426D01*
X32557Y11473D01*
X32475Y11489D01*
D02*
G37*
G36*
X31975D02*
X31893Y11473D01*
X31824Y11426D01*
X31777Y11357D01*
X31761Y11275D01*
X31777Y11193D01*
X31824Y11124D01*
X31893Y11077D01*
X31975Y11061D01*
X32057Y11077D01*
X32126Y11124D01*
X32173Y11193D01*
X32189Y11275D01*
X32173Y11357D01*
X32126Y11426D01*
X32057Y11473D01*
X31975Y11489D01*
D02*
G37*
G36*
X32475Y8739D02*
X32393Y8723D01*
X32324Y8676D01*
X32277Y8607D01*
X32261Y8525D01*
X32277Y8443D01*
X32324Y8374D01*
X32393Y8327D01*
X32475Y8311D01*
X32557Y8327D01*
X32626Y8374D01*
X32673Y8443D01*
X32689Y8525D01*
X32673Y8607D01*
X32626Y8676D01*
X32557Y8723D01*
X32475Y8739D01*
D02*
G37*
G36*
X31975D02*
X31893Y8723D01*
X31824Y8676D01*
X31777Y8607D01*
X31761Y8525D01*
X31777Y8443D01*
X31824Y8374D01*
X31893Y8327D01*
X31975Y8311D01*
X32057Y8327D01*
X32126Y8374D01*
X32173Y8443D01*
X32189Y8525D01*
X32173Y8607D01*
X32126Y8676D01*
X32057Y8723D01*
X31975Y8739D01*
D02*
G37*
G36*
X28025Y7239D02*
X27943Y7223D01*
X27874Y7176D01*
X27827Y7107D01*
X27811Y7025D01*
X27827Y6943D01*
X27874Y6874D01*
X27943Y6827D01*
X28025Y6811D01*
X28107Y6827D01*
X28176Y6874D01*
X28223Y6943D01*
X28239Y7025D01*
X28223Y7107D01*
X28176Y7176D01*
X28107Y7223D01*
X28025Y7239D01*
D02*
G37*
G36*
X32475Y6739D02*
X32393Y6723D01*
X32324Y6676D01*
X32277Y6607D01*
X32261Y6525D01*
X32277Y6443D01*
X32324Y6374D01*
X32393Y6327D01*
X32475Y6311D01*
X32557Y6327D01*
X32626Y6374D01*
X32673Y6443D01*
X32689Y6525D01*
X32673Y6607D01*
X32626Y6676D01*
X32557Y6723D01*
X32475Y6739D01*
D02*
G37*
G36*
X31975D02*
X31893Y6723D01*
X31824Y6676D01*
X31777Y6607D01*
X31761Y6525D01*
X31777Y6443D01*
X31824Y6374D01*
X31893Y6327D01*
X31975Y6311D01*
X32057Y6327D01*
X32126Y6374D01*
X32173Y6443D01*
X32189Y6525D01*
X32173Y6607D01*
X32126Y6676D01*
X32057Y6723D01*
X31975Y6739D01*
D02*
G37*
G36*
X30240Y6390D02*
X30148Y6371D01*
X30071Y6319D01*
X30019Y6242D01*
X30000Y6150D01*
X30019Y6058D01*
X30071Y5981D01*
X30148Y5929D01*
X30240Y5910D01*
X30332Y5929D01*
X30409Y5981D01*
X30461Y6058D01*
X30480Y6150D01*
X30461Y6242D01*
X30409Y6319D01*
X30332Y6371D01*
X30240Y6390D01*
D02*
G37*
G36*
X23880Y6222D02*
X23812Y6213D01*
X23749Y6187D01*
X23695Y6145D01*
X23653Y6091D01*
X23627Y6028D01*
X23618Y5960D01*
X23627Y5892D01*
X23653Y5829D01*
X23695Y5775D01*
X23749Y5733D01*
X23812Y5707D01*
X23880Y5698D01*
X23948Y5707D01*
X24011Y5733D01*
X24065Y5775D01*
X24107Y5829D01*
X24133Y5892D01*
X24142Y5960D01*
X24133Y6028D01*
X24107Y6091D01*
X24065Y6145D01*
X24011Y6187D01*
X23948Y6213D01*
X23880Y6222D01*
D02*
G37*
G36*
X30175Y3922D02*
Y3475D01*
X30528D01*
Y3525D01*
X30515Y3629D01*
X30474Y3727D01*
X30410Y3810D01*
X30327Y3874D01*
X30229Y3915D01*
X30175Y3922D01*
D02*
G37*
G36*
X29175D02*
Y3475D01*
X29528D01*
Y3525D01*
X29515Y3629D01*
X29474Y3727D01*
X29410Y3810D01*
X29327Y3874D01*
X29229Y3915D01*
X29175Y3922D01*
D02*
G37*
G36*
X28175D02*
Y3475D01*
X28528D01*
Y3525D01*
X28515Y3629D01*
X28474Y3727D01*
X28410Y3810D01*
X28327Y3874D01*
X28229Y3915D01*
X28175Y3922D01*
D02*
G37*
G36*
X27175D02*
Y3475D01*
X27528D01*
Y3525D01*
X27515Y3629D01*
X27474Y3727D01*
X27410Y3810D01*
X27327Y3874D01*
X27229Y3915D01*
X27175Y3922D01*
D02*
G37*
G36*
X30075D02*
X30021Y3915D01*
X29923Y3874D01*
X29840Y3810D01*
X29776Y3727D01*
X29735Y3629D01*
X29722Y3525D01*
Y3475D01*
X30075D01*
Y3922D01*
D02*
G37*
G36*
X29075D02*
X29021Y3915D01*
X28923Y3874D01*
X28840Y3810D01*
X28776Y3727D01*
X28735Y3629D01*
X28722Y3525D01*
Y3475D01*
X29075D01*
Y3922D01*
D02*
G37*
G36*
X28075D02*
X28021Y3915D01*
X27923Y3874D01*
X27840Y3810D01*
X27776Y3727D01*
X27735Y3629D01*
X27722Y3525D01*
Y3475D01*
X28075D01*
Y3922D01*
D02*
G37*
G36*
X27075D02*
X27021Y3915D01*
X26923Y3874D01*
X26840Y3810D01*
X26776Y3727D01*
X26735Y3629D01*
X26722Y3525D01*
Y3475D01*
X27075D01*
Y3922D01*
D02*
G37*
G36*
X15275Y13489D02*
X15193Y13473D01*
X15124Y13426D01*
X15077Y13357D01*
X15061Y13275D01*
X15077Y13193D01*
X15124Y13124D01*
X15193Y13077D01*
X15275Y13061D01*
X15357Y13077D01*
X15426Y13124D01*
X15473Y13193D01*
X15489Y13275D01*
X15473Y13357D01*
X15426Y13426D01*
X15357Y13473D01*
X15275Y13489D01*
D02*
G37*
G36*
X14775D02*
X14693Y13473D01*
X14624Y13426D01*
X14577Y13357D01*
X14561Y13275D01*
X14577Y13193D01*
X14624Y13124D01*
X14693Y13077D01*
X14775Y13061D01*
X14857Y13077D01*
X14926Y13124D01*
X14973Y13193D01*
X14989Y13275D01*
X14973Y13357D01*
X14926Y13426D01*
X14857Y13473D01*
X14775Y13489D01*
D02*
G37*
G36*
X13775Y13239D02*
X13693Y13223D01*
X13624Y13176D01*
X13577Y13107D01*
X13561Y13025D01*
X13577Y12943D01*
X13624Y12874D01*
X13693Y12827D01*
X13775Y12811D01*
X13857Y12827D01*
X13926Y12874D01*
X13973Y12943D01*
X13989Y13025D01*
X13973Y13107D01*
X13926Y13176D01*
X13857Y13223D01*
X13775Y13239D01*
D02*
G37*
G36*
Y12739D02*
X13693Y12723D01*
X13624Y12676D01*
X13577Y12607D01*
X13561Y12525D01*
X13577Y12443D01*
X13624Y12374D01*
X13693Y12327D01*
X13775Y12311D01*
X13857Y12327D01*
X13926Y12374D01*
X13973Y12443D01*
X13989Y12525D01*
X13973Y12607D01*
X13926Y12676D01*
X13857Y12723D01*
X13775Y12739D01*
D02*
G37*
G36*
Y12239D02*
X13693Y12223D01*
X13624Y12176D01*
X13577Y12107D01*
X13561Y12025D01*
X13577Y11943D01*
X13624Y11874D01*
X13693Y11827D01*
X13775Y11811D01*
X13857Y11827D01*
X13926Y11874D01*
X13973Y11943D01*
X13989Y12025D01*
X13973Y12107D01*
X13926Y12176D01*
X13857Y12223D01*
X13775Y12239D01*
D02*
G37*
G36*
Y11739D02*
X13693Y11723D01*
X13624Y11676D01*
X13577Y11607D01*
X13561Y11525D01*
X13577Y11443D01*
X13624Y11374D01*
X13693Y11327D01*
X13775Y11311D01*
X13857Y11327D01*
X13926Y11374D01*
X13973Y11443D01*
X13989Y11525D01*
X13973Y11607D01*
X13926Y11676D01*
X13857Y11723D01*
X13775Y11739D01*
D02*
G37*
G36*
X15275Y11489D02*
X15193Y11473D01*
X15124Y11426D01*
X15077Y11357D01*
X15061Y11275D01*
X15077Y11193D01*
X15124Y11124D01*
X15193Y11077D01*
X15275Y11061D01*
X15357Y11077D01*
X15426Y11124D01*
X15473Y11193D01*
X15489Y11275D01*
X15473Y11357D01*
X15426Y11426D01*
X15357Y11473D01*
X15275Y11489D01*
D02*
G37*
G36*
X14775D02*
X14693Y11473D01*
X14624Y11426D01*
X14577Y11357D01*
X14561Y11275D01*
X14577Y11193D01*
X14624Y11124D01*
X14693Y11077D01*
X14775Y11061D01*
X14857Y11077D01*
X14926Y11124D01*
X14973Y11193D01*
X14989Y11275D01*
X14973Y11357D01*
X14926Y11426D01*
X14857Y11473D01*
X14775Y11489D01*
D02*
G37*
G36*
X15275Y8739D02*
X15193Y8723D01*
X15124Y8676D01*
X15077Y8607D01*
X15061Y8525D01*
X15077Y8443D01*
X15124Y8374D01*
X15193Y8327D01*
X15275Y8311D01*
X15357Y8327D01*
X15426Y8374D01*
X15473Y8443D01*
X15489Y8525D01*
X15473Y8607D01*
X15426Y8676D01*
X15357Y8723D01*
X15275Y8739D01*
D02*
G37*
G36*
X14775D02*
X14693Y8723D01*
X14624Y8676D01*
X14577Y8607D01*
X14561Y8525D01*
X14577Y8443D01*
X14624Y8374D01*
X14693Y8327D01*
X14775Y8311D01*
X14857Y8327D01*
X14926Y8374D01*
X14973Y8443D01*
X14989Y8525D01*
X14973Y8607D01*
X14926Y8676D01*
X14857Y8723D01*
X14775Y8739D01*
D02*
G37*
G36*
X10825Y7239D02*
X10743Y7223D01*
X10674Y7176D01*
X10627Y7107D01*
X10611Y7025D01*
X10627Y6943D01*
X10674Y6874D01*
X10743Y6827D01*
X10825Y6811D01*
X10907Y6827D01*
X10976Y6874D01*
X11023Y6943D01*
X11039Y7025D01*
X11023Y7107D01*
X10976Y7176D01*
X10907Y7223D01*
X10825Y7239D01*
D02*
G37*
G36*
X15275Y6739D02*
X15193Y6723D01*
X15124Y6676D01*
X15077Y6607D01*
X15061Y6525D01*
X15077Y6443D01*
X15124Y6374D01*
X15193Y6327D01*
X15275Y6311D01*
X15357Y6327D01*
X15426Y6374D01*
X15473Y6443D01*
X15489Y6525D01*
X15473Y6607D01*
X15426Y6676D01*
X15357Y6723D01*
X15275Y6739D01*
D02*
G37*
G36*
X14775D02*
X14693Y6723D01*
X14624Y6676D01*
X14577Y6607D01*
X14561Y6525D01*
X14577Y6443D01*
X14624Y6374D01*
X14693Y6327D01*
X14775Y6311D01*
X14857Y6327D01*
X14926Y6374D01*
X14973Y6443D01*
X14989Y6525D01*
X14973Y6607D01*
X14926Y6676D01*
X14857Y6723D01*
X14775Y6739D01*
D02*
G37*
G36*
X13040Y6390D02*
X12948Y6371D01*
X12871Y6319D01*
X12819Y6242D01*
X12800Y6150D01*
X12819Y6058D01*
X12871Y5981D01*
X12948Y5929D01*
X13040Y5910D01*
X13132Y5929D01*
X13209Y5981D01*
X13261Y6058D01*
X13280Y6150D01*
X13261Y6242D01*
X13209Y6319D01*
X13132Y6371D01*
X13040Y6390D01*
D02*
G37*
G36*
X6680Y6222D02*
X6612Y6213D01*
X6549Y6187D01*
X6495Y6145D01*
X6453Y6091D01*
X6427Y6028D01*
X6418Y5960D01*
X6427Y5892D01*
X6453Y5829D01*
X6495Y5775D01*
X6549Y5733D01*
X6612Y5707D01*
X6680Y5698D01*
X6748Y5707D01*
X6811Y5733D01*
X6865Y5775D01*
X6907Y5829D01*
X6933Y5892D01*
X6942Y5960D01*
X6933Y6028D01*
X6907Y6091D01*
X6865Y6145D01*
X6811Y6187D01*
X6748Y6213D01*
X6680Y6222D01*
D02*
G37*
G36*
X12975Y3922D02*
Y3475D01*
X13328D01*
Y3525D01*
X13315Y3629D01*
X13274Y3727D01*
X13210Y3810D01*
X13127Y3874D01*
X13029Y3915D01*
X12975Y3922D01*
D02*
G37*
G36*
X11975D02*
Y3475D01*
X12328D01*
Y3525D01*
X12315Y3629D01*
X12274Y3727D01*
X12210Y3810D01*
X12127Y3874D01*
X12029Y3915D01*
X11975Y3922D01*
D02*
G37*
G36*
X10975D02*
Y3475D01*
X11328D01*
Y3525D01*
X11315Y3629D01*
X11274Y3727D01*
X11210Y3810D01*
X11127Y3874D01*
X11029Y3915D01*
X10975Y3922D01*
D02*
G37*
G36*
X9975D02*
Y3475D01*
X10328D01*
Y3525D01*
X10315Y3629D01*
X10274Y3727D01*
X10210Y3810D01*
X10127Y3874D01*
X10029Y3915D01*
X9975Y3922D01*
D02*
G37*
G36*
X12875D02*
X12821Y3915D01*
X12723Y3874D01*
X12640Y3810D01*
X12576Y3727D01*
X12535Y3629D01*
X12522Y3525D01*
Y3475D01*
X12875D01*
Y3922D01*
D02*
G37*
G36*
X11875D02*
X11821Y3915D01*
X11723Y3874D01*
X11640Y3810D01*
X11576Y3727D01*
X11535Y3629D01*
X11522Y3525D01*
Y3475D01*
X11875D01*
Y3922D01*
D02*
G37*
G36*
X10875D02*
X10821Y3915D01*
X10723Y3874D01*
X10640Y3810D01*
X10576Y3727D01*
X10535Y3629D01*
X10522Y3525D01*
Y3475D01*
X10875D01*
Y3922D01*
D02*
G37*
G36*
X9875D02*
X9821Y3915D01*
X9723Y3874D01*
X9640Y3810D01*
X9576Y3727D01*
X9535Y3629D01*
X9522Y3525D01*
Y3475D01*
X9875D01*
Y3922D01*
D02*
G37*
%LPD*%
D26*
X12925Y3425D02*
D03*
X11925D02*
D03*
X10925D02*
D03*
X9925D02*
D03*
X30125D02*
D03*
X29125D02*
D03*
X28125D02*
D03*
X27125D02*
D03*
X47325D02*
D03*
X46325D02*
D03*
X45325D02*
D03*
X44325D02*
D03*
X64525D02*
D03*
X63525D02*
D03*
X62525D02*
D03*
X61525D02*
D03*
X12925Y18225D02*
D03*
X11925D02*
D03*
X10925D02*
D03*
X9925D02*
D03*
X30125D02*
D03*
X29125D02*
D03*
X28125D02*
D03*
X27125D02*
D03*
X47325D02*
D03*
X46325D02*
D03*
X45325D02*
D03*
X44325D02*
D03*
X64525D02*
D03*
X63525D02*
D03*
X62525D02*
D03*
X61525D02*
D03*
X12925Y33025D02*
D03*
X11925D02*
D03*
X10925D02*
D03*
X9925D02*
D03*
X30125D02*
D03*
X29125D02*
D03*
X28125D02*
D03*
X27125D02*
D03*
X47325D02*
D03*
X46325D02*
D03*
X45325D02*
D03*
X44325D02*
D03*
X64525D02*
D03*
X63525D02*
D03*
X62525D02*
D03*
X61525D02*
D03*
X12925Y47825D02*
D03*
X11925D02*
D03*
X10925D02*
D03*
X9925D02*
D03*
X30125D02*
D03*
X29125D02*
D03*
X28125D02*
D03*
X27125D02*
D03*
X47325D02*
D03*
X46325D02*
D03*
X45325D02*
D03*
X44325D02*
D03*
X64525D02*
D03*
X63525D02*
D03*
X62525D02*
D03*
X61525D02*
D03*
D28*
X13690Y5290D02*
D03*
X5025Y9275D02*
D03*
Y10525D02*
D03*
Y7275D02*
D03*
X18525Y8525D02*
D03*
X17525D02*
D03*
Y13275D02*
D03*
X18525D02*
D03*
Y11275D02*
D03*
X17525D02*
D03*
Y6525D02*
D03*
X18525D02*
D03*
X7025Y15025D02*
D03*
Y14025D02*
D03*
X4590Y14070D02*
D03*
X30890Y5290D02*
D03*
X22225Y9275D02*
D03*
Y10525D02*
D03*
Y7275D02*
D03*
X35725Y8525D02*
D03*
X34725D02*
D03*
Y13275D02*
D03*
X35725D02*
D03*
Y11275D02*
D03*
X34725D02*
D03*
Y6525D02*
D03*
X35725D02*
D03*
X24225Y15025D02*
D03*
Y14025D02*
D03*
X21790Y14070D02*
D03*
X48090Y5290D02*
D03*
X39425Y9275D02*
D03*
Y10525D02*
D03*
Y7275D02*
D03*
X52925Y8525D02*
D03*
X51925D02*
D03*
Y13275D02*
D03*
X52925D02*
D03*
Y11275D02*
D03*
X51925D02*
D03*
Y6525D02*
D03*
X52925D02*
D03*
X41425Y15025D02*
D03*
Y14025D02*
D03*
X38990Y14070D02*
D03*
X65290Y5290D02*
D03*
X56625Y9275D02*
D03*
Y10525D02*
D03*
Y7275D02*
D03*
X70125Y8525D02*
D03*
X69125D02*
D03*
Y13275D02*
D03*
X70125D02*
D03*
Y11275D02*
D03*
X69125D02*
D03*
Y6525D02*
D03*
X70125D02*
D03*
X58625Y15025D02*
D03*
Y14025D02*
D03*
X56190Y14070D02*
D03*
X13690Y20090D02*
D03*
X5025Y24075D02*
D03*
Y25325D02*
D03*
Y22075D02*
D03*
X18525Y23325D02*
D03*
X17525D02*
D03*
Y28075D02*
D03*
X18525D02*
D03*
Y26075D02*
D03*
X17525D02*
D03*
Y21325D02*
D03*
X18525D02*
D03*
X7025Y29825D02*
D03*
Y28825D02*
D03*
X4590Y28870D02*
D03*
X30890Y20090D02*
D03*
X22225Y24075D02*
D03*
Y25325D02*
D03*
Y22075D02*
D03*
X35725Y23325D02*
D03*
X34725D02*
D03*
Y28075D02*
D03*
X35725D02*
D03*
Y26075D02*
D03*
X34725D02*
D03*
Y21325D02*
D03*
X35725D02*
D03*
X24225Y29825D02*
D03*
Y28825D02*
D03*
X21790Y28870D02*
D03*
X48090Y20090D02*
D03*
X39425Y24075D02*
D03*
Y25325D02*
D03*
Y22075D02*
D03*
X52925Y23325D02*
D03*
X51925D02*
D03*
Y28075D02*
D03*
X52925D02*
D03*
Y26075D02*
D03*
X51925D02*
D03*
Y21325D02*
D03*
X52925D02*
D03*
X41425Y29825D02*
D03*
Y28825D02*
D03*
X38990Y28870D02*
D03*
X65290Y20090D02*
D03*
X56625Y24075D02*
D03*
Y25325D02*
D03*
Y22075D02*
D03*
X70125Y23325D02*
D03*
X69125D02*
D03*
Y28075D02*
D03*
X70125D02*
D03*
Y26075D02*
D03*
X69125D02*
D03*
Y21325D02*
D03*
X70125D02*
D03*
X58625Y29825D02*
D03*
Y28825D02*
D03*
X56190Y28870D02*
D03*
X13690Y34890D02*
D03*
X5025Y38875D02*
D03*
Y40125D02*
D03*
Y36875D02*
D03*
X18525Y38125D02*
D03*
X17525D02*
D03*
Y42875D02*
D03*
X18525D02*
D03*
Y40875D02*
D03*
X17525D02*
D03*
Y36125D02*
D03*
X18525D02*
D03*
X7025Y44625D02*
D03*
Y43625D02*
D03*
X4590Y43670D02*
D03*
X30890Y34890D02*
D03*
X22225Y38875D02*
D03*
Y40125D02*
D03*
Y36875D02*
D03*
X35725Y38125D02*
D03*
X34725D02*
D03*
Y42875D02*
D03*
X35725D02*
D03*
Y40875D02*
D03*
X34725D02*
D03*
Y36125D02*
D03*
X35725D02*
D03*
X24225Y44625D02*
D03*
Y43625D02*
D03*
X21790Y43670D02*
D03*
X48090Y34890D02*
D03*
X39425Y38875D02*
D03*
Y40125D02*
D03*
Y36875D02*
D03*
X52925Y38125D02*
D03*
X51925D02*
D03*
Y42875D02*
D03*
X52925D02*
D03*
Y40875D02*
D03*
X51925D02*
D03*
Y36125D02*
D03*
X52925D02*
D03*
X41425Y44625D02*
D03*
Y43625D02*
D03*
X38990Y43670D02*
D03*
X65290Y34890D02*
D03*
X56625Y38875D02*
D03*
Y40125D02*
D03*
Y36875D02*
D03*
X70125Y38125D02*
D03*
X69125D02*
D03*
Y42875D02*
D03*
X70125D02*
D03*
Y40875D02*
D03*
X69125D02*
D03*
Y36125D02*
D03*
X70125D02*
D03*
X58625Y44625D02*
D03*
Y43625D02*
D03*
X56190Y43670D02*
D03*
X13690Y49690D02*
D03*
X5025Y53675D02*
D03*
Y54925D02*
D03*
Y51675D02*
D03*
X18525Y52925D02*
D03*
X17525D02*
D03*
Y57675D02*
D03*
X18525D02*
D03*
Y55675D02*
D03*
X17525D02*
D03*
Y50925D02*
D03*
X18525D02*
D03*
X7025Y59425D02*
D03*
Y58425D02*
D03*
X4590Y58470D02*
D03*
X30890Y49690D02*
D03*
X22225Y53675D02*
D03*
Y54925D02*
D03*
Y51675D02*
D03*
X35725Y52925D02*
D03*
X34725D02*
D03*
Y57675D02*
D03*
X35725D02*
D03*
Y55675D02*
D03*
X34725D02*
D03*
Y50925D02*
D03*
X35725D02*
D03*
X24225Y59425D02*
D03*
Y58425D02*
D03*
X21790Y58470D02*
D03*
X48090Y49690D02*
D03*
X39425Y53675D02*
D03*
Y54925D02*
D03*
Y51675D02*
D03*
X52925Y52925D02*
D03*
X51925D02*
D03*
Y57675D02*
D03*
X52925D02*
D03*
Y55675D02*
D03*
X51925D02*
D03*
Y50925D02*
D03*
X52925D02*
D03*
X41425Y59425D02*
D03*
Y58425D02*
D03*
X38990Y58470D02*
D03*
X65290Y49690D02*
D03*
X56625Y53675D02*
D03*
Y54925D02*
D03*
Y51675D02*
D03*
X70125Y52925D02*
D03*
X69125D02*
D03*
Y57675D02*
D03*
X70125D02*
D03*
Y55675D02*
D03*
X69125D02*
D03*
Y50925D02*
D03*
X70125D02*
D03*
X58625Y59425D02*
D03*
Y58425D02*
D03*
X56190Y58470D02*
D03*
D30*
X10625Y9200D02*
D03*
X11075D02*
D03*
Y9000D02*
D03*
X10925Y9200D02*
D03*
X10775D02*
D03*
X10625Y9000D02*
D03*
X10925D02*
D03*
X10775D02*
D03*
Y9425D02*
D03*
X10925D02*
D03*
X10625D02*
D03*
X10775Y9625D02*
D03*
X10925D02*
D03*
X11075Y9425D02*
D03*
Y9625D02*
D03*
X10625D02*
D03*
Y8425D02*
D03*
X11075Y10075D02*
D03*
Y10275D02*
D03*
Y8425D02*
D03*
Y8225D02*
D03*
X10575Y10275D02*
D03*
Y10075D02*
D03*
X10925D02*
D03*
X10725D02*
D03*
X10925Y10275D02*
D03*
Y8425D02*
D03*
X10775D02*
D03*
X10725Y10275D02*
D03*
X10625Y8225D02*
D03*
X10925D02*
D03*
X10775D02*
D03*
X27825Y9200D02*
D03*
X28275D02*
D03*
Y9000D02*
D03*
X28125Y9200D02*
D03*
X27975D02*
D03*
X27825Y9000D02*
D03*
X28125D02*
D03*
X27975D02*
D03*
Y9425D02*
D03*
X28125D02*
D03*
X27825D02*
D03*
X27975Y9625D02*
D03*
X28125D02*
D03*
X28275Y9425D02*
D03*
Y9625D02*
D03*
X27825D02*
D03*
Y8425D02*
D03*
X28275Y10075D02*
D03*
Y10275D02*
D03*
Y8425D02*
D03*
Y8225D02*
D03*
X27775Y10275D02*
D03*
Y10075D02*
D03*
X28125D02*
D03*
X27925D02*
D03*
X28125Y10275D02*
D03*
Y8425D02*
D03*
X27975D02*
D03*
X27925Y10275D02*
D03*
X27825Y8225D02*
D03*
X28125D02*
D03*
X27975D02*
D03*
X45025Y9200D02*
D03*
X45475D02*
D03*
Y9000D02*
D03*
X45325Y9200D02*
D03*
X45175D02*
D03*
X45025Y9000D02*
D03*
X45325D02*
D03*
X45175D02*
D03*
Y9425D02*
D03*
X45325D02*
D03*
X45025D02*
D03*
X45175Y9625D02*
D03*
X45325D02*
D03*
X45475Y9425D02*
D03*
Y9625D02*
D03*
X45025D02*
D03*
Y8425D02*
D03*
X45475Y10075D02*
D03*
Y10275D02*
D03*
Y8425D02*
D03*
Y8225D02*
D03*
X44975Y10275D02*
D03*
Y10075D02*
D03*
X45325D02*
D03*
X45125D02*
D03*
X45325Y10275D02*
D03*
Y8425D02*
D03*
X45175D02*
D03*
X45125Y10275D02*
D03*
X45025Y8225D02*
D03*
X45325D02*
D03*
X45175D02*
D03*
X62225Y9200D02*
D03*
X62675D02*
D03*
Y9000D02*
D03*
X62525Y9200D02*
D03*
X62375D02*
D03*
X62225Y9000D02*
D03*
X62525D02*
D03*
X62375D02*
D03*
Y9425D02*
D03*
X62525D02*
D03*
X62225D02*
D03*
X62375Y9625D02*
D03*
X62525D02*
D03*
X62675Y9425D02*
D03*
Y9625D02*
D03*
X62225D02*
D03*
Y8425D02*
D03*
X62675Y10075D02*
D03*
Y10275D02*
D03*
Y8425D02*
D03*
Y8225D02*
D03*
X62175Y10275D02*
D03*
Y10075D02*
D03*
X62525D02*
D03*
X62325D02*
D03*
X62525Y10275D02*
D03*
Y8425D02*
D03*
X62375D02*
D03*
X62325Y10275D02*
D03*
X62225Y8225D02*
D03*
X62525D02*
D03*
X62375D02*
D03*
X10625Y24000D02*
D03*
X11075D02*
D03*
Y23800D02*
D03*
X10925Y24000D02*
D03*
X10775D02*
D03*
X10625Y23800D02*
D03*
X10925D02*
D03*
X10775D02*
D03*
Y24225D02*
D03*
X10925D02*
D03*
X10625D02*
D03*
X10775Y24425D02*
D03*
X10925D02*
D03*
X11075Y24225D02*
D03*
Y24425D02*
D03*
X10625D02*
D03*
Y23225D02*
D03*
X11075Y24875D02*
D03*
Y25075D02*
D03*
Y23225D02*
D03*
Y23025D02*
D03*
X10575Y25075D02*
D03*
Y24875D02*
D03*
X10925D02*
D03*
X10725D02*
D03*
X10925Y25075D02*
D03*
Y23225D02*
D03*
X10775D02*
D03*
X10725Y25075D02*
D03*
X10625Y23025D02*
D03*
X10925D02*
D03*
X10775D02*
D03*
X27825Y24000D02*
D03*
X28275D02*
D03*
Y23800D02*
D03*
X28125Y24000D02*
D03*
X27975D02*
D03*
X27825Y23800D02*
D03*
X28125D02*
D03*
X27975D02*
D03*
Y24225D02*
D03*
X28125D02*
D03*
X27825D02*
D03*
X27975Y24425D02*
D03*
X28125D02*
D03*
X28275Y24225D02*
D03*
Y24425D02*
D03*
X27825D02*
D03*
Y23225D02*
D03*
X28275Y24875D02*
D03*
Y25075D02*
D03*
Y23225D02*
D03*
Y23025D02*
D03*
X27775Y25075D02*
D03*
Y24875D02*
D03*
X28125D02*
D03*
X27925D02*
D03*
X28125Y25075D02*
D03*
Y23225D02*
D03*
X27975D02*
D03*
X27925Y25075D02*
D03*
X27825Y23025D02*
D03*
X28125D02*
D03*
X27975D02*
D03*
X45025Y24000D02*
D03*
X45475D02*
D03*
Y23800D02*
D03*
X45325Y24000D02*
D03*
X45175D02*
D03*
X45025Y23800D02*
D03*
X45325D02*
D03*
X45175D02*
D03*
Y24225D02*
D03*
X45325D02*
D03*
X45025D02*
D03*
X45175Y24425D02*
D03*
X45325D02*
D03*
X45475Y24225D02*
D03*
Y24425D02*
D03*
X45025D02*
D03*
Y23225D02*
D03*
X45475Y24875D02*
D03*
Y25075D02*
D03*
Y23225D02*
D03*
Y23025D02*
D03*
X44975Y25075D02*
D03*
Y24875D02*
D03*
X45325D02*
D03*
X45125D02*
D03*
X45325Y25075D02*
D03*
Y23225D02*
D03*
X45175D02*
D03*
X45125Y25075D02*
D03*
X45025Y23025D02*
D03*
X45325D02*
D03*
X45175D02*
D03*
X62225Y24000D02*
D03*
X62675D02*
D03*
Y23800D02*
D03*
X62525Y24000D02*
D03*
X62375D02*
D03*
X62225Y23800D02*
D03*
X62525D02*
D03*
X62375D02*
D03*
Y24225D02*
D03*
X62525D02*
D03*
X62225D02*
D03*
X62375Y24425D02*
D03*
X62525D02*
D03*
X62675Y24225D02*
D03*
Y24425D02*
D03*
X62225D02*
D03*
Y23225D02*
D03*
X62675Y24875D02*
D03*
Y25075D02*
D03*
Y23225D02*
D03*
Y23025D02*
D03*
X62175Y25075D02*
D03*
Y24875D02*
D03*
X62525D02*
D03*
X62325D02*
D03*
X62525Y25075D02*
D03*
Y23225D02*
D03*
X62375D02*
D03*
X62325Y25075D02*
D03*
X62225Y23025D02*
D03*
X62525D02*
D03*
X62375D02*
D03*
X10625Y38800D02*
D03*
X11075D02*
D03*
Y38600D02*
D03*
X10925Y38800D02*
D03*
X10775D02*
D03*
X10625Y38600D02*
D03*
X10925D02*
D03*
X10775D02*
D03*
Y39025D02*
D03*
X10925D02*
D03*
X10625D02*
D03*
X10775Y39225D02*
D03*
X10925D02*
D03*
X11075Y39025D02*
D03*
Y39225D02*
D03*
X10625D02*
D03*
Y38025D02*
D03*
X11075Y39675D02*
D03*
Y39875D02*
D03*
Y38025D02*
D03*
Y37825D02*
D03*
X10575Y39875D02*
D03*
Y39675D02*
D03*
X10925D02*
D03*
X10725D02*
D03*
X10925Y39875D02*
D03*
Y38025D02*
D03*
X10775D02*
D03*
X10725Y39875D02*
D03*
X10625Y37825D02*
D03*
X10925D02*
D03*
X10775D02*
D03*
X27825Y38800D02*
D03*
X28275D02*
D03*
Y38600D02*
D03*
X28125Y38800D02*
D03*
X27975D02*
D03*
X27825Y38600D02*
D03*
X28125D02*
D03*
X27975D02*
D03*
Y39025D02*
D03*
X28125D02*
D03*
X27825D02*
D03*
X27975Y39225D02*
D03*
X28125D02*
D03*
X28275Y39025D02*
D03*
Y39225D02*
D03*
X27825D02*
D03*
Y38025D02*
D03*
X28275Y39675D02*
D03*
Y39875D02*
D03*
Y38025D02*
D03*
Y37825D02*
D03*
X27775Y39875D02*
D03*
Y39675D02*
D03*
X28125D02*
D03*
X27925D02*
D03*
X28125Y39875D02*
D03*
Y38025D02*
D03*
X27975D02*
D03*
X27925Y39875D02*
D03*
X27825Y37825D02*
D03*
X28125D02*
D03*
X27975D02*
D03*
X45025Y38800D02*
D03*
X45475D02*
D03*
Y38600D02*
D03*
X45325Y38800D02*
D03*
X45175D02*
D03*
X45025Y38600D02*
D03*
X45325D02*
D03*
X45175D02*
D03*
Y39025D02*
D03*
X45325D02*
D03*
X45025D02*
D03*
X45175Y39225D02*
D03*
X45325D02*
D03*
X45475Y39025D02*
D03*
Y39225D02*
D03*
X45025D02*
D03*
Y38025D02*
D03*
X45475Y39675D02*
D03*
Y39875D02*
D03*
Y38025D02*
D03*
Y37825D02*
D03*
X44975Y39875D02*
D03*
Y39675D02*
D03*
X45325D02*
D03*
X45125D02*
D03*
X45325Y39875D02*
D03*
Y38025D02*
D03*
X45175D02*
D03*
X45125Y39875D02*
D03*
X45025Y37825D02*
D03*
X45325D02*
D03*
X45175D02*
D03*
X62225Y38800D02*
D03*
X62675D02*
D03*
Y38600D02*
D03*
X62525Y38800D02*
D03*
X62375D02*
D03*
X62225Y38600D02*
D03*
X62525D02*
D03*
X62375D02*
D03*
Y39025D02*
D03*
X62525D02*
D03*
X62225D02*
D03*
X62375Y39225D02*
D03*
X62525D02*
D03*
X62675Y39025D02*
D03*
Y39225D02*
D03*
X62225D02*
D03*
Y38025D02*
D03*
X62675Y39675D02*
D03*
Y39875D02*
D03*
Y38025D02*
D03*
Y37825D02*
D03*
X62175Y39875D02*
D03*
Y39675D02*
D03*
X62525D02*
D03*
X62325D02*
D03*
X62525Y39875D02*
D03*
Y38025D02*
D03*
X62375D02*
D03*
X62325Y39875D02*
D03*
X62225Y37825D02*
D03*
X62525D02*
D03*
X62375D02*
D03*
X10625Y53600D02*
D03*
X11075D02*
D03*
Y53400D02*
D03*
X10925Y53600D02*
D03*
X10775D02*
D03*
X10625Y53400D02*
D03*
X10925D02*
D03*
X10775D02*
D03*
Y53825D02*
D03*
X10925D02*
D03*
X10625D02*
D03*
X10775Y54025D02*
D03*
X10925D02*
D03*
X11075Y53825D02*
D03*
Y54025D02*
D03*
X10625D02*
D03*
Y52825D02*
D03*
X11075Y54475D02*
D03*
Y54675D02*
D03*
Y52825D02*
D03*
Y52625D02*
D03*
X10575Y54675D02*
D03*
Y54475D02*
D03*
X10925D02*
D03*
X10725D02*
D03*
X10925Y54675D02*
D03*
Y52825D02*
D03*
X10775D02*
D03*
X10725Y54675D02*
D03*
X10625Y52625D02*
D03*
X10925D02*
D03*
X10775D02*
D03*
X27825Y53600D02*
D03*
X28275D02*
D03*
Y53400D02*
D03*
X28125Y53600D02*
D03*
X27975D02*
D03*
X27825Y53400D02*
D03*
X28125D02*
D03*
X27975D02*
D03*
Y53825D02*
D03*
X28125D02*
D03*
X27825D02*
D03*
X27975Y54025D02*
D03*
X28125D02*
D03*
X28275Y53825D02*
D03*
Y54025D02*
D03*
X27825D02*
D03*
Y52825D02*
D03*
X28275Y54475D02*
D03*
Y54675D02*
D03*
Y52825D02*
D03*
Y52625D02*
D03*
X27775Y54675D02*
D03*
Y54475D02*
D03*
X28125D02*
D03*
X27925D02*
D03*
X28125Y54675D02*
D03*
Y52825D02*
D03*
X27975D02*
D03*
X27925Y54675D02*
D03*
X27825Y52625D02*
D03*
X28125D02*
D03*
X27975D02*
D03*
X45025Y53600D02*
D03*
X45475D02*
D03*
Y53400D02*
D03*
X45325Y53600D02*
D03*
X45175D02*
D03*
X45025Y53400D02*
D03*
X45325D02*
D03*
X45175D02*
D03*
Y53825D02*
D03*
X45325D02*
D03*
X45025D02*
D03*
X45175Y54025D02*
D03*
X45325D02*
D03*
X45475Y53825D02*
D03*
Y54025D02*
D03*
X45025D02*
D03*
Y52825D02*
D03*
X45475Y54475D02*
D03*
Y54675D02*
D03*
Y52825D02*
D03*
Y52625D02*
D03*
X44975Y54675D02*
D03*
Y54475D02*
D03*
X45325D02*
D03*
X45125D02*
D03*
X45325Y54675D02*
D03*
Y52825D02*
D03*
X45175D02*
D03*
X45125Y54675D02*
D03*
X45025Y52625D02*
D03*
X45325D02*
D03*
X45175D02*
D03*
X62225Y53600D02*
D03*
X62675D02*
D03*
Y53400D02*
D03*
X62525Y53600D02*
D03*
X62375D02*
D03*
X62225Y53400D02*
D03*
X62525D02*
D03*
X62375D02*
D03*
Y53825D02*
D03*
X62525D02*
D03*
X62225D02*
D03*
X62375Y54025D02*
D03*
X62525D02*
D03*
X62675Y53825D02*
D03*
Y54025D02*
D03*
X62225D02*
D03*
Y52825D02*
D03*
X62675Y54475D02*
D03*
Y54675D02*
D03*
Y52825D02*
D03*
Y52625D02*
D03*
X62175Y54675D02*
D03*
Y54475D02*
D03*
X62525D02*
D03*
X62325D02*
D03*
X62525Y54675D02*
D03*
Y52825D02*
D03*
X62375D02*
D03*
X62325Y54675D02*
D03*
X62225Y52625D02*
D03*
X62525D02*
D03*
X62375D02*
D03*
M02*
