G04*
G04 #@! TF.GenerationSoftware,Altium Limited,Altium Designer,18.1.9 (240)*
G04*
G04 Layer_Color=65535*
%FSAX24Y24*%
%MOIN*%
G70*
G01*
G75*
%ADD50C,0.0010*%
D50*
X002500Y002500D02*
X019500D01*
X019500Y016100D02*
X019500Y002500D01*
X002500Y016100D02*
X002500Y002500D01*
X002500Y016100D02*
X019500D01*
X019700Y002500D02*
X036700D01*
X036700Y016100D02*
X036700Y002500D01*
X019700Y016100D02*
X019700Y002500D01*
X019700Y016100D02*
X036700D01*
X036900Y002500D02*
X053900D01*
X053900Y016100D02*
X053900Y002500D01*
X036900Y016100D02*
X036900Y002500D01*
X036900Y016100D02*
X053900D01*
X054100Y002500D02*
X071100D01*
X071100Y016100D02*
X071100Y002500D01*
X054100Y016100D02*
X054100Y002500D01*
X054100Y016100D02*
X071100D01*
X002500Y017100D02*
X019500D01*
X019500Y030700D02*
X019500Y017100D01*
X002500Y030700D02*
X002500Y017100D01*
X002500Y030700D02*
X019500D01*
X019700Y017100D02*
X036700D01*
X036700Y030700D02*
X036700Y017100D01*
X019700Y030700D02*
X019700Y017100D01*
X019700Y030700D02*
X036700D01*
X036900Y017100D02*
X053900D01*
X053900Y030700D02*
X053900Y017100D01*
X036900Y030700D02*
X036900Y017100D01*
X036900Y030700D02*
X053900D01*
X054100Y017100D02*
X071100D01*
X071100Y030700D02*
X071100Y017100D01*
X054100Y030700D02*
X054100Y017100D01*
X054100Y030700D02*
X071100D01*
X002500Y031700D02*
X019500D01*
X019500Y045300D02*
X019500Y031700D01*
X002500Y045300D02*
X002500Y031700D01*
X002500Y045300D02*
X019500D01*
X019700Y031700D02*
X036700D01*
X036700Y045300D02*
X036700Y031700D01*
X019700Y045300D02*
X019700Y031700D01*
X019700Y045300D02*
X036700D01*
X036900Y031700D02*
X053900D01*
X053900Y045300D02*
X053900Y031700D01*
X036900Y045300D02*
X036900Y031700D01*
X036900Y045300D02*
X053900D01*
X054100Y031700D02*
X071100D01*
X071100Y045300D02*
X071100Y031700D01*
X054100Y045300D02*
X054100Y031700D01*
X054100Y045300D02*
X071100D01*
X002500Y046300D02*
X019500D01*
X019500Y059900D02*
X019500Y046300D01*
X002500Y059900D02*
X002500Y046300D01*
X002500Y059900D02*
X019500D01*
X019700Y046300D02*
X036700D01*
X036700Y059900D02*
X036700Y046300D01*
X019700Y059900D02*
X019700Y046300D01*
X019700Y059900D02*
X036700D01*
X036900Y046300D02*
X053900D01*
X053900Y059900D02*
X053900Y046300D01*
X036900Y059900D02*
X036900Y046300D01*
X036900Y059900D02*
X053900D01*
X054100Y046300D02*
X071100D01*
X071100Y059900D02*
X071100Y046300D01*
X054100Y059900D02*
X054100Y046300D01*
X054100Y059900D02*
X071100D01*
M02*
